G04 #@! TF.GenerationSoftware,KiCad,Pcbnew,(5.1.9)-1*
G04 #@! TF.CreationDate,2021-01-28T15:20:20-05:00*
G04 #@! TF.ProjectId,PeltierPWMControl,50656c74-6965-4725-9057-4d436f6e7472,rev?*
G04 #@! TF.SameCoordinates,Original*
G04 #@! TF.FileFunction,Legend,Top*
G04 #@! TF.FilePolarity,Positive*
%FSLAX46Y46*%
G04 Gerber Fmt 4.6, Leading zero omitted, Abs format (unit mm)*
G04 Created by KiCad (PCBNEW (5.1.9)-1) date 2021-01-28 15:20:20*
%MOMM*%
%LPD*%
G01*
G04 APERTURE LIST*
%ADD10C,0.150000*%
%ADD11C,0.120000*%
G04 APERTURE END LIST*
D10*
X228861904Y-40457142D02*
X227338095Y-40457142D01*
X228100000Y-39695238D02*
X228100000Y-41219047D01*
X228861904Y-46014285D02*
X227338095Y-46014285D01*
X242738095Y-40485714D02*
X244261904Y-40485714D01*
X242738095Y-46042857D02*
X244261904Y-46042857D01*
X243500000Y-46804761D02*
X243500000Y-45280952D01*
X212038095Y-40485714D02*
X213561904Y-40485714D01*
X212038095Y-46042857D02*
X213561904Y-46042857D01*
X212800000Y-46804761D02*
X212800000Y-45280952D01*
X181261904Y-40357142D02*
X179738095Y-40357142D01*
X180500000Y-39595238D02*
X180500000Y-41119047D01*
X181261904Y-45914285D02*
X179738095Y-45914285D01*
X194738095Y-46042857D02*
X196261904Y-46042857D01*
X195500000Y-46804761D02*
X195500000Y-45280952D01*
X194738095Y-40485714D02*
X196261904Y-40485714D01*
X164338095Y-46042857D02*
X165861904Y-46042857D01*
X165100000Y-46804761D02*
X165100000Y-45280952D01*
X164338095Y-40485714D02*
X165861904Y-40485714D01*
X147338095Y-46042857D02*
X148861904Y-46042857D01*
X148100000Y-46804761D02*
X148100000Y-45280952D01*
X147338095Y-40485714D02*
X148861904Y-40485714D01*
X133461904Y-40557142D02*
X131938095Y-40557142D01*
X132700000Y-39795238D02*
X132700000Y-41319047D01*
X133461904Y-46114285D02*
X131938095Y-46114285D01*
X116738095Y-46042857D02*
X118261904Y-46042857D01*
X117500000Y-46804761D02*
X117500000Y-45280952D01*
X116738095Y-40485714D02*
X118261904Y-40485714D01*
X100738095Y-40485714D02*
X102261904Y-40485714D01*
X100738095Y-46042857D02*
X102261904Y-46042857D01*
X101500000Y-46804761D02*
X101500000Y-45280952D01*
X86961904Y-46114285D02*
X85438095Y-46114285D01*
X86961904Y-40557142D02*
X85438095Y-40557142D01*
X86200000Y-39795238D02*
X86200000Y-41319047D01*
D11*
X227300000Y-74600000D02*
X227300000Y-78200000D01*
X227300000Y-78200000D02*
X233100000Y-78200000D01*
X233100000Y-74600000D02*
X227300000Y-74600000D01*
X239000000Y-78200000D02*
X239000000Y-74600000D01*
X227300000Y-76400000D02*
X239000000Y-76400000D01*
X233100000Y-74700000D02*
X233100000Y-78200000D01*
X233100000Y-78200000D02*
X239000000Y-78200000D01*
X233100000Y-74600000D02*
X233100000Y-74700000D01*
X239000000Y-74600000D02*
X233100000Y-74600000D01*
D10*
X234085714Y-77704761D02*
X234257142Y-77752380D01*
X234542857Y-77752380D01*
X234657142Y-77704761D01*
X234714285Y-77657142D01*
X234771428Y-77561904D01*
X234771428Y-77466666D01*
X234714285Y-77371428D01*
X234657142Y-77323809D01*
X234542857Y-77276190D01*
X234314285Y-77228571D01*
X234200000Y-77180952D01*
X234142857Y-77133333D01*
X234085714Y-77038095D01*
X234085714Y-76942857D01*
X234142857Y-76847619D01*
X234200000Y-76800000D01*
X234314285Y-76752380D01*
X234600000Y-76752380D01*
X234771428Y-76800000D01*
X235971428Y-77752380D02*
X235571428Y-77276190D01*
X235285714Y-77752380D02*
X235285714Y-76752380D01*
X235742857Y-76752380D01*
X235857142Y-76800000D01*
X235914285Y-76847619D01*
X235971428Y-76942857D01*
X235971428Y-77085714D01*
X235914285Y-77180952D01*
X235857142Y-77228571D01*
X235742857Y-77276190D01*
X235285714Y-77276190D01*
X237171428Y-77657142D02*
X237114285Y-77704761D01*
X236942857Y-77752380D01*
X236828571Y-77752380D01*
X236657142Y-77704761D01*
X236542857Y-77609523D01*
X236485714Y-77514285D01*
X236428571Y-77323809D01*
X236428571Y-77180952D01*
X236485714Y-76990476D01*
X236542857Y-76895238D01*
X236657142Y-76800000D01*
X236828571Y-76752380D01*
X236942857Y-76752380D01*
X237114285Y-76800000D01*
X237171428Y-76847619D01*
X238200000Y-77085714D02*
X238200000Y-77752380D01*
X237914285Y-76704761D02*
X237628571Y-77419047D01*
X238371428Y-77419047D01*
X227757142Y-77704761D02*
X227928571Y-77752380D01*
X228214285Y-77752380D01*
X228328571Y-77704761D01*
X228385714Y-77657142D01*
X228442857Y-77561904D01*
X228442857Y-77466666D01*
X228385714Y-77371428D01*
X228328571Y-77323809D01*
X228214285Y-77276190D01*
X227985714Y-77228571D01*
X227871428Y-77180952D01*
X227814285Y-77133333D01*
X227757142Y-77038095D01*
X227757142Y-76942857D01*
X227814285Y-76847619D01*
X227871428Y-76800000D01*
X227985714Y-76752380D01*
X228271428Y-76752380D01*
X228442857Y-76800000D01*
X229471428Y-77085714D02*
X229471428Y-77752380D01*
X229185714Y-76704761D02*
X228900000Y-77419047D01*
X229642857Y-77419047D01*
X229814285Y-77847619D02*
X230728571Y-77847619D01*
X231700000Y-77657142D02*
X231642857Y-77704761D01*
X231471428Y-77752380D01*
X231357142Y-77752380D01*
X231185714Y-77704761D01*
X231071428Y-77609523D01*
X231014285Y-77514285D01*
X230957142Y-77323809D01*
X230957142Y-77180952D01*
X231014285Y-76990476D01*
X231071428Y-76895238D01*
X231185714Y-76800000D01*
X231357142Y-76752380D01*
X231471428Y-76752380D01*
X231642857Y-76800000D01*
X231700000Y-76847619D01*
X232842857Y-77752380D02*
X232157142Y-77752380D01*
X232500000Y-77752380D02*
X232500000Y-76752380D01*
X232385714Y-76895238D01*
X232271428Y-76990476D01*
X232157142Y-77038095D01*
X229285714Y-75100000D02*
X229171428Y-75052380D01*
X229000000Y-75052380D01*
X228828571Y-75100000D01*
X228714285Y-75195238D01*
X228657142Y-75290476D01*
X228600000Y-75480952D01*
X228600000Y-75623809D01*
X228657142Y-75814285D01*
X228714285Y-75909523D01*
X228828571Y-76004761D01*
X229000000Y-76052380D01*
X229114285Y-76052380D01*
X229285714Y-76004761D01*
X229342857Y-75957142D01*
X229342857Y-75623809D01*
X229114285Y-75623809D01*
X229857142Y-76052380D02*
X229857142Y-75052380D01*
X230542857Y-76052380D01*
X230542857Y-75052380D01*
X231114285Y-76052380D02*
X231114285Y-75052380D01*
X231400000Y-75052380D01*
X231571428Y-75100000D01*
X231685714Y-75195238D01*
X231742857Y-75290476D01*
X231800000Y-75480952D01*
X231800000Y-75623809D01*
X231742857Y-75814285D01*
X231685714Y-75909523D01*
X231571428Y-76004761D01*
X231400000Y-76052380D01*
X231114285Y-76052380D01*
X233557142Y-76004761D02*
X233728571Y-76052380D01*
X234014285Y-76052380D01*
X234128571Y-76004761D01*
X234185714Y-75957142D01*
X234242857Y-75861904D01*
X234242857Y-75766666D01*
X234185714Y-75671428D01*
X234128571Y-75623809D01*
X234014285Y-75576190D01*
X233785714Y-75528571D01*
X233671428Y-75480952D01*
X233614285Y-75433333D01*
X233557142Y-75338095D01*
X233557142Y-75242857D01*
X233614285Y-75147619D01*
X233671428Y-75100000D01*
X233785714Y-75052380D01*
X234071428Y-75052380D01*
X234242857Y-75100000D01*
X235271428Y-75385714D02*
X235271428Y-76052380D01*
X234985714Y-75004761D02*
X234700000Y-75719047D01*
X235442857Y-75719047D01*
X235614285Y-76147619D02*
X236528571Y-76147619D01*
X237500000Y-75957142D02*
X237442857Y-76004761D01*
X237271428Y-76052380D01*
X237157142Y-76052380D01*
X236985714Y-76004761D01*
X236871428Y-75909523D01*
X236814285Y-75814285D01*
X236757142Y-75623809D01*
X236757142Y-75480952D01*
X236814285Y-75290476D01*
X236871428Y-75195238D01*
X236985714Y-75100000D01*
X237157142Y-75052380D01*
X237271428Y-75052380D01*
X237442857Y-75100000D01*
X237500000Y-75147619D01*
X237957142Y-75147619D02*
X238014285Y-75100000D01*
X238128571Y-75052380D01*
X238414285Y-75052380D01*
X238528571Y-75100000D01*
X238585714Y-75147619D01*
X238642857Y-75242857D01*
X238642857Y-75338095D01*
X238585714Y-75480952D01*
X237900000Y-76052380D01*
X238642857Y-76052380D01*
D11*
X186600000Y-74800000D02*
X186600000Y-78300000D01*
X186600000Y-74700000D02*
X180800000Y-74700000D01*
X180800000Y-76500000D02*
X192500000Y-76500000D01*
X186600000Y-78300000D02*
X192500000Y-78300000D01*
X186600000Y-74700000D02*
X186600000Y-74800000D01*
X192500000Y-78300000D02*
X192500000Y-74700000D01*
X180800000Y-74700000D02*
X180800000Y-78300000D01*
X192500000Y-74700000D02*
X186600000Y-74700000D01*
X180800000Y-78300000D02*
X186600000Y-78300000D01*
D10*
X182785714Y-75200000D02*
X182671428Y-75152380D01*
X182500000Y-75152380D01*
X182328571Y-75200000D01*
X182214285Y-75295238D01*
X182157142Y-75390476D01*
X182100000Y-75580952D01*
X182100000Y-75723809D01*
X182157142Y-75914285D01*
X182214285Y-76009523D01*
X182328571Y-76104761D01*
X182500000Y-76152380D01*
X182614285Y-76152380D01*
X182785714Y-76104761D01*
X182842857Y-76057142D01*
X182842857Y-75723809D01*
X182614285Y-75723809D01*
X183357142Y-76152380D02*
X183357142Y-75152380D01*
X184042857Y-76152380D01*
X184042857Y-75152380D01*
X184614285Y-76152380D02*
X184614285Y-75152380D01*
X184900000Y-75152380D01*
X185071428Y-75200000D01*
X185185714Y-75295238D01*
X185242857Y-75390476D01*
X185300000Y-75580952D01*
X185300000Y-75723809D01*
X185242857Y-75914285D01*
X185185714Y-76009523D01*
X185071428Y-76104761D01*
X184900000Y-76152380D01*
X184614285Y-76152380D01*
X181257142Y-77804761D02*
X181428571Y-77852380D01*
X181714285Y-77852380D01*
X181828571Y-77804761D01*
X181885714Y-77757142D01*
X181942857Y-77661904D01*
X181942857Y-77566666D01*
X181885714Y-77471428D01*
X181828571Y-77423809D01*
X181714285Y-77376190D01*
X181485714Y-77328571D01*
X181371428Y-77280952D01*
X181314285Y-77233333D01*
X181257142Y-77138095D01*
X181257142Y-77042857D01*
X181314285Y-76947619D01*
X181371428Y-76900000D01*
X181485714Y-76852380D01*
X181771428Y-76852380D01*
X181942857Y-76900000D01*
X182342857Y-76852380D02*
X183085714Y-76852380D01*
X182685714Y-77233333D01*
X182857142Y-77233333D01*
X182971428Y-77280952D01*
X183028571Y-77328571D01*
X183085714Y-77423809D01*
X183085714Y-77661904D01*
X183028571Y-77757142D01*
X182971428Y-77804761D01*
X182857142Y-77852380D01*
X182514285Y-77852380D01*
X182400000Y-77804761D01*
X182342857Y-77757142D01*
X183314285Y-77947619D02*
X184228571Y-77947619D01*
X185200000Y-77757142D02*
X185142857Y-77804761D01*
X184971428Y-77852380D01*
X184857142Y-77852380D01*
X184685714Y-77804761D01*
X184571428Y-77709523D01*
X184514285Y-77614285D01*
X184457142Y-77423809D01*
X184457142Y-77280952D01*
X184514285Y-77090476D01*
X184571428Y-76995238D01*
X184685714Y-76900000D01*
X184857142Y-76852380D01*
X184971428Y-76852380D01*
X185142857Y-76900000D01*
X185200000Y-76947619D01*
X186342857Y-77852380D02*
X185657142Y-77852380D01*
X186000000Y-77852380D02*
X186000000Y-76852380D01*
X185885714Y-76995238D01*
X185771428Y-77090476D01*
X185657142Y-77138095D01*
X187057142Y-76104761D02*
X187228571Y-76152380D01*
X187514285Y-76152380D01*
X187628571Y-76104761D01*
X187685714Y-76057142D01*
X187742857Y-75961904D01*
X187742857Y-75866666D01*
X187685714Y-75771428D01*
X187628571Y-75723809D01*
X187514285Y-75676190D01*
X187285714Y-75628571D01*
X187171428Y-75580952D01*
X187114285Y-75533333D01*
X187057142Y-75438095D01*
X187057142Y-75342857D01*
X187114285Y-75247619D01*
X187171428Y-75200000D01*
X187285714Y-75152380D01*
X187571428Y-75152380D01*
X187742857Y-75200000D01*
X188142857Y-75152380D02*
X188885714Y-75152380D01*
X188485714Y-75533333D01*
X188657142Y-75533333D01*
X188771428Y-75580952D01*
X188828571Y-75628571D01*
X188885714Y-75723809D01*
X188885714Y-75961904D01*
X188828571Y-76057142D01*
X188771428Y-76104761D01*
X188657142Y-76152380D01*
X188314285Y-76152380D01*
X188200000Y-76104761D01*
X188142857Y-76057142D01*
X189114285Y-76247619D02*
X190028571Y-76247619D01*
X191000000Y-76057142D02*
X190942857Y-76104761D01*
X190771428Y-76152380D01*
X190657142Y-76152380D01*
X190485714Y-76104761D01*
X190371428Y-76009523D01*
X190314285Y-75914285D01*
X190257142Y-75723809D01*
X190257142Y-75580952D01*
X190314285Y-75390476D01*
X190371428Y-75295238D01*
X190485714Y-75200000D01*
X190657142Y-75152380D01*
X190771428Y-75152380D01*
X190942857Y-75200000D01*
X191000000Y-75247619D01*
X191457142Y-75247619D02*
X191514285Y-75200000D01*
X191628571Y-75152380D01*
X191914285Y-75152380D01*
X192028571Y-75200000D01*
X192085714Y-75247619D01*
X192142857Y-75342857D01*
X192142857Y-75438095D01*
X192085714Y-75580952D01*
X191400000Y-76152380D01*
X192142857Y-76152380D01*
X187585714Y-77804761D02*
X187757142Y-77852380D01*
X188042857Y-77852380D01*
X188157142Y-77804761D01*
X188214285Y-77757142D01*
X188271428Y-77661904D01*
X188271428Y-77566666D01*
X188214285Y-77471428D01*
X188157142Y-77423809D01*
X188042857Y-77376190D01*
X187814285Y-77328571D01*
X187700000Y-77280952D01*
X187642857Y-77233333D01*
X187585714Y-77138095D01*
X187585714Y-77042857D01*
X187642857Y-76947619D01*
X187700000Y-76900000D01*
X187814285Y-76852380D01*
X188100000Y-76852380D01*
X188271428Y-76900000D01*
X189471428Y-77852380D02*
X189071428Y-77376190D01*
X188785714Y-77852380D02*
X188785714Y-76852380D01*
X189242857Y-76852380D01*
X189357142Y-76900000D01*
X189414285Y-76947619D01*
X189471428Y-77042857D01*
X189471428Y-77185714D01*
X189414285Y-77280952D01*
X189357142Y-77328571D01*
X189242857Y-77376190D01*
X188785714Y-77376190D01*
X190671428Y-77757142D02*
X190614285Y-77804761D01*
X190442857Y-77852380D01*
X190328571Y-77852380D01*
X190157142Y-77804761D01*
X190042857Y-77709523D01*
X189985714Y-77614285D01*
X189928571Y-77423809D01*
X189928571Y-77280952D01*
X189985714Y-77090476D01*
X190042857Y-76995238D01*
X190157142Y-76900000D01*
X190328571Y-76852380D01*
X190442857Y-76852380D01*
X190614285Y-76900000D01*
X190671428Y-76947619D01*
X191071428Y-76852380D02*
X191814285Y-76852380D01*
X191414285Y-77233333D01*
X191585714Y-77233333D01*
X191700000Y-77280952D01*
X191757142Y-77328571D01*
X191814285Y-77423809D01*
X191814285Y-77661904D01*
X191757142Y-77757142D01*
X191700000Y-77804761D01*
X191585714Y-77852380D01*
X191242857Y-77852380D01*
X191128571Y-77804761D01*
X191071428Y-77757142D01*
D11*
X138500000Y-74800000D02*
X132700000Y-74800000D01*
X132700000Y-76600000D02*
X144400000Y-76600000D01*
X144400000Y-78400000D02*
X144400000Y-74800000D01*
X132700000Y-74800000D02*
X132700000Y-78400000D01*
X138500000Y-74800000D02*
X138500000Y-74900000D01*
X138500000Y-78400000D02*
X144400000Y-78400000D01*
X138500000Y-74900000D02*
X138500000Y-78400000D01*
X144400000Y-74800000D02*
X138500000Y-74800000D01*
X132700000Y-78400000D02*
X138500000Y-78400000D01*
D10*
X139485714Y-77904761D02*
X139657142Y-77952380D01*
X139942857Y-77952380D01*
X140057142Y-77904761D01*
X140114285Y-77857142D01*
X140171428Y-77761904D01*
X140171428Y-77666666D01*
X140114285Y-77571428D01*
X140057142Y-77523809D01*
X139942857Y-77476190D01*
X139714285Y-77428571D01*
X139600000Y-77380952D01*
X139542857Y-77333333D01*
X139485714Y-77238095D01*
X139485714Y-77142857D01*
X139542857Y-77047619D01*
X139600000Y-77000000D01*
X139714285Y-76952380D01*
X140000000Y-76952380D01*
X140171428Y-77000000D01*
X141371428Y-77952380D02*
X140971428Y-77476190D01*
X140685714Y-77952380D02*
X140685714Y-76952380D01*
X141142857Y-76952380D01*
X141257142Y-77000000D01*
X141314285Y-77047619D01*
X141371428Y-77142857D01*
X141371428Y-77285714D01*
X141314285Y-77380952D01*
X141257142Y-77428571D01*
X141142857Y-77476190D01*
X140685714Y-77476190D01*
X142571428Y-77857142D02*
X142514285Y-77904761D01*
X142342857Y-77952380D01*
X142228571Y-77952380D01*
X142057142Y-77904761D01*
X141942857Y-77809523D01*
X141885714Y-77714285D01*
X141828571Y-77523809D01*
X141828571Y-77380952D01*
X141885714Y-77190476D01*
X141942857Y-77095238D01*
X142057142Y-77000000D01*
X142228571Y-76952380D01*
X142342857Y-76952380D01*
X142514285Y-77000000D01*
X142571428Y-77047619D01*
X143028571Y-77047619D02*
X143085714Y-77000000D01*
X143200000Y-76952380D01*
X143485714Y-76952380D01*
X143600000Y-77000000D01*
X143657142Y-77047619D01*
X143714285Y-77142857D01*
X143714285Y-77238095D01*
X143657142Y-77380952D01*
X142971428Y-77952380D01*
X143714285Y-77952380D01*
X134685714Y-75300000D02*
X134571428Y-75252380D01*
X134400000Y-75252380D01*
X134228571Y-75300000D01*
X134114285Y-75395238D01*
X134057142Y-75490476D01*
X134000000Y-75680952D01*
X134000000Y-75823809D01*
X134057142Y-76014285D01*
X134114285Y-76109523D01*
X134228571Y-76204761D01*
X134400000Y-76252380D01*
X134514285Y-76252380D01*
X134685714Y-76204761D01*
X134742857Y-76157142D01*
X134742857Y-75823809D01*
X134514285Y-75823809D01*
X135257142Y-76252380D02*
X135257142Y-75252380D01*
X135942857Y-76252380D01*
X135942857Y-75252380D01*
X136514285Y-76252380D02*
X136514285Y-75252380D01*
X136800000Y-75252380D01*
X136971428Y-75300000D01*
X137085714Y-75395238D01*
X137142857Y-75490476D01*
X137200000Y-75680952D01*
X137200000Y-75823809D01*
X137142857Y-76014285D01*
X137085714Y-76109523D01*
X136971428Y-76204761D01*
X136800000Y-76252380D01*
X136514285Y-76252380D01*
X138957142Y-76204761D02*
X139128571Y-76252380D01*
X139414285Y-76252380D01*
X139528571Y-76204761D01*
X139585714Y-76157142D01*
X139642857Y-76061904D01*
X139642857Y-75966666D01*
X139585714Y-75871428D01*
X139528571Y-75823809D01*
X139414285Y-75776190D01*
X139185714Y-75728571D01*
X139071428Y-75680952D01*
X139014285Y-75633333D01*
X138957142Y-75538095D01*
X138957142Y-75442857D01*
X139014285Y-75347619D01*
X139071428Y-75300000D01*
X139185714Y-75252380D01*
X139471428Y-75252380D01*
X139642857Y-75300000D01*
X140100000Y-75347619D02*
X140157142Y-75300000D01*
X140271428Y-75252380D01*
X140557142Y-75252380D01*
X140671428Y-75300000D01*
X140728571Y-75347619D01*
X140785714Y-75442857D01*
X140785714Y-75538095D01*
X140728571Y-75680952D01*
X140042857Y-76252380D01*
X140785714Y-76252380D01*
X141014285Y-76347619D02*
X141928571Y-76347619D01*
X142900000Y-76157142D02*
X142842857Y-76204761D01*
X142671428Y-76252380D01*
X142557142Y-76252380D01*
X142385714Y-76204761D01*
X142271428Y-76109523D01*
X142214285Y-76014285D01*
X142157142Y-75823809D01*
X142157142Y-75680952D01*
X142214285Y-75490476D01*
X142271428Y-75395238D01*
X142385714Y-75300000D01*
X142557142Y-75252380D01*
X142671428Y-75252380D01*
X142842857Y-75300000D01*
X142900000Y-75347619D01*
X143357142Y-75347619D02*
X143414285Y-75300000D01*
X143528571Y-75252380D01*
X143814285Y-75252380D01*
X143928571Y-75300000D01*
X143985714Y-75347619D01*
X144042857Y-75442857D01*
X144042857Y-75538095D01*
X143985714Y-75680952D01*
X143300000Y-76252380D01*
X144042857Y-76252380D01*
X133157142Y-77904761D02*
X133328571Y-77952380D01*
X133614285Y-77952380D01*
X133728571Y-77904761D01*
X133785714Y-77857142D01*
X133842857Y-77761904D01*
X133842857Y-77666666D01*
X133785714Y-77571428D01*
X133728571Y-77523809D01*
X133614285Y-77476190D01*
X133385714Y-77428571D01*
X133271428Y-77380952D01*
X133214285Y-77333333D01*
X133157142Y-77238095D01*
X133157142Y-77142857D01*
X133214285Y-77047619D01*
X133271428Y-77000000D01*
X133385714Y-76952380D01*
X133671428Y-76952380D01*
X133842857Y-77000000D01*
X134300000Y-77047619D02*
X134357142Y-77000000D01*
X134471428Y-76952380D01*
X134757142Y-76952380D01*
X134871428Y-77000000D01*
X134928571Y-77047619D01*
X134985714Y-77142857D01*
X134985714Y-77238095D01*
X134928571Y-77380952D01*
X134242857Y-77952380D01*
X134985714Y-77952380D01*
X135214285Y-78047619D02*
X136128571Y-78047619D01*
X137100000Y-77857142D02*
X137042857Y-77904761D01*
X136871428Y-77952380D01*
X136757142Y-77952380D01*
X136585714Y-77904761D01*
X136471428Y-77809523D01*
X136414285Y-77714285D01*
X136357142Y-77523809D01*
X136357142Y-77380952D01*
X136414285Y-77190476D01*
X136471428Y-77095238D01*
X136585714Y-77000000D01*
X136757142Y-76952380D01*
X136871428Y-76952380D01*
X137042857Y-77000000D01*
X137100000Y-77047619D01*
X138242857Y-77952380D02*
X137557142Y-77952380D01*
X137900000Y-77952380D02*
X137900000Y-76952380D01*
X137785714Y-77095238D01*
X137671428Y-77190476D01*
X137557142Y-77238095D01*
D11*
X85800000Y-76700000D02*
X97500000Y-76700000D01*
X85800000Y-78500000D02*
X91600000Y-78500000D01*
X85800000Y-74900000D02*
X85800000Y-78500000D01*
X91600000Y-74900000D02*
X85800000Y-74900000D01*
X91600000Y-74900000D02*
X91600000Y-75000000D01*
X97500000Y-74900000D02*
X91600000Y-74900000D01*
X97500000Y-78500000D02*
X97500000Y-74900000D01*
X91600000Y-78500000D02*
X97500000Y-78500000D01*
X91600000Y-75000000D02*
X91600000Y-78500000D01*
D10*
X238652380Y-40571428D02*
X238652380Y-41257142D01*
X238652380Y-40914285D02*
X237652380Y-40914285D01*
X237795238Y-41028571D01*
X237890476Y-41142857D01*
X237938095Y-41257142D01*
X237747619Y-40114285D02*
X237700000Y-40057142D01*
X237652380Y-39942857D01*
X237652380Y-39657142D01*
X237700000Y-39542857D01*
X237747619Y-39485714D01*
X237842857Y-39428571D01*
X237938095Y-39428571D01*
X238080952Y-39485714D01*
X238652380Y-40171428D01*
X238652380Y-39428571D01*
X237652380Y-39085714D02*
X238652380Y-38685714D01*
X237652380Y-38285714D01*
X238604761Y-37028571D02*
X238652380Y-36857142D01*
X238652380Y-36571428D01*
X238604761Y-36457142D01*
X238557142Y-36400000D01*
X238461904Y-36342857D01*
X238366666Y-36342857D01*
X238271428Y-36400000D01*
X238223809Y-36457142D01*
X238176190Y-36571428D01*
X238128571Y-36800000D01*
X238080952Y-36914285D01*
X238033333Y-36971428D01*
X237938095Y-37028571D01*
X237842857Y-37028571D01*
X237747619Y-36971428D01*
X237700000Y-36914285D01*
X237652380Y-36800000D01*
X237652380Y-36514285D01*
X237700000Y-36342857D01*
X237652380Y-35600000D02*
X237652380Y-35371428D01*
X237700000Y-35257142D01*
X237795238Y-35142857D01*
X237985714Y-35085714D01*
X238319047Y-35085714D01*
X238509523Y-35142857D01*
X238604761Y-35257142D01*
X238652380Y-35371428D01*
X238652380Y-35600000D01*
X238604761Y-35714285D01*
X238509523Y-35828571D01*
X238319047Y-35885714D01*
X237985714Y-35885714D01*
X237795238Y-35828571D01*
X237700000Y-35714285D01*
X237652380Y-35600000D01*
X237652380Y-34571428D02*
X238461904Y-34571428D01*
X238557142Y-34514285D01*
X238604761Y-34457142D01*
X238652380Y-34342857D01*
X238652380Y-34114285D01*
X238604761Y-34000000D01*
X238557142Y-33942857D01*
X238461904Y-33885714D01*
X237652380Y-33885714D01*
X238652380Y-32628571D02*
X238176190Y-33028571D01*
X238652380Y-33314285D02*
X237652380Y-33314285D01*
X237652380Y-32857142D01*
X237700000Y-32742857D01*
X237747619Y-32685714D01*
X237842857Y-32628571D01*
X237985714Y-32628571D01*
X238080952Y-32685714D01*
X238128571Y-32742857D01*
X238176190Y-32857142D01*
X238176190Y-33314285D01*
X238557142Y-31428571D02*
X238604761Y-31485714D01*
X238652380Y-31657142D01*
X238652380Y-31771428D01*
X238604761Y-31942857D01*
X238509523Y-32057142D01*
X238414285Y-32114285D01*
X238223809Y-32171428D01*
X238080952Y-32171428D01*
X237890476Y-32114285D01*
X237795238Y-32057142D01*
X237700000Y-31942857D01*
X237652380Y-31771428D01*
X237652380Y-31657142D01*
X237700000Y-31485714D01*
X237747619Y-31428571D01*
X238128571Y-30914285D02*
X238128571Y-30514285D01*
X238652380Y-30342857D02*
X238652380Y-30914285D01*
X237652380Y-30914285D01*
X237652380Y-30342857D01*
X253552380Y-39257142D02*
X252552380Y-39257142D01*
X252552380Y-38800000D01*
X252600000Y-38685714D01*
X252647619Y-38628571D01*
X252742857Y-38571428D01*
X252885714Y-38571428D01*
X252980952Y-38628571D01*
X253028571Y-38685714D01*
X253076190Y-38800000D01*
X253076190Y-39257142D01*
X253028571Y-38057142D02*
X253028571Y-37657142D01*
X253552380Y-37485714D02*
X253552380Y-38057142D01*
X252552380Y-38057142D01*
X252552380Y-37485714D01*
X253552380Y-36400000D02*
X253552380Y-36971428D01*
X252552380Y-36971428D01*
X252552380Y-36171428D02*
X252552380Y-35485714D01*
X253552380Y-35828571D02*
X252552380Y-35828571D01*
X253552380Y-35085714D02*
X252552380Y-35085714D01*
X253028571Y-34514285D02*
X253028571Y-34114285D01*
X253552380Y-33942857D02*
X253552380Y-34514285D01*
X252552380Y-34514285D01*
X252552380Y-33942857D01*
X253552380Y-32742857D02*
X253076190Y-33142857D01*
X253552380Y-33428571D02*
X252552380Y-33428571D01*
X252552380Y-32971428D01*
X252600000Y-32857142D01*
X252647619Y-32800000D01*
X252742857Y-32742857D01*
X252885714Y-32742857D01*
X252980952Y-32800000D01*
X253028571Y-32857142D01*
X253076190Y-32971428D01*
X253076190Y-33428571D01*
X252980952Y-31142857D02*
X252933333Y-31257142D01*
X252885714Y-31314285D01*
X252790476Y-31371428D01*
X252742857Y-31371428D01*
X252647619Y-31314285D01*
X252600000Y-31257142D01*
X252552380Y-31142857D01*
X252552380Y-30914285D01*
X252600000Y-30800000D01*
X252647619Y-30742857D01*
X252742857Y-30685714D01*
X252790476Y-30685714D01*
X252885714Y-30742857D01*
X252933333Y-30800000D01*
X252980952Y-30914285D01*
X252980952Y-31142857D01*
X253028571Y-31257142D01*
X253076190Y-31314285D01*
X253171428Y-31371428D01*
X253361904Y-31371428D01*
X253457142Y-31314285D01*
X253504761Y-31257142D01*
X253552380Y-31142857D01*
X253552380Y-30914285D01*
X253504761Y-30800000D01*
X253457142Y-30742857D01*
X253361904Y-30685714D01*
X253171428Y-30685714D01*
X253076190Y-30742857D01*
X253028571Y-30800000D01*
X252980952Y-30914285D01*
X223152380Y-39257142D02*
X222152380Y-39257142D01*
X222152380Y-38800000D01*
X222200000Y-38685714D01*
X222247619Y-38628571D01*
X222342857Y-38571428D01*
X222485714Y-38571428D01*
X222580952Y-38628571D01*
X222628571Y-38685714D01*
X222676190Y-38800000D01*
X222676190Y-39257142D01*
X222628571Y-38057142D02*
X222628571Y-37657142D01*
X223152380Y-37485714D02*
X223152380Y-38057142D01*
X222152380Y-38057142D01*
X222152380Y-37485714D01*
X223152380Y-36400000D02*
X223152380Y-36971428D01*
X222152380Y-36971428D01*
X222152380Y-36171428D02*
X222152380Y-35485714D01*
X223152380Y-35828571D02*
X222152380Y-35828571D01*
X223152380Y-35085714D02*
X222152380Y-35085714D01*
X222628571Y-34514285D02*
X222628571Y-34114285D01*
X223152380Y-33942857D02*
X223152380Y-34514285D01*
X222152380Y-34514285D01*
X222152380Y-33942857D01*
X223152380Y-32742857D02*
X222676190Y-33142857D01*
X223152380Y-33428571D02*
X222152380Y-33428571D01*
X222152380Y-32971428D01*
X222200000Y-32857142D01*
X222247619Y-32800000D01*
X222342857Y-32742857D01*
X222485714Y-32742857D01*
X222580952Y-32800000D01*
X222628571Y-32857142D01*
X222676190Y-32971428D01*
X222676190Y-33428571D01*
X222152380Y-31428571D02*
X222152380Y-30628571D01*
X223152380Y-31142857D01*
X190652380Y-40671428D02*
X190652380Y-41357142D01*
X190652380Y-41014285D02*
X189652380Y-41014285D01*
X189795238Y-41128571D01*
X189890476Y-41242857D01*
X189938095Y-41357142D01*
X189747619Y-40214285D02*
X189700000Y-40157142D01*
X189652380Y-40042857D01*
X189652380Y-39757142D01*
X189700000Y-39642857D01*
X189747619Y-39585714D01*
X189842857Y-39528571D01*
X189938095Y-39528571D01*
X190080952Y-39585714D01*
X190652380Y-40271428D01*
X190652380Y-39528571D01*
X189652380Y-39185714D02*
X190652380Y-38785714D01*
X189652380Y-38385714D01*
X190604761Y-37128571D02*
X190652380Y-36957142D01*
X190652380Y-36671428D01*
X190604761Y-36557142D01*
X190557142Y-36500000D01*
X190461904Y-36442857D01*
X190366666Y-36442857D01*
X190271428Y-36500000D01*
X190223809Y-36557142D01*
X190176190Y-36671428D01*
X190128571Y-36900000D01*
X190080952Y-37014285D01*
X190033333Y-37071428D01*
X189938095Y-37128571D01*
X189842857Y-37128571D01*
X189747619Y-37071428D01*
X189700000Y-37014285D01*
X189652380Y-36900000D01*
X189652380Y-36614285D01*
X189700000Y-36442857D01*
X189652380Y-35700000D02*
X189652380Y-35471428D01*
X189700000Y-35357142D01*
X189795238Y-35242857D01*
X189985714Y-35185714D01*
X190319047Y-35185714D01*
X190509523Y-35242857D01*
X190604761Y-35357142D01*
X190652380Y-35471428D01*
X190652380Y-35700000D01*
X190604761Y-35814285D01*
X190509523Y-35928571D01*
X190319047Y-35985714D01*
X189985714Y-35985714D01*
X189795238Y-35928571D01*
X189700000Y-35814285D01*
X189652380Y-35700000D01*
X189652380Y-34671428D02*
X190461904Y-34671428D01*
X190557142Y-34614285D01*
X190604761Y-34557142D01*
X190652380Y-34442857D01*
X190652380Y-34214285D01*
X190604761Y-34100000D01*
X190557142Y-34042857D01*
X190461904Y-33985714D01*
X189652380Y-33985714D01*
X190652380Y-32728571D02*
X190176190Y-33128571D01*
X190652380Y-33414285D02*
X189652380Y-33414285D01*
X189652380Y-32957142D01*
X189700000Y-32842857D01*
X189747619Y-32785714D01*
X189842857Y-32728571D01*
X189985714Y-32728571D01*
X190080952Y-32785714D01*
X190128571Y-32842857D01*
X190176190Y-32957142D01*
X190176190Y-33414285D01*
X190557142Y-31528571D02*
X190604761Y-31585714D01*
X190652380Y-31757142D01*
X190652380Y-31871428D01*
X190604761Y-32042857D01*
X190509523Y-32157142D01*
X190414285Y-32214285D01*
X190223809Y-32271428D01*
X190080952Y-32271428D01*
X189890476Y-32214285D01*
X189795238Y-32157142D01*
X189700000Y-32042857D01*
X189652380Y-31871428D01*
X189652380Y-31757142D01*
X189700000Y-31585714D01*
X189747619Y-31528571D01*
X190128571Y-31014285D02*
X190128571Y-30614285D01*
X190652380Y-30442857D02*
X190652380Y-31014285D01*
X189652380Y-31014285D01*
X189652380Y-30442857D01*
X205952380Y-39257142D02*
X204952380Y-39257142D01*
X204952380Y-38800000D01*
X205000000Y-38685714D01*
X205047619Y-38628571D01*
X205142857Y-38571428D01*
X205285714Y-38571428D01*
X205380952Y-38628571D01*
X205428571Y-38685714D01*
X205476190Y-38800000D01*
X205476190Y-39257142D01*
X205428571Y-38057142D02*
X205428571Y-37657142D01*
X205952380Y-37485714D02*
X205952380Y-38057142D01*
X204952380Y-38057142D01*
X204952380Y-37485714D01*
X205952380Y-36400000D02*
X205952380Y-36971428D01*
X204952380Y-36971428D01*
X204952380Y-36171428D02*
X204952380Y-35485714D01*
X205952380Y-35828571D02*
X204952380Y-35828571D01*
X205952380Y-35085714D02*
X204952380Y-35085714D01*
X205428571Y-34514285D02*
X205428571Y-34114285D01*
X205952380Y-33942857D02*
X205952380Y-34514285D01*
X204952380Y-34514285D01*
X204952380Y-33942857D01*
X205952380Y-32742857D02*
X205476190Y-33142857D01*
X205952380Y-33428571D02*
X204952380Y-33428571D01*
X204952380Y-32971428D01*
X205000000Y-32857142D01*
X205047619Y-32800000D01*
X205142857Y-32742857D01*
X205285714Y-32742857D01*
X205380952Y-32800000D01*
X205428571Y-32857142D01*
X205476190Y-32971428D01*
X205476190Y-33428571D01*
X204952380Y-30800000D02*
X204952380Y-31028571D01*
X205000000Y-31142857D01*
X205047619Y-31200000D01*
X205190476Y-31314285D01*
X205380952Y-31371428D01*
X205761904Y-31371428D01*
X205857142Y-31314285D01*
X205904761Y-31257142D01*
X205952380Y-31142857D01*
X205952380Y-30914285D01*
X205904761Y-30800000D01*
X205857142Y-30742857D01*
X205761904Y-30685714D01*
X205523809Y-30685714D01*
X205428571Y-30742857D01*
X205380952Y-30800000D01*
X205333333Y-30914285D01*
X205333333Y-31142857D01*
X205380952Y-31257142D01*
X205428571Y-31314285D01*
X205523809Y-31371428D01*
X175552380Y-39157142D02*
X174552380Y-39157142D01*
X174552380Y-38700000D01*
X174600000Y-38585714D01*
X174647619Y-38528571D01*
X174742857Y-38471428D01*
X174885714Y-38471428D01*
X174980952Y-38528571D01*
X175028571Y-38585714D01*
X175076190Y-38700000D01*
X175076190Y-39157142D01*
X175028571Y-37957142D02*
X175028571Y-37557142D01*
X175552380Y-37385714D02*
X175552380Y-37957142D01*
X174552380Y-37957142D01*
X174552380Y-37385714D01*
X175552380Y-36300000D02*
X175552380Y-36871428D01*
X174552380Y-36871428D01*
X174552380Y-36071428D02*
X174552380Y-35385714D01*
X175552380Y-35728571D02*
X174552380Y-35728571D01*
X175552380Y-34985714D02*
X174552380Y-34985714D01*
X175028571Y-34414285D02*
X175028571Y-34014285D01*
X175552380Y-33842857D02*
X175552380Y-34414285D01*
X174552380Y-34414285D01*
X174552380Y-33842857D01*
X175552380Y-32642857D02*
X175076190Y-33042857D01*
X175552380Y-33328571D02*
X174552380Y-33328571D01*
X174552380Y-32871428D01*
X174600000Y-32757142D01*
X174647619Y-32700000D01*
X174742857Y-32642857D01*
X174885714Y-32642857D01*
X174980952Y-32700000D01*
X175028571Y-32757142D01*
X175076190Y-32871428D01*
X175076190Y-33328571D01*
X174552380Y-30642857D02*
X174552380Y-31214285D01*
X175028571Y-31271428D01*
X174980952Y-31214285D01*
X174933333Y-31100000D01*
X174933333Y-30814285D01*
X174980952Y-30700000D01*
X175028571Y-30642857D01*
X175123809Y-30585714D01*
X175361904Y-30585714D01*
X175457142Y-30642857D01*
X175504761Y-30700000D01*
X175552380Y-30814285D01*
X175552380Y-31100000D01*
X175504761Y-31214285D01*
X175457142Y-31271428D01*
X143152380Y-40671428D02*
X143152380Y-41357142D01*
X143152380Y-41014285D02*
X142152380Y-41014285D01*
X142295238Y-41128571D01*
X142390476Y-41242857D01*
X142438095Y-41357142D01*
X142247619Y-40214285D02*
X142200000Y-40157142D01*
X142152380Y-40042857D01*
X142152380Y-39757142D01*
X142200000Y-39642857D01*
X142247619Y-39585714D01*
X142342857Y-39528571D01*
X142438095Y-39528571D01*
X142580952Y-39585714D01*
X143152380Y-40271428D01*
X143152380Y-39528571D01*
X142152380Y-39185714D02*
X143152380Y-38785714D01*
X142152380Y-38385714D01*
X143104761Y-37128571D02*
X143152380Y-36957142D01*
X143152380Y-36671428D01*
X143104761Y-36557142D01*
X143057142Y-36500000D01*
X142961904Y-36442857D01*
X142866666Y-36442857D01*
X142771428Y-36500000D01*
X142723809Y-36557142D01*
X142676190Y-36671428D01*
X142628571Y-36900000D01*
X142580952Y-37014285D01*
X142533333Y-37071428D01*
X142438095Y-37128571D01*
X142342857Y-37128571D01*
X142247619Y-37071428D01*
X142200000Y-37014285D01*
X142152380Y-36900000D01*
X142152380Y-36614285D01*
X142200000Y-36442857D01*
X142152380Y-35700000D02*
X142152380Y-35471428D01*
X142200000Y-35357142D01*
X142295238Y-35242857D01*
X142485714Y-35185714D01*
X142819047Y-35185714D01*
X143009523Y-35242857D01*
X143104761Y-35357142D01*
X143152380Y-35471428D01*
X143152380Y-35700000D01*
X143104761Y-35814285D01*
X143009523Y-35928571D01*
X142819047Y-35985714D01*
X142485714Y-35985714D01*
X142295238Y-35928571D01*
X142200000Y-35814285D01*
X142152380Y-35700000D01*
X142152380Y-34671428D02*
X142961904Y-34671428D01*
X143057142Y-34614285D01*
X143104761Y-34557142D01*
X143152380Y-34442857D01*
X143152380Y-34214285D01*
X143104761Y-34100000D01*
X143057142Y-34042857D01*
X142961904Y-33985714D01*
X142152380Y-33985714D01*
X143152380Y-32728571D02*
X142676190Y-33128571D01*
X143152380Y-33414285D02*
X142152380Y-33414285D01*
X142152380Y-32957142D01*
X142200000Y-32842857D01*
X142247619Y-32785714D01*
X142342857Y-32728571D01*
X142485714Y-32728571D01*
X142580952Y-32785714D01*
X142628571Y-32842857D01*
X142676190Y-32957142D01*
X142676190Y-33414285D01*
X143057142Y-31528571D02*
X143104761Y-31585714D01*
X143152380Y-31757142D01*
X143152380Y-31871428D01*
X143104761Y-32042857D01*
X143009523Y-32157142D01*
X142914285Y-32214285D01*
X142723809Y-32271428D01*
X142580952Y-32271428D01*
X142390476Y-32214285D01*
X142295238Y-32157142D01*
X142200000Y-32042857D01*
X142152380Y-31871428D01*
X142152380Y-31757142D01*
X142200000Y-31585714D01*
X142247619Y-31528571D01*
X142628571Y-31014285D02*
X142628571Y-30614285D01*
X143152380Y-30442857D02*
X143152380Y-31014285D01*
X142152380Y-31014285D01*
X142152380Y-30442857D01*
X158652380Y-39157142D02*
X157652380Y-39157142D01*
X157652380Y-38700000D01*
X157700000Y-38585714D01*
X157747619Y-38528571D01*
X157842857Y-38471428D01*
X157985714Y-38471428D01*
X158080952Y-38528571D01*
X158128571Y-38585714D01*
X158176190Y-38700000D01*
X158176190Y-39157142D01*
X158128571Y-37957142D02*
X158128571Y-37557142D01*
X158652380Y-37385714D02*
X158652380Y-37957142D01*
X157652380Y-37957142D01*
X157652380Y-37385714D01*
X158652380Y-36300000D02*
X158652380Y-36871428D01*
X157652380Y-36871428D01*
X157652380Y-36071428D02*
X157652380Y-35385714D01*
X158652380Y-35728571D02*
X157652380Y-35728571D01*
X158652380Y-34985714D02*
X157652380Y-34985714D01*
X158128571Y-34414285D02*
X158128571Y-34014285D01*
X158652380Y-33842857D02*
X158652380Y-34414285D01*
X157652380Y-34414285D01*
X157652380Y-33842857D01*
X158652380Y-32642857D02*
X158176190Y-33042857D01*
X158652380Y-33328571D02*
X157652380Y-33328571D01*
X157652380Y-32871428D01*
X157700000Y-32757142D01*
X157747619Y-32700000D01*
X157842857Y-32642857D01*
X157985714Y-32642857D01*
X158080952Y-32700000D01*
X158128571Y-32757142D01*
X158176190Y-32871428D01*
X158176190Y-33328571D01*
X157985714Y-30700000D02*
X158652380Y-30700000D01*
X157604761Y-30985714D02*
X158319047Y-31271428D01*
X158319047Y-30528571D01*
X127852380Y-38957142D02*
X126852380Y-38957142D01*
X126852380Y-38500000D01*
X126900000Y-38385714D01*
X126947619Y-38328571D01*
X127042857Y-38271428D01*
X127185714Y-38271428D01*
X127280952Y-38328571D01*
X127328571Y-38385714D01*
X127376190Y-38500000D01*
X127376190Y-38957142D01*
X127328571Y-37757142D02*
X127328571Y-37357142D01*
X127852380Y-37185714D02*
X127852380Y-37757142D01*
X126852380Y-37757142D01*
X126852380Y-37185714D01*
X127852380Y-36100000D02*
X127852380Y-36671428D01*
X126852380Y-36671428D01*
X126852380Y-35871428D02*
X126852380Y-35185714D01*
X127852380Y-35528571D02*
X126852380Y-35528571D01*
X127852380Y-34785714D02*
X126852380Y-34785714D01*
X127328571Y-34214285D02*
X127328571Y-33814285D01*
X127852380Y-33642857D02*
X127852380Y-34214285D01*
X126852380Y-34214285D01*
X126852380Y-33642857D01*
X127852380Y-32442857D02*
X127376190Y-32842857D01*
X127852380Y-33128571D02*
X126852380Y-33128571D01*
X126852380Y-32671428D01*
X126900000Y-32557142D01*
X126947619Y-32500000D01*
X127042857Y-32442857D01*
X127185714Y-32442857D01*
X127280952Y-32500000D01*
X127328571Y-32557142D01*
X127376190Y-32671428D01*
X127376190Y-33128571D01*
X126852380Y-31128571D02*
X126852380Y-30385714D01*
X127233333Y-30785714D01*
X127233333Y-30614285D01*
X127280952Y-30500000D01*
X127328571Y-30442857D01*
X127423809Y-30385714D01*
X127661904Y-30385714D01*
X127757142Y-30442857D01*
X127804761Y-30500000D01*
X127852380Y-30614285D01*
X127852380Y-30957142D01*
X127804761Y-31071428D01*
X127757142Y-31128571D01*
X96352380Y-40371428D02*
X96352380Y-41057142D01*
X96352380Y-40714285D02*
X95352380Y-40714285D01*
X95495238Y-40828571D01*
X95590476Y-40942857D01*
X95638095Y-41057142D01*
X95447619Y-39914285D02*
X95400000Y-39857142D01*
X95352380Y-39742857D01*
X95352380Y-39457142D01*
X95400000Y-39342857D01*
X95447619Y-39285714D01*
X95542857Y-39228571D01*
X95638095Y-39228571D01*
X95780952Y-39285714D01*
X96352380Y-39971428D01*
X96352380Y-39228571D01*
X95352380Y-38885714D02*
X96352380Y-38485714D01*
X95352380Y-38085714D01*
X96304761Y-36828571D02*
X96352380Y-36657142D01*
X96352380Y-36371428D01*
X96304761Y-36257142D01*
X96257142Y-36200000D01*
X96161904Y-36142857D01*
X96066666Y-36142857D01*
X95971428Y-36200000D01*
X95923809Y-36257142D01*
X95876190Y-36371428D01*
X95828571Y-36600000D01*
X95780952Y-36714285D01*
X95733333Y-36771428D01*
X95638095Y-36828571D01*
X95542857Y-36828571D01*
X95447619Y-36771428D01*
X95400000Y-36714285D01*
X95352380Y-36600000D01*
X95352380Y-36314285D01*
X95400000Y-36142857D01*
X95352380Y-35400000D02*
X95352380Y-35171428D01*
X95400000Y-35057142D01*
X95495238Y-34942857D01*
X95685714Y-34885714D01*
X96019047Y-34885714D01*
X96209523Y-34942857D01*
X96304761Y-35057142D01*
X96352380Y-35171428D01*
X96352380Y-35400000D01*
X96304761Y-35514285D01*
X96209523Y-35628571D01*
X96019047Y-35685714D01*
X95685714Y-35685714D01*
X95495238Y-35628571D01*
X95400000Y-35514285D01*
X95352380Y-35400000D01*
X95352380Y-34371428D02*
X96161904Y-34371428D01*
X96257142Y-34314285D01*
X96304761Y-34257142D01*
X96352380Y-34142857D01*
X96352380Y-33914285D01*
X96304761Y-33800000D01*
X96257142Y-33742857D01*
X96161904Y-33685714D01*
X95352380Y-33685714D01*
X96352380Y-32428571D02*
X95876190Y-32828571D01*
X96352380Y-33114285D02*
X95352380Y-33114285D01*
X95352380Y-32657142D01*
X95400000Y-32542857D01*
X95447619Y-32485714D01*
X95542857Y-32428571D01*
X95685714Y-32428571D01*
X95780952Y-32485714D01*
X95828571Y-32542857D01*
X95876190Y-32657142D01*
X95876190Y-33114285D01*
X96257142Y-31228571D02*
X96304761Y-31285714D01*
X96352380Y-31457142D01*
X96352380Y-31571428D01*
X96304761Y-31742857D01*
X96209523Y-31857142D01*
X96114285Y-31914285D01*
X95923809Y-31971428D01*
X95780952Y-31971428D01*
X95590476Y-31914285D01*
X95495238Y-31857142D01*
X95400000Y-31742857D01*
X95352380Y-31571428D01*
X95352380Y-31457142D01*
X95400000Y-31285714D01*
X95447619Y-31228571D01*
X95828571Y-30714285D02*
X95828571Y-30314285D01*
X96352380Y-30142857D02*
X96352380Y-30714285D01*
X95352380Y-30714285D01*
X95352380Y-30142857D01*
X111652380Y-38957142D02*
X110652380Y-38957142D01*
X110652380Y-38500000D01*
X110700000Y-38385714D01*
X110747619Y-38328571D01*
X110842857Y-38271428D01*
X110985714Y-38271428D01*
X111080952Y-38328571D01*
X111128571Y-38385714D01*
X111176190Y-38500000D01*
X111176190Y-38957142D01*
X111128571Y-37757142D02*
X111128571Y-37357142D01*
X111652380Y-37185714D02*
X111652380Y-37757142D01*
X110652380Y-37757142D01*
X110652380Y-37185714D01*
X111652380Y-36100000D02*
X111652380Y-36671428D01*
X110652380Y-36671428D01*
X110652380Y-35871428D02*
X110652380Y-35185714D01*
X111652380Y-35528571D02*
X110652380Y-35528571D01*
X111652380Y-34785714D02*
X110652380Y-34785714D01*
X111128571Y-34214285D02*
X111128571Y-33814285D01*
X111652380Y-33642857D02*
X111652380Y-34214285D01*
X110652380Y-34214285D01*
X110652380Y-33642857D01*
X111652380Y-32442857D02*
X111176190Y-32842857D01*
X111652380Y-33128571D02*
X110652380Y-33128571D01*
X110652380Y-32671428D01*
X110700000Y-32557142D01*
X110747619Y-32500000D01*
X110842857Y-32442857D01*
X110985714Y-32442857D01*
X111080952Y-32500000D01*
X111128571Y-32557142D01*
X111176190Y-32671428D01*
X111176190Y-33128571D01*
X110747619Y-31071428D02*
X110700000Y-31014285D01*
X110652380Y-30900000D01*
X110652380Y-30614285D01*
X110700000Y-30500000D01*
X110747619Y-30442857D01*
X110842857Y-30385714D01*
X110938095Y-30385714D01*
X111080952Y-30442857D01*
X111652380Y-31128571D01*
X111652380Y-30385714D01*
X70238095Y-40485714D02*
X71761904Y-40485714D01*
X70238095Y-46042857D02*
X71761904Y-46042857D01*
X71000000Y-46804761D02*
X71000000Y-45280952D01*
X81252380Y-38957142D02*
X80252380Y-38957142D01*
X80252380Y-38500000D01*
X80300000Y-38385714D01*
X80347619Y-38328571D01*
X80442857Y-38271428D01*
X80585714Y-38271428D01*
X80680952Y-38328571D01*
X80728571Y-38385714D01*
X80776190Y-38500000D01*
X80776190Y-38957142D01*
X80728571Y-37757142D02*
X80728571Y-37357142D01*
X81252380Y-37185714D02*
X81252380Y-37757142D01*
X80252380Y-37757142D01*
X80252380Y-37185714D01*
X81252380Y-36100000D02*
X81252380Y-36671428D01*
X80252380Y-36671428D01*
X80252380Y-35871428D02*
X80252380Y-35185714D01*
X81252380Y-35528571D02*
X80252380Y-35528571D01*
X81252380Y-34785714D02*
X80252380Y-34785714D01*
X80728571Y-34214285D02*
X80728571Y-33814285D01*
X81252380Y-33642857D02*
X81252380Y-34214285D01*
X80252380Y-34214285D01*
X80252380Y-33642857D01*
X81252380Y-32442857D02*
X80776190Y-32842857D01*
X81252380Y-33128571D02*
X80252380Y-33128571D01*
X80252380Y-32671428D01*
X80300000Y-32557142D01*
X80347619Y-32500000D01*
X80442857Y-32442857D01*
X80585714Y-32442857D01*
X80680952Y-32500000D01*
X80728571Y-32557142D01*
X80776190Y-32671428D01*
X80776190Y-33128571D01*
X81252380Y-30385714D02*
X81252380Y-31071428D01*
X81252380Y-30728571D02*
X80252380Y-30728571D01*
X80395238Y-30842857D01*
X80490476Y-30957142D01*
X80538095Y-31071428D01*
X87785714Y-75400000D02*
X87671428Y-75352380D01*
X87500000Y-75352380D01*
X87328571Y-75400000D01*
X87214285Y-75495238D01*
X87157142Y-75590476D01*
X87100000Y-75780952D01*
X87100000Y-75923809D01*
X87157142Y-76114285D01*
X87214285Y-76209523D01*
X87328571Y-76304761D01*
X87500000Y-76352380D01*
X87614285Y-76352380D01*
X87785714Y-76304761D01*
X87842857Y-76257142D01*
X87842857Y-75923809D01*
X87614285Y-75923809D01*
X88357142Y-76352380D02*
X88357142Y-75352380D01*
X89042857Y-76352380D01*
X89042857Y-75352380D01*
X89614285Y-76352380D02*
X89614285Y-75352380D01*
X89900000Y-75352380D01*
X90071428Y-75400000D01*
X90185714Y-75495238D01*
X90242857Y-75590476D01*
X90300000Y-75780952D01*
X90300000Y-75923809D01*
X90242857Y-76114285D01*
X90185714Y-76209523D01*
X90071428Y-76304761D01*
X89900000Y-76352380D01*
X89614285Y-76352380D01*
X92057142Y-76304761D02*
X92228571Y-76352380D01*
X92514285Y-76352380D01*
X92628571Y-76304761D01*
X92685714Y-76257142D01*
X92742857Y-76161904D01*
X92742857Y-76066666D01*
X92685714Y-75971428D01*
X92628571Y-75923809D01*
X92514285Y-75876190D01*
X92285714Y-75828571D01*
X92171428Y-75780952D01*
X92114285Y-75733333D01*
X92057142Y-75638095D01*
X92057142Y-75542857D01*
X92114285Y-75447619D01*
X92171428Y-75400000D01*
X92285714Y-75352380D01*
X92571428Y-75352380D01*
X92742857Y-75400000D01*
X93885714Y-76352380D02*
X93200000Y-76352380D01*
X93542857Y-76352380D02*
X93542857Y-75352380D01*
X93428571Y-75495238D01*
X93314285Y-75590476D01*
X93200000Y-75638095D01*
X94114285Y-76447619D02*
X95028571Y-76447619D01*
X96000000Y-76257142D02*
X95942857Y-76304761D01*
X95771428Y-76352380D01*
X95657142Y-76352380D01*
X95485714Y-76304761D01*
X95371428Y-76209523D01*
X95314285Y-76114285D01*
X95257142Y-75923809D01*
X95257142Y-75780952D01*
X95314285Y-75590476D01*
X95371428Y-75495238D01*
X95485714Y-75400000D01*
X95657142Y-75352380D01*
X95771428Y-75352380D01*
X95942857Y-75400000D01*
X96000000Y-75447619D01*
X96457142Y-75447619D02*
X96514285Y-75400000D01*
X96628571Y-75352380D01*
X96914285Y-75352380D01*
X97028571Y-75400000D01*
X97085714Y-75447619D01*
X97142857Y-75542857D01*
X97142857Y-75638095D01*
X97085714Y-75780952D01*
X96400000Y-76352380D01*
X97142857Y-76352380D01*
X86257142Y-78004761D02*
X86428571Y-78052380D01*
X86714285Y-78052380D01*
X86828571Y-78004761D01*
X86885714Y-77957142D01*
X86942857Y-77861904D01*
X86942857Y-77766666D01*
X86885714Y-77671428D01*
X86828571Y-77623809D01*
X86714285Y-77576190D01*
X86485714Y-77528571D01*
X86371428Y-77480952D01*
X86314285Y-77433333D01*
X86257142Y-77338095D01*
X86257142Y-77242857D01*
X86314285Y-77147619D01*
X86371428Y-77100000D01*
X86485714Y-77052380D01*
X86771428Y-77052380D01*
X86942857Y-77100000D01*
X88085714Y-78052380D02*
X87400000Y-78052380D01*
X87742857Y-78052380D02*
X87742857Y-77052380D01*
X87628571Y-77195238D01*
X87514285Y-77290476D01*
X87400000Y-77338095D01*
X88314285Y-78147619D02*
X89228571Y-78147619D01*
X90200000Y-77957142D02*
X90142857Y-78004761D01*
X89971428Y-78052380D01*
X89857142Y-78052380D01*
X89685714Y-78004761D01*
X89571428Y-77909523D01*
X89514285Y-77814285D01*
X89457142Y-77623809D01*
X89457142Y-77480952D01*
X89514285Y-77290476D01*
X89571428Y-77195238D01*
X89685714Y-77100000D01*
X89857142Y-77052380D01*
X89971428Y-77052380D01*
X90142857Y-77100000D01*
X90200000Y-77147619D01*
X91342857Y-78052380D02*
X90657142Y-78052380D01*
X91000000Y-78052380D02*
X91000000Y-77052380D01*
X90885714Y-77195238D01*
X90771428Y-77290476D01*
X90657142Y-77338095D01*
X92585714Y-78004761D02*
X92757142Y-78052380D01*
X93042857Y-78052380D01*
X93157142Y-78004761D01*
X93214285Y-77957142D01*
X93271428Y-77861904D01*
X93271428Y-77766666D01*
X93214285Y-77671428D01*
X93157142Y-77623809D01*
X93042857Y-77576190D01*
X92814285Y-77528571D01*
X92700000Y-77480952D01*
X92642857Y-77433333D01*
X92585714Y-77338095D01*
X92585714Y-77242857D01*
X92642857Y-77147619D01*
X92700000Y-77100000D01*
X92814285Y-77052380D01*
X93100000Y-77052380D01*
X93271428Y-77100000D01*
X94471428Y-78052380D02*
X94071428Y-77576190D01*
X93785714Y-78052380D02*
X93785714Y-77052380D01*
X94242857Y-77052380D01*
X94357142Y-77100000D01*
X94414285Y-77147619D01*
X94471428Y-77242857D01*
X94471428Y-77385714D01*
X94414285Y-77480952D01*
X94357142Y-77528571D01*
X94242857Y-77576190D01*
X93785714Y-77576190D01*
X95671428Y-77957142D02*
X95614285Y-78004761D01*
X95442857Y-78052380D01*
X95328571Y-78052380D01*
X95157142Y-78004761D01*
X95042857Y-77909523D01*
X94985714Y-77814285D01*
X94928571Y-77623809D01*
X94928571Y-77480952D01*
X94985714Y-77290476D01*
X95042857Y-77195238D01*
X95157142Y-77100000D01*
X95328571Y-77052380D01*
X95442857Y-77052380D01*
X95614285Y-77100000D01*
X95671428Y-77147619D01*
X96814285Y-78052380D02*
X96128571Y-78052380D01*
X96471428Y-78052380D02*
X96471428Y-77052380D01*
X96357142Y-77195238D01*
X96242857Y-77290476D01*
X96128571Y-77338095D01*
D11*
X246900000Y-39510000D02*
X246090000Y-39510000D01*
X246090000Y-39510000D02*
X246090000Y-26490000D01*
X246090000Y-26490000D02*
X248900000Y-26490000D01*
X250900000Y-39510000D02*
X251710000Y-39510000D01*
X251710000Y-39510000D02*
X251710000Y-26490000D01*
X251710000Y-26490000D02*
X248900000Y-26490000D01*
X248600000Y-42610000D02*
X248600000Y-43890000D01*
X249200000Y-42610000D02*
X249200000Y-43890000D01*
X246900000Y-40500000D02*
X246300000Y-40800000D01*
X246300000Y-40800000D02*
X246300000Y-40200000D01*
X246300000Y-40200000D02*
X246900000Y-40500000D01*
X199000000Y-39510000D02*
X198190000Y-39510000D01*
X198190000Y-39510000D02*
X198190000Y-26490000D01*
X198190000Y-26490000D02*
X201000000Y-26490000D01*
X203000000Y-39510000D02*
X203810000Y-39510000D01*
X203810000Y-39510000D02*
X203810000Y-26490000D01*
X203810000Y-26490000D02*
X201000000Y-26490000D01*
X200700000Y-42610000D02*
X200700000Y-43890000D01*
X201300000Y-42610000D02*
X201300000Y-43890000D01*
X199000000Y-40500000D02*
X198400000Y-40800000D01*
X198400000Y-40800000D02*
X198400000Y-40200000D01*
X198400000Y-40200000D02*
X199000000Y-40500000D01*
X183800000Y-39410000D02*
X182990000Y-39410000D01*
X182990000Y-39410000D02*
X182990000Y-26390000D01*
X182990000Y-26390000D02*
X185800000Y-26390000D01*
X187800000Y-39410000D02*
X188610000Y-39410000D01*
X188610000Y-39410000D02*
X188610000Y-26390000D01*
X188610000Y-26390000D02*
X185800000Y-26390000D01*
X185500000Y-42510000D02*
X185500000Y-43790000D01*
X186100000Y-42510000D02*
X186100000Y-43790000D01*
X183800000Y-40400000D02*
X183200000Y-40700000D01*
X183200000Y-40700000D02*
X183200000Y-40100000D01*
X183200000Y-40100000D02*
X183800000Y-40400000D01*
X231600000Y-39510000D02*
X230790000Y-39510000D01*
X230790000Y-39510000D02*
X230790000Y-26490000D01*
X230790000Y-26490000D02*
X233600000Y-26490000D01*
X235600000Y-39510000D02*
X236410000Y-39510000D01*
X236410000Y-39510000D02*
X236410000Y-26490000D01*
X236410000Y-26490000D02*
X233600000Y-26490000D01*
X233300000Y-42610000D02*
X233300000Y-43890000D01*
X233900000Y-42610000D02*
X233900000Y-43890000D01*
X231600000Y-40500000D02*
X231000000Y-40800000D01*
X231000000Y-40800000D02*
X231000000Y-40200000D01*
X231000000Y-40200000D02*
X231600000Y-40500000D01*
X216300000Y-39510000D02*
X215490000Y-39510000D01*
X215490000Y-39510000D02*
X215490000Y-26490000D01*
X215490000Y-26490000D02*
X218300000Y-26490000D01*
X220300000Y-39510000D02*
X221110000Y-39510000D01*
X221110000Y-39510000D02*
X221110000Y-26490000D01*
X221110000Y-26490000D02*
X218300000Y-26490000D01*
X218000000Y-42610000D02*
X218000000Y-43890000D01*
X218600000Y-42610000D02*
X218600000Y-43890000D01*
X216300000Y-40500000D02*
X215700000Y-40800000D01*
X215700000Y-40800000D02*
X215700000Y-40200000D01*
X215700000Y-40200000D02*
X216300000Y-40500000D01*
X168500000Y-39410000D02*
X167690000Y-39410000D01*
X167690000Y-39410000D02*
X167690000Y-26390000D01*
X167690000Y-26390000D02*
X170500000Y-26390000D01*
X172500000Y-39410000D02*
X173310000Y-39410000D01*
X173310000Y-39410000D02*
X173310000Y-26390000D01*
X173310000Y-26390000D02*
X170500000Y-26390000D01*
X170200000Y-42510000D02*
X170200000Y-43790000D01*
X170800000Y-42510000D02*
X170800000Y-43790000D01*
X168500000Y-40400000D02*
X167900000Y-40700000D01*
X167900000Y-40700000D02*
X167900000Y-40100000D01*
X167900000Y-40100000D02*
X168500000Y-40400000D01*
X151600000Y-39410000D02*
X150790000Y-39410000D01*
X150790000Y-39410000D02*
X150790000Y-26390000D01*
X150790000Y-26390000D02*
X153600000Y-26390000D01*
X155600000Y-39410000D02*
X156410000Y-39410000D01*
X156410000Y-39410000D02*
X156410000Y-26390000D01*
X156410000Y-26390000D02*
X153600000Y-26390000D01*
X153300000Y-42510000D02*
X153300000Y-43790000D01*
X153900000Y-42510000D02*
X153900000Y-43790000D01*
X151600000Y-40400000D02*
X151000000Y-40700000D01*
X151000000Y-40700000D02*
X151000000Y-40100000D01*
X151000000Y-40100000D02*
X151600000Y-40400000D01*
X136300000Y-39510000D02*
X135490000Y-39510000D01*
X135490000Y-39510000D02*
X135490000Y-26490000D01*
X135490000Y-26490000D02*
X138300000Y-26490000D01*
X140300000Y-39510000D02*
X141110000Y-39510000D01*
X141110000Y-39510000D02*
X141110000Y-26490000D01*
X141110000Y-26490000D02*
X138300000Y-26490000D01*
X138000000Y-42610000D02*
X138000000Y-43890000D01*
X138600000Y-42610000D02*
X138600000Y-43890000D01*
X136300000Y-40500000D02*
X135700000Y-40800000D01*
X135700000Y-40800000D02*
X135700000Y-40200000D01*
X135700000Y-40200000D02*
X136300000Y-40500000D01*
X104800000Y-39510000D02*
X103990000Y-39510000D01*
X103990000Y-39510000D02*
X103990000Y-26490000D01*
X103990000Y-26490000D02*
X106800000Y-26490000D01*
X108800000Y-39510000D02*
X109610000Y-39510000D01*
X109610000Y-39510000D02*
X109610000Y-26490000D01*
X109610000Y-26490000D02*
X106800000Y-26490000D01*
X106500000Y-42610000D02*
X106500000Y-43890000D01*
X107100000Y-42610000D02*
X107100000Y-43890000D01*
X104800000Y-40500000D02*
X104200000Y-40800000D01*
X104200000Y-40800000D02*
X104200000Y-40200000D01*
X104200000Y-40200000D02*
X104800000Y-40500000D01*
X89500000Y-39510000D02*
X88690000Y-39510000D01*
X88690000Y-39510000D02*
X88690000Y-26490000D01*
X88690000Y-26490000D02*
X91500000Y-26490000D01*
X93500000Y-39510000D02*
X94310000Y-39510000D01*
X94310000Y-39510000D02*
X94310000Y-26490000D01*
X94310000Y-26490000D02*
X91500000Y-26490000D01*
X91200000Y-42610000D02*
X91200000Y-43890000D01*
X91800000Y-42610000D02*
X91800000Y-43890000D01*
X89500000Y-40500000D02*
X88900000Y-40800000D01*
X88900000Y-40800000D02*
X88900000Y-40200000D01*
X88900000Y-40200000D02*
X89500000Y-40500000D01*
X121000000Y-39510000D02*
X120190000Y-39510000D01*
X120190000Y-39510000D02*
X120190000Y-26490000D01*
X120190000Y-26490000D02*
X123000000Y-26490000D01*
X125000000Y-39510000D02*
X125810000Y-39510000D01*
X125810000Y-39510000D02*
X125810000Y-26490000D01*
X125810000Y-26490000D02*
X123000000Y-26490000D01*
X122700000Y-42610000D02*
X122700000Y-43890000D01*
X123300000Y-42610000D02*
X123300000Y-43890000D01*
X121000000Y-40500000D02*
X120400000Y-40800000D01*
X120400000Y-40800000D02*
X120400000Y-40200000D01*
X120400000Y-40200000D02*
X121000000Y-40500000D01*
X74300000Y-39510000D02*
X73490000Y-39510000D01*
X73490000Y-39510000D02*
X73490000Y-26490000D01*
X73490000Y-26490000D02*
X76300000Y-26490000D01*
X78300000Y-39510000D02*
X79110000Y-39510000D01*
X79110000Y-39510000D02*
X79110000Y-26490000D01*
X79110000Y-26490000D02*
X76300000Y-26490000D01*
X76000000Y-42610000D02*
X76000000Y-43890000D01*
X76600000Y-42610000D02*
X76600000Y-43890000D01*
X74300000Y-40500000D02*
X73700000Y-40800000D01*
X73700000Y-40800000D02*
X73700000Y-40200000D01*
X73700000Y-40200000D02*
X74300000Y-40500000D01*
X205310000Y-76158578D02*
X205310000Y-75641422D01*
X203890000Y-76158578D02*
X203890000Y-75641422D01*
X252790000Y-81841422D02*
X252790000Y-82358578D01*
X254210000Y-81841422D02*
X254210000Y-82358578D01*
X162003922Y-75010000D02*
X162521078Y-75010000D01*
X162003922Y-73590000D02*
X162521078Y-73590000D01*
X110610000Y-76358578D02*
X110610000Y-75841422D01*
X109190000Y-76358578D02*
X109190000Y-75841422D01*
X181415000Y-82100000D02*
X191785000Y-82100000D01*
X181415000Y-91230000D02*
X181415000Y-82100000D01*
X182415000Y-92230000D02*
X181415000Y-91230000D01*
X190785000Y-92230000D02*
X182415000Y-92230000D01*
X191785000Y-91230000D02*
X190785000Y-92230000D01*
X191785000Y-82100000D02*
X191785000Y-91230000D01*
X227915000Y-82000000D02*
X238285000Y-82000000D01*
X227915000Y-91130000D02*
X227915000Y-82000000D01*
X228915000Y-92130000D02*
X227915000Y-91130000D01*
X237285000Y-92130000D02*
X228915000Y-92130000D01*
X238285000Y-91130000D02*
X237285000Y-92130000D01*
X238285000Y-82000000D02*
X238285000Y-91130000D01*
X133415000Y-82100000D02*
X143785000Y-82100000D01*
X133415000Y-91230000D02*
X133415000Y-82100000D01*
X134415000Y-92230000D02*
X133415000Y-91230000D01*
X142785000Y-92230000D02*
X134415000Y-92230000D01*
X143785000Y-91230000D02*
X142785000Y-92230000D01*
X143785000Y-82100000D02*
X143785000Y-91230000D01*
X86315000Y-82000000D02*
X96685000Y-82000000D01*
X86315000Y-91130000D02*
X86315000Y-82000000D01*
X87315000Y-92130000D02*
X86315000Y-91130000D01*
X95685000Y-92130000D02*
X87315000Y-92130000D01*
X96685000Y-91130000D02*
X95685000Y-92130000D01*
X96685000Y-82000000D02*
X96685000Y-91130000D01*
X250090000Y-82402064D02*
X250090000Y-81197936D01*
X251910000Y-82402064D02*
X251910000Y-81197936D01*
X203690000Y-82402064D02*
X203690000Y-81197936D01*
X205510000Y-82402064D02*
X205510000Y-81197936D01*
X209490000Y-82502064D02*
X209490000Y-81297936D01*
X211310000Y-82502064D02*
X211310000Y-81297936D01*
X223690000Y-82402064D02*
X223690000Y-81197936D01*
X225510000Y-82402064D02*
X225510000Y-81197936D01*
X176390000Y-82502064D02*
X176390000Y-81297936D01*
X178210000Y-82502064D02*
X178210000Y-81297936D01*
X252202064Y-76410000D02*
X250997936Y-76410000D01*
X252202064Y-74590000D02*
X250997936Y-74590000D01*
X155690000Y-82402064D02*
X155690000Y-81197936D01*
X157510000Y-82402064D02*
X157510000Y-81197936D01*
X108490000Y-82302064D02*
X108490000Y-81097936D01*
X110310000Y-82302064D02*
X110310000Y-81097936D01*
X160490000Y-82302064D02*
X160490000Y-81097936D01*
X162310000Y-82302064D02*
X162310000Y-81097936D01*
X115090000Y-82302064D02*
X115090000Y-81097936D01*
X116910000Y-82302064D02*
X116910000Y-81097936D01*
X128390000Y-82302064D02*
X128390000Y-81097936D01*
X130210000Y-82302064D02*
X130210000Y-81097936D01*
X81190000Y-82302064D02*
X81190000Y-81097936D01*
X83010000Y-82302064D02*
X83010000Y-81097936D01*
X249980000Y-90870000D02*
X239740000Y-90870000D01*
X249980000Y-86229000D02*
X239740000Y-86229000D01*
X249980000Y-90870000D02*
X249980000Y-86229000D01*
X239740000Y-90870000D02*
X239740000Y-86229000D01*
X249980000Y-89360000D02*
X239740000Y-89360000D01*
X246710000Y-90870000D02*
X246710000Y-89360000D01*
X243009000Y-90870000D02*
X243009000Y-89360000D01*
X203520000Y-90870000D02*
X193280000Y-90870000D01*
X203520000Y-86229000D02*
X193280000Y-86229000D01*
X203520000Y-90870000D02*
X203520000Y-86229000D01*
X193280000Y-90870000D02*
X193280000Y-86229000D01*
X203520000Y-89360000D02*
X193280000Y-89360000D01*
X200250000Y-90870000D02*
X200250000Y-89360000D01*
X196549000Y-90870000D02*
X196549000Y-89360000D01*
X214980000Y-90870000D02*
X204740000Y-90870000D01*
X214980000Y-86229000D02*
X204740000Y-86229000D01*
X214980000Y-90870000D02*
X214980000Y-86229000D01*
X204740000Y-90870000D02*
X204740000Y-86229000D01*
X214980000Y-89360000D02*
X204740000Y-89360000D01*
X211710000Y-90870000D02*
X211710000Y-89360000D01*
X208009000Y-90870000D02*
X208009000Y-89360000D01*
X226360000Y-90870000D02*
X216120000Y-90870000D01*
X226360000Y-86229000D02*
X216120000Y-86229000D01*
X226360000Y-90870000D02*
X226360000Y-86229000D01*
X216120000Y-90870000D02*
X216120000Y-86229000D01*
X226360000Y-89360000D02*
X216120000Y-89360000D01*
X223090000Y-90870000D02*
X223090000Y-89360000D01*
X219389000Y-90870000D02*
X219389000Y-89360000D01*
X179880000Y-90870000D02*
X169640000Y-90870000D01*
X179880000Y-86229000D02*
X169640000Y-86229000D01*
X179880000Y-90870000D02*
X179880000Y-86229000D01*
X169640000Y-90870000D02*
X169640000Y-86229000D01*
X179880000Y-89360000D02*
X169640000Y-89360000D01*
X176610000Y-90870000D02*
X176610000Y-89360000D01*
X172909000Y-90870000D02*
X172909000Y-89360000D01*
X260070000Y-69920000D02*
X260070000Y-80160000D01*
X255429000Y-69920000D02*
X255429000Y-80160000D01*
X260070000Y-69920000D02*
X255429000Y-69920000D01*
X260070000Y-80160000D02*
X255429000Y-80160000D01*
X258560000Y-69920000D02*
X258560000Y-80160000D01*
X260070000Y-73190000D02*
X258560000Y-73190000D01*
X260070000Y-76891000D02*
X258560000Y-76891000D01*
X155480000Y-90870000D02*
X145240000Y-90870000D01*
X155480000Y-86229000D02*
X145240000Y-86229000D01*
X155480000Y-90870000D02*
X155480000Y-86229000D01*
X145240000Y-90870000D02*
X145240000Y-86229000D01*
X155480000Y-89360000D02*
X145240000Y-89360000D01*
X152210000Y-90870000D02*
X152210000Y-89360000D01*
X148509000Y-90870000D02*
X148509000Y-89360000D01*
X108380000Y-90870000D02*
X98140000Y-90870000D01*
X108380000Y-86229000D02*
X98140000Y-86229000D01*
X108380000Y-90870000D02*
X108380000Y-86229000D01*
X98140000Y-90870000D02*
X98140000Y-86229000D01*
X108380000Y-89360000D02*
X98140000Y-89360000D01*
X105110000Y-90870000D02*
X105110000Y-89360000D01*
X101409000Y-90870000D02*
X101409000Y-89360000D01*
X167680000Y-90870000D02*
X157440000Y-90870000D01*
X167680000Y-86229000D02*
X157440000Y-86229000D01*
X167680000Y-90870000D02*
X167680000Y-86229000D01*
X157440000Y-90870000D02*
X157440000Y-86229000D01*
X167680000Y-89360000D02*
X157440000Y-89360000D01*
X164410000Y-90870000D02*
X164410000Y-89360000D01*
X160709000Y-90870000D02*
X160709000Y-89360000D01*
X120180000Y-90870000D02*
X109940000Y-90870000D01*
X120180000Y-86229000D02*
X109940000Y-86229000D01*
X120180000Y-90870000D02*
X120180000Y-86229000D01*
X109940000Y-90870000D02*
X109940000Y-86229000D01*
X120180000Y-89360000D02*
X109940000Y-89360000D01*
X116910000Y-90870000D02*
X116910000Y-89360000D01*
X113209000Y-90870000D02*
X113209000Y-89360000D01*
X131880000Y-90870000D02*
X121640000Y-90870000D01*
X131880000Y-86229000D02*
X121640000Y-86229000D01*
X131880000Y-90870000D02*
X131880000Y-86229000D01*
X121640000Y-90870000D02*
X121640000Y-86229000D01*
X131880000Y-89360000D02*
X121640000Y-89360000D01*
X128610000Y-90870000D02*
X128610000Y-89360000D01*
X124909000Y-90870000D02*
X124909000Y-89360000D01*
X84680000Y-90870000D02*
X74440000Y-90870000D01*
X84680000Y-86229000D02*
X74440000Y-86229000D01*
X84680000Y-90870000D02*
X84680000Y-86229000D01*
X74440000Y-90870000D02*
X74440000Y-86229000D01*
X84680000Y-89360000D02*
X74440000Y-89360000D01*
X81410000Y-90870000D02*
X81410000Y-89360000D01*
X77709000Y-90870000D02*
X77709000Y-89360000D01*
X253350000Y-72750000D02*
X253350000Y-50050000D01*
X253350000Y-50050000D02*
X236650000Y-50050000D01*
X236650000Y-50050000D02*
X236650000Y-72750000D01*
X236650000Y-72750000D02*
X253350000Y-72750000D01*
X244650000Y-55100000D02*
X245350000Y-54700000D01*
X245350000Y-55500000D02*
X245350000Y-54300000D01*
X245350000Y-54300000D02*
X244650000Y-54300000D01*
X244650000Y-54300000D02*
X244650000Y-55500000D01*
X244650000Y-55500000D02*
X245350000Y-55500000D01*
X244000000Y-49790000D02*
X246000000Y-49790000D01*
X240500000Y-54900000D02*
X243650000Y-54900000D01*
X246350000Y-54900000D02*
X249500000Y-54900000D01*
X206650000Y-72750000D02*
X206650000Y-50050000D01*
X206650000Y-50050000D02*
X189950000Y-50050000D01*
X189950000Y-50050000D02*
X189950000Y-72750000D01*
X189950000Y-72750000D02*
X206650000Y-72750000D01*
X197950000Y-55100000D02*
X198650000Y-54700000D01*
X198650000Y-55500000D02*
X198650000Y-54300000D01*
X198650000Y-54300000D02*
X197950000Y-54300000D01*
X197950000Y-54300000D02*
X197950000Y-55500000D01*
X197950000Y-55500000D02*
X198650000Y-55500000D01*
X197300000Y-49790000D02*
X199300000Y-49790000D01*
X193800000Y-54900000D02*
X196950000Y-54900000D01*
X199650000Y-54900000D02*
X202800000Y-54900000D01*
X230250000Y-72750000D02*
X230250000Y-50050000D01*
X230250000Y-50050000D02*
X213550000Y-50050000D01*
X213550000Y-50050000D02*
X213550000Y-72750000D01*
X213550000Y-72750000D02*
X230250000Y-72750000D01*
X221550000Y-55100000D02*
X222250000Y-54700000D01*
X222250000Y-55500000D02*
X222250000Y-54300000D01*
X222250000Y-54300000D02*
X221550000Y-54300000D01*
X221550000Y-54300000D02*
X221550000Y-55500000D01*
X221550000Y-55500000D02*
X222250000Y-55500000D01*
X220900000Y-49790000D02*
X222900000Y-49790000D01*
X217400000Y-54900000D02*
X220550000Y-54900000D01*
X223250000Y-54900000D02*
X226400000Y-54900000D01*
X182650000Y-72750000D02*
X182650000Y-50050000D01*
X182650000Y-50050000D02*
X165950000Y-50050000D01*
X165950000Y-50050000D02*
X165950000Y-72750000D01*
X165950000Y-72750000D02*
X182650000Y-72750000D01*
X173950000Y-55100000D02*
X174650000Y-54700000D01*
X174650000Y-55500000D02*
X174650000Y-54300000D01*
X174650000Y-54300000D02*
X173950000Y-54300000D01*
X173950000Y-54300000D02*
X173950000Y-55500000D01*
X173950000Y-55500000D02*
X174650000Y-55500000D01*
X173300000Y-49790000D02*
X175300000Y-49790000D01*
X169800000Y-54900000D02*
X172950000Y-54900000D01*
X175650000Y-54900000D02*
X178800000Y-54900000D01*
X158850000Y-72750000D02*
X158850000Y-50050000D01*
X158850000Y-50050000D02*
X142150000Y-50050000D01*
X142150000Y-50050000D02*
X142150000Y-72750000D01*
X142150000Y-72750000D02*
X158850000Y-72750000D01*
X150150000Y-55100000D02*
X150850000Y-54700000D01*
X150850000Y-55500000D02*
X150850000Y-54300000D01*
X150850000Y-54300000D02*
X150150000Y-54300000D01*
X150150000Y-54300000D02*
X150150000Y-55500000D01*
X150150000Y-55500000D02*
X150850000Y-55500000D01*
X149500000Y-49790000D02*
X151500000Y-49790000D01*
X146000000Y-54900000D02*
X149150000Y-54900000D01*
X151850000Y-54900000D02*
X155000000Y-54900000D01*
X111410000Y-72850000D02*
X111410000Y-50150000D01*
X111410000Y-50150000D02*
X94710000Y-50150000D01*
X94710000Y-50150000D02*
X94710000Y-72850000D01*
X94710000Y-72850000D02*
X111410000Y-72850000D01*
X102710000Y-55200000D02*
X103410000Y-54800000D01*
X103410000Y-55600000D02*
X103410000Y-54400000D01*
X103410000Y-54400000D02*
X102710000Y-54400000D01*
X102710000Y-54400000D02*
X102710000Y-55600000D01*
X102710000Y-55600000D02*
X103410000Y-55600000D01*
X102060000Y-49890000D02*
X104060000Y-49890000D01*
X98560000Y-55000000D02*
X101710000Y-55000000D01*
X104410000Y-55000000D02*
X107560000Y-55000000D01*
X135050000Y-72750000D02*
X135050000Y-50050000D01*
X135050000Y-50050000D02*
X118350000Y-50050000D01*
X118350000Y-50050000D02*
X118350000Y-72750000D01*
X118350000Y-72750000D02*
X135050000Y-72750000D01*
X126350000Y-55100000D02*
X127050000Y-54700000D01*
X127050000Y-55500000D02*
X127050000Y-54300000D01*
X127050000Y-54300000D02*
X126350000Y-54300000D01*
X126350000Y-54300000D02*
X126350000Y-55500000D01*
X126350000Y-55500000D02*
X127050000Y-55500000D01*
X125700000Y-49790000D02*
X127700000Y-49790000D01*
X122200000Y-54900000D02*
X125350000Y-54900000D01*
X128050000Y-54900000D02*
X131200000Y-54900000D01*
X87910000Y-72750000D02*
X87910000Y-50050000D01*
X87910000Y-50050000D02*
X71210000Y-50050000D01*
X71210000Y-50050000D02*
X71210000Y-72750000D01*
X71210000Y-72750000D02*
X87910000Y-72750000D01*
X79210000Y-55100000D02*
X79910000Y-54700000D01*
X79910000Y-55500000D02*
X79910000Y-54300000D01*
X79910000Y-54300000D02*
X79210000Y-54300000D01*
X79210000Y-54300000D02*
X79210000Y-55500000D01*
X79210000Y-55500000D02*
X79910000Y-55500000D01*
X78560000Y-49790000D02*
X80560000Y-49790000D01*
X75060000Y-54900000D02*
X78210000Y-54900000D01*
X80910000Y-54900000D02*
X84060000Y-54900000D01*
X248050000Y-84000000D02*
X241550000Y-84000000D01*
X248050000Y-84000000D02*
X248050000Y-75600000D01*
X241550000Y-84000000D02*
X241550000Y-75600000D01*
X201650000Y-84000000D02*
X195150000Y-84000000D01*
X201650000Y-84000000D02*
X201650000Y-75600000D01*
X195150000Y-84000000D02*
X195150000Y-75600000D01*
X221750000Y-84000000D02*
X215250000Y-84000000D01*
X221750000Y-84000000D02*
X221750000Y-75600000D01*
X215250000Y-84000000D02*
X215250000Y-75600000D01*
X174350000Y-84000000D02*
X167850000Y-84000000D01*
X174350000Y-84000000D02*
X174350000Y-75600000D01*
X167850000Y-84000000D02*
X167850000Y-75600000D01*
X153650000Y-84000000D02*
X147150000Y-84000000D01*
X153650000Y-84000000D02*
X153650000Y-75600000D01*
X147150000Y-84000000D02*
X147150000Y-75600000D01*
X106450000Y-84100000D02*
X99950000Y-84100000D01*
X106450000Y-84100000D02*
X106450000Y-75700000D01*
X99950000Y-84100000D02*
X99950000Y-75700000D01*
X126350000Y-84000000D02*
X119850000Y-84000000D01*
X126350000Y-84000000D02*
X126350000Y-75600000D01*
X119850000Y-84000000D02*
X119850000Y-75600000D01*
X79150000Y-84100000D02*
X72650000Y-84100000D01*
X79150000Y-84100000D02*
X79150000Y-75700000D01*
X72650000Y-84100000D02*
X72650000Y-75700000D01*
D10*
X244152380Y-33909523D02*
X244866666Y-33909523D01*
X245009523Y-33957142D01*
X245104761Y-34052380D01*
X245152380Y-34195238D01*
X245152380Y-34290476D01*
X245152380Y-32909523D02*
X245152380Y-33480952D01*
X245152380Y-33195238D02*
X244152380Y-33195238D01*
X244295238Y-33290476D01*
X244390476Y-33385714D01*
X244438095Y-33480952D01*
X244152380Y-32052380D02*
X244152380Y-32242857D01*
X244200000Y-32338095D01*
X244247619Y-32385714D01*
X244390476Y-32480952D01*
X244580952Y-32528571D01*
X244961904Y-32528571D01*
X245057142Y-32480952D01*
X245104761Y-32433333D01*
X245152380Y-32338095D01*
X245152380Y-32147619D01*
X245104761Y-32052380D01*
X245057142Y-32004761D01*
X244961904Y-31957142D01*
X244723809Y-31957142D01*
X244628571Y-32004761D01*
X244580952Y-32052380D01*
X244533333Y-32147619D01*
X244533333Y-32338095D01*
X244580952Y-32433333D01*
X244628571Y-32480952D01*
X244723809Y-32528571D01*
X196352380Y-34009523D02*
X197066666Y-34009523D01*
X197209523Y-34057142D01*
X197304761Y-34152380D01*
X197352380Y-34295238D01*
X197352380Y-34390476D01*
X197352380Y-33009523D02*
X197352380Y-33580952D01*
X197352380Y-33295238D02*
X196352380Y-33295238D01*
X196495238Y-33390476D01*
X196590476Y-33485714D01*
X196638095Y-33580952D01*
X196352380Y-32104761D02*
X196352380Y-32580952D01*
X196828571Y-32628571D01*
X196780952Y-32580952D01*
X196733333Y-32485714D01*
X196733333Y-32247619D01*
X196780952Y-32152380D01*
X196828571Y-32104761D01*
X196923809Y-32057142D01*
X197161904Y-32057142D01*
X197257142Y-32104761D01*
X197304761Y-32152380D01*
X197352380Y-32247619D01*
X197352380Y-32485714D01*
X197304761Y-32580952D01*
X197257142Y-32628571D01*
X181152380Y-33809523D02*
X181866666Y-33809523D01*
X182009523Y-33857142D01*
X182104761Y-33952380D01*
X182152380Y-34095238D01*
X182152380Y-34190476D01*
X182152380Y-32809523D02*
X182152380Y-33380952D01*
X182152380Y-33095238D02*
X181152380Y-33095238D01*
X181295238Y-33190476D01*
X181390476Y-33285714D01*
X181438095Y-33380952D01*
X181485714Y-31952380D02*
X182152380Y-31952380D01*
X181104761Y-32190476D02*
X181819047Y-32428571D01*
X181819047Y-31809523D01*
X228952380Y-33909523D02*
X229666666Y-33909523D01*
X229809523Y-33957142D01*
X229904761Y-34052380D01*
X229952380Y-34195238D01*
X229952380Y-34290476D01*
X229952380Y-32909523D02*
X229952380Y-33480952D01*
X229952380Y-33195238D02*
X228952380Y-33195238D01*
X229095238Y-33290476D01*
X229190476Y-33385714D01*
X229238095Y-33480952D01*
X228952380Y-32576190D02*
X228952380Y-31957142D01*
X229333333Y-32290476D01*
X229333333Y-32147619D01*
X229380952Y-32052380D01*
X229428571Y-32004761D01*
X229523809Y-31957142D01*
X229761904Y-31957142D01*
X229857142Y-32004761D01*
X229904761Y-32052380D01*
X229952380Y-32147619D01*
X229952380Y-32433333D01*
X229904761Y-32528571D01*
X229857142Y-32576190D01*
X213652380Y-33909523D02*
X214366666Y-33909523D01*
X214509523Y-33957142D01*
X214604761Y-34052380D01*
X214652380Y-34195238D01*
X214652380Y-34290476D01*
X214652380Y-32909523D02*
X214652380Y-33480952D01*
X214652380Y-33195238D02*
X213652380Y-33195238D01*
X213795238Y-33290476D01*
X213890476Y-33385714D01*
X213938095Y-33480952D01*
X213747619Y-32528571D02*
X213700000Y-32480952D01*
X213652380Y-32385714D01*
X213652380Y-32147619D01*
X213700000Y-32052380D01*
X213747619Y-32004761D01*
X213842857Y-31957142D01*
X213938095Y-31957142D01*
X214080952Y-32004761D01*
X214652380Y-32576190D01*
X214652380Y-31957142D01*
X165852380Y-33909523D02*
X166566666Y-33909523D01*
X166709523Y-33957142D01*
X166804761Y-34052380D01*
X166852380Y-34195238D01*
X166852380Y-34290476D01*
X166852380Y-32909523D02*
X166852380Y-33480952D01*
X166852380Y-33195238D02*
X165852380Y-33195238D01*
X165995238Y-33290476D01*
X166090476Y-33385714D01*
X166138095Y-33480952D01*
X166852380Y-31957142D02*
X166852380Y-32528571D01*
X166852380Y-32242857D02*
X165852380Y-32242857D01*
X165995238Y-32338095D01*
X166090476Y-32433333D01*
X166138095Y-32528571D01*
X148952380Y-33433333D02*
X149666666Y-33433333D01*
X149809523Y-33480952D01*
X149904761Y-33576190D01*
X149952380Y-33719047D01*
X149952380Y-33814285D01*
X149380952Y-32814285D02*
X149333333Y-32909523D01*
X149285714Y-32957142D01*
X149190476Y-33004761D01*
X149142857Y-33004761D01*
X149047619Y-32957142D01*
X149000000Y-32909523D01*
X148952380Y-32814285D01*
X148952380Y-32623809D01*
X149000000Y-32528571D01*
X149047619Y-32480952D01*
X149142857Y-32433333D01*
X149190476Y-32433333D01*
X149285714Y-32480952D01*
X149333333Y-32528571D01*
X149380952Y-32623809D01*
X149380952Y-32814285D01*
X149428571Y-32909523D01*
X149476190Y-32957142D01*
X149571428Y-33004761D01*
X149761904Y-33004761D01*
X149857142Y-32957142D01*
X149904761Y-32909523D01*
X149952380Y-32814285D01*
X149952380Y-32623809D01*
X149904761Y-32528571D01*
X149857142Y-32480952D01*
X149761904Y-32433333D01*
X149571428Y-32433333D01*
X149476190Y-32480952D01*
X149428571Y-32528571D01*
X149380952Y-32623809D01*
X133652380Y-33333333D02*
X134366666Y-33333333D01*
X134509523Y-33380952D01*
X134604761Y-33476190D01*
X134652380Y-33619047D01*
X134652380Y-33714285D01*
X133652380Y-32952380D02*
X133652380Y-32285714D01*
X134652380Y-32714285D01*
X102152380Y-33433333D02*
X102866666Y-33433333D01*
X103009523Y-33480952D01*
X103104761Y-33576190D01*
X103152380Y-33719047D01*
X103152380Y-33814285D01*
X102152380Y-32528571D02*
X102152380Y-32719047D01*
X102200000Y-32814285D01*
X102247619Y-32861904D01*
X102390476Y-32957142D01*
X102580952Y-33004761D01*
X102961904Y-33004761D01*
X103057142Y-32957142D01*
X103104761Y-32909523D01*
X103152380Y-32814285D01*
X103152380Y-32623809D01*
X103104761Y-32528571D01*
X103057142Y-32480952D01*
X102961904Y-32433333D01*
X102723809Y-32433333D01*
X102628571Y-32480952D01*
X102580952Y-32528571D01*
X102533333Y-32623809D01*
X102533333Y-32814285D01*
X102580952Y-32909523D01*
X102628571Y-32957142D01*
X102723809Y-33004761D01*
X86652380Y-33533333D02*
X87366666Y-33533333D01*
X87509523Y-33580952D01*
X87604761Y-33676190D01*
X87652380Y-33819047D01*
X87652380Y-33914285D01*
X86652380Y-32580952D02*
X86652380Y-33057142D01*
X87128571Y-33104761D01*
X87080952Y-33057142D01*
X87033333Y-32961904D01*
X87033333Y-32723809D01*
X87080952Y-32628571D01*
X87128571Y-32580952D01*
X87223809Y-32533333D01*
X87461904Y-32533333D01*
X87557142Y-32580952D01*
X87604761Y-32628571D01*
X87652380Y-32723809D01*
X87652380Y-32961904D01*
X87604761Y-33057142D01*
X87557142Y-33104761D01*
X118452380Y-33533333D02*
X119166666Y-33533333D01*
X119309523Y-33580952D01*
X119404761Y-33676190D01*
X119452380Y-33819047D01*
X119452380Y-33914285D01*
X118785714Y-32628571D02*
X119452380Y-32628571D01*
X118404761Y-32866666D02*
X119119047Y-33104761D01*
X119119047Y-32485714D01*
X71552380Y-33633333D02*
X72266666Y-33633333D01*
X72409523Y-33680952D01*
X72504761Y-33776190D01*
X72552380Y-33919047D01*
X72552380Y-34014285D01*
X71552380Y-33252380D02*
X71552380Y-32633333D01*
X71933333Y-32966666D01*
X71933333Y-32823809D01*
X71980952Y-32728571D01*
X72028571Y-32680952D01*
X72123809Y-32633333D01*
X72361904Y-32633333D01*
X72457142Y-32680952D01*
X72504761Y-32728571D01*
X72552380Y-32823809D01*
X72552380Y-33109523D01*
X72504761Y-33204761D01*
X72457142Y-33252380D01*
X203402380Y-76542857D02*
X202926190Y-76876190D01*
X203402380Y-77114285D02*
X202402380Y-77114285D01*
X202402380Y-76733333D01*
X202450000Y-76638095D01*
X202497619Y-76590476D01*
X202592857Y-76542857D01*
X202735714Y-76542857D01*
X202830952Y-76590476D01*
X202878571Y-76638095D01*
X202926190Y-76733333D01*
X202926190Y-77114285D01*
X203402380Y-75590476D02*
X203402380Y-76161904D01*
X203402380Y-75876190D02*
X202402380Y-75876190D01*
X202545238Y-75971428D01*
X202640476Y-76066666D01*
X202688095Y-76161904D01*
X202402380Y-74733333D02*
X202402380Y-74923809D01*
X202450000Y-75019047D01*
X202497619Y-75066666D01*
X202640476Y-75161904D01*
X202830952Y-75209523D01*
X203211904Y-75209523D01*
X203307142Y-75161904D01*
X203354761Y-75114285D01*
X203402380Y-75019047D01*
X203402380Y-74828571D01*
X203354761Y-74733333D01*
X203307142Y-74685714D01*
X203211904Y-74638095D01*
X202973809Y-74638095D01*
X202878571Y-74685714D01*
X202830952Y-74733333D01*
X202783333Y-74828571D01*
X202783333Y-75019047D01*
X202830952Y-75114285D01*
X202878571Y-75161904D01*
X202973809Y-75209523D01*
X255602380Y-82742857D02*
X255126190Y-83076190D01*
X255602380Y-83314285D02*
X254602380Y-83314285D01*
X254602380Y-82933333D01*
X254650000Y-82838095D01*
X254697619Y-82790476D01*
X254792857Y-82742857D01*
X254935714Y-82742857D01*
X255030952Y-82790476D01*
X255078571Y-82838095D01*
X255126190Y-82933333D01*
X255126190Y-83314285D01*
X255602380Y-81790476D02*
X255602380Y-82361904D01*
X255602380Y-82076190D02*
X254602380Y-82076190D01*
X254745238Y-82171428D01*
X254840476Y-82266666D01*
X254888095Y-82361904D01*
X254602380Y-80885714D02*
X254602380Y-81361904D01*
X255078571Y-81409523D01*
X255030952Y-81361904D01*
X254983333Y-81266666D01*
X254983333Y-81028571D01*
X255030952Y-80933333D01*
X255078571Y-80885714D01*
X255173809Y-80838095D01*
X255411904Y-80838095D01*
X255507142Y-80885714D01*
X255554761Y-80933333D01*
X255602380Y-81028571D01*
X255602380Y-81266666D01*
X255554761Y-81361904D01*
X255507142Y-81409523D01*
X161619642Y-73102380D02*
X161286309Y-72626190D01*
X161048214Y-73102380D02*
X161048214Y-72102380D01*
X161429166Y-72102380D01*
X161524404Y-72150000D01*
X161572023Y-72197619D01*
X161619642Y-72292857D01*
X161619642Y-72435714D01*
X161572023Y-72530952D01*
X161524404Y-72578571D01*
X161429166Y-72626190D01*
X161048214Y-72626190D01*
X162572023Y-73102380D02*
X162000595Y-73102380D01*
X162286309Y-73102380D02*
X162286309Y-72102380D01*
X162191071Y-72245238D01*
X162095833Y-72340476D01*
X162000595Y-72388095D01*
X163429166Y-72435714D02*
X163429166Y-73102380D01*
X163191071Y-72054761D02*
X162952976Y-72769047D01*
X163572023Y-72769047D01*
X108702380Y-76742857D02*
X108226190Y-77076190D01*
X108702380Y-77314285D02*
X107702380Y-77314285D01*
X107702380Y-76933333D01*
X107750000Y-76838095D01*
X107797619Y-76790476D01*
X107892857Y-76742857D01*
X108035714Y-76742857D01*
X108130952Y-76790476D01*
X108178571Y-76838095D01*
X108226190Y-76933333D01*
X108226190Y-77314285D01*
X108702380Y-75790476D02*
X108702380Y-76361904D01*
X108702380Y-76076190D02*
X107702380Y-76076190D01*
X107845238Y-76171428D01*
X107940476Y-76266666D01*
X107988095Y-76361904D01*
X107702380Y-75457142D02*
X107702380Y-74838095D01*
X108083333Y-75171428D01*
X108083333Y-75028571D01*
X108130952Y-74933333D01*
X108178571Y-74885714D01*
X108273809Y-74838095D01*
X108511904Y-74838095D01*
X108607142Y-74885714D01*
X108654761Y-74933333D01*
X108702380Y-75028571D01*
X108702380Y-75314285D01*
X108654761Y-75409523D01*
X108607142Y-75457142D01*
X181590476Y-80252380D02*
X181590476Y-80966666D01*
X181542857Y-81109523D01*
X181447619Y-81204761D01*
X181304761Y-81252380D01*
X181209523Y-81252380D01*
X182590476Y-81252380D02*
X182019047Y-81252380D01*
X182304761Y-81252380D02*
X182304761Y-80252380D01*
X182209523Y-80395238D01*
X182114285Y-80490476D01*
X182019047Y-80538095D01*
X183209523Y-80252380D02*
X183304761Y-80252380D01*
X183400000Y-80300000D01*
X183447619Y-80347619D01*
X183495238Y-80442857D01*
X183542857Y-80633333D01*
X183542857Y-80871428D01*
X183495238Y-81061904D01*
X183447619Y-81157142D01*
X183400000Y-81204761D01*
X183304761Y-81252380D01*
X183209523Y-81252380D01*
X183114285Y-81204761D01*
X183066666Y-81157142D01*
X183019047Y-81061904D01*
X182971428Y-80871428D01*
X182971428Y-80633333D01*
X183019047Y-80442857D01*
X183066666Y-80347619D01*
X183114285Y-80300000D01*
X183209523Y-80252380D01*
X228666666Y-80252380D02*
X228666666Y-80966666D01*
X228619047Y-81109523D01*
X228523809Y-81204761D01*
X228380952Y-81252380D01*
X228285714Y-81252380D01*
X229190476Y-81252380D02*
X229380952Y-81252380D01*
X229476190Y-81204761D01*
X229523809Y-81157142D01*
X229619047Y-81014285D01*
X229666666Y-80823809D01*
X229666666Y-80442857D01*
X229619047Y-80347619D01*
X229571428Y-80300000D01*
X229476190Y-80252380D01*
X229285714Y-80252380D01*
X229190476Y-80300000D01*
X229142857Y-80347619D01*
X229095238Y-80442857D01*
X229095238Y-80680952D01*
X229142857Y-80776190D01*
X229190476Y-80823809D01*
X229285714Y-80871428D01*
X229476190Y-80871428D01*
X229571428Y-80823809D01*
X229619047Y-80776190D01*
X229666666Y-80680952D01*
X133966666Y-80352380D02*
X133966666Y-81066666D01*
X133919047Y-81209523D01*
X133823809Y-81304761D01*
X133680952Y-81352380D01*
X133585714Y-81352380D01*
X134395238Y-80447619D02*
X134442857Y-80400000D01*
X134538095Y-80352380D01*
X134776190Y-80352380D01*
X134871428Y-80400000D01*
X134919047Y-80447619D01*
X134966666Y-80542857D01*
X134966666Y-80638095D01*
X134919047Y-80780952D01*
X134347619Y-81352380D01*
X134966666Y-81352380D01*
X86866666Y-80252380D02*
X86866666Y-80966666D01*
X86819047Y-81109523D01*
X86723809Y-81204761D01*
X86580952Y-81252380D01*
X86485714Y-81252380D01*
X87866666Y-81252380D02*
X87295238Y-81252380D01*
X87580952Y-81252380D02*
X87580952Y-80252380D01*
X87485714Y-80395238D01*
X87390476Y-80490476D01*
X87295238Y-80538095D01*
X256838095Y-84852380D02*
X256838095Y-83852380D01*
X256838095Y-84328571D02*
X257409523Y-84328571D01*
X257409523Y-84852380D02*
X257409523Y-83852380D01*
X258314285Y-84185714D02*
X258314285Y-84852380D01*
X258076190Y-83804761D02*
X257838095Y-84519047D01*
X258457142Y-84519047D01*
X256838095Y-38452380D02*
X256838095Y-37452380D01*
X256838095Y-37928571D02*
X257409523Y-37928571D01*
X257409523Y-38452380D02*
X257409523Y-37452380D01*
X257790476Y-37452380D02*
X258409523Y-37452380D01*
X258076190Y-37833333D01*
X258219047Y-37833333D01*
X258314285Y-37880952D01*
X258361904Y-37928571D01*
X258409523Y-38023809D01*
X258409523Y-38261904D01*
X258361904Y-38357142D01*
X258314285Y-38404761D01*
X258219047Y-38452380D01*
X257933333Y-38452380D01*
X257838095Y-38404761D01*
X257790476Y-38357142D01*
X66438095Y-84852380D02*
X66438095Y-83852380D01*
X66438095Y-84328571D02*
X67009523Y-84328571D01*
X67009523Y-84852380D02*
X67009523Y-83852380D01*
X67438095Y-83947619D02*
X67485714Y-83900000D01*
X67580952Y-83852380D01*
X67819047Y-83852380D01*
X67914285Y-83900000D01*
X67961904Y-83947619D01*
X68009523Y-84042857D01*
X68009523Y-84138095D01*
X67961904Y-84280952D01*
X67390476Y-84852380D01*
X68009523Y-84852380D01*
X66438095Y-38452380D02*
X66438095Y-37452380D01*
X66438095Y-37928571D02*
X67009523Y-37928571D01*
X67009523Y-38452380D02*
X67009523Y-37452380D01*
X68009523Y-38452380D02*
X67438095Y-38452380D01*
X67723809Y-38452380D02*
X67723809Y-37452380D01*
X67628571Y-37595238D01*
X67533333Y-37690476D01*
X67438095Y-37738095D01*
X249632380Y-82442857D02*
X249156190Y-82776190D01*
X249632380Y-83014285D02*
X248632380Y-83014285D01*
X248632380Y-82633333D01*
X248680000Y-82538095D01*
X248727619Y-82490476D01*
X248822857Y-82442857D01*
X248965714Y-82442857D01*
X249060952Y-82490476D01*
X249108571Y-82538095D01*
X249156190Y-82633333D01*
X249156190Y-83014285D01*
X249632380Y-81490476D02*
X249632380Y-82061904D01*
X249632380Y-81776190D02*
X248632380Y-81776190D01*
X248775238Y-81871428D01*
X248870476Y-81966666D01*
X248918095Y-82061904D01*
X248727619Y-81109523D02*
X248680000Y-81061904D01*
X248632380Y-80966666D01*
X248632380Y-80728571D01*
X248680000Y-80633333D01*
X248727619Y-80585714D01*
X248822857Y-80538095D01*
X248918095Y-80538095D01*
X249060952Y-80585714D01*
X249632380Y-81157142D01*
X249632380Y-80538095D01*
X203232380Y-82442857D02*
X202756190Y-82776190D01*
X203232380Y-83014285D02*
X202232380Y-83014285D01*
X202232380Y-82633333D01*
X202280000Y-82538095D01*
X202327619Y-82490476D01*
X202422857Y-82442857D01*
X202565714Y-82442857D01*
X202660952Y-82490476D01*
X202708571Y-82538095D01*
X202756190Y-82633333D01*
X202756190Y-83014285D01*
X203232380Y-81490476D02*
X203232380Y-82061904D01*
X203232380Y-81776190D02*
X202232380Y-81776190D01*
X202375238Y-81871428D01*
X202470476Y-81966666D01*
X202518095Y-82061904D01*
X203232380Y-80538095D02*
X203232380Y-81109523D01*
X203232380Y-80823809D02*
X202232380Y-80823809D01*
X202375238Y-80919047D01*
X202470476Y-81014285D01*
X202518095Y-81109523D01*
X209032380Y-82542857D02*
X208556190Y-82876190D01*
X209032380Y-83114285D02*
X208032380Y-83114285D01*
X208032380Y-82733333D01*
X208080000Y-82638095D01*
X208127619Y-82590476D01*
X208222857Y-82542857D01*
X208365714Y-82542857D01*
X208460952Y-82590476D01*
X208508571Y-82638095D01*
X208556190Y-82733333D01*
X208556190Y-83114285D01*
X209032380Y-81590476D02*
X209032380Y-82161904D01*
X209032380Y-81876190D02*
X208032380Y-81876190D01*
X208175238Y-81971428D01*
X208270476Y-82066666D01*
X208318095Y-82161904D01*
X208032380Y-80971428D02*
X208032380Y-80876190D01*
X208080000Y-80780952D01*
X208127619Y-80733333D01*
X208222857Y-80685714D01*
X208413333Y-80638095D01*
X208651428Y-80638095D01*
X208841904Y-80685714D01*
X208937142Y-80733333D01*
X208984761Y-80780952D01*
X209032380Y-80876190D01*
X209032380Y-80971428D01*
X208984761Y-81066666D01*
X208937142Y-81114285D01*
X208841904Y-81161904D01*
X208651428Y-81209523D01*
X208413333Y-81209523D01*
X208222857Y-81161904D01*
X208127619Y-81114285D01*
X208080000Y-81066666D01*
X208032380Y-80971428D01*
X223232380Y-81966666D02*
X222756190Y-82300000D01*
X223232380Y-82538095D02*
X222232380Y-82538095D01*
X222232380Y-82157142D01*
X222280000Y-82061904D01*
X222327619Y-82014285D01*
X222422857Y-81966666D01*
X222565714Y-81966666D01*
X222660952Y-82014285D01*
X222708571Y-82061904D01*
X222756190Y-82157142D01*
X222756190Y-82538095D01*
X223232380Y-81490476D02*
X223232380Y-81300000D01*
X223184761Y-81204761D01*
X223137142Y-81157142D01*
X222994285Y-81061904D01*
X222803809Y-81014285D01*
X222422857Y-81014285D01*
X222327619Y-81061904D01*
X222280000Y-81109523D01*
X222232380Y-81204761D01*
X222232380Y-81395238D01*
X222280000Y-81490476D01*
X222327619Y-81538095D01*
X222422857Y-81585714D01*
X222660952Y-81585714D01*
X222756190Y-81538095D01*
X222803809Y-81490476D01*
X222851428Y-81395238D01*
X222851428Y-81204761D01*
X222803809Y-81109523D01*
X222756190Y-81061904D01*
X222660952Y-81014285D01*
X175932380Y-82066666D02*
X175456190Y-82400000D01*
X175932380Y-82638095D02*
X174932380Y-82638095D01*
X174932380Y-82257142D01*
X174980000Y-82161904D01*
X175027619Y-82114285D01*
X175122857Y-82066666D01*
X175265714Y-82066666D01*
X175360952Y-82114285D01*
X175408571Y-82161904D01*
X175456190Y-82257142D01*
X175456190Y-82638095D01*
X175360952Y-81495238D02*
X175313333Y-81590476D01*
X175265714Y-81638095D01*
X175170476Y-81685714D01*
X175122857Y-81685714D01*
X175027619Y-81638095D01*
X174980000Y-81590476D01*
X174932380Y-81495238D01*
X174932380Y-81304761D01*
X174980000Y-81209523D01*
X175027619Y-81161904D01*
X175122857Y-81114285D01*
X175170476Y-81114285D01*
X175265714Y-81161904D01*
X175313333Y-81209523D01*
X175360952Y-81304761D01*
X175360952Y-81495238D01*
X175408571Y-81590476D01*
X175456190Y-81638095D01*
X175551428Y-81685714D01*
X175741904Y-81685714D01*
X175837142Y-81638095D01*
X175884761Y-81590476D01*
X175932380Y-81495238D01*
X175932380Y-81304761D01*
X175884761Y-81209523D01*
X175837142Y-81161904D01*
X175741904Y-81114285D01*
X175551428Y-81114285D01*
X175456190Y-81161904D01*
X175408571Y-81209523D01*
X175360952Y-81304761D01*
X251433333Y-77772380D02*
X251100000Y-77296190D01*
X250861904Y-77772380D02*
X250861904Y-76772380D01*
X251242857Y-76772380D01*
X251338095Y-76820000D01*
X251385714Y-76867619D01*
X251433333Y-76962857D01*
X251433333Y-77105714D01*
X251385714Y-77200952D01*
X251338095Y-77248571D01*
X251242857Y-77296190D01*
X250861904Y-77296190D01*
X251766666Y-76772380D02*
X252433333Y-76772380D01*
X252004761Y-77772380D01*
X155232380Y-81966666D02*
X154756190Y-82300000D01*
X155232380Y-82538095D02*
X154232380Y-82538095D01*
X154232380Y-82157142D01*
X154280000Y-82061904D01*
X154327619Y-82014285D01*
X154422857Y-81966666D01*
X154565714Y-81966666D01*
X154660952Y-82014285D01*
X154708571Y-82061904D01*
X154756190Y-82157142D01*
X154756190Y-82538095D01*
X154232380Y-81109523D02*
X154232380Y-81300000D01*
X154280000Y-81395238D01*
X154327619Y-81442857D01*
X154470476Y-81538095D01*
X154660952Y-81585714D01*
X155041904Y-81585714D01*
X155137142Y-81538095D01*
X155184761Y-81490476D01*
X155232380Y-81395238D01*
X155232380Y-81204761D01*
X155184761Y-81109523D01*
X155137142Y-81061904D01*
X155041904Y-81014285D01*
X154803809Y-81014285D01*
X154708571Y-81061904D01*
X154660952Y-81109523D01*
X154613333Y-81204761D01*
X154613333Y-81395238D01*
X154660952Y-81490476D01*
X154708571Y-81538095D01*
X154803809Y-81585714D01*
X108032380Y-81866666D02*
X107556190Y-82200000D01*
X108032380Y-82438095D02*
X107032380Y-82438095D01*
X107032380Y-82057142D01*
X107080000Y-81961904D01*
X107127619Y-81914285D01*
X107222857Y-81866666D01*
X107365714Y-81866666D01*
X107460952Y-81914285D01*
X107508571Y-81961904D01*
X107556190Y-82057142D01*
X107556190Y-82438095D01*
X107032380Y-80961904D02*
X107032380Y-81438095D01*
X107508571Y-81485714D01*
X107460952Y-81438095D01*
X107413333Y-81342857D01*
X107413333Y-81104761D01*
X107460952Y-81009523D01*
X107508571Y-80961904D01*
X107603809Y-80914285D01*
X107841904Y-80914285D01*
X107937142Y-80961904D01*
X107984761Y-81009523D01*
X108032380Y-81104761D01*
X108032380Y-81342857D01*
X107984761Y-81438095D01*
X107937142Y-81485714D01*
X160032380Y-81866666D02*
X159556190Y-82200000D01*
X160032380Y-82438095D02*
X159032380Y-82438095D01*
X159032380Y-82057142D01*
X159080000Y-81961904D01*
X159127619Y-81914285D01*
X159222857Y-81866666D01*
X159365714Y-81866666D01*
X159460952Y-81914285D01*
X159508571Y-81961904D01*
X159556190Y-82057142D01*
X159556190Y-82438095D01*
X159365714Y-81009523D02*
X160032380Y-81009523D01*
X158984761Y-81247619D02*
X159699047Y-81485714D01*
X159699047Y-80866666D01*
X114632380Y-81866666D02*
X114156190Y-82200000D01*
X114632380Y-82438095D02*
X113632380Y-82438095D01*
X113632380Y-82057142D01*
X113680000Y-81961904D01*
X113727619Y-81914285D01*
X113822857Y-81866666D01*
X113965714Y-81866666D01*
X114060952Y-81914285D01*
X114108571Y-81961904D01*
X114156190Y-82057142D01*
X114156190Y-82438095D01*
X113632380Y-81533333D02*
X113632380Y-80914285D01*
X114013333Y-81247619D01*
X114013333Y-81104761D01*
X114060952Y-81009523D01*
X114108571Y-80961904D01*
X114203809Y-80914285D01*
X114441904Y-80914285D01*
X114537142Y-80961904D01*
X114584761Y-81009523D01*
X114632380Y-81104761D01*
X114632380Y-81390476D01*
X114584761Y-81485714D01*
X114537142Y-81533333D01*
X127932380Y-81866666D02*
X127456190Y-82200000D01*
X127932380Y-82438095D02*
X126932380Y-82438095D01*
X126932380Y-82057142D01*
X126980000Y-81961904D01*
X127027619Y-81914285D01*
X127122857Y-81866666D01*
X127265714Y-81866666D01*
X127360952Y-81914285D01*
X127408571Y-81961904D01*
X127456190Y-82057142D01*
X127456190Y-82438095D01*
X127027619Y-81485714D02*
X126980000Y-81438095D01*
X126932380Y-81342857D01*
X126932380Y-81104761D01*
X126980000Y-81009523D01*
X127027619Y-80961904D01*
X127122857Y-80914285D01*
X127218095Y-80914285D01*
X127360952Y-80961904D01*
X127932380Y-81533333D01*
X127932380Y-80914285D01*
X80732380Y-81866666D02*
X80256190Y-82200000D01*
X80732380Y-82438095D02*
X79732380Y-82438095D01*
X79732380Y-82057142D01*
X79780000Y-81961904D01*
X79827619Y-81914285D01*
X79922857Y-81866666D01*
X80065714Y-81866666D01*
X80160952Y-81914285D01*
X80208571Y-81961904D01*
X80256190Y-82057142D01*
X80256190Y-82438095D01*
X80732380Y-80914285D02*
X80732380Y-81485714D01*
X80732380Y-81200000D02*
X79732380Y-81200000D01*
X79875238Y-81295238D01*
X79970476Y-81390476D01*
X80018095Y-81485714D01*
X244288571Y-92417619D02*
X244193333Y-92370000D01*
X244098095Y-92274761D01*
X243955238Y-92131904D01*
X243860000Y-92084285D01*
X243764761Y-92084285D01*
X243812380Y-92322380D02*
X243717142Y-92274761D01*
X243621904Y-92179523D01*
X243574285Y-91989047D01*
X243574285Y-91655714D01*
X243621904Y-91465238D01*
X243717142Y-91370000D01*
X243812380Y-91322380D01*
X244002857Y-91322380D01*
X244098095Y-91370000D01*
X244193333Y-91465238D01*
X244240952Y-91655714D01*
X244240952Y-91989047D01*
X244193333Y-92179523D01*
X244098095Y-92274761D01*
X244002857Y-92322380D01*
X243812380Y-92322380D01*
X245193333Y-92322380D02*
X244621904Y-92322380D01*
X244907619Y-92322380D02*
X244907619Y-91322380D01*
X244812380Y-91465238D01*
X244717142Y-91560476D01*
X244621904Y-91608095D01*
X245574285Y-91417619D02*
X245621904Y-91370000D01*
X245717142Y-91322380D01*
X245955238Y-91322380D01*
X246050476Y-91370000D01*
X246098095Y-91417619D01*
X246145714Y-91512857D01*
X246145714Y-91608095D01*
X246098095Y-91750952D01*
X245526666Y-92322380D01*
X246145714Y-92322380D01*
X197828571Y-92417619D02*
X197733333Y-92370000D01*
X197638095Y-92274761D01*
X197495238Y-92131904D01*
X197400000Y-92084285D01*
X197304761Y-92084285D01*
X197352380Y-92322380D02*
X197257142Y-92274761D01*
X197161904Y-92179523D01*
X197114285Y-91989047D01*
X197114285Y-91655714D01*
X197161904Y-91465238D01*
X197257142Y-91370000D01*
X197352380Y-91322380D01*
X197542857Y-91322380D01*
X197638095Y-91370000D01*
X197733333Y-91465238D01*
X197780952Y-91655714D01*
X197780952Y-91989047D01*
X197733333Y-92179523D01*
X197638095Y-92274761D01*
X197542857Y-92322380D01*
X197352380Y-92322380D01*
X198733333Y-92322380D02*
X198161904Y-92322380D01*
X198447619Y-92322380D02*
X198447619Y-91322380D01*
X198352380Y-91465238D01*
X198257142Y-91560476D01*
X198161904Y-91608095D01*
X199685714Y-92322380D02*
X199114285Y-92322380D01*
X199400000Y-92322380D02*
X199400000Y-91322380D01*
X199304761Y-91465238D01*
X199209523Y-91560476D01*
X199114285Y-91608095D01*
X209288571Y-92417619D02*
X209193333Y-92370000D01*
X209098095Y-92274761D01*
X208955238Y-92131904D01*
X208860000Y-92084285D01*
X208764761Y-92084285D01*
X208812380Y-92322380D02*
X208717142Y-92274761D01*
X208621904Y-92179523D01*
X208574285Y-91989047D01*
X208574285Y-91655714D01*
X208621904Y-91465238D01*
X208717142Y-91370000D01*
X208812380Y-91322380D01*
X209002857Y-91322380D01*
X209098095Y-91370000D01*
X209193333Y-91465238D01*
X209240952Y-91655714D01*
X209240952Y-91989047D01*
X209193333Y-92179523D01*
X209098095Y-92274761D01*
X209002857Y-92322380D01*
X208812380Y-92322380D01*
X210193333Y-92322380D02*
X209621904Y-92322380D01*
X209907619Y-92322380D02*
X209907619Y-91322380D01*
X209812380Y-91465238D01*
X209717142Y-91560476D01*
X209621904Y-91608095D01*
X210812380Y-91322380D02*
X210907619Y-91322380D01*
X211002857Y-91370000D01*
X211050476Y-91417619D01*
X211098095Y-91512857D01*
X211145714Y-91703333D01*
X211145714Y-91941428D01*
X211098095Y-92131904D01*
X211050476Y-92227142D01*
X211002857Y-92274761D01*
X210907619Y-92322380D01*
X210812380Y-92322380D01*
X210717142Y-92274761D01*
X210669523Y-92227142D01*
X210621904Y-92131904D01*
X210574285Y-91941428D01*
X210574285Y-91703333D01*
X210621904Y-91512857D01*
X210669523Y-91417619D01*
X210717142Y-91370000D01*
X210812380Y-91322380D01*
X221144761Y-92417619D02*
X221049523Y-92370000D01*
X220954285Y-92274761D01*
X220811428Y-92131904D01*
X220716190Y-92084285D01*
X220620952Y-92084285D01*
X220668571Y-92322380D02*
X220573333Y-92274761D01*
X220478095Y-92179523D01*
X220430476Y-91989047D01*
X220430476Y-91655714D01*
X220478095Y-91465238D01*
X220573333Y-91370000D01*
X220668571Y-91322380D01*
X220859047Y-91322380D01*
X220954285Y-91370000D01*
X221049523Y-91465238D01*
X221097142Y-91655714D01*
X221097142Y-91989047D01*
X221049523Y-92179523D01*
X220954285Y-92274761D01*
X220859047Y-92322380D01*
X220668571Y-92322380D01*
X221573333Y-92322380D02*
X221763809Y-92322380D01*
X221859047Y-92274761D01*
X221906666Y-92227142D01*
X222001904Y-92084285D01*
X222049523Y-91893809D01*
X222049523Y-91512857D01*
X222001904Y-91417619D01*
X221954285Y-91370000D01*
X221859047Y-91322380D01*
X221668571Y-91322380D01*
X221573333Y-91370000D01*
X221525714Y-91417619D01*
X221478095Y-91512857D01*
X221478095Y-91750952D01*
X221525714Y-91846190D01*
X221573333Y-91893809D01*
X221668571Y-91941428D01*
X221859047Y-91941428D01*
X221954285Y-91893809D01*
X222001904Y-91846190D01*
X222049523Y-91750952D01*
X174664761Y-92417619D02*
X174569523Y-92370000D01*
X174474285Y-92274761D01*
X174331428Y-92131904D01*
X174236190Y-92084285D01*
X174140952Y-92084285D01*
X174188571Y-92322380D02*
X174093333Y-92274761D01*
X173998095Y-92179523D01*
X173950476Y-91989047D01*
X173950476Y-91655714D01*
X173998095Y-91465238D01*
X174093333Y-91370000D01*
X174188571Y-91322380D01*
X174379047Y-91322380D01*
X174474285Y-91370000D01*
X174569523Y-91465238D01*
X174617142Y-91655714D01*
X174617142Y-91989047D01*
X174569523Y-92179523D01*
X174474285Y-92274761D01*
X174379047Y-92322380D01*
X174188571Y-92322380D01*
X175188571Y-91750952D02*
X175093333Y-91703333D01*
X175045714Y-91655714D01*
X174998095Y-91560476D01*
X174998095Y-91512857D01*
X175045714Y-91417619D01*
X175093333Y-91370000D01*
X175188571Y-91322380D01*
X175379047Y-91322380D01*
X175474285Y-91370000D01*
X175521904Y-91417619D01*
X175569523Y-91512857D01*
X175569523Y-91560476D01*
X175521904Y-91655714D01*
X175474285Y-91703333D01*
X175379047Y-91750952D01*
X175188571Y-91750952D01*
X175093333Y-91798571D01*
X175045714Y-91846190D01*
X174998095Y-91941428D01*
X174998095Y-92131904D01*
X175045714Y-92227142D01*
X175093333Y-92274761D01*
X175188571Y-92322380D01*
X175379047Y-92322380D01*
X175474285Y-92274761D01*
X175521904Y-92227142D01*
X175569523Y-92131904D01*
X175569523Y-91941428D01*
X175521904Y-91846190D01*
X175474285Y-91798571D01*
X175379047Y-91750952D01*
X261617619Y-75135238D02*
X261570000Y-75230476D01*
X261474761Y-75325714D01*
X261331904Y-75468571D01*
X261284285Y-75563809D01*
X261284285Y-75659047D01*
X261522380Y-75611428D02*
X261474761Y-75706666D01*
X261379523Y-75801904D01*
X261189047Y-75849523D01*
X260855714Y-75849523D01*
X260665238Y-75801904D01*
X260570000Y-75706666D01*
X260522380Y-75611428D01*
X260522380Y-75420952D01*
X260570000Y-75325714D01*
X260665238Y-75230476D01*
X260855714Y-75182857D01*
X261189047Y-75182857D01*
X261379523Y-75230476D01*
X261474761Y-75325714D01*
X261522380Y-75420952D01*
X261522380Y-75611428D01*
X260522380Y-74849523D02*
X260522380Y-74182857D01*
X261522380Y-74611428D01*
X150264761Y-92417619D02*
X150169523Y-92370000D01*
X150074285Y-92274761D01*
X149931428Y-92131904D01*
X149836190Y-92084285D01*
X149740952Y-92084285D01*
X149788571Y-92322380D02*
X149693333Y-92274761D01*
X149598095Y-92179523D01*
X149550476Y-91989047D01*
X149550476Y-91655714D01*
X149598095Y-91465238D01*
X149693333Y-91370000D01*
X149788571Y-91322380D01*
X149979047Y-91322380D01*
X150074285Y-91370000D01*
X150169523Y-91465238D01*
X150217142Y-91655714D01*
X150217142Y-91989047D01*
X150169523Y-92179523D01*
X150074285Y-92274761D01*
X149979047Y-92322380D01*
X149788571Y-92322380D01*
X151074285Y-91322380D02*
X150883809Y-91322380D01*
X150788571Y-91370000D01*
X150740952Y-91417619D01*
X150645714Y-91560476D01*
X150598095Y-91750952D01*
X150598095Y-92131904D01*
X150645714Y-92227142D01*
X150693333Y-92274761D01*
X150788571Y-92322380D01*
X150979047Y-92322380D01*
X151074285Y-92274761D01*
X151121904Y-92227142D01*
X151169523Y-92131904D01*
X151169523Y-91893809D01*
X151121904Y-91798571D01*
X151074285Y-91750952D01*
X150979047Y-91703333D01*
X150788571Y-91703333D01*
X150693333Y-91750952D01*
X150645714Y-91798571D01*
X150598095Y-91893809D01*
X103164761Y-92417619D02*
X103069523Y-92370000D01*
X102974285Y-92274761D01*
X102831428Y-92131904D01*
X102736190Y-92084285D01*
X102640952Y-92084285D01*
X102688571Y-92322380D02*
X102593333Y-92274761D01*
X102498095Y-92179523D01*
X102450476Y-91989047D01*
X102450476Y-91655714D01*
X102498095Y-91465238D01*
X102593333Y-91370000D01*
X102688571Y-91322380D01*
X102879047Y-91322380D01*
X102974285Y-91370000D01*
X103069523Y-91465238D01*
X103117142Y-91655714D01*
X103117142Y-91989047D01*
X103069523Y-92179523D01*
X102974285Y-92274761D01*
X102879047Y-92322380D01*
X102688571Y-92322380D01*
X104021904Y-91322380D02*
X103545714Y-91322380D01*
X103498095Y-91798571D01*
X103545714Y-91750952D01*
X103640952Y-91703333D01*
X103879047Y-91703333D01*
X103974285Y-91750952D01*
X104021904Y-91798571D01*
X104069523Y-91893809D01*
X104069523Y-92131904D01*
X104021904Y-92227142D01*
X103974285Y-92274761D01*
X103879047Y-92322380D01*
X103640952Y-92322380D01*
X103545714Y-92274761D01*
X103498095Y-92227142D01*
X162464761Y-92417619D02*
X162369523Y-92370000D01*
X162274285Y-92274761D01*
X162131428Y-92131904D01*
X162036190Y-92084285D01*
X161940952Y-92084285D01*
X161988571Y-92322380D02*
X161893333Y-92274761D01*
X161798095Y-92179523D01*
X161750476Y-91989047D01*
X161750476Y-91655714D01*
X161798095Y-91465238D01*
X161893333Y-91370000D01*
X161988571Y-91322380D01*
X162179047Y-91322380D01*
X162274285Y-91370000D01*
X162369523Y-91465238D01*
X162417142Y-91655714D01*
X162417142Y-91989047D01*
X162369523Y-92179523D01*
X162274285Y-92274761D01*
X162179047Y-92322380D01*
X161988571Y-92322380D01*
X163274285Y-91655714D02*
X163274285Y-92322380D01*
X163036190Y-91274761D02*
X162798095Y-91989047D01*
X163417142Y-91989047D01*
X114964761Y-92417619D02*
X114869523Y-92370000D01*
X114774285Y-92274761D01*
X114631428Y-92131904D01*
X114536190Y-92084285D01*
X114440952Y-92084285D01*
X114488571Y-92322380D02*
X114393333Y-92274761D01*
X114298095Y-92179523D01*
X114250476Y-91989047D01*
X114250476Y-91655714D01*
X114298095Y-91465238D01*
X114393333Y-91370000D01*
X114488571Y-91322380D01*
X114679047Y-91322380D01*
X114774285Y-91370000D01*
X114869523Y-91465238D01*
X114917142Y-91655714D01*
X114917142Y-91989047D01*
X114869523Y-92179523D01*
X114774285Y-92274761D01*
X114679047Y-92322380D01*
X114488571Y-92322380D01*
X115250476Y-91322380D02*
X115869523Y-91322380D01*
X115536190Y-91703333D01*
X115679047Y-91703333D01*
X115774285Y-91750952D01*
X115821904Y-91798571D01*
X115869523Y-91893809D01*
X115869523Y-92131904D01*
X115821904Y-92227142D01*
X115774285Y-92274761D01*
X115679047Y-92322380D01*
X115393333Y-92322380D01*
X115298095Y-92274761D01*
X115250476Y-92227142D01*
X126664761Y-92417619D02*
X126569523Y-92370000D01*
X126474285Y-92274761D01*
X126331428Y-92131904D01*
X126236190Y-92084285D01*
X126140952Y-92084285D01*
X126188571Y-92322380D02*
X126093333Y-92274761D01*
X125998095Y-92179523D01*
X125950476Y-91989047D01*
X125950476Y-91655714D01*
X125998095Y-91465238D01*
X126093333Y-91370000D01*
X126188571Y-91322380D01*
X126379047Y-91322380D01*
X126474285Y-91370000D01*
X126569523Y-91465238D01*
X126617142Y-91655714D01*
X126617142Y-91989047D01*
X126569523Y-92179523D01*
X126474285Y-92274761D01*
X126379047Y-92322380D01*
X126188571Y-92322380D01*
X126998095Y-91417619D02*
X127045714Y-91370000D01*
X127140952Y-91322380D01*
X127379047Y-91322380D01*
X127474285Y-91370000D01*
X127521904Y-91417619D01*
X127569523Y-91512857D01*
X127569523Y-91608095D01*
X127521904Y-91750952D01*
X126950476Y-92322380D01*
X127569523Y-92322380D01*
X79464761Y-92417619D02*
X79369523Y-92370000D01*
X79274285Y-92274761D01*
X79131428Y-92131904D01*
X79036190Y-92084285D01*
X78940952Y-92084285D01*
X78988571Y-92322380D02*
X78893333Y-92274761D01*
X78798095Y-92179523D01*
X78750476Y-91989047D01*
X78750476Y-91655714D01*
X78798095Y-91465238D01*
X78893333Y-91370000D01*
X78988571Y-91322380D01*
X79179047Y-91322380D01*
X79274285Y-91370000D01*
X79369523Y-91465238D01*
X79417142Y-91655714D01*
X79417142Y-91989047D01*
X79369523Y-92179523D01*
X79274285Y-92274761D01*
X79179047Y-92322380D01*
X78988571Y-92322380D01*
X80369523Y-92322380D02*
X79798095Y-92322380D01*
X80083809Y-92322380D02*
X80083809Y-91322380D01*
X79988571Y-91465238D01*
X79893333Y-91560476D01*
X79798095Y-91608095D01*
X244261904Y-49552380D02*
X244261904Y-48552380D01*
X244833333Y-49552380D02*
X244404761Y-48980952D01*
X244833333Y-48552380D02*
X244261904Y-49123809D01*
X245404761Y-48980952D02*
X245309523Y-48933333D01*
X245261904Y-48885714D01*
X245214285Y-48790476D01*
X245214285Y-48742857D01*
X245261904Y-48647619D01*
X245309523Y-48600000D01*
X245404761Y-48552380D01*
X245595238Y-48552380D01*
X245690476Y-48600000D01*
X245738095Y-48647619D01*
X245785714Y-48742857D01*
X245785714Y-48790476D01*
X245738095Y-48885714D01*
X245690476Y-48933333D01*
X245595238Y-48980952D01*
X245404761Y-48980952D01*
X245309523Y-49028571D01*
X245261904Y-49076190D01*
X245214285Y-49171428D01*
X245214285Y-49361904D01*
X245261904Y-49457142D01*
X245309523Y-49504761D01*
X245404761Y-49552380D01*
X245595238Y-49552380D01*
X245690476Y-49504761D01*
X245738095Y-49457142D01*
X245785714Y-49361904D01*
X245785714Y-49171428D01*
X245738095Y-49076190D01*
X245690476Y-49028571D01*
X245595238Y-48980952D01*
X197561904Y-49552380D02*
X197561904Y-48552380D01*
X198133333Y-49552380D02*
X197704761Y-48980952D01*
X198133333Y-48552380D02*
X197561904Y-49123809D01*
X198466666Y-48552380D02*
X199133333Y-48552380D01*
X198704761Y-49552380D01*
X221161904Y-49552380D02*
X221161904Y-48552380D01*
X221733333Y-49552380D02*
X221304761Y-48980952D01*
X221733333Y-48552380D02*
X221161904Y-49123809D01*
X222590476Y-48552380D02*
X222400000Y-48552380D01*
X222304761Y-48600000D01*
X222257142Y-48647619D01*
X222161904Y-48790476D01*
X222114285Y-48980952D01*
X222114285Y-49361904D01*
X222161904Y-49457142D01*
X222209523Y-49504761D01*
X222304761Y-49552380D01*
X222495238Y-49552380D01*
X222590476Y-49504761D01*
X222638095Y-49457142D01*
X222685714Y-49361904D01*
X222685714Y-49123809D01*
X222638095Y-49028571D01*
X222590476Y-48980952D01*
X222495238Y-48933333D01*
X222304761Y-48933333D01*
X222209523Y-48980952D01*
X222161904Y-49028571D01*
X222114285Y-49123809D01*
X173561904Y-49552380D02*
X173561904Y-48552380D01*
X174133333Y-49552380D02*
X173704761Y-48980952D01*
X174133333Y-48552380D02*
X173561904Y-49123809D01*
X175038095Y-48552380D02*
X174561904Y-48552380D01*
X174514285Y-49028571D01*
X174561904Y-48980952D01*
X174657142Y-48933333D01*
X174895238Y-48933333D01*
X174990476Y-48980952D01*
X175038095Y-49028571D01*
X175085714Y-49123809D01*
X175085714Y-49361904D01*
X175038095Y-49457142D01*
X174990476Y-49504761D01*
X174895238Y-49552380D01*
X174657142Y-49552380D01*
X174561904Y-49504761D01*
X174514285Y-49457142D01*
X149861904Y-49552380D02*
X149861904Y-48552380D01*
X150433333Y-49552380D02*
X150004761Y-48980952D01*
X150433333Y-48552380D02*
X149861904Y-49123809D01*
X151290476Y-48885714D02*
X151290476Y-49552380D01*
X151052380Y-48504761D02*
X150814285Y-49219047D01*
X151433333Y-49219047D01*
X102321904Y-49652380D02*
X102321904Y-48652380D01*
X102893333Y-49652380D02*
X102464761Y-49080952D01*
X102893333Y-48652380D02*
X102321904Y-49223809D01*
X103226666Y-48652380D02*
X103845714Y-48652380D01*
X103512380Y-49033333D01*
X103655238Y-49033333D01*
X103750476Y-49080952D01*
X103798095Y-49128571D01*
X103845714Y-49223809D01*
X103845714Y-49461904D01*
X103798095Y-49557142D01*
X103750476Y-49604761D01*
X103655238Y-49652380D01*
X103369523Y-49652380D01*
X103274285Y-49604761D01*
X103226666Y-49557142D01*
X125961904Y-49552380D02*
X125961904Y-48552380D01*
X126533333Y-49552380D02*
X126104761Y-48980952D01*
X126533333Y-48552380D02*
X125961904Y-49123809D01*
X126914285Y-48647619D02*
X126961904Y-48600000D01*
X127057142Y-48552380D01*
X127295238Y-48552380D01*
X127390476Y-48600000D01*
X127438095Y-48647619D01*
X127485714Y-48742857D01*
X127485714Y-48838095D01*
X127438095Y-48980952D01*
X126866666Y-49552380D01*
X127485714Y-49552380D01*
X78821904Y-49552380D02*
X78821904Y-48552380D01*
X79393333Y-49552380D02*
X78964761Y-48980952D01*
X79393333Y-48552380D02*
X78821904Y-49123809D01*
X80345714Y-49552380D02*
X79774285Y-49552380D01*
X80060000Y-49552380D02*
X80060000Y-48552380D01*
X79964761Y-48695238D01*
X79869523Y-48790476D01*
X79774285Y-48838095D01*
X244061904Y-85452380D02*
X244061904Y-84452380D01*
X244300000Y-84452380D01*
X244442857Y-84500000D01*
X244538095Y-84595238D01*
X244585714Y-84690476D01*
X244633333Y-84880952D01*
X244633333Y-85023809D01*
X244585714Y-85214285D01*
X244538095Y-85309523D01*
X244442857Y-85404761D01*
X244300000Y-85452380D01*
X244061904Y-85452380D01*
X245204761Y-84880952D02*
X245109523Y-84833333D01*
X245061904Y-84785714D01*
X245014285Y-84690476D01*
X245014285Y-84642857D01*
X245061904Y-84547619D01*
X245109523Y-84500000D01*
X245204761Y-84452380D01*
X245395238Y-84452380D01*
X245490476Y-84500000D01*
X245538095Y-84547619D01*
X245585714Y-84642857D01*
X245585714Y-84690476D01*
X245538095Y-84785714D01*
X245490476Y-84833333D01*
X245395238Y-84880952D01*
X245204761Y-84880952D01*
X245109523Y-84928571D01*
X245061904Y-84976190D01*
X245014285Y-85071428D01*
X245014285Y-85261904D01*
X245061904Y-85357142D01*
X245109523Y-85404761D01*
X245204761Y-85452380D01*
X245395238Y-85452380D01*
X245490476Y-85404761D01*
X245538095Y-85357142D01*
X245585714Y-85261904D01*
X245585714Y-85071428D01*
X245538095Y-84976190D01*
X245490476Y-84928571D01*
X245395238Y-84880952D01*
X197661904Y-85552380D02*
X197661904Y-84552380D01*
X197900000Y-84552380D01*
X198042857Y-84600000D01*
X198138095Y-84695238D01*
X198185714Y-84790476D01*
X198233333Y-84980952D01*
X198233333Y-85123809D01*
X198185714Y-85314285D01*
X198138095Y-85409523D01*
X198042857Y-85504761D01*
X197900000Y-85552380D01*
X197661904Y-85552380D01*
X198566666Y-84552380D02*
X199233333Y-84552380D01*
X198804761Y-85552380D01*
X214852380Y-79938095D02*
X213852380Y-79938095D01*
X213852380Y-79700000D01*
X213900000Y-79557142D01*
X213995238Y-79461904D01*
X214090476Y-79414285D01*
X214280952Y-79366666D01*
X214423809Y-79366666D01*
X214614285Y-79414285D01*
X214709523Y-79461904D01*
X214804761Y-79557142D01*
X214852380Y-79700000D01*
X214852380Y-79938095D01*
X213852380Y-78509523D02*
X213852380Y-78700000D01*
X213900000Y-78795238D01*
X213947619Y-78842857D01*
X214090476Y-78938095D01*
X214280952Y-78985714D01*
X214661904Y-78985714D01*
X214757142Y-78938095D01*
X214804761Y-78890476D01*
X214852380Y-78795238D01*
X214852380Y-78604761D01*
X214804761Y-78509523D01*
X214757142Y-78461904D01*
X214661904Y-78414285D01*
X214423809Y-78414285D01*
X214328571Y-78461904D01*
X214280952Y-78509523D01*
X214233333Y-78604761D01*
X214233333Y-78795238D01*
X214280952Y-78890476D01*
X214328571Y-78938095D01*
X214423809Y-78985714D01*
X167452380Y-79938095D02*
X166452380Y-79938095D01*
X166452380Y-79700000D01*
X166500000Y-79557142D01*
X166595238Y-79461904D01*
X166690476Y-79414285D01*
X166880952Y-79366666D01*
X167023809Y-79366666D01*
X167214285Y-79414285D01*
X167309523Y-79461904D01*
X167404761Y-79557142D01*
X167452380Y-79700000D01*
X167452380Y-79938095D01*
X166452380Y-78461904D02*
X166452380Y-78938095D01*
X166928571Y-78985714D01*
X166880952Y-78938095D01*
X166833333Y-78842857D01*
X166833333Y-78604761D01*
X166880952Y-78509523D01*
X166928571Y-78461904D01*
X167023809Y-78414285D01*
X167261904Y-78414285D01*
X167357142Y-78461904D01*
X167404761Y-78509523D01*
X167452380Y-78604761D01*
X167452380Y-78842857D01*
X167404761Y-78938095D01*
X167357142Y-78985714D01*
X149661904Y-85352380D02*
X149661904Y-84352380D01*
X149900000Y-84352380D01*
X150042857Y-84400000D01*
X150138095Y-84495238D01*
X150185714Y-84590476D01*
X150233333Y-84780952D01*
X150233333Y-84923809D01*
X150185714Y-85114285D01*
X150138095Y-85209523D01*
X150042857Y-85304761D01*
X149900000Y-85352380D01*
X149661904Y-85352380D01*
X151090476Y-84685714D02*
X151090476Y-85352380D01*
X150852380Y-84304761D02*
X150614285Y-85019047D01*
X151233333Y-85019047D01*
X102461904Y-85452380D02*
X102461904Y-84452380D01*
X102700000Y-84452380D01*
X102842857Y-84500000D01*
X102938095Y-84595238D01*
X102985714Y-84690476D01*
X103033333Y-84880952D01*
X103033333Y-85023809D01*
X102985714Y-85214285D01*
X102938095Y-85309523D01*
X102842857Y-85404761D01*
X102700000Y-85452380D01*
X102461904Y-85452380D01*
X103366666Y-84452380D02*
X103985714Y-84452380D01*
X103652380Y-84833333D01*
X103795238Y-84833333D01*
X103890476Y-84880952D01*
X103938095Y-84928571D01*
X103985714Y-85023809D01*
X103985714Y-85261904D01*
X103938095Y-85357142D01*
X103890476Y-85404761D01*
X103795238Y-85452380D01*
X103509523Y-85452380D01*
X103414285Y-85404761D01*
X103366666Y-85357142D01*
X119452380Y-79938095D02*
X118452380Y-79938095D01*
X118452380Y-79700000D01*
X118500000Y-79557142D01*
X118595238Y-79461904D01*
X118690476Y-79414285D01*
X118880952Y-79366666D01*
X119023809Y-79366666D01*
X119214285Y-79414285D01*
X119309523Y-79461904D01*
X119404761Y-79557142D01*
X119452380Y-79700000D01*
X119452380Y-79938095D01*
X118547619Y-78985714D02*
X118500000Y-78938095D01*
X118452380Y-78842857D01*
X118452380Y-78604761D01*
X118500000Y-78509523D01*
X118547619Y-78461904D01*
X118642857Y-78414285D01*
X118738095Y-78414285D01*
X118880952Y-78461904D01*
X119452380Y-79033333D01*
X119452380Y-78414285D01*
X72252380Y-80038095D02*
X71252380Y-80038095D01*
X71252380Y-79800000D01*
X71300000Y-79657142D01*
X71395238Y-79561904D01*
X71490476Y-79514285D01*
X71680952Y-79466666D01*
X71823809Y-79466666D01*
X72014285Y-79514285D01*
X72109523Y-79561904D01*
X72204761Y-79657142D01*
X72252380Y-79800000D01*
X72252380Y-80038095D01*
X72252380Y-78514285D02*
X72252380Y-79085714D01*
X72252380Y-78800000D02*
X71252380Y-78800000D01*
X71395238Y-78895238D01*
X71490476Y-78990476D01*
X71538095Y-79085714D01*
M02*
