M48
; DRILL file {KiCad (5.1.9)-1} date 01/28/21 15:19:41
; FORMAT={2:4/ absolute / inch / suppress leading zeros}
; #@! TF.CreationDate,2021-01-28T15:19:41-05:00
; #@! TF.GenerationSoftware,Kicad,Pcbnew,(5.1.9)-1
; #@! TF.FileFunction,NonPlated,1,2,NPTH
FMAT,2
INCH,TZ
T1C0.1181
T2C0.1260
%
G90
G05
T1
X30039Y-13071
X36024Y-13071
X36024Y-34417
X42047Y-13071
X48425Y-13071
X54449Y-13071
X54567Y-34457
X60472Y-13031
X67126Y-13031
X73150Y-13031
X73465Y-34457
X79134Y-13071
X85945Y-13071
X91772Y-34417
X91969Y-13071
X97992Y-13071
T2
X26457Y-13307
X26457Y-34882
X101417Y-13307
X101417Y-34882
T0
M30
