G04 #@! TF.GenerationSoftware,KiCad,Pcbnew,(5.1.9)-1*
G04 #@! TF.CreationDate,2021-01-28T15:20:20-05:00*
G04 #@! TF.ProjectId,PeltierPWMControl,50656c74-6965-4725-9057-4d436f6e7472,rev?*
G04 #@! TF.SameCoordinates,Original*
G04 #@! TF.FileFunction,Soldermask,Bot*
G04 #@! TF.FilePolarity,Negative*
%FSLAX46Y46*%
G04 Gerber Fmt 4.6, Leading zero omitted, Abs format (unit mm)*
G04 Created by KiCad (PCBNEW (5.1.9)-1) date 2021-01-28 15:20:20*
%MOMM*%
%LPD*%
G01*
G04 APERTURE LIST*
%ADD10C,3.000000*%
%ADD11O,2.700000X3.700000*%
%ADD12C,1.500000*%
%ADD13C,3.200000*%
%ADD14O,1.905000X2.000000*%
%ADD15R,1.905000X2.000000*%
%ADD16O,2.000000X1.905000*%
%ADD17R,2.000000X1.905000*%
%ADD18O,2.500000X2.500000*%
%ADD19R,2.500000X2.500000*%
G04 APERTURE END LIST*
D10*
X248900000Y-33200000D03*
D11*
X248900000Y-46000000D03*
G36*
G01*
X247550000Y-42099999D02*
X247550000Y-38900001D01*
G75*
G02*
X247800001Y-38650000I250001J0D01*
G01*
X249999999Y-38650000D01*
G75*
G02*
X250250000Y-38900001I0J-250001D01*
G01*
X250250000Y-42099999D01*
G75*
G02*
X249999999Y-42350000I-250001J0D01*
G01*
X247800001Y-42350000D01*
G75*
G02*
X247550000Y-42099999I0J250001D01*
G01*
G37*
D10*
X201000000Y-33200000D03*
D11*
X201000000Y-46000000D03*
G36*
G01*
X199650000Y-42099999D02*
X199650000Y-38900001D01*
G75*
G02*
X199900001Y-38650000I250001J0D01*
G01*
X202099999Y-38650000D01*
G75*
G02*
X202350000Y-38900001I0J-250001D01*
G01*
X202350000Y-42099999D01*
G75*
G02*
X202099999Y-42350000I-250001J0D01*
G01*
X199900001Y-42350000D01*
G75*
G02*
X199650000Y-42099999I0J250001D01*
G01*
G37*
D10*
X185800000Y-33100000D03*
D11*
X185800000Y-45900000D03*
G36*
G01*
X184450000Y-41999999D02*
X184450000Y-38800001D01*
G75*
G02*
X184700001Y-38550000I250001J0D01*
G01*
X186899999Y-38550000D01*
G75*
G02*
X187150000Y-38800001I0J-250001D01*
G01*
X187150000Y-41999999D01*
G75*
G02*
X186899999Y-42250000I-250001J0D01*
G01*
X184700001Y-42250000D01*
G75*
G02*
X184450000Y-41999999I0J250001D01*
G01*
G37*
D10*
X233600000Y-33200000D03*
D11*
X233600000Y-46000000D03*
G36*
G01*
X232250000Y-42099999D02*
X232250000Y-38900001D01*
G75*
G02*
X232500001Y-38650000I250001J0D01*
G01*
X234699999Y-38650000D01*
G75*
G02*
X234950000Y-38900001I0J-250001D01*
G01*
X234950000Y-42099999D01*
G75*
G02*
X234699999Y-42350000I-250001J0D01*
G01*
X232500001Y-42350000D01*
G75*
G02*
X232250000Y-42099999I0J250001D01*
G01*
G37*
D10*
X218300000Y-33200000D03*
D11*
X218300000Y-46000000D03*
G36*
G01*
X216950000Y-42099999D02*
X216950000Y-38900001D01*
G75*
G02*
X217200001Y-38650000I250001J0D01*
G01*
X219399999Y-38650000D01*
G75*
G02*
X219650000Y-38900001I0J-250001D01*
G01*
X219650000Y-42099999D01*
G75*
G02*
X219399999Y-42350000I-250001J0D01*
G01*
X217200001Y-42350000D01*
G75*
G02*
X216950000Y-42099999I0J250001D01*
G01*
G37*
D10*
X170500000Y-33100000D03*
D11*
X170500000Y-45900000D03*
G36*
G01*
X169150000Y-41999999D02*
X169150000Y-38800001D01*
G75*
G02*
X169400001Y-38550000I250001J0D01*
G01*
X171599999Y-38550000D01*
G75*
G02*
X171850000Y-38800001I0J-250001D01*
G01*
X171850000Y-41999999D01*
G75*
G02*
X171599999Y-42250000I-250001J0D01*
G01*
X169400001Y-42250000D01*
G75*
G02*
X169150000Y-41999999I0J250001D01*
G01*
G37*
D10*
X153600000Y-33100000D03*
D11*
X153600000Y-45900000D03*
G36*
G01*
X152250000Y-41999999D02*
X152250000Y-38800001D01*
G75*
G02*
X152500001Y-38550000I250001J0D01*
G01*
X154699999Y-38550000D01*
G75*
G02*
X154950000Y-38800001I0J-250001D01*
G01*
X154950000Y-41999999D01*
G75*
G02*
X154699999Y-42250000I-250001J0D01*
G01*
X152500001Y-42250000D01*
G75*
G02*
X152250000Y-41999999I0J250001D01*
G01*
G37*
D10*
X138300000Y-33200000D03*
D11*
X138300000Y-46000000D03*
G36*
G01*
X136950000Y-42099999D02*
X136950000Y-38900001D01*
G75*
G02*
X137200001Y-38650000I250001J0D01*
G01*
X139399999Y-38650000D01*
G75*
G02*
X139650000Y-38900001I0J-250001D01*
G01*
X139650000Y-42099999D01*
G75*
G02*
X139399999Y-42350000I-250001J0D01*
G01*
X137200001Y-42350000D01*
G75*
G02*
X136950000Y-42099999I0J250001D01*
G01*
G37*
D10*
X106800000Y-33200000D03*
D11*
X106800000Y-46000000D03*
G36*
G01*
X105450000Y-42099999D02*
X105450000Y-38900001D01*
G75*
G02*
X105700001Y-38650000I250001J0D01*
G01*
X107899999Y-38650000D01*
G75*
G02*
X108150000Y-38900001I0J-250001D01*
G01*
X108150000Y-42099999D01*
G75*
G02*
X107899999Y-42350000I-250001J0D01*
G01*
X105700001Y-42350000D01*
G75*
G02*
X105450000Y-42099999I0J250001D01*
G01*
G37*
D10*
X91500000Y-33200000D03*
D11*
X91500000Y-46000000D03*
G36*
G01*
X90150000Y-42099999D02*
X90150000Y-38900001D01*
G75*
G02*
X90400001Y-38650000I250001J0D01*
G01*
X92599999Y-38650000D01*
G75*
G02*
X92850000Y-38900001I0J-250001D01*
G01*
X92850000Y-42099999D01*
G75*
G02*
X92599999Y-42350000I-250001J0D01*
G01*
X90400001Y-42350000D01*
G75*
G02*
X90150000Y-42099999I0J250001D01*
G01*
G37*
D10*
X123000000Y-33200000D03*
D11*
X123000000Y-46000000D03*
G36*
G01*
X121650000Y-42099999D02*
X121650000Y-38900001D01*
G75*
G02*
X121900001Y-38650000I250001J0D01*
G01*
X124099999Y-38650000D01*
G75*
G02*
X124350000Y-38900001I0J-250001D01*
G01*
X124350000Y-42099999D01*
G75*
G02*
X124099999Y-42350000I-250001J0D01*
G01*
X121900001Y-42350000D01*
G75*
G02*
X121650000Y-42099999I0J250001D01*
G01*
G37*
D10*
X76300000Y-33200000D03*
D11*
X76300000Y-46000000D03*
G36*
G01*
X74950000Y-42099999D02*
X74950000Y-38900001D01*
G75*
G02*
X75200001Y-38650000I250001J0D01*
G01*
X77399999Y-38650000D01*
G75*
G02*
X77650000Y-38900001I0J-250001D01*
G01*
X77650000Y-42099999D01*
G75*
G02*
X77399999Y-42350000I-250001J0D01*
G01*
X75200001Y-42350000D01*
G75*
G02*
X74950000Y-42099999I0J250001D01*
G01*
G37*
D12*
X185100000Y-80200000D03*
X188100000Y-80200000D03*
X185100000Y-83200000D03*
G36*
G01*
X188850000Y-82700000D02*
X188850000Y-83700000D01*
G75*
G02*
X188600000Y-83950000I-250000J0D01*
G01*
X187600000Y-83950000D01*
G75*
G02*
X187350000Y-83700000I0J250000D01*
G01*
X187350000Y-82700000D01*
G75*
G02*
X187600000Y-82450000I250000J0D01*
G01*
X188600000Y-82450000D01*
G75*
G02*
X188850000Y-82700000I0J-250000D01*
G01*
G37*
D10*
X186600000Y-87520000D03*
D12*
X231600000Y-80100000D03*
X234600000Y-80100000D03*
X231600000Y-83100000D03*
G36*
G01*
X235350000Y-82600000D02*
X235350000Y-83600000D01*
G75*
G02*
X235100000Y-83850000I-250000J0D01*
G01*
X234100000Y-83850000D01*
G75*
G02*
X233850000Y-83600000I0J250000D01*
G01*
X233850000Y-82600000D01*
G75*
G02*
X234100000Y-82350000I250000J0D01*
G01*
X235100000Y-82350000D01*
G75*
G02*
X235350000Y-82600000I0J-250000D01*
G01*
G37*
D10*
X233100000Y-87420000D03*
D12*
X137100000Y-80200000D03*
X140100000Y-80200000D03*
X137100000Y-83200000D03*
G36*
G01*
X140850000Y-82700000D02*
X140850000Y-83700000D01*
G75*
G02*
X140600000Y-83950000I-250000J0D01*
G01*
X139600000Y-83950000D01*
G75*
G02*
X139350000Y-83700000I0J250000D01*
G01*
X139350000Y-82700000D01*
G75*
G02*
X139600000Y-82450000I250000J0D01*
G01*
X140600000Y-82450000D01*
G75*
G02*
X140850000Y-82700000I0J-250000D01*
G01*
G37*
D10*
X138600000Y-87520000D03*
D12*
X90000000Y-80100000D03*
X93000000Y-80100000D03*
X90000000Y-83100000D03*
G36*
G01*
X93750000Y-82600000D02*
X93750000Y-83600000D01*
G75*
G02*
X93500000Y-83850000I-250000J0D01*
G01*
X92500000Y-83850000D01*
G75*
G02*
X92250000Y-83600000I0J250000D01*
G01*
X92250000Y-82600000D01*
G75*
G02*
X92500000Y-82350000I250000J0D01*
G01*
X93500000Y-82350000D01*
G75*
G02*
X93750000Y-82600000I0J-250000D01*
G01*
G37*
D10*
X91500000Y-87420000D03*
D13*
X257600000Y-88600000D03*
X257600000Y-33800000D03*
X67200000Y-88600000D03*
X67200000Y-33800000D03*
D14*
X242320000Y-87600000D03*
X244860000Y-87600000D03*
D15*
X247400000Y-87600000D03*
D14*
X195860000Y-87600000D03*
X198400000Y-87600000D03*
D15*
X200940000Y-87600000D03*
D14*
X207320000Y-87600000D03*
X209860000Y-87600000D03*
D15*
X212400000Y-87600000D03*
D14*
X218700000Y-87600000D03*
X221240000Y-87600000D03*
D15*
X223780000Y-87600000D03*
D14*
X172220000Y-87600000D03*
X174760000Y-87600000D03*
D15*
X177300000Y-87600000D03*
D16*
X256800000Y-77580000D03*
X256800000Y-75040000D03*
D17*
X256800000Y-72500000D03*
D14*
X147820000Y-87600000D03*
X150360000Y-87600000D03*
D15*
X152900000Y-87600000D03*
D14*
X100720000Y-87600000D03*
X103260000Y-87600000D03*
D15*
X105800000Y-87600000D03*
D14*
X160020000Y-87600000D03*
X162560000Y-87600000D03*
D15*
X165100000Y-87600000D03*
D14*
X112520000Y-87600000D03*
X115060000Y-87600000D03*
D15*
X117600000Y-87600000D03*
D14*
X124220000Y-87600000D03*
X126760000Y-87600000D03*
D15*
X129300000Y-87600000D03*
D14*
X77020000Y-87600000D03*
X79560000Y-87600000D03*
D15*
X82100000Y-87600000D03*
D18*
X251000000Y-54700000D03*
X251000000Y-66900000D03*
X239000000Y-66900000D03*
X239000000Y-54700000D03*
D19*
X245000000Y-52700000D03*
D18*
X204300000Y-54700000D03*
X204300000Y-66900000D03*
X192300000Y-66900000D03*
X192300000Y-54700000D03*
D19*
X198300000Y-52700000D03*
D18*
X227900000Y-54700000D03*
X227900000Y-66900000D03*
X215900000Y-66900000D03*
X215900000Y-54700000D03*
D19*
X221900000Y-52700000D03*
D18*
X180300000Y-54700000D03*
X180300000Y-66900000D03*
X168300000Y-66900000D03*
X168300000Y-54700000D03*
D19*
X174300000Y-52700000D03*
D18*
X156500000Y-54700000D03*
X156500000Y-66900000D03*
X144500000Y-66900000D03*
X144500000Y-54700000D03*
D19*
X150500000Y-52700000D03*
D18*
X109060000Y-54800000D03*
X109060000Y-67000000D03*
X97060000Y-67000000D03*
X97060000Y-54800000D03*
D19*
X103060000Y-52800000D03*
D18*
X132700000Y-54700000D03*
X132700000Y-66900000D03*
X120700000Y-66900000D03*
X120700000Y-54700000D03*
D19*
X126700000Y-52700000D03*
D18*
X85560000Y-54700000D03*
X85560000Y-66900000D03*
X73560000Y-66900000D03*
X73560000Y-54700000D03*
D19*
X79560000Y-52700000D03*
M02*
