M48
; DRILL file {KiCad (5.1.9)-1} date 01/28/21 15:19:41
; FORMAT={2:4/ absolute / inch / suppress leading zeros}
; #@! TF.CreationDate,2021-01-28T15:19:41-05:00
; #@! TF.GenerationSoftware,Kicad,Pcbnew,(5.1.9)-1
; #@! TF.FileFunction,Plated,1,2,PTH
FMAT,2
INCH,TZ
T1C0.0157
T2C0.0402
T3C0.0433
T4C0.0512
T5C0.0709
%
G90
G05
T1
X25906Y-26142
X26063Y-22362
X26260Y-31299
X26339Y-17205
X26339Y-19685
X29882Y-31260
X32441Y-29252
X32874Y-15906
X33150Y-13425
X33268Y-17165
X35709Y-27087
X36220Y-23110
X39055Y-18543
X43268Y-30827
X43858Y-16496
X44803Y-16732
X45000Y-23110
X45039Y-18543
X45118Y-20945
X45157Y-14213
X45630Y-30551
X51102Y-17717
X51654Y-13465
X52717Y-34606
X56535Y-18189
X58228Y-13701
X61220Y-30354
X63307Y-18386
X63504Y-28386
X63701Y-23819
X64094Y-14843
X67402Y-33425
X70394Y-29803
X73150Y-28307
X75906Y-13346
X80551Y-30866
X82087Y-16378
X82283Y-30079
X82756Y-14567
X82835Y-30787
X84567Y-28622
X88386Y-22638
X88465Y-27874
X88583Y-30394
X89488Y-19016
X91535Y-28110
X93819Y-22638
X97992Y-14252
X98504Y-30709
X100866Y-26339
X101772Y-18780
T2
X35433Y-31535
X35433Y-32717
X36614Y-31535
X36614Y-32717
X53976Y-31575
X53976Y-32756
X55157Y-31575
X55157Y-32756
X72874Y-31575
X72874Y-32756
X74055Y-31575
X74055Y-32756
X91181Y-31535
X91181Y-32717
X92362Y-31535
X92362Y-32717
T3
X30323Y-34488
X31323Y-34488
X32323Y-34488
X39654Y-34488
X40654Y-34488
X41654Y-34488
X44299Y-34488
X45299Y-34488
X46299Y-34488
X48906Y-34488
X49906Y-34488
X50906Y-34488
X58197Y-34488
X59197Y-34488
X60197Y-34488
X63000Y-34488
X64000Y-34488
X65000Y-34488
X67803Y-34488
X68803Y-34488
X69803Y-34488
X77110Y-34488
X78110Y-34488
X79110Y-34488
X81622Y-34488
X82622Y-34488
X83622Y-34488
X86102Y-34488
X87102Y-34488
X88102Y-34488
X95402Y-34488
X96402Y-34488
X97402Y-34488
X101102Y-28543
X101102Y-29543
X101102Y-30543
T4
X28961Y-21535
X28961Y-26339
X31323Y-20748
X33685Y-21535
X33685Y-26339
X38213Y-21575
X38213Y-26378
X40575Y-20787
X42937Y-21575
X42937Y-26378
X47520Y-21535
X47520Y-26339
X49882Y-20748
X52244Y-21535
X52244Y-26339
X56890Y-21535
X56890Y-26339
X59252Y-20748
X61614Y-21535
X61614Y-26339
X66260Y-21535
X66260Y-26339
X68622Y-20748
X70984Y-21535
X70984Y-26339
X75709Y-21535
X75709Y-26339
X78071Y-20748
X80433Y-21535
X80433Y-26339
X85000Y-21535
X85000Y-26339
X87362Y-20748
X89724Y-21535
X89724Y-26339
X94094Y-21535
X94094Y-26339
X96457Y-20748
X98819Y-21535
X98819Y-26339
T5
X30039Y-15945
X30039Y-18110
X36024Y-15945
X36024Y-18110
X42047Y-15945
X42047Y-18110
X48425Y-15945
X48425Y-18110
X54449Y-15945
X54449Y-18110
X60472Y-15906
X60472Y-18071
X67126Y-15906
X67126Y-18071
X73150Y-15906
X73150Y-18071
X79134Y-15945
X79134Y-18110
X85945Y-15945
X85945Y-18110
X91969Y-15945
X91969Y-18110
X97992Y-15945
X97992Y-18110
T0
M30
