G04 #@! TF.GenerationSoftware,KiCad,Pcbnew,(5.1.9)-1*
G04 #@! TF.CreationDate,2021-01-28T15:57:22-05:00*
G04 #@! TF.ProjectId,SensorBoard,53656e73-6f72-4426-9f61-72642e6b6963,rev?*
G04 #@! TF.SameCoordinates,Original*
G04 #@! TF.FileFunction,Soldermask,Bot*
G04 #@! TF.FilePolarity,Negative*
%FSLAX46Y46*%
G04 Gerber Fmt 4.6, Leading zero omitted, Abs format (unit mm)*
G04 Created by KiCad (PCBNEW (5.1.9)-1) date 2021-01-28 15:57:22*
%MOMM*%
%LPD*%
G01*
G04 APERTURE LIST*
%ADD10C,3.000000*%
%ADD11O,2.700000X3.700000*%
%ADD12O,3.700000X2.700000*%
%ADD13C,2.400000*%
%ADD14R,2.400000X2.400000*%
%ADD15C,1.800000*%
%ADD16C,1.524000*%
%ADD17O,2.500000X2.500000*%
%ADD18R,2.500000X2.500000*%
%ADD19C,1.500000*%
%ADD20C,3.200000*%
%ADD21C,2.700000*%
G04 APERTURE END LIST*
D10*
X160000000Y-146300000D03*
D11*
X160000000Y-133500000D03*
G36*
G01*
X161350000Y-137400001D02*
X161350000Y-140599999D01*
G75*
G02*
X161099999Y-140850000I-250001J0D01*
G01*
X158900001Y-140850000D01*
G75*
G02*
X158650000Y-140599999I0J250001D01*
G01*
X158650000Y-137400001D01*
G75*
G02*
X158900001Y-137150000I250001J0D01*
G01*
X161099999Y-137150000D01*
G75*
G02*
X161350000Y-137400001I0J-250001D01*
G01*
G37*
D10*
X84100000Y-112900000D03*
D12*
X96900000Y-112900000D03*
G36*
G01*
X92999999Y-114250000D02*
X89800001Y-114250000D01*
G75*
G02*
X89550000Y-113999999I0J250001D01*
G01*
X89550000Y-111800001D01*
G75*
G02*
X89800001Y-111550000I250001J0D01*
G01*
X92999999Y-111550000D01*
G75*
G02*
X93250000Y-111800001I0J-250001D01*
G01*
X93250000Y-113999999D01*
G75*
G02*
X92999999Y-114250000I-250001J0D01*
G01*
G37*
D13*
X177300000Y-116000000D03*
D14*
X177300000Y-123500000D03*
D15*
X132700000Y-103100000D03*
X131000000Y-110600000D03*
D16*
X153200000Y-92600000D03*
X153200000Y-65600000D03*
X102200000Y-83600000D03*
X102200000Y-74600000D03*
D17*
X147700000Y-114200000D03*
X159900000Y-114200000D03*
X159900000Y-126200000D03*
X147700000Y-126200000D03*
D18*
X145700000Y-120200000D03*
D19*
X209080000Y-90900000D03*
G36*
G01*
X211580000Y-90150000D02*
X212580000Y-90150000D01*
G75*
G02*
X212830000Y-90400000I0J-250000D01*
G01*
X212830000Y-91400000D01*
G75*
G02*
X212580000Y-91650000I-250000J0D01*
G01*
X211580000Y-91650000D01*
G75*
G02*
X211330000Y-91400000I0J250000D01*
G01*
X211330000Y-90400000D01*
G75*
G02*
X211580000Y-90150000I250000J0D01*
G01*
G37*
D10*
X216400000Y-90900000D03*
D19*
X209080000Y-121900000D03*
G36*
G01*
X211580000Y-121150000D02*
X212580000Y-121150000D01*
G75*
G02*
X212830000Y-121400000I0J-250000D01*
G01*
X212830000Y-122400000D01*
G75*
G02*
X212580000Y-122650000I-250000J0D01*
G01*
X211580000Y-122650000D01*
G75*
G02*
X211330000Y-122400000I0J250000D01*
G01*
X211330000Y-121400000D01*
G75*
G02*
X211580000Y-121150000I250000J0D01*
G01*
G37*
D10*
X216400000Y-121900000D03*
D19*
X196800000Y-138100000D03*
G36*
G01*
X197550000Y-140600000D02*
X197550000Y-141600000D01*
G75*
G02*
X197300000Y-141850000I-250000J0D01*
G01*
X196300000Y-141850000D01*
G75*
G02*
X196050000Y-141600000I0J250000D01*
G01*
X196050000Y-140600000D01*
G75*
G02*
X196300000Y-140350000I250000J0D01*
G01*
X197300000Y-140350000D01*
G75*
G02*
X197550000Y-140600000I0J-250000D01*
G01*
G37*
D10*
X196800000Y-145420000D03*
D19*
X178500000Y-138100000D03*
G36*
G01*
X179250000Y-140600000D02*
X179250000Y-141600000D01*
G75*
G02*
X179000000Y-141850000I-250000J0D01*
G01*
X178000000Y-141850000D01*
G75*
G02*
X177750000Y-141600000I0J250000D01*
G01*
X177750000Y-140600000D01*
G75*
G02*
X178000000Y-140350000I250000J0D01*
G01*
X179000000Y-140350000D01*
G75*
G02*
X179250000Y-140600000I0J-250000D01*
G01*
G37*
D10*
X178500000Y-145420000D03*
D19*
X209000000Y-106300000D03*
G36*
G01*
X211500000Y-105550000D02*
X212500000Y-105550000D01*
G75*
G02*
X212750000Y-105800000I0J-250000D01*
G01*
X212750000Y-106800000D01*
G75*
G02*
X212500000Y-107050000I-250000J0D01*
G01*
X211500000Y-107050000D01*
G75*
G02*
X211250000Y-106800000I0J250000D01*
G01*
X211250000Y-105800000D01*
G75*
G02*
X211500000Y-105550000I250000J0D01*
G01*
G37*
D10*
X216320000Y-106300000D03*
D19*
X125400000Y-138200000D03*
G36*
G01*
X126150000Y-140700000D02*
X126150000Y-141700000D01*
G75*
G02*
X125900000Y-141950000I-250000J0D01*
G01*
X124900000Y-141950000D01*
G75*
G02*
X124650000Y-141700000I0J250000D01*
G01*
X124650000Y-140700000D01*
G75*
G02*
X124900000Y-140450000I250000J0D01*
G01*
X125900000Y-140450000D01*
G75*
G02*
X126150000Y-140700000I0J-250000D01*
G01*
G37*
D10*
X125400000Y-145520000D03*
D19*
X195400000Y-74500000D03*
G36*
G01*
X194650000Y-72000000D02*
X194650000Y-71000000D01*
G75*
G02*
X194900000Y-70750000I250000J0D01*
G01*
X195900000Y-70750000D01*
G75*
G02*
X196150000Y-71000000I0J-250000D01*
G01*
X196150000Y-72000000D01*
G75*
G02*
X195900000Y-72250000I-250000J0D01*
G01*
X194900000Y-72250000D01*
G75*
G02*
X194650000Y-72000000I0J250000D01*
G01*
G37*
D10*
X195400000Y-67180000D03*
D19*
X169600000Y-74500000D03*
G36*
G01*
X168850000Y-72000000D02*
X168850000Y-71000000D01*
G75*
G02*
X169100000Y-70750000I250000J0D01*
G01*
X170100000Y-70750000D01*
G75*
G02*
X170350000Y-71000000I0J-250000D01*
G01*
X170350000Y-72000000D01*
G75*
G02*
X170100000Y-72250000I-250000J0D01*
G01*
X169100000Y-72250000D01*
G75*
G02*
X168850000Y-72000000I0J250000D01*
G01*
G37*
D10*
X169600000Y-67180000D03*
D19*
X141900000Y-138200000D03*
G36*
G01*
X142650000Y-140700000D02*
X142650000Y-141700000D01*
G75*
G02*
X142400000Y-141950000I-250000J0D01*
G01*
X141400000Y-141950000D01*
G75*
G02*
X141150000Y-141700000I0J250000D01*
G01*
X141150000Y-140700000D01*
G75*
G02*
X141400000Y-140450000I250000J0D01*
G01*
X142400000Y-140450000D01*
G75*
G02*
X142650000Y-140700000I0J-250000D01*
G01*
G37*
D10*
X141900000Y-145520000D03*
D19*
X107100000Y-138200000D03*
G36*
G01*
X107850000Y-140700000D02*
X107850000Y-141700000D01*
G75*
G02*
X107600000Y-141950000I-250000J0D01*
G01*
X106600000Y-141950000D01*
G75*
G02*
X106350000Y-141700000I0J250000D01*
G01*
X106350000Y-140700000D01*
G75*
G02*
X106600000Y-140450000I250000J0D01*
G01*
X107600000Y-140450000D01*
G75*
G02*
X107850000Y-140700000I0J-250000D01*
G01*
G37*
D10*
X107100000Y-145520000D03*
D19*
X92200000Y-127300000D03*
X92200000Y-130300000D03*
X89200000Y-127300000D03*
G36*
G01*
X89700000Y-131050000D02*
X88700000Y-131050000D01*
G75*
G02*
X88450000Y-130800000I0J250000D01*
G01*
X88450000Y-129800000D01*
G75*
G02*
X88700000Y-129550000I250000J0D01*
G01*
X89700000Y-129550000D01*
G75*
G02*
X89950000Y-129800000I0J-250000D01*
G01*
X89950000Y-130800000D01*
G75*
G02*
X89700000Y-131050000I-250000J0D01*
G01*
G37*
D10*
X84880000Y-128800000D03*
D20*
X213800000Y-69700000D03*
X213800000Y-142700000D03*
X87600000Y-142700000D03*
X87600000Y-69700000D03*
D21*
X114150000Y-103100000D03*
D10*
X102900000Y-103100000D03*
X125400000Y-103100000D03*
D13*
X125400000Y-112900000D03*
X102900000Y-112900000D03*
M02*
