M48
; DRILL file {KiCad (5.1.9)-1} date 01/28/21 15:57:06
; FORMAT={2:4/ absolute / inch / suppress leading zeros}
; #@! TF.CreationDate,2021-01-28T15:57:06-05:00
; #@! TF.GenerationSoftware,Kicad,Pcbnew,(5.1.9)-1
; #@! TF.FileFunction,Plated,1,2,PTH
FMAT,2
INCH,TZ
T1C0.0157
T2C0.0315
T3C0.0394
T4C0.0402
T5C0.0472
T6C0.0512
T7C0.0709
%
G90
G05
T1
X45079Y-48543
X45079Y-49094
X45079Y-49646
X47126Y-54331
X47598Y-53268
X48740Y-52087
X50079Y-52087
X50512Y-48268
X51181Y-50039
X52047Y-46732
X52795Y-55079
X53937Y-44961
X58543Y-41693
X59134Y-53504
X59252Y-55079
X60039Y-37559
X61063Y-37323
X61063Y-37756
X61850Y-35551
X61850Y-36978
X62913Y-41693
X63425Y-36890
X63819Y-37195
X65354Y-37480
X66407Y-35669
X73228Y-38740
X73504Y-55551
X75039Y-39094
X76102Y-33150
X79094Y-36890
X81339Y-53504
T2
X51575Y-43543
X52244Y-40591
T3
X40236Y-29370
X40236Y-32913
X60315Y-25827
X60315Y-36457
T4
X35118Y-50118
X35118Y-51299
X36299Y-50118
X36299Y-51299
X42165Y-54409
X42165Y-55591
X49370Y-54409
X49370Y-55591
X55866Y-54409
X55866Y-55591
X66772Y-28150
X66772Y-29331
X70276Y-54370
X70276Y-55551
X76929Y-28150
X76929Y-29331
X77480Y-54370
X77480Y-55551
X82283Y-41850
X82315Y-35787
X82315Y-47992
X83465Y-41850
X83496Y-35787
X83496Y-47992
T5
X40512Y-44449
X49370Y-44449
X69803Y-45669
X69803Y-48622
T6
X40512Y-40591
X49370Y-40591
X57362Y-47323
X58150Y-44961
X58150Y-49685
X62953Y-44961
X62953Y-49685
T7
X35984Y-44449
X38150Y-44449
X62992Y-52559
X62992Y-54724
T0
M30
