G04 #@! TF.GenerationSoftware,KiCad,Pcbnew,(5.1.9)-1*
G04 #@! TF.CreationDate,2021-01-28T15:57:22-05:00*
G04 #@! TF.ProjectId,SensorBoard,53656e73-6f72-4426-9f61-72642e6b6963,rev?*
G04 #@! TF.SameCoordinates,Original*
G04 #@! TF.FileFunction,Copper,L2,Bot*
G04 #@! TF.FilePolarity,Positive*
%FSLAX46Y46*%
G04 Gerber Fmt 4.6, Leading zero omitted, Abs format (unit mm)*
G04 Created by KiCad (PCBNEW (5.1.9)-1) date 2021-01-28 15:57:22*
%MOMM*%
%LPD*%
G01*
G04 APERTURE LIST*
G04 #@! TA.AperFunction,ComponentPad*
%ADD10O,2.700000X3.700000*%
G04 #@! TD*
G04 #@! TA.AperFunction,ComponentPad*
%ADD11O,3.700000X2.700000*%
G04 #@! TD*
G04 #@! TA.AperFunction,ComponentPad*
%ADD12C,2.400000*%
G04 #@! TD*
G04 #@! TA.AperFunction,ComponentPad*
%ADD13R,2.400000X2.400000*%
G04 #@! TD*
G04 #@! TA.AperFunction,ComponentPad*
%ADD14C,1.800000*%
G04 #@! TD*
G04 #@! TA.AperFunction,ComponentPad*
%ADD15C,1.524000*%
G04 #@! TD*
G04 #@! TA.AperFunction,ComponentPad*
%ADD16O,2.500000X2.500000*%
G04 #@! TD*
G04 #@! TA.AperFunction,ComponentPad*
%ADD17R,2.500000X2.500000*%
G04 #@! TD*
G04 #@! TA.AperFunction,ComponentPad*
%ADD18C,1.500000*%
G04 #@! TD*
G04 #@! TA.AperFunction,ComponentPad*
%ADD19C,3.000000*%
G04 #@! TD*
G04 #@! TA.AperFunction,ViaPad*
%ADD20C,0.800000*%
G04 #@! TD*
G04 #@! TA.AperFunction,Conductor*
%ADD21C,3.500000*%
G04 #@! TD*
G04 #@! TA.AperFunction,Conductor*
%ADD22C,0.500000*%
G04 #@! TD*
G04 #@! TA.AperFunction,Conductor*
%ADD23C,1.500000*%
G04 #@! TD*
G04 #@! TA.AperFunction,Conductor*
%ADD24C,0.250000*%
G04 #@! TD*
G04 #@! TA.AperFunction,NonConductor*
%ADD25C,0.200000*%
G04 #@! TD*
G04 #@! TA.AperFunction,NonConductor*
%ADD26C,0.100000*%
G04 #@! TD*
G04 APERTURE END LIST*
D10*
X160000000Y-133500000D03*
G04 #@! TA.AperFunction,ComponentPad*
G36*
G01*
X161350000Y-137400001D02*
X161350000Y-140599999D01*
G75*
G02*
X161099999Y-140850000I-250001J0D01*
G01*
X158900001Y-140850000D01*
G75*
G02*
X158650000Y-140599999I0J250001D01*
G01*
X158650000Y-137400001D01*
G75*
G02*
X158900001Y-137150000I250001J0D01*
G01*
X161099999Y-137150000D01*
G75*
G02*
X161350000Y-137400001I0J-250001D01*
G01*
G37*
G04 #@! TD.AperFunction*
D11*
X96900000Y-112900000D03*
G04 #@! TA.AperFunction,ComponentPad*
G36*
G01*
X92999999Y-114250000D02*
X89800001Y-114250000D01*
G75*
G02*
X89550000Y-113999999I0J250001D01*
G01*
X89550000Y-111800001D01*
G75*
G02*
X89800001Y-111550000I250001J0D01*
G01*
X92999999Y-111550000D01*
G75*
G02*
X93250000Y-111800001I0J-250001D01*
G01*
X93250000Y-113999999D01*
G75*
G02*
X92999999Y-114250000I-250001J0D01*
G01*
G37*
G04 #@! TD.AperFunction*
D12*
X177300000Y-116000000D03*
D13*
X177300000Y-123500000D03*
D14*
X132700000Y-103100000D03*
X131000000Y-110600000D03*
D15*
X153200000Y-92600000D03*
X153200000Y-65600000D03*
X102200000Y-83600000D03*
X102200000Y-74600000D03*
D16*
X147700000Y-114200000D03*
X159900000Y-114200000D03*
X159900000Y-126200000D03*
X147700000Y-126200000D03*
D17*
X145700000Y-120200000D03*
D18*
X209080000Y-90900000D03*
G04 #@! TA.AperFunction,ComponentPad*
G36*
G01*
X211580000Y-90150000D02*
X212580000Y-90150000D01*
G75*
G02*
X212830000Y-90400000I0J-250000D01*
G01*
X212830000Y-91400000D01*
G75*
G02*
X212580000Y-91650000I-250000J0D01*
G01*
X211580000Y-91650000D01*
G75*
G02*
X211330000Y-91400000I0J250000D01*
G01*
X211330000Y-90400000D01*
G75*
G02*
X211580000Y-90150000I250000J0D01*
G01*
G37*
G04 #@! TD.AperFunction*
X209080000Y-121900000D03*
G04 #@! TA.AperFunction,ComponentPad*
G36*
G01*
X211580000Y-121150000D02*
X212580000Y-121150000D01*
G75*
G02*
X212830000Y-121400000I0J-250000D01*
G01*
X212830000Y-122400000D01*
G75*
G02*
X212580000Y-122650000I-250000J0D01*
G01*
X211580000Y-122650000D01*
G75*
G02*
X211330000Y-122400000I0J250000D01*
G01*
X211330000Y-121400000D01*
G75*
G02*
X211580000Y-121150000I250000J0D01*
G01*
G37*
G04 #@! TD.AperFunction*
X196800000Y-138100000D03*
G04 #@! TA.AperFunction,ComponentPad*
G36*
G01*
X197550000Y-140600000D02*
X197550000Y-141600000D01*
G75*
G02*
X197300000Y-141850000I-250000J0D01*
G01*
X196300000Y-141850000D01*
G75*
G02*
X196050000Y-141600000I0J250000D01*
G01*
X196050000Y-140600000D01*
G75*
G02*
X196300000Y-140350000I250000J0D01*
G01*
X197300000Y-140350000D01*
G75*
G02*
X197550000Y-140600000I0J-250000D01*
G01*
G37*
G04 #@! TD.AperFunction*
X178500000Y-138100000D03*
G04 #@! TA.AperFunction,ComponentPad*
G36*
G01*
X179250000Y-140600000D02*
X179250000Y-141600000D01*
G75*
G02*
X179000000Y-141850000I-250000J0D01*
G01*
X178000000Y-141850000D01*
G75*
G02*
X177750000Y-141600000I0J250000D01*
G01*
X177750000Y-140600000D01*
G75*
G02*
X178000000Y-140350000I250000J0D01*
G01*
X179000000Y-140350000D01*
G75*
G02*
X179250000Y-140600000I0J-250000D01*
G01*
G37*
G04 #@! TD.AperFunction*
X209000000Y-106300000D03*
G04 #@! TA.AperFunction,ComponentPad*
G36*
G01*
X211500000Y-105550000D02*
X212500000Y-105550000D01*
G75*
G02*
X212750000Y-105800000I0J-250000D01*
G01*
X212750000Y-106800000D01*
G75*
G02*
X212500000Y-107050000I-250000J0D01*
G01*
X211500000Y-107050000D01*
G75*
G02*
X211250000Y-106800000I0J250000D01*
G01*
X211250000Y-105800000D01*
G75*
G02*
X211500000Y-105550000I250000J0D01*
G01*
G37*
G04 #@! TD.AperFunction*
X125400000Y-138200000D03*
G04 #@! TA.AperFunction,ComponentPad*
G36*
G01*
X126150000Y-140700000D02*
X126150000Y-141700000D01*
G75*
G02*
X125900000Y-141950000I-250000J0D01*
G01*
X124900000Y-141950000D01*
G75*
G02*
X124650000Y-141700000I0J250000D01*
G01*
X124650000Y-140700000D01*
G75*
G02*
X124900000Y-140450000I250000J0D01*
G01*
X125900000Y-140450000D01*
G75*
G02*
X126150000Y-140700000I0J-250000D01*
G01*
G37*
G04 #@! TD.AperFunction*
X195400000Y-74500000D03*
G04 #@! TA.AperFunction,ComponentPad*
G36*
G01*
X194650000Y-72000000D02*
X194650000Y-71000000D01*
G75*
G02*
X194900000Y-70750000I250000J0D01*
G01*
X195900000Y-70750000D01*
G75*
G02*
X196150000Y-71000000I0J-250000D01*
G01*
X196150000Y-72000000D01*
G75*
G02*
X195900000Y-72250000I-250000J0D01*
G01*
X194900000Y-72250000D01*
G75*
G02*
X194650000Y-72000000I0J250000D01*
G01*
G37*
G04 #@! TD.AperFunction*
X169600000Y-74500000D03*
G04 #@! TA.AperFunction,ComponentPad*
G36*
G01*
X168850000Y-72000000D02*
X168850000Y-71000000D01*
G75*
G02*
X169100000Y-70750000I250000J0D01*
G01*
X170100000Y-70750000D01*
G75*
G02*
X170350000Y-71000000I0J-250000D01*
G01*
X170350000Y-72000000D01*
G75*
G02*
X170100000Y-72250000I-250000J0D01*
G01*
X169100000Y-72250000D01*
G75*
G02*
X168850000Y-72000000I0J250000D01*
G01*
G37*
G04 #@! TD.AperFunction*
X141900000Y-138200000D03*
G04 #@! TA.AperFunction,ComponentPad*
G36*
G01*
X142650000Y-140700000D02*
X142650000Y-141700000D01*
G75*
G02*
X142400000Y-141950000I-250000J0D01*
G01*
X141400000Y-141950000D01*
G75*
G02*
X141150000Y-141700000I0J250000D01*
G01*
X141150000Y-140700000D01*
G75*
G02*
X141400000Y-140450000I250000J0D01*
G01*
X142400000Y-140450000D01*
G75*
G02*
X142650000Y-140700000I0J-250000D01*
G01*
G37*
G04 #@! TD.AperFunction*
X107100000Y-138200000D03*
G04 #@! TA.AperFunction,ComponentPad*
G36*
G01*
X107850000Y-140700000D02*
X107850000Y-141700000D01*
G75*
G02*
X107600000Y-141950000I-250000J0D01*
G01*
X106600000Y-141950000D01*
G75*
G02*
X106350000Y-141700000I0J250000D01*
G01*
X106350000Y-140700000D01*
G75*
G02*
X106600000Y-140450000I250000J0D01*
G01*
X107600000Y-140450000D01*
G75*
G02*
X107850000Y-140700000I0J-250000D01*
G01*
G37*
G04 #@! TD.AperFunction*
X92200000Y-127300000D03*
X92200000Y-130300000D03*
X89200000Y-127300000D03*
G04 #@! TA.AperFunction,ComponentPad*
G36*
G01*
X89700000Y-131050000D02*
X88700000Y-131050000D01*
G75*
G02*
X88450000Y-130800000I0J250000D01*
G01*
X88450000Y-129800000D01*
G75*
G02*
X88700000Y-129550000I250000J0D01*
G01*
X89700000Y-129550000D01*
G75*
G02*
X89950000Y-129800000I0J-250000D01*
G01*
X89950000Y-130800000D01*
G75*
G02*
X89700000Y-131050000I-250000J0D01*
G01*
G37*
G04 #@! TD.AperFunction*
D19*
X102900000Y-103100000D03*
X125400000Y-103100000D03*
D12*
X125400000Y-112900000D03*
X102900000Y-112900000D03*
D20*
X148700000Y-105900000D03*
X159800000Y-105900000D03*
X157100000Y-93925000D03*
X157100000Y-90300000D03*
X137000000Y-114200000D03*
X128300000Y-122600000D03*
X132200000Y-118700000D03*
X119700000Y-138000000D03*
X120900000Y-135300000D03*
X134100000Y-139900000D03*
X150500000Y-139900000D03*
X186700000Y-141100000D03*
X150200000Y-135900000D03*
X206600000Y-135900000D03*
X130000000Y-127100000D03*
X114500000Y-126100000D03*
X114500000Y-124700000D03*
X155100000Y-95900000D03*
X127200000Y-132300000D03*
X123800000Y-132300000D03*
X190600000Y-99300000D03*
X166000000Y-95200000D03*
X114500000Y-123300000D03*
X155100000Y-94800000D03*
X162100000Y-94475000D03*
X186000000Y-98400000D03*
X168675000Y-90600000D03*
X193300000Y-84200000D03*
X152500000Y-95400000D03*
X161100000Y-93700000D03*
X200900000Y-93700000D03*
D21*
X102900000Y-112900000D02*
X110000000Y-112900000D01*
X110000000Y-112900000D02*
X114600000Y-108300000D01*
X128700000Y-108300000D02*
X131000000Y-110600000D01*
X96900000Y-112900000D02*
X102900000Y-112900000D01*
X102200000Y-83600000D02*
X112800000Y-83600000D01*
X120000000Y-90800000D02*
X120000000Y-108300000D01*
X112800000Y-83600000D02*
X120000000Y-90800000D01*
X120000000Y-108300000D02*
X128700000Y-108300000D01*
X114600000Y-108300000D02*
X120000000Y-108300000D01*
D22*
X157100000Y-105800000D02*
X157000000Y-105900000D01*
X157100000Y-93925000D02*
X157100000Y-105800000D01*
X157000000Y-105900000D02*
X159800000Y-105900000D01*
X148700000Y-105900000D02*
X157000000Y-105900000D01*
X157100000Y-93925000D02*
X157100000Y-90300000D01*
D23*
X137000000Y-114200000D02*
X147700000Y-114200000D01*
D22*
X128300000Y-122600000D02*
X132200000Y-118700000D01*
D21*
X137308352Y-114200000D02*
X137154176Y-114354176D01*
X147700000Y-114200000D02*
X137308352Y-114200000D01*
X91400000Y-112900000D02*
X91400000Y-107300000D01*
X95600000Y-103100000D02*
X102900000Y-103100000D01*
X91400000Y-107300000D02*
X95600000Y-103100000D01*
D23*
X119700000Y-138197074D02*
X119700000Y-138000000D01*
X124402936Y-142900010D02*
X119700000Y-138197074D01*
X176699990Y-142900010D02*
X178500000Y-141100000D01*
X124402936Y-142900010D02*
X176699990Y-142900010D01*
D22*
X120900000Y-135300000D02*
X120900000Y-137600000D01*
X120900000Y-137600000D02*
X123200000Y-139900000D01*
X123200000Y-139900000D02*
X134100000Y-139900000D01*
D23*
X186700000Y-141100000D02*
X196800000Y-141100000D01*
D22*
X150500000Y-139900000D02*
X152300000Y-141700000D01*
X152300000Y-141700000D02*
X175000000Y-141700000D01*
X175000000Y-141700000D02*
X177100000Y-139600000D01*
X185200000Y-139600000D02*
X186700000Y-141100000D01*
X177100000Y-139600000D02*
X185200000Y-139600000D01*
D23*
X206600000Y-135900000D02*
X208700000Y-135900000D01*
X212080000Y-132520000D02*
X212080000Y-121900000D01*
X208700000Y-135900000D02*
X212080000Y-132520000D01*
D22*
X150200000Y-135900000D02*
X206600000Y-135900000D01*
D23*
X141900000Y-141200000D02*
X139900000Y-141200000D01*
X138900000Y-140200000D02*
X138900000Y-133000000D01*
X139900000Y-141200000D02*
X138900000Y-140200000D01*
X133000000Y-127100000D02*
X138900000Y-133000000D01*
X130000000Y-127100000D02*
X133000000Y-127100000D01*
D22*
X114500000Y-126100000D02*
X111700000Y-126100000D01*
X111700000Y-126100000D02*
X104800000Y-133000000D01*
X104800000Y-138900000D02*
X104800000Y-137900000D01*
X107100000Y-141200000D02*
X104800000Y-138900000D01*
X104800000Y-133000000D02*
X104800000Y-137900000D01*
X92200000Y-130300000D02*
X105500000Y-130300000D01*
X111100000Y-124700000D02*
X114500000Y-124700000D01*
X105500000Y-130300000D02*
X111100000Y-124700000D01*
D24*
X154400000Y-96600000D02*
X155100000Y-95900000D01*
X190600000Y-99300000D02*
X185600000Y-99300000D01*
X185274999Y-98974999D02*
X185274999Y-95774999D01*
X185600000Y-99300000D02*
X185274999Y-98974999D01*
X185274999Y-95774999D02*
X184700000Y-95200000D01*
X184700000Y-95200000D02*
X166000000Y-95200000D01*
D22*
X120600000Y-124700000D02*
X123800000Y-127900000D01*
X114500000Y-124700000D02*
X120600000Y-124700000D01*
X123800000Y-132300000D02*
X123800000Y-127900000D01*
X127200000Y-132300000D02*
X127200000Y-121197070D01*
X154399990Y-96600010D02*
X154400000Y-96600000D01*
X151797060Y-96600010D02*
X154399990Y-96600010D01*
X127200000Y-121197070D02*
X151797060Y-96600010D01*
X155100000Y-95900000D02*
X154399990Y-96600010D01*
X114500000Y-123300000D02*
X110800000Y-123300000D01*
X110800000Y-123300000D02*
X105000000Y-129100000D01*
X91000000Y-129100000D02*
X89200000Y-127300000D01*
X105000000Y-129100000D02*
X91000000Y-129100000D01*
X154499990Y-94199990D02*
X155100000Y-94800000D01*
X150802940Y-94199990D02*
X154499990Y-94199990D01*
X121702930Y-123300000D02*
X150802940Y-94199990D01*
X114500000Y-123300000D02*
X121702930Y-123300000D01*
D24*
X162100000Y-94475000D02*
X185175000Y-94475000D01*
X186000000Y-95300000D02*
X185175000Y-94475000D01*
X186000000Y-98400000D02*
X186000000Y-95300000D01*
X168675000Y-90600000D02*
X176800000Y-90600000D01*
X183200000Y-84200000D02*
X193300000Y-84200000D01*
X176800000Y-90600000D02*
X183200000Y-84200000D01*
D23*
X151300000Y-95400000D02*
X152500000Y-95400000D01*
X125400000Y-121300000D02*
X151300000Y-95400000D01*
X125400000Y-138200000D02*
X125400000Y-121300000D01*
D24*
X161100000Y-93700000D02*
X200900000Y-93700000D01*
D21*
X167000000Y-126200000D02*
X169700000Y-123500000D01*
X159900000Y-126200000D02*
X167000000Y-126200000D01*
X169700000Y-123500000D02*
X177300000Y-123500000D01*
D25*
X221475001Y-150375000D02*
X79925000Y-150375000D01*
X79925000Y-145342716D01*
X105300000Y-145342716D01*
X105300000Y-145697284D01*
X105369173Y-146045041D01*
X105504861Y-146372620D01*
X105701849Y-146667433D01*
X105952567Y-146918151D01*
X106247380Y-147115139D01*
X106574959Y-147250827D01*
X106922716Y-147320000D01*
X107277284Y-147320000D01*
X107625041Y-147250827D01*
X107952620Y-147115139D01*
X108247433Y-146918151D01*
X108498151Y-146667433D01*
X108695139Y-146372620D01*
X108830827Y-146045041D01*
X108900000Y-145697284D01*
X108900000Y-145342716D01*
X108830827Y-144994959D01*
X108695139Y-144667380D01*
X108498151Y-144372567D01*
X108247433Y-144121849D01*
X107952620Y-143924861D01*
X107625041Y-143789173D01*
X107277284Y-143720000D01*
X106922716Y-143720000D01*
X106574959Y-143789173D01*
X106247380Y-143924861D01*
X105952567Y-144121849D01*
X105701849Y-144372567D01*
X105504861Y-144667380D01*
X105369173Y-144994959D01*
X105300000Y-145342716D01*
X79925000Y-145342716D01*
X79925000Y-142512866D01*
X85700000Y-142512866D01*
X85700000Y-142887134D01*
X85773016Y-143254209D01*
X85916242Y-143599987D01*
X86124174Y-143911179D01*
X86388821Y-144175826D01*
X86700013Y-144383758D01*
X87045791Y-144526984D01*
X87412866Y-144600000D01*
X87787134Y-144600000D01*
X88154209Y-144526984D01*
X88499987Y-144383758D01*
X88811179Y-144175826D01*
X89075826Y-143911179D01*
X89283758Y-143599987D01*
X89426984Y-143254209D01*
X89500000Y-142887134D01*
X89500000Y-142512866D01*
X89426984Y-142145791D01*
X89283758Y-141800013D01*
X89075826Y-141488821D01*
X88811179Y-141224174D01*
X88499987Y-141016242D01*
X88154209Y-140873016D01*
X87787134Y-140800000D01*
X87412866Y-140800000D01*
X87045791Y-140873016D01*
X86700013Y-141016242D01*
X86388821Y-141224174D01*
X86124174Y-141488821D01*
X85916242Y-141800013D01*
X85773016Y-142145791D01*
X85700000Y-142512866D01*
X79925000Y-142512866D01*
X79925000Y-128622716D01*
X83080000Y-128622716D01*
X83080000Y-128977284D01*
X83149173Y-129325041D01*
X83284861Y-129652620D01*
X83481849Y-129947433D01*
X83732567Y-130198151D01*
X84027380Y-130395139D01*
X84354959Y-130530827D01*
X84702716Y-130600000D01*
X85057284Y-130600000D01*
X85405041Y-130530827D01*
X85732620Y-130395139D01*
X86027433Y-130198151D01*
X86278151Y-129947433D01*
X86376662Y-129800000D01*
X88148549Y-129800000D01*
X88148549Y-130800000D01*
X88159145Y-130907583D01*
X88190526Y-131011031D01*
X88241485Y-131106370D01*
X88310065Y-131189935D01*
X88393630Y-131258515D01*
X88488969Y-131309474D01*
X88592417Y-131340855D01*
X88700000Y-131351451D01*
X89700000Y-131351451D01*
X89807583Y-131340855D01*
X89911031Y-131309474D01*
X90006370Y-131258515D01*
X90089935Y-131189935D01*
X90158515Y-131106370D01*
X90209474Y-131011031D01*
X90240855Y-130907583D01*
X90251451Y-130800000D01*
X90251451Y-129800000D01*
X90240855Y-129692417D01*
X90209474Y-129588969D01*
X90158515Y-129493630D01*
X90089935Y-129410065D01*
X90006370Y-129341485D01*
X89911031Y-129290526D01*
X89807583Y-129259145D01*
X89700000Y-129248549D01*
X88700000Y-129248549D01*
X88592417Y-129259145D01*
X88488969Y-129290526D01*
X88393630Y-129341485D01*
X88310065Y-129410065D01*
X88241485Y-129493630D01*
X88190526Y-129588969D01*
X88159145Y-129692417D01*
X88148549Y-129800000D01*
X86376662Y-129800000D01*
X86475139Y-129652620D01*
X86610827Y-129325041D01*
X86680000Y-128977284D01*
X86680000Y-128622716D01*
X86610827Y-128274959D01*
X86475139Y-127947380D01*
X86278151Y-127652567D01*
X86027433Y-127401849D01*
X85732620Y-127204861D01*
X85712638Y-127196584D01*
X88150000Y-127196584D01*
X88150000Y-127403416D01*
X88190350Y-127606274D01*
X88269502Y-127797362D01*
X88384411Y-127969336D01*
X88530664Y-128115589D01*
X88702638Y-128230498D01*
X88893726Y-128309650D01*
X89096584Y-128350000D01*
X89303416Y-128350000D01*
X89444183Y-128322000D01*
X90591992Y-129469810D01*
X90609210Y-129490790D01*
X90630190Y-129508008D01*
X90630195Y-129508013D01*
X90682097Y-129550607D01*
X90692958Y-129559521D01*
X90788506Y-129610592D01*
X90892181Y-129642042D01*
X90972982Y-129650000D01*
X90972991Y-129650000D01*
X90999999Y-129652660D01*
X91027007Y-129650000D01*
X91371491Y-129650000D01*
X91269502Y-129802638D01*
X91190350Y-129993726D01*
X91150000Y-130196584D01*
X91150000Y-130403416D01*
X91190350Y-130606274D01*
X91269502Y-130797362D01*
X91384411Y-130969336D01*
X91530664Y-131115589D01*
X91702638Y-131230498D01*
X91893726Y-131309650D01*
X92096584Y-131350000D01*
X92303416Y-131350000D01*
X92506274Y-131309650D01*
X92697362Y-131230498D01*
X92869336Y-131115589D01*
X93015589Y-130969336D01*
X93095327Y-130850000D01*
X105472992Y-130850000D01*
X105500000Y-130852660D01*
X105527008Y-130850000D01*
X105527018Y-130850000D01*
X105607819Y-130842042D01*
X105711494Y-130810592D01*
X105807042Y-130759521D01*
X105890790Y-130690790D01*
X105908013Y-130669804D01*
X111327818Y-125250000D01*
X114063166Y-125250000D01*
X114168426Y-125320332D01*
X114295818Y-125373099D01*
X114431056Y-125400000D01*
X114295818Y-125426901D01*
X114168426Y-125479668D01*
X114063166Y-125550000D01*
X111727011Y-125550000D01*
X111700000Y-125547340D01*
X111672989Y-125550000D01*
X111672982Y-125550000D01*
X111592181Y-125557958D01*
X111488506Y-125589408D01*
X111392958Y-125640479D01*
X111309210Y-125709210D01*
X111291987Y-125730196D01*
X104430196Y-132591987D01*
X104409210Y-132609210D01*
X104340479Y-132692958D01*
X104289408Y-132788507D01*
X104257958Y-132892182D01*
X104250000Y-132972983D01*
X104250000Y-132972992D01*
X104247340Y-133000000D01*
X104250000Y-133027008D01*
X104250001Y-137872982D01*
X104250000Y-138872992D01*
X104247340Y-138900000D01*
X104250000Y-138927008D01*
X104250000Y-138927017D01*
X104257958Y-139007818D01*
X104289408Y-139111493D01*
X104340479Y-139207042D01*
X104409210Y-139290790D01*
X104430196Y-139308013D01*
X106048549Y-140926367D01*
X106048549Y-141700000D01*
X106059145Y-141807583D01*
X106090526Y-141911031D01*
X106141485Y-142006370D01*
X106210065Y-142089935D01*
X106293630Y-142158515D01*
X106388969Y-142209474D01*
X106492417Y-142240855D01*
X106600000Y-142251451D01*
X107600000Y-142251451D01*
X107707583Y-142240855D01*
X107811031Y-142209474D01*
X107906370Y-142158515D01*
X107989935Y-142089935D01*
X108058515Y-142006370D01*
X108109474Y-141911031D01*
X108140855Y-141807583D01*
X108151451Y-141700000D01*
X108151451Y-140700000D01*
X108140855Y-140592417D01*
X108109474Y-140488969D01*
X108058515Y-140393630D01*
X107989935Y-140310065D01*
X107906370Y-140241485D01*
X107811031Y-140190526D01*
X107707583Y-140159145D01*
X107600000Y-140148549D01*
X106826367Y-140148549D01*
X105350000Y-138672183D01*
X105350000Y-138096584D01*
X106050000Y-138096584D01*
X106050000Y-138303416D01*
X106090350Y-138506274D01*
X106169502Y-138697362D01*
X106284411Y-138869336D01*
X106430664Y-139015589D01*
X106602638Y-139130498D01*
X106793726Y-139209650D01*
X106996584Y-139250000D01*
X107203416Y-139250000D01*
X107406274Y-139209650D01*
X107597362Y-139130498D01*
X107769336Y-139015589D01*
X107915589Y-138869336D01*
X108030498Y-138697362D01*
X108109650Y-138506274D01*
X108150000Y-138303416D01*
X108150000Y-138197074D01*
X118644921Y-138197074D01*
X118650000Y-138248642D01*
X118650000Y-138248651D01*
X118665193Y-138402909D01*
X118725233Y-138600835D01*
X118822733Y-138783245D01*
X118953946Y-138943128D01*
X118994014Y-138976011D01*
X123624003Y-143606001D01*
X123656882Y-143646064D01*
X123816765Y-143777277D01*
X123999174Y-143874777D01*
X124197100Y-143934817D01*
X124351358Y-143950010D01*
X124351365Y-143950010D01*
X124402936Y-143955089D01*
X124454507Y-143950010D01*
X124509742Y-143950010D01*
X124252567Y-144121849D01*
X124001849Y-144372567D01*
X123804861Y-144667380D01*
X123669173Y-144994959D01*
X123600000Y-145342716D01*
X123600000Y-145697284D01*
X123669173Y-146045041D01*
X123804861Y-146372620D01*
X124001849Y-146667433D01*
X124252567Y-146918151D01*
X124547380Y-147115139D01*
X124874959Y-147250827D01*
X125222716Y-147320000D01*
X125577284Y-147320000D01*
X125925041Y-147250827D01*
X126252620Y-147115139D01*
X126547433Y-146918151D01*
X126798151Y-146667433D01*
X126995139Y-146372620D01*
X127130827Y-146045041D01*
X127200000Y-145697284D01*
X127200000Y-145342716D01*
X127130827Y-144994959D01*
X126995139Y-144667380D01*
X126798151Y-144372567D01*
X126547433Y-144121849D01*
X126290258Y-143950010D01*
X141009742Y-143950010D01*
X140752567Y-144121849D01*
X140501849Y-144372567D01*
X140304861Y-144667380D01*
X140169173Y-144994959D01*
X140100000Y-145342716D01*
X140100000Y-145697284D01*
X140169173Y-146045041D01*
X140304861Y-146372620D01*
X140501849Y-146667433D01*
X140752567Y-146918151D01*
X141047380Y-147115139D01*
X141374959Y-147250827D01*
X141722716Y-147320000D01*
X142077284Y-147320000D01*
X142425041Y-147250827D01*
X142752620Y-147115139D01*
X143047433Y-146918151D01*
X143298151Y-146667433D01*
X143495139Y-146372620D01*
X143598652Y-146122716D01*
X158200000Y-146122716D01*
X158200000Y-146477284D01*
X158269173Y-146825041D01*
X158404861Y-147152620D01*
X158601849Y-147447433D01*
X158852567Y-147698151D01*
X159147380Y-147895139D01*
X159474959Y-148030827D01*
X159822716Y-148100000D01*
X160177284Y-148100000D01*
X160525041Y-148030827D01*
X160852620Y-147895139D01*
X161147433Y-147698151D01*
X161398151Y-147447433D01*
X161595139Y-147152620D01*
X161730827Y-146825041D01*
X161800000Y-146477284D01*
X161800000Y-146122716D01*
X161730827Y-145774959D01*
X161595139Y-145447380D01*
X161458387Y-145242716D01*
X176700000Y-145242716D01*
X176700000Y-145597284D01*
X176769173Y-145945041D01*
X176904861Y-146272620D01*
X177101849Y-146567433D01*
X177352567Y-146818151D01*
X177647380Y-147015139D01*
X177974959Y-147150827D01*
X178322716Y-147220000D01*
X178677284Y-147220000D01*
X179025041Y-147150827D01*
X179352620Y-147015139D01*
X179647433Y-146818151D01*
X179898151Y-146567433D01*
X180095139Y-146272620D01*
X180230827Y-145945041D01*
X180300000Y-145597284D01*
X180300000Y-145242716D01*
X195000000Y-145242716D01*
X195000000Y-145597284D01*
X195069173Y-145945041D01*
X195204861Y-146272620D01*
X195401849Y-146567433D01*
X195652567Y-146818151D01*
X195947380Y-147015139D01*
X196274959Y-147150827D01*
X196622716Y-147220000D01*
X196977284Y-147220000D01*
X197325041Y-147150827D01*
X197652620Y-147015139D01*
X197947433Y-146818151D01*
X198198151Y-146567433D01*
X198395139Y-146272620D01*
X198530827Y-145945041D01*
X198600000Y-145597284D01*
X198600000Y-145242716D01*
X198530827Y-144894959D01*
X198395139Y-144567380D01*
X198198151Y-144272567D01*
X197947433Y-144021849D01*
X197652620Y-143824861D01*
X197325041Y-143689173D01*
X196977284Y-143620000D01*
X196622716Y-143620000D01*
X196274959Y-143689173D01*
X195947380Y-143824861D01*
X195652567Y-144021849D01*
X195401849Y-144272567D01*
X195204861Y-144567380D01*
X195069173Y-144894959D01*
X195000000Y-145242716D01*
X180300000Y-145242716D01*
X180230827Y-144894959D01*
X180095139Y-144567380D01*
X179898151Y-144272567D01*
X179647433Y-144021849D01*
X179352620Y-143824861D01*
X179025041Y-143689173D01*
X178677284Y-143620000D01*
X178322716Y-143620000D01*
X177974959Y-143689173D01*
X177647380Y-143824861D01*
X177352567Y-144021849D01*
X177101849Y-144272567D01*
X176904861Y-144567380D01*
X176769173Y-144894959D01*
X176700000Y-145242716D01*
X161458387Y-145242716D01*
X161398151Y-145152567D01*
X161147433Y-144901849D01*
X160852620Y-144704861D01*
X160525041Y-144569173D01*
X160177284Y-144500000D01*
X159822716Y-144500000D01*
X159474959Y-144569173D01*
X159147380Y-144704861D01*
X158852567Y-144901849D01*
X158601849Y-145152567D01*
X158404861Y-145447380D01*
X158269173Y-145774959D01*
X158200000Y-146122716D01*
X143598652Y-146122716D01*
X143630827Y-146045041D01*
X143700000Y-145697284D01*
X143700000Y-145342716D01*
X143630827Y-144994959D01*
X143495139Y-144667380D01*
X143298151Y-144372567D01*
X143047433Y-144121849D01*
X142790258Y-143950010D01*
X176648422Y-143950010D01*
X176699990Y-143955089D01*
X176751558Y-143950010D01*
X176751568Y-143950010D01*
X176905826Y-143934817D01*
X177103752Y-143874777D01*
X177286161Y-143777277D01*
X177446044Y-143646064D01*
X177478927Y-143605996D01*
X178572057Y-142512866D01*
X211900000Y-142512866D01*
X211900000Y-142887134D01*
X211973016Y-143254209D01*
X212116242Y-143599987D01*
X212324174Y-143911179D01*
X212588821Y-144175826D01*
X212900013Y-144383758D01*
X213245791Y-144526984D01*
X213612866Y-144600000D01*
X213987134Y-144600000D01*
X214354209Y-144526984D01*
X214699987Y-144383758D01*
X215011179Y-144175826D01*
X215275826Y-143911179D01*
X215483758Y-143599987D01*
X215626984Y-143254209D01*
X215700000Y-142887134D01*
X215700000Y-142512866D01*
X215626984Y-142145791D01*
X215483758Y-141800013D01*
X215275826Y-141488821D01*
X215011179Y-141224174D01*
X214699987Y-141016242D01*
X214354209Y-140873016D01*
X213987134Y-140800000D01*
X213612866Y-140800000D01*
X213245791Y-140873016D01*
X212900013Y-141016242D01*
X212588821Y-141224174D01*
X212324174Y-141488821D01*
X212116242Y-141800013D01*
X211973016Y-142145791D01*
X211900000Y-142512866D01*
X178572057Y-142512866D01*
X178933473Y-142151451D01*
X179000000Y-142151451D01*
X179107583Y-142140855D01*
X179211031Y-142109474D01*
X179306370Y-142058515D01*
X179389935Y-141989935D01*
X179458515Y-141906370D01*
X179509474Y-141811031D01*
X179540855Y-141707583D01*
X179551451Y-141600000D01*
X179551451Y-141136846D01*
X179555080Y-141100000D01*
X179551451Y-141063154D01*
X179551451Y-140600000D01*
X179540855Y-140492417D01*
X179509474Y-140388969D01*
X179458515Y-140293630D01*
X179389935Y-140210065D01*
X179316746Y-140150000D01*
X184972183Y-140150000D01*
X185677099Y-140854916D01*
X185665193Y-140894164D01*
X185644920Y-141100000D01*
X185665193Y-141305836D01*
X185725233Y-141503762D01*
X185822733Y-141686171D01*
X185953946Y-141846054D01*
X186113829Y-141977267D01*
X186296238Y-142074767D01*
X186494164Y-142134807D01*
X186648422Y-142150000D01*
X196285268Y-142150000D01*
X196300000Y-142151451D01*
X197300000Y-142151451D01*
X197407583Y-142140855D01*
X197511031Y-142109474D01*
X197606370Y-142058515D01*
X197689935Y-141989935D01*
X197758515Y-141906370D01*
X197809474Y-141811031D01*
X197840855Y-141707583D01*
X197851451Y-141600000D01*
X197851451Y-141136846D01*
X197855080Y-141100000D01*
X197851451Y-141063154D01*
X197851451Y-140600000D01*
X197840855Y-140492417D01*
X197809474Y-140388969D01*
X197758515Y-140293630D01*
X197689935Y-140210065D01*
X197606370Y-140141485D01*
X197511031Y-140090526D01*
X197407583Y-140059145D01*
X197300000Y-140048549D01*
X196300000Y-140048549D01*
X196285268Y-140050000D01*
X186648422Y-140050000D01*
X186494164Y-140065193D01*
X186454916Y-140077099D01*
X185608013Y-139230196D01*
X185590790Y-139209210D01*
X185507042Y-139140479D01*
X185411494Y-139089408D01*
X185307819Y-139057958D01*
X185227018Y-139050000D01*
X185227008Y-139050000D01*
X185200000Y-139047340D01*
X185172992Y-139050000D01*
X178950280Y-139050000D01*
X178997362Y-139030498D01*
X179169336Y-138915589D01*
X179315589Y-138769336D01*
X179430498Y-138597362D01*
X179509650Y-138406274D01*
X179550000Y-138203416D01*
X179550000Y-137996584D01*
X195750000Y-137996584D01*
X195750000Y-138203416D01*
X195790350Y-138406274D01*
X195869502Y-138597362D01*
X195984411Y-138769336D01*
X196130664Y-138915589D01*
X196302638Y-139030498D01*
X196493726Y-139109650D01*
X196696584Y-139150000D01*
X196903416Y-139150000D01*
X197106274Y-139109650D01*
X197297362Y-139030498D01*
X197469336Y-138915589D01*
X197615589Y-138769336D01*
X197730498Y-138597362D01*
X197809650Y-138406274D01*
X197850000Y-138203416D01*
X197850000Y-137996584D01*
X197809650Y-137793726D01*
X197730498Y-137602638D01*
X197615589Y-137430664D01*
X197469336Y-137284411D01*
X197297362Y-137169502D01*
X197106274Y-137090350D01*
X196903416Y-137050000D01*
X196696584Y-137050000D01*
X196493726Y-137090350D01*
X196302638Y-137169502D01*
X196130664Y-137284411D01*
X195984411Y-137430664D01*
X195869502Y-137602638D01*
X195790350Y-137793726D01*
X195750000Y-137996584D01*
X179550000Y-137996584D01*
X179509650Y-137793726D01*
X179430498Y-137602638D01*
X179315589Y-137430664D01*
X179169336Y-137284411D01*
X178997362Y-137169502D01*
X178806274Y-137090350D01*
X178603416Y-137050000D01*
X178396584Y-137050000D01*
X178193726Y-137090350D01*
X178002638Y-137169502D01*
X177830664Y-137284411D01*
X177684411Y-137430664D01*
X177569502Y-137602638D01*
X177490350Y-137793726D01*
X177450000Y-137996584D01*
X177450000Y-138203416D01*
X177490350Y-138406274D01*
X177569502Y-138597362D01*
X177684411Y-138769336D01*
X177830664Y-138915589D01*
X178002638Y-139030498D01*
X178049720Y-139050000D01*
X177127007Y-139050000D01*
X177099999Y-139047340D01*
X177072991Y-139050000D01*
X177072982Y-139050000D01*
X176992181Y-139057958D01*
X176888506Y-139089408D01*
X176792958Y-139140479D01*
X176782097Y-139149393D01*
X176730195Y-139191987D01*
X176730190Y-139191992D01*
X176709210Y-139209210D01*
X176691992Y-139230190D01*
X174772183Y-141150000D01*
X161114731Y-141150000D01*
X161207582Y-141140855D01*
X161311031Y-141109474D01*
X161406369Y-141058515D01*
X161489934Y-140989934D01*
X161558515Y-140906369D01*
X161609474Y-140811031D01*
X161640855Y-140707582D01*
X161651451Y-140599999D01*
X161651451Y-137400001D01*
X161640855Y-137292418D01*
X161609474Y-137188969D01*
X161558515Y-137093631D01*
X161489934Y-137010066D01*
X161406369Y-136941485D01*
X161311031Y-136890526D01*
X161207582Y-136859145D01*
X161099999Y-136848549D01*
X158900001Y-136848549D01*
X158792418Y-136859145D01*
X158688969Y-136890526D01*
X158593631Y-136941485D01*
X158510066Y-137010066D01*
X158441485Y-137093631D01*
X158390526Y-137188969D01*
X158359145Y-137292418D01*
X158348549Y-137400001D01*
X158348549Y-140599999D01*
X158359145Y-140707582D01*
X158390526Y-140811031D01*
X158441485Y-140906369D01*
X158510066Y-140989934D01*
X158593631Y-141058515D01*
X158688969Y-141109474D01*
X158792418Y-141140855D01*
X158885269Y-141150000D01*
X152527818Y-141150000D01*
X151197797Y-139819980D01*
X151173099Y-139695818D01*
X151120332Y-139568426D01*
X151043726Y-139453776D01*
X150946224Y-139356274D01*
X150831574Y-139279668D01*
X150704182Y-139226901D01*
X150568944Y-139200000D01*
X150431056Y-139200000D01*
X150295818Y-139226901D01*
X150168426Y-139279668D01*
X150053776Y-139356274D01*
X149956274Y-139453776D01*
X149879668Y-139568426D01*
X149826901Y-139695818D01*
X149800000Y-139831056D01*
X149800000Y-139968944D01*
X149826901Y-140104182D01*
X149879668Y-140231574D01*
X149956274Y-140346224D01*
X150053776Y-140443726D01*
X150168426Y-140520332D01*
X150295818Y-140573099D01*
X150419980Y-140597797D01*
X151672192Y-141850010D01*
X142927985Y-141850010D01*
X142940855Y-141807583D01*
X142951451Y-141700000D01*
X142951451Y-141236846D01*
X142955080Y-141200000D01*
X142951451Y-141163154D01*
X142951451Y-140700000D01*
X142940855Y-140592417D01*
X142909474Y-140488969D01*
X142858515Y-140393630D01*
X142789935Y-140310065D01*
X142706370Y-140241485D01*
X142611031Y-140190526D01*
X142507583Y-140159145D01*
X142400000Y-140148549D01*
X141400000Y-140148549D01*
X141385268Y-140150000D01*
X140334924Y-140150000D01*
X139950000Y-139765077D01*
X139950000Y-138096584D01*
X140850000Y-138096584D01*
X140850000Y-138303416D01*
X140890350Y-138506274D01*
X140969502Y-138697362D01*
X141084411Y-138869336D01*
X141230664Y-139015589D01*
X141402638Y-139130498D01*
X141593726Y-139209650D01*
X141796584Y-139250000D01*
X142003416Y-139250000D01*
X142206274Y-139209650D01*
X142397362Y-139130498D01*
X142569336Y-139015589D01*
X142715589Y-138869336D01*
X142830498Y-138697362D01*
X142909650Y-138506274D01*
X142950000Y-138303416D01*
X142950000Y-138096584D01*
X142909650Y-137893726D01*
X142830498Y-137702638D01*
X142715589Y-137530664D01*
X142569336Y-137384411D01*
X142397362Y-137269502D01*
X142206274Y-137190350D01*
X142003416Y-137150000D01*
X141796584Y-137150000D01*
X141593726Y-137190350D01*
X141402638Y-137269502D01*
X141230664Y-137384411D01*
X141084411Y-137530664D01*
X140969502Y-137702638D01*
X140890350Y-137893726D01*
X140850000Y-138096584D01*
X139950000Y-138096584D01*
X139950000Y-135831056D01*
X149500000Y-135831056D01*
X149500000Y-135968944D01*
X149526901Y-136104182D01*
X149579668Y-136231574D01*
X149656274Y-136346224D01*
X149753776Y-136443726D01*
X149868426Y-136520332D01*
X149995818Y-136573099D01*
X150131056Y-136600000D01*
X150268944Y-136600000D01*
X150404182Y-136573099D01*
X150531574Y-136520332D01*
X150636834Y-136450000D01*
X205703399Y-136450000D01*
X205722733Y-136486171D01*
X205853946Y-136646054D01*
X206013829Y-136777267D01*
X206196238Y-136874767D01*
X206394164Y-136934807D01*
X206548422Y-136950000D01*
X208648432Y-136950000D01*
X208700000Y-136955079D01*
X208751568Y-136950000D01*
X208751578Y-136950000D01*
X208905836Y-136934807D01*
X209103762Y-136874767D01*
X209286171Y-136777267D01*
X209446054Y-136646054D01*
X209478937Y-136605986D01*
X212785991Y-133298933D01*
X212826054Y-133266054D01*
X212957267Y-133106171D01*
X213054767Y-132923762D01*
X213114807Y-132725836D01*
X213130000Y-132571578D01*
X213130000Y-132571571D01*
X213135079Y-132520000D01*
X213130000Y-132468429D01*
X213130000Y-122414732D01*
X213131451Y-122400000D01*
X213131451Y-121722716D01*
X214600000Y-121722716D01*
X214600000Y-122077284D01*
X214669173Y-122425041D01*
X214804861Y-122752620D01*
X215001849Y-123047433D01*
X215252567Y-123298151D01*
X215547380Y-123495139D01*
X215874959Y-123630827D01*
X216222716Y-123700000D01*
X216577284Y-123700000D01*
X216925041Y-123630827D01*
X217252620Y-123495139D01*
X217547433Y-123298151D01*
X217798151Y-123047433D01*
X217995139Y-122752620D01*
X218130827Y-122425041D01*
X218200000Y-122077284D01*
X218200000Y-121722716D01*
X218130827Y-121374959D01*
X217995139Y-121047380D01*
X217798151Y-120752567D01*
X217547433Y-120501849D01*
X217252620Y-120304861D01*
X216925041Y-120169173D01*
X216577284Y-120100000D01*
X216222716Y-120100000D01*
X215874959Y-120169173D01*
X215547380Y-120304861D01*
X215252567Y-120501849D01*
X215001849Y-120752567D01*
X214804861Y-121047380D01*
X214669173Y-121374959D01*
X214600000Y-121722716D01*
X213131451Y-121722716D01*
X213131451Y-121400000D01*
X213120855Y-121292417D01*
X213089474Y-121188969D01*
X213038515Y-121093630D01*
X212969935Y-121010065D01*
X212886370Y-120941485D01*
X212791031Y-120890526D01*
X212687583Y-120859145D01*
X212580000Y-120848549D01*
X212116846Y-120848549D01*
X212080000Y-120844920D01*
X212043154Y-120848549D01*
X211580000Y-120848549D01*
X211472417Y-120859145D01*
X211368969Y-120890526D01*
X211273630Y-120941485D01*
X211190065Y-121010065D01*
X211121485Y-121093630D01*
X211070526Y-121188969D01*
X211039145Y-121292417D01*
X211028549Y-121400000D01*
X211028549Y-122400000D01*
X211030001Y-122414742D01*
X211030000Y-132085076D01*
X208265077Y-134850000D01*
X206548422Y-134850000D01*
X206394164Y-134865193D01*
X206196238Y-134925233D01*
X206013829Y-135022733D01*
X205853946Y-135153946D01*
X205722733Y-135313829D01*
X205703399Y-135350000D01*
X160955928Y-135350000D01*
X161172371Y-135172371D01*
X161378562Y-134921126D01*
X161531777Y-134634483D01*
X161626125Y-134323456D01*
X161650000Y-134081052D01*
X161650000Y-132918948D01*
X161626125Y-132676544D01*
X161531777Y-132365517D01*
X161378562Y-132078874D01*
X161172371Y-131827629D01*
X160921126Y-131621438D01*
X160634483Y-131468223D01*
X160323456Y-131373875D01*
X160000000Y-131342017D01*
X159676545Y-131373875D01*
X159365518Y-131468223D01*
X159078875Y-131621438D01*
X158827630Y-131827629D01*
X158621439Y-132078874D01*
X158468223Y-132365517D01*
X158373875Y-132676544D01*
X158350000Y-132918948D01*
X158350000Y-134081051D01*
X158373875Y-134323455D01*
X158468223Y-134634482D01*
X158621438Y-134921125D01*
X158827629Y-135172371D01*
X159044071Y-135350000D01*
X150636834Y-135350000D01*
X150531574Y-135279668D01*
X150404182Y-135226901D01*
X150268944Y-135200000D01*
X150131056Y-135200000D01*
X149995818Y-135226901D01*
X149868426Y-135279668D01*
X149753776Y-135356274D01*
X149656274Y-135453776D01*
X149579668Y-135568426D01*
X149526901Y-135695818D01*
X149500000Y-135831056D01*
X139950000Y-135831056D01*
X139950000Y-133051567D01*
X139955079Y-132999999D01*
X139950000Y-132948431D01*
X139950000Y-132948422D01*
X139934807Y-132794164D01*
X139874767Y-132596238D01*
X139795179Y-132447339D01*
X139777267Y-132413828D01*
X139678933Y-132294009D01*
X139646054Y-132253946D01*
X139605991Y-132221067D01*
X133778937Y-126394014D01*
X133746054Y-126353946D01*
X133586171Y-126222733D01*
X133403762Y-126125233D01*
X133205836Y-126065193D01*
X133051578Y-126050000D01*
X133051568Y-126050000D01*
X133024541Y-126047338D01*
X146150000Y-126047338D01*
X146150000Y-126352662D01*
X146209565Y-126652118D01*
X146326408Y-126934200D01*
X146496036Y-127188068D01*
X146711932Y-127403964D01*
X146965800Y-127573592D01*
X147247882Y-127690435D01*
X147547338Y-127750000D01*
X147852662Y-127750000D01*
X148152118Y-127690435D01*
X148434200Y-127573592D01*
X148688068Y-127403964D01*
X148903964Y-127188068D01*
X149073592Y-126934200D01*
X149190435Y-126652118D01*
X149250000Y-126352662D01*
X149250000Y-126200000D01*
X157840081Y-126200000D01*
X157879662Y-126601870D01*
X157996883Y-126988297D01*
X158187240Y-127344430D01*
X158443417Y-127656583D01*
X158755570Y-127912760D01*
X159111703Y-128103117D01*
X159498130Y-128220338D01*
X159799291Y-128250000D01*
X166899292Y-128250000D01*
X167000000Y-128259919D01*
X167100708Y-128250000D01*
X167100709Y-128250000D01*
X167401870Y-128220338D01*
X167788297Y-128103117D01*
X168144430Y-127912760D01*
X168456583Y-127656583D01*
X168520792Y-127578345D01*
X170549138Y-125550000D01*
X177400709Y-125550000D01*
X177701870Y-125520338D01*
X178088297Y-125403117D01*
X178444430Y-125212760D01*
X178756583Y-124956583D01*
X179012760Y-124644430D01*
X179203117Y-124288297D01*
X179320338Y-123901870D01*
X179359919Y-123500000D01*
X179320338Y-123098130D01*
X179203117Y-122711703D01*
X179012760Y-122355570D01*
X178756583Y-122043417D01*
X178455816Y-121796584D01*
X208030000Y-121796584D01*
X208030000Y-122003416D01*
X208070350Y-122206274D01*
X208149502Y-122397362D01*
X208264411Y-122569336D01*
X208410664Y-122715589D01*
X208582638Y-122830498D01*
X208773726Y-122909650D01*
X208976584Y-122950000D01*
X209183416Y-122950000D01*
X209386274Y-122909650D01*
X209577362Y-122830498D01*
X209749336Y-122715589D01*
X209895589Y-122569336D01*
X210010498Y-122397362D01*
X210089650Y-122206274D01*
X210130000Y-122003416D01*
X210130000Y-121796584D01*
X210089650Y-121593726D01*
X210010498Y-121402638D01*
X209895589Y-121230664D01*
X209749336Y-121084411D01*
X209577362Y-120969502D01*
X209386274Y-120890350D01*
X209183416Y-120850000D01*
X208976584Y-120850000D01*
X208773726Y-120890350D01*
X208582638Y-120969502D01*
X208410664Y-121084411D01*
X208264411Y-121230664D01*
X208149502Y-121402638D01*
X208070350Y-121593726D01*
X208030000Y-121796584D01*
X178455816Y-121796584D01*
X178444430Y-121787240D01*
X178088297Y-121596883D01*
X177701870Y-121479662D01*
X177400709Y-121450000D01*
X169800709Y-121450000D01*
X169700000Y-121440081D01*
X169599291Y-121450000D01*
X169298130Y-121479662D01*
X168911703Y-121596883D01*
X168555570Y-121787240D01*
X168243417Y-122043417D01*
X168179217Y-122121645D01*
X166150864Y-124150000D01*
X159799291Y-124150000D01*
X159498130Y-124179662D01*
X159111703Y-124296883D01*
X158755570Y-124487240D01*
X158443417Y-124743417D01*
X158187240Y-125055570D01*
X157996883Y-125411703D01*
X157879662Y-125798130D01*
X157840081Y-126200000D01*
X149250000Y-126200000D01*
X149250000Y-126047338D01*
X149190435Y-125747882D01*
X149073592Y-125465800D01*
X148903964Y-125211932D01*
X148688068Y-124996036D01*
X148434200Y-124826408D01*
X148152118Y-124709565D01*
X147852662Y-124650000D01*
X147547338Y-124650000D01*
X147247882Y-124709565D01*
X146965800Y-124826408D01*
X146711932Y-124996036D01*
X146496036Y-125211932D01*
X146326408Y-125465800D01*
X146209565Y-125747882D01*
X146150000Y-126047338D01*
X133024541Y-126047338D01*
X133000000Y-126044921D01*
X132948432Y-126050000D01*
X129948422Y-126050000D01*
X129794164Y-126065193D01*
X129596238Y-126125233D01*
X129413829Y-126222733D01*
X129253946Y-126353946D01*
X129122733Y-126513829D01*
X129025233Y-126696238D01*
X128965193Y-126894164D01*
X128944920Y-127100000D01*
X128965193Y-127305836D01*
X129025233Y-127503762D01*
X129122733Y-127686171D01*
X129253946Y-127846054D01*
X129413829Y-127977267D01*
X129596238Y-128074767D01*
X129794164Y-128134807D01*
X129948422Y-128150000D01*
X132565077Y-128150000D01*
X137850001Y-133434925D01*
X137850000Y-140148432D01*
X137844921Y-140200000D01*
X137850000Y-140251568D01*
X137850000Y-140251577D01*
X137865193Y-140405835D01*
X137925233Y-140603761D01*
X138022733Y-140786171D01*
X138153946Y-140946054D01*
X138194014Y-140978937D01*
X139065086Y-141850010D01*
X126427985Y-141850010D01*
X126440855Y-141807583D01*
X126451451Y-141700000D01*
X126451451Y-140700000D01*
X126440855Y-140592417D01*
X126409474Y-140488969D01*
X126388645Y-140450000D01*
X133663166Y-140450000D01*
X133768426Y-140520332D01*
X133895818Y-140573099D01*
X134031056Y-140600000D01*
X134168944Y-140600000D01*
X134304182Y-140573099D01*
X134431574Y-140520332D01*
X134546224Y-140443726D01*
X134643726Y-140346224D01*
X134720332Y-140231574D01*
X134773099Y-140104182D01*
X134800000Y-139968944D01*
X134800000Y-139831056D01*
X134773099Y-139695818D01*
X134720332Y-139568426D01*
X134643726Y-139453776D01*
X134546224Y-139356274D01*
X134431574Y-139279668D01*
X134304182Y-139226901D01*
X134168944Y-139200000D01*
X134031056Y-139200000D01*
X133895818Y-139226901D01*
X133768426Y-139279668D01*
X133663166Y-139350000D01*
X123427818Y-139350000D01*
X121450000Y-137372183D01*
X121450000Y-135736834D01*
X121520332Y-135631574D01*
X121573099Y-135504182D01*
X121600000Y-135368944D01*
X121600000Y-135231056D01*
X121573099Y-135095818D01*
X121520332Y-134968426D01*
X121443726Y-134853776D01*
X121346224Y-134756274D01*
X121231574Y-134679668D01*
X121104182Y-134626901D01*
X120968944Y-134600000D01*
X120831056Y-134600000D01*
X120695818Y-134626901D01*
X120568426Y-134679668D01*
X120453776Y-134756274D01*
X120356274Y-134853776D01*
X120279668Y-134968426D01*
X120226901Y-135095818D01*
X120200000Y-135231056D01*
X120200000Y-135368944D01*
X120226901Y-135504182D01*
X120279668Y-135631574D01*
X120350000Y-135736835D01*
X120350001Y-137175117D01*
X120286171Y-137122733D01*
X120103762Y-137025233D01*
X119905836Y-136965193D01*
X119700000Y-136944920D01*
X119494165Y-136965193D01*
X119296239Y-137025233D01*
X119113830Y-137122733D01*
X118953946Y-137253946D01*
X118822733Y-137413829D01*
X118725233Y-137596238D01*
X118665193Y-137794164D01*
X118650000Y-137948422D01*
X118650000Y-138145506D01*
X118644921Y-138197074D01*
X108150000Y-138197074D01*
X108150000Y-138096584D01*
X108109650Y-137893726D01*
X108030498Y-137702638D01*
X107915589Y-137530664D01*
X107769336Y-137384411D01*
X107597362Y-137269502D01*
X107406274Y-137190350D01*
X107203416Y-137150000D01*
X106996584Y-137150000D01*
X106793726Y-137190350D01*
X106602638Y-137269502D01*
X106430664Y-137384411D01*
X106284411Y-137530664D01*
X106169502Y-137702638D01*
X106090350Y-137893726D01*
X106050000Y-138096584D01*
X105350000Y-138096584D01*
X105350000Y-133227817D01*
X111927817Y-126650000D01*
X114063166Y-126650000D01*
X114168426Y-126720332D01*
X114295818Y-126773099D01*
X114431056Y-126800000D01*
X114568944Y-126800000D01*
X114704182Y-126773099D01*
X114831574Y-126720332D01*
X114946224Y-126643726D01*
X115043726Y-126546224D01*
X115120332Y-126431574D01*
X115173099Y-126304182D01*
X115200000Y-126168944D01*
X115200000Y-126031056D01*
X115173099Y-125895818D01*
X115120332Y-125768426D01*
X115043726Y-125653776D01*
X114946224Y-125556274D01*
X114831574Y-125479668D01*
X114704182Y-125426901D01*
X114568944Y-125400000D01*
X114704182Y-125373099D01*
X114831574Y-125320332D01*
X114936834Y-125250000D01*
X120372183Y-125250000D01*
X123250001Y-128127819D01*
X123250000Y-131863166D01*
X123179668Y-131968426D01*
X123126901Y-132095818D01*
X123100000Y-132231056D01*
X123100000Y-132368944D01*
X123126901Y-132504182D01*
X123179668Y-132631574D01*
X123256274Y-132746224D01*
X123353776Y-132843726D01*
X123468426Y-132920332D01*
X123595818Y-132973099D01*
X123731056Y-133000000D01*
X123868944Y-133000000D01*
X124004182Y-132973099D01*
X124131574Y-132920332D01*
X124246224Y-132843726D01*
X124343726Y-132746224D01*
X124350000Y-132736834D01*
X124350000Y-138303416D01*
X124360113Y-138354261D01*
X124365193Y-138405835D01*
X124380235Y-138455423D01*
X124390350Y-138506274D01*
X124410191Y-138554174D01*
X124425233Y-138603761D01*
X124449662Y-138649465D01*
X124469502Y-138697362D01*
X124498304Y-138740467D01*
X124522733Y-138786171D01*
X124555608Y-138826229D01*
X124584411Y-138869336D01*
X124621072Y-138905997D01*
X124653946Y-138946054D01*
X124694003Y-138978928D01*
X124730664Y-139015589D01*
X124773771Y-139044392D01*
X124813829Y-139077267D01*
X124859534Y-139101697D01*
X124902638Y-139130498D01*
X124950532Y-139150337D01*
X124996238Y-139174767D01*
X125045829Y-139189810D01*
X125093726Y-139209650D01*
X125144574Y-139219764D01*
X125194164Y-139234807D01*
X125245740Y-139239887D01*
X125296584Y-139250000D01*
X125348422Y-139250000D01*
X125400000Y-139255080D01*
X125451578Y-139250000D01*
X125503416Y-139250000D01*
X125554260Y-139239887D01*
X125605835Y-139234807D01*
X125655423Y-139219765D01*
X125706274Y-139209650D01*
X125754174Y-139189809D01*
X125803761Y-139174767D01*
X125849465Y-139150338D01*
X125897362Y-139130498D01*
X125940467Y-139101696D01*
X125986171Y-139077267D01*
X126026229Y-139044392D01*
X126069336Y-139015589D01*
X126105997Y-138978928D01*
X126146054Y-138946054D01*
X126178928Y-138905997D01*
X126215589Y-138869336D01*
X126244392Y-138826229D01*
X126277267Y-138786171D01*
X126301697Y-138740466D01*
X126330498Y-138697362D01*
X126350337Y-138649468D01*
X126374767Y-138603762D01*
X126389810Y-138554171D01*
X126409650Y-138506274D01*
X126419764Y-138455426D01*
X126434807Y-138405836D01*
X126439887Y-138354260D01*
X126450000Y-138303416D01*
X126450000Y-121734923D01*
X126650001Y-121534922D01*
X126650000Y-131863166D01*
X126579668Y-131968426D01*
X126526901Y-132095818D01*
X126500000Y-132231056D01*
X126500000Y-132368944D01*
X126526901Y-132504182D01*
X126579668Y-132631574D01*
X126656274Y-132746224D01*
X126753776Y-132843726D01*
X126868426Y-132920332D01*
X126995818Y-132973099D01*
X127131056Y-133000000D01*
X127268944Y-133000000D01*
X127404182Y-132973099D01*
X127531574Y-132920332D01*
X127646224Y-132843726D01*
X127743726Y-132746224D01*
X127820332Y-132631574D01*
X127873099Y-132504182D01*
X127900000Y-132368944D01*
X127900000Y-132231056D01*
X127873099Y-132095818D01*
X127820332Y-131968426D01*
X127750000Y-131863166D01*
X127750000Y-123036834D01*
X127756274Y-123046224D01*
X127853776Y-123143726D01*
X127968426Y-123220332D01*
X128095818Y-123273099D01*
X128231056Y-123300000D01*
X128368944Y-123300000D01*
X128504182Y-123273099D01*
X128631574Y-123220332D01*
X128746224Y-123143726D01*
X128843726Y-123046224D01*
X128920332Y-122931574D01*
X128973099Y-122804182D01*
X128997797Y-122680020D01*
X132280021Y-119397797D01*
X132404182Y-119373099D01*
X132531574Y-119320332D01*
X132646224Y-119243726D01*
X132743726Y-119146224D01*
X132820332Y-119031574D01*
X132854120Y-118950000D01*
X144148549Y-118950000D01*
X144148549Y-121450000D01*
X144154341Y-121508810D01*
X144171496Y-121565360D01*
X144199353Y-121617477D01*
X144236842Y-121663158D01*
X144282523Y-121700647D01*
X144334640Y-121728504D01*
X144391190Y-121745659D01*
X144450000Y-121751451D01*
X146950000Y-121751451D01*
X147008810Y-121745659D01*
X147065360Y-121728504D01*
X147117477Y-121700647D01*
X147163158Y-121663158D01*
X147200647Y-121617477D01*
X147228504Y-121565360D01*
X147245659Y-121508810D01*
X147251451Y-121450000D01*
X147251451Y-118950000D01*
X147245659Y-118891190D01*
X147228504Y-118834640D01*
X147200647Y-118782523D01*
X147163158Y-118736842D01*
X147117477Y-118699353D01*
X147065360Y-118671496D01*
X147008810Y-118654341D01*
X146950000Y-118648549D01*
X144450000Y-118648549D01*
X144391190Y-118654341D01*
X144334640Y-118671496D01*
X144282523Y-118699353D01*
X144236842Y-118736842D01*
X144199353Y-118782523D01*
X144171496Y-118834640D01*
X144154341Y-118891190D01*
X144148549Y-118950000D01*
X132854120Y-118950000D01*
X132873099Y-118904182D01*
X132900000Y-118768944D01*
X132900000Y-118631056D01*
X132873099Y-118495818D01*
X132820332Y-118368426D01*
X132743726Y-118253776D01*
X132646224Y-118156274D01*
X132531574Y-118079668D01*
X132404182Y-118026901D01*
X132268944Y-118000000D01*
X132131056Y-118000000D01*
X131995818Y-118026901D01*
X131868426Y-118079668D01*
X131753776Y-118156274D01*
X131656274Y-118253776D01*
X131579668Y-118368426D01*
X131526901Y-118495818D01*
X131502203Y-118619979D01*
X128219980Y-121902203D01*
X128095818Y-121926901D01*
X127968426Y-121979668D01*
X127853776Y-122056274D01*
X127756274Y-122153776D01*
X127750000Y-122163166D01*
X127750000Y-121424887D01*
X135124143Y-114050745D01*
X135094257Y-114354176D01*
X135133838Y-114756045D01*
X135251059Y-115142472D01*
X135441417Y-115498605D01*
X135697594Y-115810758D01*
X136009747Y-116066935D01*
X136365880Y-116257293D01*
X136752307Y-116374514D01*
X137154176Y-116414095D01*
X137556045Y-116374514D01*
X137942472Y-116257293D01*
X137956116Y-116250000D01*
X147800709Y-116250000D01*
X148101870Y-116220338D01*
X148488297Y-116103117D01*
X148844430Y-115912760D01*
X148918145Y-115852263D01*
X175800000Y-115852263D01*
X175800000Y-116147737D01*
X175857644Y-116437534D01*
X175970717Y-116710517D01*
X176134874Y-116956194D01*
X176343806Y-117165126D01*
X176589483Y-117329283D01*
X176862466Y-117442356D01*
X177152263Y-117500000D01*
X177447737Y-117500000D01*
X177737534Y-117442356D01*
X178010517Y-117329283D01*
X178256194Y-117165126D01*
X178465126Y-116956194D01*
X178629283Y-116710517D01*
X178742356Y-116437534D01*
X178800000Y-116147737D01*
X178800000Y-115852263D01*
X178742356Y-115562466D01*
X178629283Y-115289483D01*
X178465126Y-115043806D01*
X178256194Y-114834874D01*
X178010517Y-114670717D01*
X177737534Y-114557644D01*
X177447737Y-114500000D01*
X177152263Y-114500000D01*
X176862466Y-114557644D01*
X176589483Y-114670717D01*
X176343806Y-114834874D01*
X176134874Y-115043806D01*
X175970717Y-115289483D01*
X175857644Y-115562466D01*
X175800000Y-115852263D01*
X148918145Y-115852263D01*
X149156583Y-115656583D01*
X149412760Y-115344430D01*
X149603117Y-114988297D01*
X149720338Y-114601870D01*
X149759919Y-114200000D01*
X149744884Y-114047338D01*
X158350000Y-114047338D01*
X158350000Y-114352662D01*
X158409565Y-114652118D01*
X158526408Y-114934200D01*
X158696036Y-115188068D01*
X158911932Y-115403964D01*
X159165800Y-115573592D01*
X159447882Y-115690435D01*
X159747338Y-115750000D01*
X160052662Y-115750000D01*
X160352118Y-115690435D01*
X160634200Y-115573592D01*
X160888068Y-115403964D01*
X161103964Y-115188068D01*
X161273592Y-114934200D01*
X161390435Y-114652118D01*
X161450000Y-114352662D01*
X161450000Y-114047338D01*
X161390435Y-113747882D01*
X161273592Y-113465800D01*
X161103964Y-113211932D01*
X160888068Y-112996036D01*
X160634200Y-112826408D01*
X160352118Y-112709565D01*
X160052662Y-112650000D01*
X159747338Y-112650000D01*
X159447882Y-112709565D01*
X159165800Y-112826408D01*
X158911932Y-112996036D01*
X158696036Y-113211932D01*
X158526408Y-113465800D01*
X158409565Y-113747882D01*
X158350000Y-114047338D01*
X149744884Y-114047338D01*
X149720338Y-113798130D01*
X149603117Y-113411703D01*
X149412760Y-113055570D01*
X149156583Y-112743417D01*
X148844430Y-112487240D01*
X148488297Y-112296883D01*
X148101870Y-112179662D01*
X147800709Y-112150000D01*
X137409061Y-112150000D01*
X137308352Y-112140081D01*
X137207644Y-112150000D01*
X137207643Y-112150000D01*
X137004921Y-112169967D01*
X143343832Y-105831056D01*
X148000000Y-105831056D01*
X148000000Y-105968944D01*
X148026901Y-106104182D01*
X148079668Y-106231574D01*
X148156274Y-106346224D01*
X148253776Y-106443726D01*
X148368426Y-106520332D01*
X148495818Y-106573099D01*
X148631056Y-106600000D01*
X148768944Y-106600000D01*
X148904182Y-106573099D01*
X149031574Y-106520332D01*
X149136834Y-106450000D01*
X156972992Y-106450000D01*
X157000000Y-106452660D01*
X157027008Y-106450000D01*
X159363166Y-106450000D01*
X159468426Y-106520332D01*
X159595818Y-106573099D01*
X159731056Y-106600000D01*
X159868944Y-106600000D01*
X160004182Y-106573099D01*
X160131574Y-106520332D01*
X160246224Y-106443726D01*
X160343726Y-106346224D01*
X160420332Y-106231574D01*
X160434825Y-106196584D01*
X207950000Y-106196584D01*
X207950000Y-106403416D01*
X207990350Y-106606274D01*
X208069502Y-106797362D01*
X208184411Y-106969336D01*
X208330664Y-107115589D01*
X208502638Y-107230498D01*
X208693726Y-107309650D01*
X208896584Y-107350000D01*
X209103416Y-107350000D01*
X209306274Y-107309650D01*
X209497362Y-107230498D01*
X209669336Y-107115589D01*
X209815589Y-106969336D01*
X209930498Y-106797362D01*
X210009650Y-106606274D01*
X210050000Y-106403416D01*
X210050000Y-106196584D01*
X210009650Y-105993726D01*
X209930498Y-105802638D01*
X209928736Y-105800000D01*
X210948549Y-105800000D01*
X210948549Y-106800000D01*
X210959145Y-106907583D01*
X210990526Y-107011031D01*
X211041485Y-107106370D01*
X211110065Y-107189935D01*
X211193630Y-107258515D01*
X211288969Y-107309474D01*
X211392417Y-107340855D01*
X211500000Y-107351451D01*
X212500000Y-107351451D01*
X212607583Y-107340855D01*
X212711031Y-107309474D01*
X212806370Y-107258515D01*
X212889935Y-107189935D01*
X212958515Y-107106370D01*
X213009474Y-107011031D01*
X213040855Y-106907583D01*
X213051451Y-106800000D01*
X213051451Y-106122716D01*
X214520000Y-106122716D01*
X214520000Y-106477284D01*
X214589173Y-106825041D01*
X214724861Y-107152620D01*
X214921849Y-107447433D01*
X215172567Y-107698151D01*
X215467380Y-107895139D01*
X215794959Y-108030827D01*
X216142716Y-108100000D01*
X216497284Y-108100000D01*
X216845041Y-108030827D01*
X217172620Y-107895139D01*
X217467433Y-107698151D01*
X217718151Y-107447433D01*
X217915139Y-107152620D01*
X218050827Y-106825041D01*
X218120000Y-106477284D01*
X218120000Y-106122716D01*
X218050827Y-105774959D01*
X217915139Y-105447380D01*
X217718151Y-105152567D01*
X217467433Y-104901849D01*
X217172620Y-104704861D01*
X216845041Y-104569173D01*
X216497284Y-104500000D01*
X216142716Y-104500000D01*
X215794959Y-104569173D01*
X215467380Y-104704861D01*
X215172567Y-104901849D01*
X214921849Y-105152567D01*
X214724861Y-105447380D01*
X214589173Y-105774959D01*
X214520000Y-106122716D01*
X213051451Y-106122716D01*
X213051451Y-105800000D01*
X213040855Y-105692417D01*
X213009474Y-105588969D01*
X212958515Y-105493630D01*
X212889935Y-105410065D01*
X212806370Y-105341485D01*
X212711031Y-105290526D01*
X212607583Y-105259145D01*
X212500000Y-105248549D01*
X211500000Y-105248549D01*
X211392417Y-105259145D01*
X211288969Y-105290526D01*
X211193630Y-105341485D01*
X211110065Y-105410065D01*
X211041485Y-105493630D01*
X210990526Y-105588969D01*
X210959145Y-105692417D01*
X210948549Y-105800000D01*
X209928736Y-105800000D01*
X209815589Y-105630664D01*
X209669336Y-105484411D01*
X209497362Y-105369502D01*
X209306274Y-105290350D01*
X209103416Y-105250000D01*
X208896584Y-105250000D01*
X208693726Y-105290350D01*
X208502638Y-105369502D01*
X208330664Y-105484411D01*
X208184411Y-105630664D01*
X208069502Y-105802638D01*
X207990350Y-105993726D01*
X207950000Y-106196584D01*
X160434825Y-106196584D01*
X160473099Y-106104182D01*
X160500000Y-105968944D01*
X160500000Y-105831056D01*
X160473099Y-105695818D01*
X160420332Y-105568426D01*
X160343726Y-105453776D01*
X160246224Y-105356274D01*
X160131574Y-105279668D01*
X160004182Y-105226901D01*
X159868944Y-105200000D01*
X159731056Y-105200000D01*
X159595818Y-105226901D01*
X159468426Y-105279668D01*
X159363166Y-105350000D01*
X157650000Y-105350000D01*
X157650000Y-94361834D01*
X157720332Y-94256574D01*
X157773099Y-94129182D01*
X157800000Y-93993944D01*
X157800000Y-93856056D01*
X157773099Y-93720818D01*
X157735919Y-93631056D01*
X160400000Y-93631056D01*
X160400000Y-93768944D01*
X160426901Y-93904182D01*
X160479668Y-94031574D01*
X160556274Y-94146224D01*
X160653776Y-94243726D01*
X160768426Y-94320332D01*
X160895818Y-94373099D01*
X161031056Y-94400000D01*
X161168944Y-94400000D01*
X161304182Y-94373099D01*
X161415748Y-94326887D01*
X161400000Y-94406056D01*
X161400000Y-94543944D01*
X161426901Y-94679182D01*
X161479668Y-94806574D01*
X161556274Y-94921224D01*
X161653776Y-95018726D01*
X161768426Y-95095332D01*
X161895818Y-95148099D01*
X162031056Y-95175000D01*
X162168944Y-95175000D01*
X162304182Y-95148099D01*
X162431574Y-95095332D01*
X162546224Y-95018726D01*
X162643726Y-94921224D01*
X162657907Y-94900000D01*
X165366590Y-94900000D01*
X165326901Y-94995818D01*
X165300000Y-95131056D01*
X165300000Y-95268944D01*
X165326901Y-95404182D01*
X165379668Y-95531574D01*
X165456274Y-95646224D01*
X165553776Y-95743726D01*
X165668426Y-95820332D01*
X165795818Y-95873099D01*
X165931056Y-95900000D01*
X166068944Y-95900000D01*
X166204182Y-95873099D01*
X166331574Y-95820332D01*
X166446224Y-95743726D01*
X166543726Y-95646224D01*
X166557907Y-95625000D01*
X184523960Y-95625000D01*
X184850000Y-95951041D01*
X184849999Y-98954132D01*
X184847944Y-98974999D01*
X184849999Y-98995866D01*
X184849999Y-98995872D01*
X184855320Y-99049900D01*
X184856149Y-99058313D01*
X184863521Y-99082615D01*
X184880451Y-99138425D01*
X184919915Y-99212258D01*
X184973025Y-99276973D01*
X184989242Y-99290282D01*
X185284721Y-99585762D01*
X185298026Y-99601974D01*
X185362740Y-99655084D01*
X185410855Y-99680801D01*
X185436572Y-99694548D01*
X185516685Y-99718850D01*
X185524327Y-99719603D01*
X185579126Y-99725000D01*
X185579133Y-99725000D01*
X185600000Y-99727055D01*
X185620867Y-99725000D01*
X190042093Y-99725000D01*
X190056274Y-99746224D01*
X190153776Y-99843726D01*
X190268426Y-99920332D01*
X190395818Y-99973099D01*
X190531056Y-100000000D01*
X190668944Y-100000000D01*
X190804182Y-99973099D01*
X190931574Y-99920332D01*
X191046224Y-99843726D01*
X191143726Y-99746224D01*
X191220332Y-99631574D01*
X191273099Y-99504182D01*
X191300000Y-99368944D01*
X191300000Y-99231056D01*
X191273099Y-99095818D01*
X191220332Y-98968426D01*
X191143726Y-98853776D01*
X191046224Y-98756274D01*
X190931574Y-98679668D01*
X190804182Y-98626901D01*
X190668944Y-98600000D01*
X190531056Y-98600000D01*
X190395818Y-98626901D01*
X190268426Y-98679668D01*
X190153776Y-98756274D01*
X190056274Y-98853776D01*
X190042093Y-98875000D01*
X186514950Y-98875000D01*
X186543726Y-98846224D01*
X186620332Y-98731574D01*
X186673099Y-98604182D01*
X186700000Y-98468944D01*
X186700000Y-98331056D01*
X186673099Y-98195818D01*
X186620332Y-98068426D01*
X186543726Y-97953776D01*
X186446224Y-97856274D01*
X186425000Y-97842093D01*
X186425000Y-95320866D01*
X186427055Y-95299999D01*
X186425000Y-95279132D01*
X186425000Y-95279126D01*
X186418850Y-95216686D01*
X186394548Y-95136573D01*
X186355084Y-95062740D01*
X186301974Y-94998026D01*
X186285762Y-94984721D01*
X185490283Y-94189243D01*
X185476974Y-94173026D01*
X185418455Y-94125000D01*
X200342093Y-94125000D01*
X200356274Y-94146224D01*
X200453776Y-94243726D01*
X200568426Y-94320332D01*
X200695818Y-94373099D01*
X200831056Y-94400000D01*
X200968944Y-94400000D01*
X201104182Y-94373099D01*
X201231574Y-94320332D01*
X201346224Y-94243726D01*
X201443726Y-94146224D01*
X201520332Y-94031574D01*
X201573099Y-93904182D01*
X201600000Y-93768944D01*
X201600000Y-93631056D01*
X201573099Y-93495818D01*
X201520332Y-93368426D01*
X201443726Y-93253776D01*
X201346224Y-93156274D01*
X201231574Y-93079668D01*
X201104182Y-93026901D01*
X200968944Y-93000000D01*
X200831056Y-93000000D01*
X200695818Y-93026901D01*
X200568426Y-93079668D01*
X200453776Y-93156274D01*
X200356274Y-93253776D01*
X200342093Y-93275000D01*
X161657907Y-93275000D01*
X161643726Y-93253776D01*
X161546224Y-93156274D01*
X161431574Y-93079668D01*
X161304182Y-93026901D01*
X161168944Y-93000000D01*
X161031056Y-93000000D01*
X160895818Y-93026901D01*
X160768426Y-93079668D01*
X160653776Y-93156274D01*
X160556274Y-93253776D01*
X160479668Y-93368426D01*
X160426901Y-93495818D01*
X160400000Y-93631056D01*
X157735919Y-93631056D01*
X157720332Y-93593426D01*
X157650000Y-93488166D01*
X157650000Y-90736834D01*
X157720332Y-90631574D01*
X157761967Y-90531056D01*
X167975000Y-90531056D01*
X167975000Y-90668944D01*
X168001901Y-90804182D01*
X168054668Y-90931574D01*
X168131274Y-91046224D01*
X168228776Y-91143726D01*
X168343426Y-91220332D01*
X168470818Y-91273099D01*
X168606056Y-91300000D01*
X168743944Y-91300000D01*
X168879182Y-91273099D01*
X169006574Y-91220332D01*
X169121224Y-91143726D01*
X169218726Y-91046224D01*
X169232907Y-91025000D01*
X176779133Y-91025000D01*
X176800000Y-91027055D01*
X176820867Y-91025000D01*
X176820874Y-91025000D01*
X176883314Y-91018850D01*
X176963427Y-90994548D01*
X177037260Y-90955084D01*
X177101974Y-90901974D01*
X177115284Y-90885756D01*
X177204456Y-90796584D01*
X208030000Y-90796584D01*
X208030000Y-91003416D01*
X208070350Y-91206274D01*
X208149502Y-91397362D01*
X208264411Y-91569336D01*
X208410664Y-91715589D01*
X208582638Y-91830498D01*
X208773726Y-91909650D01*
X208976584Y-91950000D01*
X209183416Y-91950000D01*
X209386274Y-91909650D01*
X209577362Y-91830498D01*
X209749336Y-91715589D01*
X209895589Y-91569336D01*
X210010498Y-91397362D01*
X210089650Y-91206274D01*
X210130000Y-91003416D01*
X210130000Y-90796584D01*
X210089650Y-90593726D01*
X210010498Y-90402638D01*
X210008736Y-90400000D01*
X211028549Y-90400000D01*
X211028549Y-91400000D01*
X211039145Y-91507583D01*
X211070526Y-91611031D01*
X211121485Y-91706370D01*
X211190065Y-91789935D01*
X211273630Y-91858515D01*
X211368969Y-91909474D01*
X211472417Y-91940855D01*
X211580000Y-91951451D01*
X212580000Y-91951451D01*
X212687583Y-91940855D01*
X212791031Y-91909474D01*
X212886370Y-91858515D01*
X212969935Y-91789935D01*
X213038515Y-91706370D01*
X213089474Y-91611031D01*
X213120855Y-91507583D01*
X213131451Y-91400000D01*
X213131451Y-90722716D01*
X214600000Y-90722716D01*
X214600000Y-91077284D01*
X214669173Y-91425041D01*
X214804861Y-91752620D01*
X215001849Y-92047433D01*
X215252567Y-92298151D01*
X215547380Y-92495139D01*
X215874959Y-92630827D01*
X216222716Y-92700000D01*
X216577284Y-92700000D01*
X216925041Y-92630827D01*
X217252620Y-92495139D01*
X217547433Y-92298151D01*
X217798151Y-92047433D01*
X217995139Y-91752620D01*
X218130827Y-91425041D01*
X218200000Y-91077284D01*
X218200000Y-90722716D01*
X218130827Y-90374959D01*
X217995139Y-90047380D01*
X217798151Y-89752567D01*
X217547433Y-89501849D01*
X217252620Y-89304861D01*
X216925041Y-89169173D01*
X216577284Y-89100000D01*
X216222716Y-89100000D01*
X215874959Y-89169173D01*
X215547380Y-89304861D01*
X215252567Y-89501849D01*
X215001849Y-89752567D01*
X214804861Y-90047380D01*
X214669173Y-90374959D01*
X214600000Y-90722716D01*
X213131451Y-90722716D01*
X213131451Y-90400000D01*
X213120855Y-90292417D01*
X213089474Y-90188969D01*
X213038515Y-90093630D01*
X212969935Y-90010065D01*
X212886370Y-89941485D01*
X212791031Y-89890526D01*
X212687583Y-89859145D01*
X212580000Y-89848549D01*
X211580000Y-89848549D01*
X211472417Y-89859145D01*
X211368969Y-89890526D01*
X211273630Y-89941485D01*
X211190065Y-90010065D01*
X211121485Y-90093630D01*
X211070526Y-90188969D01*
X211039145Y-90292417D01*
X211028549Y-90400000D01*
X210008736Y-90400000D01*
X209895589Y-90230664D01*
X209749336Y-90084411D01*
X209577362Y-89969502D01*
X209386274Y-89890350D01*
X209183416Y-89850000D01*
X208976584Y-89850000D01*
X208773726Y-89890350D01*
X208582638Y-89969502D01*
X208410664Y-90084411D01*
X208264411Y-90230664D01*
X208149502Y-90402638D01*
X208070350Y-90593726D01*
X208030000Y-90796584D01*
X177204456Y-90796584D01*
X183376041Y-84625000D01*
X192742093Y-84625000D01*
X192756274Y-84646224D01*
X192853776Y-84743726D01*
X192968426Y-84820332D01*
X193095818Y-84873099D01*
X193231056Y-84900000D01*
X193368944Y-84900000D01*
X193504182Y-84873099D01*
X193631574Y-84820332D01*
X193746224Y-84743726D01*
X193843726Y-84646224D01*
X193920332Y-84531574D01*
X193973099Y-84404182D01*
X194000000Y-84268944D01*
X194000000Y-84131056D01*
X193973099Y-83995818D01*
X193920332Y-83868426D01*
X193843726Y-83753776D01*
X193746224Y-83656274D01*
X193631574Y-83579668D01*
X193504182Y-83526901D01*
X193368944Y-83500000D01*
X193231056Y-83500000D01*
X193095818Y-83526901D01*
X192968426Y-83579668D01*
X192853776Y-83656274D01*
X192756274Y-83753776D01*
X192742093Y-83775000D01*
X183220867Y-83775000D01*
X183200000Y-83772945D01*
X183179133Y-83775000D01*
X183179126Y-83775000D01*
X183124327Y-83780397D01*
X183116685Y-83781150D01*
X183036572Y-83805452D01*
X183010855Y-83819199D01*
X182962740Y-83844916D01*
X182898026Y-83898026D01*
X182884721Y-83914238D01*
X176623960Y-90175000D01*
X169232907Y-90175000D01*
X169218726Y-90153776D01*
X169121224Y-90056274D01*
X169006574Y-89979668D01*
X168879182Y-89926901D01*
X168743944Y-89900000D01*
X168606056Y-89900000D01*
X168470818Y-89926901D01*
X168343426Y-89979668D01*
X168228776Y-90056274D01*
X168131274Y-90153776D01*
X168054668Y-90268426D01*
X168001901Y-90395818D01*
X167975000Y-90531056D01*
X157761967Y-90531056D01*
X157773099Y-90504182D01*
X157800000Y-90368944D01*
X157800000Y-90231056D01*
X157773099Y-90095818D01*
X157720332Y-89968426D01*
X157643726Y-89853776D01*
X157546224Y-89756274D01*
X157431574Y-89679668D01*
X157304182Y-89626901D01*
X157168944Y-89600000D01*
X157031056Y-89600000D01*
X156895818Y-89626901D01*
X156768426Y-89679668D01*
X156653776Y-89756274D01*
X156556274Y-89853776D01*
X156479668Y-89968426D01*
X156426901Y-90095818D01*
X156400000Y-90231056D01*
X156400000Y-90368944D01*
X156426901Y-90504182D01*
X156479668Y-90631574D01*
X156550001Y-90736836D01*
X156550000Y-93488166D01*
X156479668Y-93593426D01*
X156426901Y-93720818D01*
X156400000Y-93856056D01*
X156400000Y-93993944D01*
X156426901Y-94129182D01*
X156479668Y-94256574D01*
X156550000Y-94361834D01*
X156550001Y-105350000D01*
X149136834Y-105350000D01*
X149031574Y-105279668D01*
X148904182Y-105226901D01*
X148768944Y-105200000D01*
X148631056Y-105200000D01*
X148495818Y-105226901D01*
X148368426Y-105279668D01*
X148253776Y-105356274D01*
X148156274Y-105453776D01*
X148079668Y-105568426D01*
X148026901Y-105695818D01*
X148000000Y-105831056D01*
X143343832Y-105831056D01*
X152024878Y-97150010D01*
X154372982Y-97150010D01*
X154399990Y-97152670D01*
X154426998Y-97150010D01*
X154427008Y-97150010D01*
X154507809Y-97142052D01*
X154611484Y-97110602D01*
X154707032Y-97059531D01*
X154790780Y-96990800D01*
X154808003Y-96969814D01*
X155180020Y-96597797D01*
X155304182Y-96573099D01*
X155431574Y-96520332D01*
X155546224Y-96443726D01*
X155643726Y-96346224D01*
X155720332Y-96231574D01*
X155773099Y-96104182D01*
X155800000Y-95968944D01*
X155800000Y-95831056D01*
X155773099Y-95695818D01*
X155720332Y-95568426D01*
X155643726Y-95453776D01*
X155546224Y-95356274D01*
X155536834Y-95350000D01*
X155546224Y-95343726D01*
X155643726Y-95246224D01*
X155720332Y-95131574D01*
X155773099Y-95004182D01*
X155800000Y-94868944D01*
X155800000Y-94731056D01*
X155773099Y-94595818D01*
X155720332Y-94468426D01*
X155643726Y-94353776D01*
X155546224Y-94256274D01*
X155431574Y-94179668D01*
X155304182Y-94126901D01*
X155180021Y-94102203D01*
X154908003Y-93830185D01*
X154890780Y-93809200D01*
X154841729Y-93768944D01*
X154807032Y-93740469D01*
X154770267Y-93720818D01*
X154711484Y-93689398D01*
X154607809Y-93657948D01*
X154527008Y-93649990D01*
X154526998Y-93649990D01*
X154499990Y-93647330D01*
X154472982Y-93649990D01*
X153364976Y-93649990D01*
X153509774Y-93621188D01*
X153703046Y-93541133D01*
X153876986Y-93424910D01*
X154024910Y-93276986D01*
X154141133Y-93103046D01*
X154221188Y-92909774D01*
X154262000Y-92704598D01*
X154262000Y-92495402D01*
X154221188Y-92290226D01*
X154141133Y-92096954D01*
X154024910Y-91923014D01*
X153876986Y-91775090D01*
X153703046Y-91658867D01*
X153509774Y-91578812D01*
X153304598Y-91538000D01*
X153095402Y-91538000D01*
X152890226Y-91578812D01*
X152696954Y-91658867D01*
X152523014Y-91775090D01*
X152375090Y-91923014D01*
X152258867Y-92096954D01*
X152178812Y-92290226D01*
X152138000Y-92495402D01*
X152138000Y-92704598D01*
X152178812Y-92909774D01*
X152258867Y-93103046D01*
X152375090Y-93276986D01*
X152523014Y-93424910D01*
X152696954Y-93541133D01*
X152890226Y-93621188D01*
X153035024Y-93649990D01*
X150829951Y-93649990D01*
X150802940Y-93647330D01*
X150775929Y-93649990D01*
X150775922Y-93649990D01*
X150695121Y-93657948D01*
X150591445Y-93689398D01*
X150495898Y-93740469D01*
X150461202Y-93768944D01*
X150412150Y-93809200D01*
X150394927Y-93830186D01*
X132931985Y-111293128D01*
X133020338Y-111001869D01*
X133059919Y-110599999D01*
X133020338Y-110198129D01*
X132903116Y-109811703D01*
X132712759Y-109455570D01*
X132520780Y-109221642D01*
X130220791Y-106921655D01*
X130156583Y-106843417D01*
X129844430Y-106587240D01*
X129488297Y-106396883D01*
X129101870Y-106279662D01*
X128800709Y-106250000D01*
X128800708Y-106250000D01*
X128700000Y-106240081D01*
X128599292Y-106250000D01*
X122050000Y-106250000D01*
X122050000Y-102922716D01*
X123600000Y-102922716D01*
X123600000Y-103277284D01*
X123669173Y-103625041D01*
X123804861Y-103952620D01*
X124001849Y-104247433D01*
X124252567Y-104498151D01*
X124547380Y-104695139D01*
X124874959Y-104830827D01*
X125222716Y-104900000D01*
X125577284Y-104900000D01*
X125925041Y-104830827D01*
X126252620Y-104695139D01*
X126547433Y-104498151D01*
X126798151Y-104247433D01*
X126995139Y-103952620D01*
X127130827Y-103625041D01*
X127200000Y-103277284D01*
X127200000Y-102981810D01*
X131500000Y-102981810D01*
X131500000Y-103218190D01*
X131546116Y-103450027D01*
X131636574Y-103668413D01*
X131767899Y-103864955D01*
X131935045Y-104032101D01*
X132131587Y-104163426D01*
X132349973Y-104253884D01*
X132581810Y-104300000D01*
X132818190Y-104300000D01*
X133050027Y-104253884D01*
X133268413Y-104163426D01*
X133464955Y-104032101D01*
X133632101Y-103864955D01*
X133763426Y-103668413D01*
X133853884Y-103450027D01*
X133900000Y-103218190D01*
X133900000Y-102981810D01*
X133853884Y-102749973D01*
X133763426Y-102531587D01*
X133632101Y-102335045D01*
X133464955Y-102167899D01*
X133268413Y-102036574D01*
X133050027Y-101946116D01*
X132818190Y-101900000D01*
X132581810Y-101900000D01*
X132349973Y-101946116D01*
X132131587Y-102036574D01*
X131935045Y-102167899D01*
X131767899Y-102335045D01*
X131636574Y-102531587D01*
X131546116Y-102749973D01*
X131500000Y-102981810D01*
X127200000Y-102981810D01*
X127200000Y-102922716D01*
X127130827Y-102574959D01*
X126995139Y-102247380D01*
X126798151Y-101952567D01*
X126547433Y-101701849D01*
X126252620Y-101504861D01*
X125925041Y-101369173D01*
X125577284Y-101300000D01*
X125222716Y-101300000D01*
X124874959Y-101369173D01*
X124547380Y-101504861D01*
X124252567Y-101701849D01*
X124001849Y-101952567D01*
X123804861Y-102247380D01*
X123669173Y-102574959D01*
X123600000Y-102922716D01*
X122050000Y-102922716D01*
X122050000Y-90900709D01*
X122059919Y-90800000D01*
X122020338Y-90398130D01*
X121903117Y-90011703D01*
X121848333Y-89909210D01*
X121712760Y-89655570D01*
X121456583Y-89343417D01*
X121378355Y-89279217D01*
X114320792Y-82221656D01*
X114256583Y-82143417D01*
X113944430Y-81887240D01*
X113588297Y-81696883D01*
X113201870Y-81579662D01*
X112900709Y-81550000D01*
X112900708Y-81550000D01*
X112800000Y-81540081D01*
X112699292Y-81550000D01*
X102099291Y-81550000D01*
X101798130Y-81579662D01*
X101411703Y-81696883D01*
X101055570Y-81887240D01*
X100743417Y-82143417D01*
X100487240Y-82455570D01*
X100296883Y-82811703D01*
X100179662Y-83198130D01*
X100140081Y-83600000D01*
X100179662Y-84001870D01*
X100296883Y-84388297D01*
X100487240Y-84744430D01*
X100743417Y-85056583D01*
X101055570Y-85312760D01*
X101411703Y-85503117D01*
X101798130Y-85620338D01*
X102099291Y-85650000D01*
X111950864Y-85650000D01*
X117950000Y-91649138D01*
X117950001Y-106250000D01*
X114700708Y-106250000D01*
X114599999Y-106240081D01*
X114198129Y-106279662D01*
X114104669Y-106308013D01*
X113811703Y-106396883D01*
X113455570Y-106587240D01*
X113143417Y-106843417D01*
X113079217Y-106921645D01*
X109150864Y-110850000D01*
X96799291Y-110850000D01*
X96498130Y-110879662D01*
X96111703Y-110996883D01*
X95755570Y-111187240D01*
X95443417Y-111443417D01*
X95187240Y-111755570D01*
X95154630Y-111816578D01*
X95021438Y-111978874D01*
X94868223Y-112265517D01*
X94773875Y-112576544D01*
X94742017Y-112900000D01*
X94773875Y-113223456D01*
X94868223Y-113534483D01*
X95021438Y-113821126D01*
X95154630Y-113983422D01*
X95187240Y-114044430D01*
X95443417Y-114356583D01*
X95755570Y-114612760D01*
X96111703Y-114803117D01*
X96498130Y-114920338D01*
X96799291Y-114950000D01*
X109899292Y-114950000D01*
X110000000Y-114959919D01*
X110100708Y-114950000D01*
X110100709Y-114950000D01*
X110401870Y-114920338D01*
X110788297Y-114803117D01*
X111144430Y-114612760D01*
X111456583Y-114356583D01*
X111520792Y-114278344D01*
X113046873Y-112752263D01*
X123900000Y-112752263D01*
X123900000Y-113047737D01*
X123957644Y-113337534D01*
X124070717Y-113610517D01*
X124234874Y-113856194D01*
X124443806Y-114065126D01*
X124689483Y-114229283D01*
X124962466Y-114342356D01*
X125252263Y-114400000D01*
X125547737Y-114400000D01*
X125837534Y-114342356D01*
X126110517Y-114229283D01*
X126356194Y-114065126D01*
X126565126Y-113856194D01*
X126729283Y-113610517D01*
X126842356Y-113337534D01*
X126900000Y-113047737D01*
X126900000Y-112752263D01*
X126842356Y-112462466D01*
X126729283Y-112189483D01*
X126565126Y-111943806D01*
X126356194Y-111734874D01*
X126110517Y-111570717D01*
X125837534Y-111457644D01*
X125547737Y-111400000D01*
X125252263Y-111400000D01*
X124962466Y-111457644D01*
X124689483Y-111570717D01*
X124443806Y-111734874D01*
X124234874Y-111943806D01*
X124070717Y-112189483D01*
X123957644Y-112462466D01*
X123900000Y-112752263D01*
X113046873Y-112752263D01*
X115449138Y-110350000D01*
X119899292Y-110350000D01*
X120000000Y-110359919D01*
X120100709Y-110350000D01*
X127850863Y-110350000D01*
X129621642Y-112120780D01*
X129855570Y-112312759D01*
X130211703Y-112503116D01*
X130598129Y-112620338D01*
X130999999Y-112659919D01*
X131401869Y-112620338D01*
X131693128Y-112531985D01*
X121475113Y-122750000D01*
X114936834Y-122750000D01*
X114831574Y-122679668D01*
X114704182Y-122626901D01*
X114568944Y-122600000D01*
X114431056Y-122600000D01*
X114295818Y-122626901D01*
X114168426Y-122679668D01*
X114063166Y-122750000D01*
X110827011Y-122750000D01*
X110800000Y-122747340D01*
X110772989Y-122750000D01*
X110772982Y-122750000D01*
X110692181Y-122757958D01*
X110588506Y-122789408D01*
X110492958Y-122840479D01*
X110409210Y-122909210D01*
X110391987Y-122930196D01*
X104772183Y-128550000D01*
X91227818Y-128550000D01*
X90222000Y-127544183D01*
X90250000Y-127403416D01*
X90250000Y-127196584D01*
X91150000Y-127196584D01*
X91150000Y-127403416D01*
X91190350Y-127606274D01*
X91269502Y-127797362D01*
X91384411Y-127969336D01*
X91530664Y-128115589D01*
X91702638Y-128230498D01*
X91893726Y-128309650D01*
X92096584Y-128350000D01*
X92303416Y-128350000D01*
X92506274Y-128309650D01*
X92697362Y-128230498D01*
X92869336Y-128115589D01*
X93015589Y-127969336D01*
X93130498Y-127797362D01*
X93209650Y-127606274D01*
X93250000Y-127403416D01*
X93250000Y-127196584D01*
X93209650Y-126993726D01*
X93130498Y-126802638D01*
X93015589Y-126630664D01*
X92869336Y-126484411D01*
X92697362Y-126369502D01*
X92506274Y-126290350D01*
X92303416Y-126250000D01*
X92096584Y-126250000D01*
X91893726Y-126290350D01*
X91702638Y-126369502D01*
X91530664Y-126484411D01*
X91384411Y-126630664D01*
X91269502Y-126802638D01*
X91190350Y-126993726D01*
X91150000Y-127196584D01*
X90250000Y-127196584D01*
X90209650Y-126993726D01*
X90130498Y-126802638D01*
X90015589Y-126630664D01*
X89869336Y-126484411D01*
X89697362Y-126369502D01*
X89506274Y-126290350D01*
X89303416Y-126250000D01*
X89096584Y-126250000D01*
X88893726Y-126290350D01*
X88702638Y-126369502D01*
X88530664Y-126484411D01*
X88384411Y-126630664D01*
X88269502Y-126802638D01*
X88190350Y-126993726D01*
X88150000Y-127196584D01*
X85712638Y-127196584D01*
X85405041Y-127069173D01*
X85057284Y-127000000D01*
X84702716Y-127000000D01*
X84354959Y-127069173D01*
X84027380Y-127204861D01*
X83732567Y-127401849D01*
X83481849Y-127652567D01*
X83284861Y-127947380D01*
X83149173Y-128274959D01*
X83080000Y-128622716D01*
X79925000Y-128622716D01*
X79925000Y-112722716D01*
X82300000Y-112722716D01*
X82300000Y-113077284D01*
X82369173Y-113425041D01*
X82504861Y-113752620D01*
X82701849Y-114047433D01*
X82952567Y-114298151D01*
X83247380Y-114495139D01*
X83574959Y-114630827D01*
X83922716Y-114700000D01*
X84277284Y-114700000D01*
X84625041Y-114630827D01*
X84952620Y-114495139D01*
X85247433Y-114298151D01*
X85498151Y-114047433D01*
X85695139Y-113752620D01*
X85830827Y-113425041D01*
X85900000Y-113077284D01*
X85900000Y-112722716D01*
X85830827Y-112374959D01*
X85695139Y-112047380D01*
X85529846Y-111800001D01*
X89248549Y-111800001D01*
X89248549Y-113999999D01*
X89259145Y-114107582D01*
X89290526Y-114211031D01*
X89341485Y-114306369D01*
X89410066Y-114389934D01*
X89493631Y-114458515D01*
X89588969Y-114509474D01*
X89692418Y-114540855D01*
X89800001Y-114551451D01*
X90180865Y-114551451D01*
X90255570Y-114612760D01*
X90611703Y-114803117D01*
X90998130Y-114920338D01*
X91400000Y-114959919D01*
X91801869Y-114920338D01*
X92188296Y-114803117D01*
X92544430Y-114612760D01*
X92619135Y-114551451D01*
X92999999Y-114551451D01*
X93107582Y-114540855D01*
X93211031Y-114509474D01*
X93306369Y-114458515D01*
X93389934Y-114389934D01*
X93458515Y-114306369D01*
X93509474Y-114211031D01*
X93540855Y-114107582D01*
X93551451Y-113999999D01*
X93551451Y-111800001D01*
X93540855Y-111692418D01*
X93509474Y-111588969D01*
X93458515Y-111493631D01*
X93450000Y-111483256D01*
X93450000Y-108149136D01*
X96449137Y-105150000D01*
X103000709Y-105150000D01*
X103301870Y-105120338D01*
X103688297Y-105003117D01*
X104044430Y-104812760D01*
X104356583Y-104556583D01*
X104612760Y-104244430D01*
X104803117Y-103888297D01*
X104920338Y-103501870D01*
X104959919Y-103100000D01*
X104943913Y-102937489D01*
X112500000Y-102937489D01*
X112500000Y-103262511D01*
X112563408Y-103581287D01*
X112687789Y-103881568D01*
X112868361Y-104151814D01*
X113098186Y-104381639D01*
X113368432Y-104562211D01*
X113668713Y-104686592D01*
X113987489Y-104750000D01*
X114312511Y-104750000D01*
X114631287Y-104686592D01*
X114931568Y-104562211D01*
X115201814Y-104381639D01*
X115431639Y-104151814D01*
X115612211Y-103881568D01*
X115736592Y-103581287D01*
X115800000Y-103262511D01*
X115800000Y-102937489D01*
X115736592Y-102618713D01*
X115612211Y-102318432D01*
X115431639Y-102048186D01*
X115201814Y-101818361D01*
X114931568Y-101637789D01*
X114631287Y-101513408D01*
X114312511Y-101450000D01*
X113987489Y-101450000D01*
X113668713Y-101513408D01*
X113368432Y-101637789D01*
X113098186Y-101818361D01*
X112868361Y-102048186D01*
X112687789Y-102318432D01*
X112563408Y-102618713D01*
X112500000Y-102937489D01*
X104943913Y-102937489D01*
X104920338Y-102698130D01*
X104803117Y-102311703D01*
X104612760Y-101955570D01*
X104356583Y-101643417D01*
X104044430Y-101387240D01*
X103688297Y-101196883D01*
X103301870Y-101079662D01*
X103000709Y-101050000D01*
X95700709Y-101050000D01*
X95600000Y-101040081D01*
X95499291Y-101050000D01*
X95198130Y-101079662D01*
X94811703Y-101196883D01*
X94455570Y-101387240D01*
X94143417Y-101643417D01*
X94079212Y-101721651D01*
X90021651Y-105779213D01*
X89943418Y-105843417D01*
X89687241Y-106155570D01*
X89605759Y-106308013D01*
X89496883Y-106511704D01*
X89379662Y-106898131D01*
X89340081Y-107300000D01*
X89350001Y-107400718D01*
X89350000Y-111483255D01*
X89341485Y-111493631D01*
X89290526Y-111588969D01*
X89259145Y-111692418D01*
X89248549Y-111800001D01*
X85529846Y-111800001D01*
X85498151Y-111752567D01*
X85247433Y-111501849D01*
X84952620Y-111304861D01*
X84625041Y-111169173D01*
X84277284Y-111100000D01*
X83922716Y-111100000D01*
X83574959Y-111169173D01*
X83247380Y-111304861D01*
X82952567Y-111501849D01*
X82701849Y-111752567D01*
X82504861Y-112047380D01*
X82369173Y-112374959D01*
X82300000Y-112722716D01*
X79925000Y-112722716D01*
X79925000Y-74495402D01*
X101138000Y-74495402D01*
X101138000Y-74704598D01*
X101178812Y-74909774D01*
X101258867Y-75103046D01*
X101375090Y-75276986D01*
X101523014Y-75424910D01*
X101696954Y-75541133D01*
X101890226Y-75621188D01*
X102095402Y-75662000D01*
X102304598Y-75662000D01*
X102509774Y-75621188D01*
X102703046Y-75541133D01*
X102876986Y-75424910D01*
X103024910Y-75276986D01*
X103141133Y-75103046D01*
X103221188Y-74909774D01*
X103262000Y-74704598D01*
X103262000Y-74495402D01*
X103242344Y-74396584D01*
X168550000Y-74396584D01*
X168550000Y-74603416D01*
X168590350Y-74806274D01*
X168669502Y-74997362D01*
X168784411Y-75169336D01*
X168930664Y-75315589D01*
X169102638Y-75430498D01*
X169293726Y-75509650D01*
X169496584Y-75550000D01*
X169703416Y-75550000D01*
X169906274Y-75509650D01*
X170097362Y-75430498D01*
X170269336Y-75315589D01*
X170415589Y-75169336D01*
X170530498Y-74997362D01*
X170609650Y-74806274D01*
X170650000Y-74603416D01*
X170650000Y-74396584D01*
X194350000Y-74396584D01*
X194350000Y-74603416D01*
X194390350Y-74806274D01*
X194469502Y-74997362D01*
X194584411Y-75169336D01*
X194730664Y-75315589D01*
X194902638Y-75430498D01*
X195093726Y-75509650D01*
X195296584Y-75550000D01*
X195503416Y-75550000D01*
X195706274Y-75509650D01*
X195897362Y-75430498D01*
X196069336Y-75315589D01*
X196215589Y-75169336D01*
X196330498Y-74997362D01*
X196409650Y-74806274D01*
X196450000Y-74603416D01*
X196450000Y-74396584D01*
X196409650Y-74193726D01*
X196330498Y-74002638D01*
X196215589Y-73830664D01*
X196069336Y-73684411D01*
X195897362Y-73569502D01*
X195706274Y-73490350D01*
X195503416Y-73450000D01*
X195296584Y-73450000D01*
X195093726Y-73490350D01*
X194902638Y-73569502D01*
X194730664Y-73684411D01*
X194584411Y-73830664D01*
X194469502Y-74002638D01*
X194390350Y-74193726D01*
X194350000Y-74396584D01*
X170650000Y-74396584D01*
X170609650Y-74193726D01*
X170530498Y-74002638D01*
X170415589Y-73830664D01*
X170269336Y-73684411D01*
X170097362Y-73569502D01*
X169906274Y-73490350D01*
X169703416Y-73450000D01*
X169496584Y-73450000D01*
X169293726Y-73490350D01*
X169102638Y-73569502D01*
X168930664Y-73684411D01*
X168784411Y-73830664D01*
X168669502Y-74002638D01*
X168590350Y-74193726D01*
X168550000Y-74396584D01*
X103242344Y-74396584D01*
X103221188Y-74290226D01*
X103141133Y-74096954D01*
X103024910Y-73923014D01*
X102876986Y-73775090D01*
X102703046Y-73658867D01*
X102509774Y-73578812D01*
X102304598Y-73538000D01*
X102095402Y-73538000D01*
X101890226Y-73578812D01*
X101696954Y-73658867D01*
X101523014Y-73775090D01*
X101375090Y-73923014D01*
X101258867Y-74096954D01*
X101178812Y-74290226D01*
X101138000Y-74495402D01*
X79925000Y-74495402D01*
X79925000Y-69512866D01*
X85700000Y-69512866D01*
X85700000Y-69887134D01*
X85773016Y-70254209D01*
X85916242Y-70599987D01*
X86124174Y-70911179D01*
X86388821Y-71175826D01*
X86700013Y-71383758D01*
X87045791Y-71526984D01*
X87412866Y-71600000D01*
X87787134Y-71600000D01*
X88154209Y-71526984D01*
X88499987Y-71383758D01*
X88811179Y-71175826D01*
X88987005Y-71000000D01*
X168548549Y-71000000D01*
X168548549Y-72000000D01*
X168559145Y-72107583D01*
X168590526Y-72211031D01*
X168641485Y-72306370D01*
X168710065Y-72389935D01*
X168793630Y-72458515D01*
X168888969Y-72509474D01*
X168992417Y-72540855D01*
X169100000Y-72551451D01*
X170100000Y-72551451D01*
X170207583Y-72540855D01*
X170311031Y-72509474D01*
X170406370Y-72458515D01*
X170489935Y-72389935D01*
X170558515Y-72306370D01*
X170609474Y-72211031D01*
X170640855Y-72107583D01*
X170651451Y-72000000D01*
X170651451Y-71000000D01*
X194348549Y-71000000D01*
X194348549Y-72000000D01*
X194359145Y-72107583D01*
X194390526Y-72211031D01*
X194441485Y-72306370D01*
X194510065Y-72389935D01*
X194593630Y-72458515D01*
X194688969Y-72509474D01*
X194792417Y-72540855D01*
X194900000Y-72551451D01*
X195900000Y-72551451D01*
X196007583Y-72540855D01*
X196111031Y-72509474D01*
X196206370Y-72458515D01*
X196289935Y-72389935D01*
X196358515Y-72306370D01*
X196409474Y-72211031D01*
X196440855Y-72107583D01*
X196451451Y-72000000D01*
X196451451Y-71000000D01*
X196440855Y-70892417D01*
X196409474Y-70788969D01*
X196358515Y-70693630D01*
X196289935Y-70610065D01*
X196206370Y-70541485D01*
X196111031Y-70490526D01*
X196007583Y-70459145D01*
X195900000Y-70448549D01*
X194900000Y-70448549D01*
X194792417Y-70459145D01*
X194688969Y-70490526D01*
X194593630Y-70541485D01*
X194510065Y-70610065D01*
X194441485Y-70693630D01*
X194390526Y-70788969D01*
X194359145Y-70892417D01*
X194348549Y-71000000D01*
X170651451Y-71000000D01*
X170640855Y-70892417D01*
X170609474Y-70788969D01*
X170558515Y-70693630D01*
X170489935Y-70610065D01*
X170406370Y-70541485D01*
X170311031Y-70490526D01*
X170207583Y-70459145D01*
X170100000Y-70448549D01*
X169100000Y-70448549D01*
X168992417Y-70459145D01*
X168888969Y-70490526D01*
X168793630Y-70541485D01*
X168710065Y-70610065D01*
X168641485Y-70693630D01*
X168590526Y-70788969D01*
X168559145Y-70892417D01*
X168548549Y-71000000D01*
X88987005Y-71000000D01*
X89075826Y-70911179D01*
X89283758Y-70599987D01*
X89426984Y-70254209D01*
X89500000Y-69887134D01*
X89500000Y-69512866D01*
X211900000Y-69512866D01*
X211900000Y-69887134D01*
X211973016Y-70254209D01*
X212116242Y-70599987D01*
X212324174Y-70911179D01*
X212588821Y-71175826D01*
X212900013Y-71383758D01*
X213245791Y-71526984D01*
X213612866Y-71600000D01*
X213987134Y-71600000D01*
X214354209Y-71526984D01*
X214699987Y-71383758D01*
X215011179Y-71175826D01*
X215275826Y-70911179D01*
X215483758Y-70599987D01*
X215626984Y-70254209D01*
X215700000Y-69887134D01*
X215700000Y-69512866D01*
X215626984Y-69145791D01*
X215483758Y-68800013D01*
X215275826Y-68488821D01*
X215011179Y-68224174D01*
X214699987Y-68016242D01*
X214354209Y-67873016D01*
X213987134Y-67800000D01*
X213612866Y-67800000D01*
X213245791Y-67873016D01*
X212900013Y-68016242D01*
X212588821Y-68224174D01*
X212324174Y-68488821D01*
X212116242Y-68800013D01*
X211973016Y-69145791D01*
X211900000Y-69512866D01*
X89500000Y-69512866D01*
X89426984Y-69145791D01*
X89283758Y-68800013D01*
X89075826Y-68488821D01*
X88811179Y-68224174D01*
X88499987Y-68016242D01*
X88154209Y-67873016D01*
X87787134Y-67800000D01*
X87412866Y-67800000D01*
X87045791Y-67873016D01*
X86700013Y-68016242D01*
X86388821Y-68224174D01*
X86124174Y-68488821D01*
X85916242Y-68800013D01*
X85773016Y-69145791D01*
X85700000Y-69512866D01*
X79925000Y-69512866D01*
X79925000Y-67002716D01*
X167800000Y-67002716D01*
X167800000Y-67357284D01*
X167869173Y-67705041D01*
X168004861Y-68032620D01*
X168201849Y-68327433D01*
X168452567Y-68578151D01*
X168747380Y-68775139D01*
X169074959Y-68910827D01*
X169422716Y-68980000D01*
X169777284Y-68980000D01*
X170125041Y-68910827D01*
X170452620Y-68775139D01*
X170747433Y-68578151D01*
X170998151Y-68327433D01*
X171195139Y-68032620D01*
X171330827Y-67705041D01*
X171400000Y-67357284D01*
X171400000Y-67002716D01*
X193600000Y-67002716D01*
X193600000Y-67357284D01*
X193669173Y-67705041D01*
X193804861Y-68032620D01*
X194001849Y-68327433D01*
X194252567Y-68578151D01*
X194547380Y-68775139D01*
X194874959Y-68910827D01*
X195222716Y-68980000D01*
X195577284Y-68980000D01*
X195925041Y-68910827D01*
X196252620Y-68775139D01*
X196547433Y-68578151D01*
X196798151Y-68327433D01*
X196995139Y-68032620D01*
X197130827Y-67705041D01*
X197200000Y-67357284D01*
X197200000Y-67002716D01*
X197130827Y-66654959D01*
X196995139Y-66327380D01*
X196798151Y-66032567D01*
X196547433Y-65781849D01*
X196252620Y-65584861D01*
X195925041Y-65449173D01*
X195577284Y-65380000D01*
X195222716Y-65380000D01*
X194874959Y-65449173D01*
X194547380Y-65584861D01*
X194252567Y-65781849D01*
X194001849Y-66032567D01*
X193804861Y-66327380D01*
X193669173Y-66654959D01*
X193600000Y-67002716D01*
X171400000Y-67002716D01*
X171330827Y-66654959D01*
X171195139Y-66327380D01*
X170998151Y-66032567D01*
X170747433Y-65781849D01*
X170452620Y-65584861D01*
X170125041Y-65449173D01*
X169777284Y-65380000D01*
X169422716Y-65380000D01*
X169074959Y-65449173D01*
X168747380Y-65584861D01*
X168452567Y-65781849D01*
X168201849Y-66032567D01*
X168004861Y-66327380D01*
X167869173Y-66654959D01*
X167800000Y-67002716D01*
X79925000Y-67002716D01*
X79925000Y-65495402D01*
X152138000Y-65495402D01*
X152138000Y-65704598D01*
X152178812Y-65909774D01*
X152258867Y-66103046D01*
X152375090Y-66276986D01*
X152523014Y-66424910D01*
X152696954Y-66541133D01*
X152890226Y-66621188D01*
X153095402Y-66662000D01*
X153304598Y-66662000D01*
X153509774Y-66621188D01*
X153703046Y-66541133D01*
X153876986Y-66424910D01*
X154024910Y-66276986D01*
X154141133Y-66103046D01*
X154221188Y-65909774D01*
X154262000Y-65704598D01*
X154262000Y-65495402D01*
X154221188Y-65290226D01*
X154141133Y-65096954D01*
X154024910Y-64923014D01*
X153876986Y-64775090D01*
X153703046Y-64658867D01*
X153509774Y-64578812D01*
X153304598Y-64538000D01*
X153095402Y-64538000D01*
X152890226Y-64578812D01*
X152696954Y-64658867D01*
X152523014Y-64775090D01*
X152375090Y-64923014D01*
X152258867Y-65096954D01*
X152178812Y-65290226D01*
X152138000Y-65495402D01*
X79925000Y-65495402D01*
X79925000Y-62025000D01*
X221475000Y-62025000D01*
X221475001Y-150375000D01*
G04 #@! TA.AperFunction,NonConductor*
D26*
G36*
X221475001Y-150375000D02*
G01*
X79925000Y-150375000D01*
X79925000Y-145342716D01*
X105300000Y-145342716D01*
X105300000Y-145697284D01*
X105369173Y-146045041D01*
X105504861Y-146372620D01*
X105701849Y-146667433D01*
X105952567Y-146918151D01*
X106247380Y-147115139D01*
X106574959Y-147250827D01*
X106922716Y-147320000D01*
X107277284Y-147320000D01*
X107625041Y-147250827D01*
X107952620Y-147115139D01*
X108247433Y-146918151D01*
X108498151Y-146667433D01*
X108695139Y-146372620D01*
X108830827Y-146045041D01*
X108900000Y-145697284D01*
X108900000Y-145342716D01*
X108830827Y-144994959D01*
X108695139Y-144667380D01*
X108498151Y-144372567D01*
X108247433Y-144121849D01*
X107952620Y-143924861D01*
X107625041Y-143789173D01*
X107277284Y-143720000D01*
X106922716Y-143720000D01*
X106574959Y-143789173D01*
X106247380Y-143924861D01*
X105952567Y-144121849D01*
X105701849Y-144372567D01*
X105504861Y-144667380D01*
X105369173Y-144994959D01*
X105300000Y-145342716D01*
X79925000Y-145342716D01*
X79925000Y-142512866D01*
X85700000Y-142512866D01*
X85700000Y-142887134D01*
X85773016Y-143254209D01*
X85916242Y-143599987D01*
X86124174Y-143911179D01*
X86388821Y-144175826D01*
X86700013Y-144383758D01*
X87045791Y-144526984D01*
X87412866Y-144600000D01*
X87787134Y-144600000D01*
X88154209Y-144526984D01*
X88499987Y-144383758D01*
X88811179Y-144175826D01*
X89075826Y-143911179D01*
X89283758Y-143599987D01*
X89426984Y-143254209D01*
X89500000Y-142887134D01*
X89500000Y-142512866D01*
X89426984Y-142145791D01*
X89283758Y-141800013D01*
X89075826Y-141488821D01*
X88811179Y-141224174D01*
X88499987Y-141016242D01*
X88154209Y-140873016D01*
X87787134Y-140800000D01*
X87412866Y-140800000D01*
X87045791Y-140873016D01*
X86700013Y-141016242D01*
X86388821Y-141224174D01*
X86124174Y-141488821D01*
X85916242Y-141800013D01*
X85773016Y-142145791D01*
X85700000Y-142512866D01*
X79925000Y-142512866D01*
X79925000Y-128622716D01*
X83080000Y-128622716D01*
X83080000Y-128977284D01*
X83149173Y-129325041D01*
X83284861Y-129652620D01*
X83481849Y-129947433D01*
X83732567Y-130198151D01*
X84027380Y-130395139D01*
X84354959Y-130530827D01*
X84702716Y-130600000D01*
X85057284Y-130600000D01*
X85405041Y-130530827D01*
X85732620Y-130395139D01*
X86027433Y-130198151D01*
X86278151Y-129947433D01*
X86376662Y-129800000D01*
X88148549Y-129800000D01*
X88148549Y-130800000D01*
X88159145Y-130907583D01*
X88190526Y-131011031D01*
X88241485Y-131106370D01*
X88310065Y-131189935D01*
X88393630Y-131258515D01*
X88488969Y-131309474D01*
X88592417Y-131340855D01*
X88700000Y-131351451D01*
X89700000Y-131351451D01*
X89807583Y-131340855D01*
X89911031Y-131309474D01*
X90006370Y-131258515D01*
X90089935Y-131189935D01*
X90158515Y-131106370D01*
X90209474Y-131011031D01*
X90240855Y-130907583D01*
X90251451Y-130800000D01*
X90251451Y-129800000D01*
X90240855Y-129692417D01*
X90209474Y-129588969D01*
X90158515Y-129493630D01*
X90089935Y-129410065D01*
X90006370Y-129341485D01*
X89911031Y-129290526D01*
X89807583Y-129259145D01*
X89700000Y-129248549D01*
X88700000Y-129248549D01*
X88592417Y-129259145D01*
X88488969Y-129290526D01*
X88393630Y-129341485D01*
X88310065Y-129410065D01*
X88241485Y-129493630D01*
X88190526Y-129588969D01*
X88159145Y-129692417D01*
X88148549Y-129800000D01*
X86376662Y-129800000D01*
X86475139Y-129652620D01*
X86610827Y-129325041D01*
X86680000Y-128977284D01*
X86680000Y-128622716D01*
X86610827Y-128274959D01*
X86475139Y-127947380D01*
X86278151Y-127652567D01*
X86027433Y-127401849D01*
X85732620Y-127204861D01*
X85712638Y-127196584D01*
X88150000Y-127196584D01*
X88150000Y-127403416D01*
X88190350Y-127606274D01*
X88269502Y-127797362D01*
X88384411Y-127969336D01*
X88530664Y-128115589D01*
X88702638Y-128230498D01*
X88893726Y-128309650D01*
X89096584Y-128350000D01*
X89303416Y-128350000D01*
X89444183Y-128322000D01*
X90591992Y-129469810D01*
X90609210Y-129490790D01*
X90630190Y-129508008D01*
X90630195Y-129508013D01*
X90682097Y-129550607D01*
X90692958Y-129559521D01*
X90788506Y-129610592D01*
X90892181Y-129642042D01*
X90972982Y-129650000D01*
X90972991Y-129650000D01*
X90999999Y-129652660D01*
X91027007Y-129650000D01*
X91371491Y-129650000D01*
X91269502Y-129802638D01*
X91190350Y-129993726D01*
X91150000Y-130196584D01*
X91150000Y-130403416D01*
X91190350Y-130606274D01*
X91269502Y-130797362D01*
X91384411Y-130969336D01*
X91530664Y-131115589D01*
X91702638Y-131230498D01*
X91893726Y-131309650D01*
X92096584Y-131350000D01*
X92303416Y-131350000D01*
X92506274Y-131309650D01*
X92697362Y-131230498D01*
X92869336Y-131115589D01*
X93015589Y-130969336D01*
X93095327Y-130850000D01*
X105472992Y-130850000D01*
X105500000Y-130852660D01*
X105527008Y-130850000D01*
X105527018Y-130850000D01*
X105607819Y-130842042D01*
X105711494Y-130810592D01*
X105807042Y-130759521D01*
X105890790Y-130690790D01*
X105908013Y-130669804D01*
X111327818Y-125250000D01*
X114063166Y-125250000D01*
X114168426Y-125320332D01*
X114295818Y-125373099D01*
X114431056Y-125400000D01*
X114295818Y-125426901D01*
X114168426Y-125479668D01*
X114063166Y-125550000D01*
X111727011Y-125550000D01*
X111700000Y-125547340D01*
X111672989Y-125550000D01*
X111672982Y-125550000D01*
X111592181Y-125557958D01*
X111488506Y-125589408D01*
X111392958Y-125640479D01*
X111309210Y-125709210D01*
X111291987Y-125730196D01*
X104430196Y-132591987D01*
X104409210Y-132609210D01*
X104340479Y-132692958D01*
X104289408Y-132788507D01*
X104257958Y-132892182D01*
X104250000Y-132972983D01*
X104250000Y-132972992D01*
X104247340Y-133000000D01*
X104250000Y-133027008D01*
X104250001Y-137872982D01*
X104250000Y-138872992D01*
X104247340Y-138900000D01*
X104250000Y-138927008D01*
X104250000Y-138927017D01*
X104257958Y-139007818D01*
X104289408Y-139111493D01*
X104340479Y-139207042D01*
X104409210Y-139290790D01*
X104430196Y-139308013D01*
X106048549Y-140926367D01*
X106048549Y-141700000D01*
X106059145Y-141807583D01*
X106090526Y-141911031D01*
X106141485Y-142006370D01*
X106210065Y-142089935D01*
X106293630Y-142158515D01*
X106388969Y-142209474D01*
X106492417Y-142240855D01*
X106600000Y-142251451D01*
X107600000Y-142251451D01*
X107707583Y-142240855D01*
X107811031Y-142209474D01*
X107906370Y-142158515D01*
X107989935Y-142089935D01*
X108058515Y-142006370D01*
X108109474Y-141911031D01*
X108140855Y-141807583D01*
X108151451Y-141700000D01*
X108151451Y-140700000D01*
X108140855Y-140592417D01*
X108109474Y-140488969D01*
X108058515Y-140393630D01*
X107989935Y-140310065D01*
X107906370Y-140241485D01*
X107811031Y-140190526D01*
X107707583Y-140159145D01*
X107600000Y-140148549D01*
X106826367Y-140148549D01*
X105350000Y-138672183D01*
X105350000Y-138096584D01*
X106050000Y-138096584D01*
X106050000Y-138303416D01*
X106090350Y-138506274D01*
X106169502Y-138697362D01*
X106284411Y-138869336D01*
X106430664Y-139015589D01*
X106602638Y-139130498D01*
X106793726Y-139209650D01*
X106996584Y-139250000D01*
X107203416Y-139250000D01*
X107406274Y-139209650D01*
X107597362Y-139130498D01*
X107769336Y-139015589D01*
X107915589Y-138869336D01*
X108030498Y-138697362D01*
X108109650Y-138506274D01*
X108150000Y-138303416D01*
X108150000Y-138197074D01*
X118644921Y-138197074D01*
X118650000Y-138248642D01*
X118650000Y-138248651D01*
X118665193Y-138402909D01*
X118725233Y-138600835D01*
X118822733Y-138783245D01*
X118953946Y-138943128D01*
X118994014Y-138976011D01*
X123624003Y-143606001D01*
X123656882Y-143646064D01*
X123816765Y-143777277D01*
X123999174Y-143874777D01*
X124197100Y-143934817D01*
X124351358Y-143950010D01*
X124351365Y-143950010D01*
X124402936Y-143955089D01*
X124454507Y-143950010D01*
X124509742Y-143950010D01*
X124252567Y-144121849D01*
X124001849Y-144372567D01*
X123804861Y-144667380D01*
X123669173Y-144994959D01*
X123600000Y-145342716D01*
X123600000Y-145697284D01*
X123669173Y-146045041D01*
X123804861Y-146372620D01*
X124001849Y-146667433D01*
X124252567Y-146918151D01*
X124547380Y-147115139D01*
X124874959Y-147250827D01*
X125222716Y-147320000D01*
X125577284Y-147320000D01*
X125925041Y-147250827D01*
X126252620Y-147115139D01*
X126547433Y-146918151D01*
X126798151Y-146667433D01*
X126995139Y-146372620D01*
X127130827Y-146045041D01*
X127200000Y-145697284D01*
X127200000Y-145342716D01*
X127130827Y-144994959D01*
X126995139Y-144667380D01*
X126798151Y-144372567D01*
X126547433Y-144121849D01*
X126290258Y-143950010D01*
X141009742Y-143950010D01*
X140752567Y-144121849D01*
X140501849Y-144372567D01*
X140304861Y-144667380D01*
X140169173Y-144994959D01*
X140100000Y-145342716D01*
X140100000Y-145697284D01*
X140169173Y-146045041D01*
X140304861Y-146372620D01*
X140501849Y-146667433D01*
X140752567Y-146918151D01*
X141047380Y-147115139D01*
X141374959Y-147250827D01*
X141722716Y-147320000D01*
X142077284Y-147320000D01*
X142425041Y-147250827D01*
X142752620Y-147115139D01*
X143047433Y-146918151D01*
X143298151Y-146667433D01*
X143495139Y-146372620D01*
X143598652Y-146122716D01*
X158200000Y-146122716D01*
X158200000Y-146477284D01*
X158269173Y-146825041D01*
X158404861Y-147152620D01*
X158601849Y-147447433D01*
X158852567Y-147698151D01*
X159147380Y-147895139D01*
X159474959Y-148030827D01*
X159822716Y-148100000D01*
X160177284Y-148100000D01*
X160525041Y-148030827D01*
X160852620Y-147895139D01*
X161147433Y-147698151D01*
X161398151Y-147447433D01*
X161595139Y-147152620D01*
X161730827Y-146825041D01*
X161800000Y-146477284D01*
X161800000Y-146122716D01*
X161730827Y-145774959D01*
X161595139Y-145447380D01*
X161458387Y-145242716D01*
X176700000Y-145242716D01*
X176700000Y-145597284D01*
X176769173Y-145945041D01*
X176904861Y-146272620D01*
X177101849Y-146567433D01*
X177352567Y-146818151D01*
X177647380Y-147015139D01*
X177974959Y-147150827D01*
X178322716Y-147220000D01*
X178677284Y-147220000D01*
X179025041Y-147150827D01*
X179352620Y-147015139D01*
X179647433Y-146818151D01*
X179898151Y-146567433D01*
X180095139Y-146272620D01*
X180230827Y-145945041D01*
X180300000Y-145597284D01*
X180300000Y-145242716D01*
X195000000Y-145242716D01*
X195000000Y-145597284D01*
X195069173Y-145945041D01*
X195204861Y-146272620D01*
X195401849Y-146567433D01*
X195652567Y-146818151D01*
X195947380Y-147015139D01*
X196274959Y-147150827D01*
X196622716Y-147220000D01*
X196977284Y-147220000D01*
X197325041Y-147150827D01*
X197652620Y-147015139D01*
X197947433Y-146818151D01*
X198198151Y-146567433D01*
X198395139Y-146272620D01*
X198530827Y-145945041D01*
X198600000Y-145597284D01*
X198600000Y-145242716D01*
X198530827Y-144894959D01*
X198395139Y-144567380D01*
X198198151Y-144272567D01*
X197947433Y-144021849D01*
X197652620Y-143824861D01*
X197325041Y-143689173D01*
X196977284Y-143620000D01*
X196622716Y-143620000D01*
X196274959Y-143689173D01*
X195947380Y-143824861D01*
X195652567Y-144021849D01*
X195401849Y-144272567D01*
X195204861Y-144567380D01*
X195069173Y-144894959D01*
X195000000Y-145242716D01*
X180300000Y-145242716D01*
X180230827Y-144894959D01*
X180095139Y-144567380D01*
X179898151Y-144272567D01*
X179647433Y-144021849D01*
X179352620Y-143824861D01*
X179025041Y-143689173D01*
X178677284Y-143620000D01*
X178322716Y-143620000D01*
X177974959Y-143689173D01*
X177647380Y-143824861D01*
X177352567Y-144021849D01*
X177101849Y-144272567D01*
X176904861Y-144567380D01*
X176769173Y-144894959D01*
X176700000Y-145242716D01*
X161458387Y-145242716D01*
X161398151Y-145152567D01*
X161147433Y-144901849D01*
X160852620Y-144704861D01*
X160525041Y-144569173D01*
X160177284Y-144500000D01*
X159822716Y-144500000D01*
X159474959Y-144569173D01*
X159147380Y-144704861D01*
X158852567Y-144901849D01*
X158601849Y-145152567D01*
X158404861Y-145447380D01*
X158269173Y-145774959D01*
X158200000Y-146122716D01*
X143598652Y-146122716D01*
X143630827Y-146045041D01*
X143700000Y-145697284D01*
X143700000Y-145342716D01*
X143630827Y-144994959D01*
X143495139Y-144667380D01*
X143298151Y-144372567D01*
X143047433Y-144121849D01*
X142790258Y-143950010D01*
X176648422Y-143950010D01*
X176699990Y-143955089D01*
X176751558Y-143950010D01*
X176751568Y-143950010D01*
X176905826Y-143934817D01*
X177103752Y-143874777D01*
X177286161Y-143777277D01*
X177446044Y-143646064D01*
X177478927Y-143605996D01*
X178572057Y-142512866D01*
X211900000Y-142512866D01*
X211900000Y-142887134D01*
X211973016Y-143254209D01*
X212116242Y-143599987D01*
X212324174Y-143911179D01*
X212588821Y-144175826D01*
X212900013Y-144383758D01*
X213245791Y-144526984D01*
X213612866Y-144600000D01*
X213987134Y-144600000D01*
X214354209Y-144526984D01*
X214699987Y-144383758D01*
X215011179Y-144175826D01*
X215275826Y-143911179D01*
X215483758Y-143599987D01*
X215626984Y-143254209D01*
X215700000Y-142887134D01*
X215700000Y-142512866D01*
X215626984Y-142145791D01*
X215483758Y-141800013D01*
X215275826Y-141488821D01*
X215011179Y-141224174D01*
X214699987Y-141016242D01*
X214354209Y-140873016D01*
X213987134Y-140800000D01*
X213612866Y-140800000D01*
X213245791Y-140873016D01*
X212900013Y-141016242D01*
X212588821Y-141224174D01*
X212324174Y-141488821D01*
X212116242Y-141800013D01*
X211973016Y-142145791D01*
X211900000Y-142512866D01*
X178572057Y-142512866D01*
X178933473Y-142151451D01*
X179000000Y-142151451D01*
X179107583Y-142140855D01*
X179211031Y-142109474D01*
X179306370Y-142058515D01*
X179389935Y-141989935D01*
X179458515Y-141906370D01*
X179509474Y-141811031D01*
X179540855Y-141707583D01*
X179551451Y-141600000D01*
X179551451Y-141136846D01*
X179555080Y-141100000D01*
X179551451Y-141063154D01*
X179551451Y-140600000D01*
X179540855Y-140492417D01*
X179509474Y-140388969D01*
X179458515Y-140293630D01*
X179389935Y-140210065D01*
X179316746Y-140150000D01*
X184972183Y-140150000D01*
X185677099Y-140854916D01*
X185665193Y-140894164D01*
X185644920Y-141100000D01*
X185665193Y-141305836D01*
X185725233Y-141503762D01*
X185822733Y-141686171D01*
X185953946Y-141846054D01*
X186113829Y-141977267D01*
X186296238Y-142074767D01*
X186494164Y-142134807D01*
X186648422Y-142150000D01*
X196285268Y-142150000D01*
X196300000Y-142151451D01*
X197300000Y-142151451D01*
X197407583Y-142140855D01*
X197511031Y-142109474D01*
X197606370Y-142058515D01*
X197689935Y-141989935D01*
X197758515Y-141906370D01*
X197809474Y-141811031D01*
X197840855Y-141707583D01*
X197851451Y-141600000D01*
X197851451Y-141136846D01*
X197855080Y-141100000D01*
X197851451Y-141063154D01*
X197851451Y-140600000D01*
X197840855Y-140492417D01*
X197809474Y-140388969D01*
X197758515Y-140293630D01*
X197689935Y-140210065D01*
X197606370Y-140141485D01*
X197511031Y-140090526D01*
X197407583Y-140059145D01*
X197300000Y-140048549D01*
X196300000Y-140048549D01*
X196285268Y-140050000D01*
X186648422Y-140050000D01*
X186494164Y-140065193D01*
X186454916Y-140077099D01*
X185608013Y-139230196D01*
X185590790Y-139209210D01*
X185507042Y-139140479D01*
X185411494Y-139089408D01*
X185307819Y-139057958D01*
X185227018Y-139050000D01*
X185227008Y-139050000D01*
X185200000Y-139047340D01*
X185172992Y-139050000D01*
X178950280Y-139050000D01*
X178997362Y-139030498D01*
X179169336Y-138915589D01*
X179315589Y-138769336D01*
X179430498Y-138597362D01*
X179509650Y-138406274D01*
X179550000Y-138203416D01*
X179550000Y-137996584D01*
X195750000Y-137996584D01*
X195750000Y-138203416D01*
X195790350Y-138406274D01*
X195869502Y-138597362D01*
X195984411Y-138769336D01*
X196130664Y-138915589D01*
X196302638Y-139030498D01*
X196493726Y-139109650D01*
X196696584Y-139150000D01*
X196903416Y-139150000D01*
X197106274Y-139109650D01*
X197297362Y-139030498D01*
X197469336Y-138915589D01*
X197615589Y-138769336D01*
X197730498Y-138597362D01*
X197809650Y-138406274D01*
X197850000Y-138203416D01*
X197850000Y-137996584D01*
X197809650Y-137793726D01*
X197730498Y-137602638D01*
X197615589Y-137430664D01*
X197469336Y-137284411D01*
X197297362Y-137169502D01*
X197106274Y-137090350D01*
X196903416Y-137050000D01*
X196696584Y-137050000D01*
X196493726Y-137090350D01*
X196302638Y-137169502D01*
X196130664Y-137284411D01*
X195984411Y-137430664D01*
X195869502Y-137602638D01*
X195790350Y-137793726D01*
X195750000Y-137996584D01*
X179550000Y-137996584D01*
X179509650Y-137793726D01*
X179430498Y-137602638D01*
X179315589Y-137430664D01*
X179169336Y-137284411D01*
X178997362Y-137169502D01*
X178806274Y-137090350D01*
X178603416Y-137050000D01*
X178396584Y-137050000D01*
X178193726Y-137090350D01*
X178002638Y-137169502D01*
X177830664Y-137284411D01*
X177684411Y-137430664D01*
X177569502Y-137602638D01*
X177490350Y-137793726D01*
X177450000Y-137996584D01*
X177450000Y-138203416D01*
X177490350Y-138406274D01*
X177569502Y-138597362D01*
X177684411Y-138769336D01*
X177830664Y-138915589D01*
X178002638Y-139030498D01*
X178049720Y-139050000D01*
X177127007Y-139050000D01*
X177099999Y-139047340D01*
X177072991Y-139050000D01*
X177072982Y-139050000D01*
X176992181Y-139057958D01*
X176888506Y-139089408D01*
X176792958Y-139140479D01*
X176782097Y-139149393D01*
X176730195Y-139191987D01*
X176730190Y-139191992D01*
X176709210Y-139209210D01*
X176691992Y-139230190D01*
X174772183Y-141150000D01*
X161114731Y-141150000D01*
X161207582Y-141140855D01*
X161311031Y-141109474D01*
X161406369Y-141058515D01*
X161489934Y-140989934D01*
X161558515Y-140906369D01*
X161609474Y-140811031D01*
X161640855Y-140707582D01*
X161651451Y-140599999D01*
X161651451Y-137400001D01*
X161640855Y-137292418D01*
X161609474Y-137188969D01*
X161558515Y-137093631D01*
X161489934Y-137010066D01*
X161406369Y-136941485D01*
X161311031Y-136890526D01*
X161207582Y-136859145D01*
X161099999Y-136848549D01*
X158900001Y-136848549D01*
X158792418Y-136859145D01*
X158688969Y-136890526D01*
X158593631Y-136941485D01*
X158510066Y-137010066D01*
X158441485Y-137093631D01*
X158390526Y-137188969D01*
X158359145Y-137292418D01*
X158348549Y-137400001D01*
X158348549Y-140599999D01*
X158359145Y-140707582D01*
X158390526Y-140811031D01*
X158441485Y-140906369D01*
X158510066Y-140989934D01*
X158593631Y-141058515D01*
X158688969Y-141109474D01*
X158792418Y-141140855D01*
X158885269Y-141150000D01*
X152527818Y-141150000D01*
X151197797Y-139819980D01*
X151173099Y-139695818D01*
X151120332Y-139568426D01*
X151043726Y-139453776D01*
X150946224Y-139356274D01*
X150831574Y-139279668D01*
X150704182Y-139226901D01*
X150568944Y-139200000D01*
X150431056Y-139200000D01*
X150295818Y-139226901D01*
X150168426Y-139279668D01*
X150053776Y-139356274D01*
X149956274Y-139453776D01*
X149879668Y-139568426D01*
X149826901Y-139695818D01*
X149800000Y-139831056D01*
X149800000Y-139968944D01*
X149826901Y-140104182D01*
X149879668Y-140231574D01*
X149956274Y-140346224D01*
X150053776Y-140443726D01*
X150168426Y-140520332D01*
X150295818Y-140573099D01*
X150419980Y-140597797D01*
X151672192Y-141850010D01*
X142927985Y-141850010D01*
X142940855Y-141807583D01*
X142951451Y-141700000D01*
X142951451Y-141236846D01*
X142955080Y-141200000D01*
X142951451Y-141163154D01*
X142951451Y-140700000D01*
X142940855Y-140592417D01*
X142909474Y-140488969D01*
X142858515Y-140393630D01*
X142789935Y-140310065D01*
X142706370Y-140241485D01*
X142611031Y-140190526D01*
X142507583Y-140159145D01*
X142400000Y-140148549D01*
X141400000Y-140148549D01*
X141385268Y-140150000D01*
X140334924Y-140150000D01*
X139950000Y-139765077D01*
X139950000Y-138096584D01*
X140850000Y-138096584D01*
X140850000Y-138303416D01*
X140890350Y-138506274D01*
X140969502Y-138697362D01*
X141084411Y-138869336D01*
X141230664Y-139015589D01*
X141402638Y-139130498D01*
X141593726Y-139209650D01*
X141796584Y-139250000D01*
X142003416Y-139250000D01*
X142206274Y-139209650D01*
X142397362Y-139130498D01*
X142569336Y-139015589D01*
X142715589Y-138869336D01*
X142830498Y-138697362D01*
X142909650Y-138506274D01*
X142950000Y-138303416D01*
X142950000Y-138096584D01*
X142909650Y-137893726D01*
X142830498Y-137702638D01*
X142715589Y-137530664D01*
X142569336Y-137384411D01*
X142397362Y-137269502D01*
X142206274Y-137190350D01*
X142003416Y-137150000D01*
X141796584Y-137150000D01*
X141593726Y-137190350D01*
X141402638Y-137269502D01*
X141230664Y-137384411D01*
X141084411Y-137530664D01*
X140969502Y-137702638D01*
X140890350Y-137893726D01*
X140850000Y-138096584D01*
X139950000Y-138096584D01*
X139950000Y-135831056D01*
X149500000Y-135831056D01*
X149500000Y-135968944D01*
X149526901Y-136104182D01*
X149579668Y-136231574D01*
X149656274Y-136346224D01*
X149753776Y-136443726D01*
X149868426Y-136520332D01*
X149995818Y-136573099D01*
X150131056Y-136600000D01*
X150268944Y-136600000D01*
X150404182Y-136573099D01*
X150531574Y-136520332D01*
X150636834Y-136450000D01*
X205703399Y-136450000D01*
X205722733Y-136486171D01*
X205853946Y-136646054D01*
X206013829Y-136777267D01*
X206196238Y-136874767D01*
X206394164Y-136934807D01*
X206548422Y-136950000D01*
X208648432Y-136950000D01*
X208700000Y-136955079D01*
X208751568Y-136950000D01*
X208751578Y-136950000D01*
X208905836Y-136934807D01*
X209103762Y-136874767D01*
X209286171Y-136777267D01*
X209446054Y-136646054D01*
X209478937Y-136605986D01*
X212785991Y-133298933D01*
X212826054Y-133266054D01*
X212957267Y-133106171D01*
X213054767Y-132923762D01*
X213114807Y-132725836D01*
X213130000Y-132571578D01*
X213130000Y-132571571D01*
X213135079Y-132520000D01*
X213130000Y-132468429D01*
X213130000Y-122414732D01*
X213131451Y-122400000D01*
X213131451Y-121722716D01*
X214600000Y-121722716D01*
X214600000Y-122077284D01*
X214669173Y-122425041D01*
X214804861Y-122752620D01*
X215001849Y-123047433D01*
X215252567Y-123298151D01*
X215547380Y-123495139D01*
X215874959Y-123630827D01*
X216222716Y-123700000D01*
X216577284Y-123700000D01*
X216925041Y-123630827D01*
X217252620Y-123495139D01*
X217547433Y-123298151D01*
X217798151Y-123047433D01*
X217995139Y-122752620D01*
X218130827Y-122425041D01*
X218200000Y-122077284D01*
X218200000Y-121722716D01*
X218130827Y-121374959D01*
X217995139Y-121047380D01*
X217798151Y-120752567D01*
X217547433Y-120501849D01*
X217252620Y-120304861D01*
X216925041Y-120169173D01*
X216577284Y-120100000D01*
X216222716Y-120100000D01*
X215874959Y-120169173D01*
X215547380Y-120304861D01*
X215252567Y-120501849D01*
X215001849Y-120752567D01*
X214804861Y-121047380D01*
X214669173Y-121374959D01*
X214600000Y-121722716D01*
X213131451Y-121722716D01*
X213131451Y-121400000D01*
X213120855Y-121292417D01*
X213089474Y-121188969D01*
X213038515Y-121093630D01*
X212969935Y-121010065D01*
X212886370Y-120941485D01*
X212791031Y-120890526D01*
X212687583Y-120859145D01*
X212580000Y-120848549D01*
X212116846Y-120848549D01*
X212080000Y-120844920D01*
X212043154Y-120848549D01*
X211580000Y-120848549D01*
X211472417Y-120859145D01*
X211368969Y-120890526D01*
X211273630Y-120941485D01*
X211190065Y-121010065D01*
X211121485Y-121093630D01*
X211070526Y-121188969D01*
X211039145Y-121292417D01*
X211028549Y-121400000D01*
X211028549Y-122400000D01*
X211030001Y-122414742D01*
X211030000Y-132085076D01*
X208265077Y-134850000D01*
X206548422Y-134850000D01*
X206394164Y-134865193D01*
X206196238Y-134925233D01*
X206013829Y-135022733D01*
X205853946Y-135153946D01*
X205722733Y-135313829D01*
X205703399Y-135350000D01*
X160955928Y-135350000D01*
X161172371Y-135172371D01*
X161378562Y-134921126D01*
X161531777Y-134634483D01*
X161626125Y-134323456D01*
X161650000Y-134081052D01*
X161650000Y-132918948D01*
X161626125Y-132676544D01*
X161531777Y-132365517D01*
X161378562Y-132078874D01*
X161172371Y-131827629D01*
X160921126Y-131621438D01*
X160634483Y-131468223D01*
X160323456Y-131373875D01*
X160000000Y-131342017D01*
X159676545Y-131373875D01*
X159365518Y-131468223D01*
X159078875Y-131621438D01*
X158827630Y-131827629D01*
X158621439Y-132078874D01*
X158468223Y-132365517D01*
X158373875Y-132676544D01*
X158350000Y-132918948D01*
X158350000Y-134081051D01*
X158373875Y-134323455D01*
X158468223Y-134634482D01*
X158621438Y-134921125D01*
X158827629Y-135172371D01*
X159044071Y-135350000D01*
X150636834Y-135350000D01*
X150531574Y-135279668D01*
X150404182Y-135226901D01*
X150268944Y-135200000D01*
X150131056Y-135200000D01*
X149995818Y-135226901D01*
X149868426Y-135279668D01*
X149753776Y-135356274D01*
X149656274Y-135453776D01*
X149579668Y-135568426D01*
X149526901Y-135695818D01*
X149500000Y-135831056D01*
X139950000Y-135831056D01*
X139950000Y-133051567D01*
X139955079Y-132999999D01*
X139950000Y-132948431D01*
X139950000Y-132948422D01*
X139934807Y-132794164D01*
X139874767Y-132596238D01*
X139795179Y-132447339D01*
X139777267Y-132413828D01*
X139678933Y-132294009D01*
X139646054Y-132253946D01*
X139605991Y-132221067D01*
X133778937Y-126394014D01*
X133746054Y-126353946D01*
X133586171Y-126222733D01*
X133403762Y-126125233D01*
X133205836Y-126065193D01*
X133051578Y-126050000D01*
X133051568Y-126050000D01*
X133024541Y-126047338D01*
X146150000Y-126047338D01*
X146150000Y-126352662D01*
X146209565Y-126652118D01*
X146326408Y-126934200D01*
X146496036Y-127188068D01*
X146711932Y-127403964D01*
X146965800Y-127573592D01*
X147247882Y-127690435D01*
X147547338Y-127750000D01*
X147852662Y-127750000D01*
X148152118Y-127690435D01*
X148434200Y-127573592D01*
X148688068Y-127403964D01*
X148903964Y-127188068D01*
X149073592Y-126934200D01*
X149190435Y-126652118D01*
X149250000Y-126352662D01*
X149250000Y-126200000D01*
X157840081Y-126200000D01*
X157879662Y-126601870D01*
X157996883Y-126988297D01*
X158187240Y-127344430D01*
X158443417Y-127656583D01*
X158755570Y-127912760D01*
X159111703Y-128103117D01*
X159498130Y-128220338D01*
X159799291Y-128250000D01*
X166899292Y-128250000D01*
X167000000Y-128259919D01*
X167100708Y-128250000D01*
X167100709Y-128250000D01*
X167401870Y-128220338D01*
X167788297Y-128103117D01*
X168144430Y-127912760D01*
X168456583Y-127656583D01*
X168520792Y-127578345D01*
X170549138Y-125550000D01*
X177400709Y-125550000D01*
X177701870Y-125520338D01*
X178088297Y-125403117D01*
X178444430Y-125212760D01*
X178756583Y-124956583D01*
X179012760Y-124644430D01*
X179203117Y-124288297D01*
X179320338Y-123901870D01*
X179359919Y-123500000D01*
X179320338Y-123098130D01*
X179203117Y-122711703D01*
X179012760Y-122355570D01*
X178756583Y-122043417D01*
X178455816Y-121796584D01*
X208030000Y-121796584D01*
X208030000Y-122003416D01*
X208070350Y-122206274D01*
X208149502Y-122397362D01*
X208264411Y-122569336D01*
X208410664Y-122715589D01*
X208582638Y-122830498D01*
X208773726Y-122909650D01*
X208976584Y-122950000D01*
X209183416Y-122950000D01*
X209386274Y-122909650D01*
X209577362Y-122830498D01*
X209749336Y-122715589D01*
X209895589Y-122569336D01*
X210010498Y-122397362D01*
X210089650Y-122206274D01*
X210130000Y-122003416D01*
X210130000Y-121796584D01*
X210089650Y-121593726D01*
X210010498Y-121402638D01*
X209895589Y-121230664D01*
X209749336Y-121084411D01*
X209577362Y-120969502D01*
X209386274Y-120890350D01*
X209183416Y-120850000D01*
X208976584Y-120850000D01*
X208773726Y-120890350D01*
X208582638Y-120969502D01*
X208410664Y-121084411D01*
X208264411Y-121230664D01*
X208149502Y-121402638D01*
X208070350Y-121593726D01*
X208030000Y-121796584D01*
X178455816Y-121796584D01*
X178444430Y-121787240D01*
X178088297Y-121596883D01*
X177701870Y-121479662D01*
X177400709Y-121450000D01*
X169800709Y-121450000D01*
X169700000Y-121440081D01*
X169599291Y-121450000D01*
X169298130Y-121479662D01*
X168911703Y-121596883D01*
X168555570Y-121787240D01*
X168243417Y-122043417D01*
X168179217Y-122121645D01*
X166150864Y-124150000D01*
X159799291Y-124150000D01*
X159498130Y-124179662D01*
X159111703Y-124296883D01*
X158755570Y-124487240D01*
X158443417Y-124743417D01*
X158187240Y-125055570D01*
X157996883Y-125411703D01*
X157879662Y-125798130D01*
X157840081Y-126200000D01*
X149250000Y-126200000D01*
X149250000Y-126047338D01*
X149190435Y-125747882D01*
X149073592Y-125465800D01*
X148903964Y-125211932D01*
X148688068Y-124996036D01*
X148434200Y-124826408D01*
X148152118Y-124709565D01*
X147852662Y-124650000D01*
X147547338Y-124650000D01*
X147247882Y-124709565D01*
X146965800Y-124826408D01*
X146711932Y-124996036D01*
X146496036Y-125211932D01*
X146326408Y-125465800D01*
X146209565Y-125747882D01*
X146150000Y-126047338D01*
X133024541Y-126047338D01*
X133000000Y-126044921D01*
X132948432Y-126050000D01*
X129948422Y-126050000D01*
X129794164Y-126065193D01*
X129596238Y-126125233D01*
X129413829Y-126222733D01*
X129253946Y-126353946D01*
X129122733Y-126513829D01*
X129025233Y-126696238D01*
X128965193Y-126894164D01*
X128944920Y-127100000D01*
X128965193Y-127305836D01*
X129025233Y-127503762D01*
X129122733Y-127686171D01*
X129253946Y-127846054D01*
X129413829Y-127977267D01*
X129596238Y-128074767D01*
X129794164Y-128134807D01*
X129948422Y-128150000D01*
X132565077Y-128150000D01*
X137850001Y-133434925D01*
X137850000Y-140148432D01*
X137844921Y-140200000D01*
X137850000Y-140251568D01*
X137850000Y-140251577D01*
X137865193Y-140405835D01*
X137925233Y-140603761D01*
X138022733Y-140786171D01*
X138153946Y-140946054D01*
X138194014Y-140978937D01*
X139065086Y-141850010D01*
X126427985Y-141850010D01*
X126440855Y-141807583D01*
X126451451Y-141700000D01*
X126451451Y-140700000D01*
X126440855Y-140592417D01*
X126409474Y-140488969D01*
X126388645Y-140450000D01*
X133663166Y-140450000D01*
X133768426Y-140520332D01*
X133895818Y-140573099D01*
X134031056Y-140600000D01*
X134168944Y-140600000D01*
X134304182Y-140573099D01*
X134431574Y-140520332D01*
X134546224Y-140443726D01*
X134643726Y-140346224D01*
X134720332Y-140231574D01*
X134773099Y-140104182D01*
X134800000Y-139968944D01*
X134800000Y-139831056D01*
X134773099Y-139695818D01*
X134720332Y-139568426D01*
X134643726Y-139453776D01*
X134546224Y-139356274D01*
X134431574Y-139279668D01*
X134304182Y-139226901D01*
X134168944Y-139200000D01*
X134031056Y-139200000D01*
X133895818Y-139226901D01*
X133768426Y-139279668D01*
X133663166Y-139350000D01*
X123427818Y-139350000D01*
X121450000Y-137372183D01*
X121450000Y-135736834D01*
X121520332Y-135631574D01*
X121573099Y-135504182D01*
X121600000Y-135368944D01*
X121600000Y-135231056D01*
X121573099Y-135095818D01*
X121520332Y-134968426D01*
X121443726Y-134853776D01*
X121346224Y-134756274D01*
X121231574Y-134679668D01*
X121104182Y-134626901D01*
X120968944Y-134600000D01*
X120831056Y-134600000D01*
X120695818Y-134626901D01*
X120568426Y-134679668D01*
X120453776Y-134756274D01*
X120356274Y-134853776D01*
X120279668Y-134968426D01*
X120226901Y-135095818D01*
X120200000Y-135231056D01*
X120200000Y-135368944D01*
X120226901Y-135504182D01*
X120279668Y-135631574D01*
X120350000Y-135736835D01*
X120350001Y-137175117D01*
X120286171Y-137122733D01*
X120103762Y-137025233D01*
X119905836Y-136965193D01*
X119700000Y-136944920D01*
X119494165Y-136965193D01*
X119296239Y-137025233D01*
X119113830Y-137122733D01*
X118953946Y-137253946D01*
X118822733Y-137413829D01*
X118725233Y-137596238D01*
X118665193Y-137794164D01*
X118650000Y-137948422D01*
X118650000Y-138145506D01*
X118644921Y-138197074D01*
X108150000Y-138197074D01*
X108150000Y-138096584D01*
X108109650Y-137893726D01*
X108030498Y-137702638D01*
X107915589Y-137530664D01*
X107769336Y-137384411D01*
X107597362Y-137269502D01*
X107406274Y-137190350D01*
X107203416Y-137150000D01*
X106996584Y-137150000D01*
X106793726Y-137190350D01*
X106602638Y-137269502D01*
X106430664Y-137384411D01*
X106284411Y-137530664D01*
X106169502Y-137702638D01*
X106090350Y-137893726D01*
X106050000Y-138096584D01*
X105350000Y-138096584D01*
X105350000Y-133227817D01*
X111927817Y-126650000D01*
X114063166Y-126650000D01*
X114168426Y-126720332D01*
X114295818Y-126773099D01*
X114431056Y-126800000D01*
X114568944Y-126800000D01*
X114704182Y-126773099D01*
X114831574Y-126720332D01*
X114946224Y-126643726D01*
X115043726Y-126546224D01*
X115120332Y-126431574D01*
X115173099Y-126304182D01*
X115200000Y-126168944D01*
X115200000Y-126031056D01*
X115173099Y-125895818D01*
X115120332Y-125768426D01*
X115043726Y-125653776D01*
X114946224Y-125556274D01*
X114831574Y-125479668D01*
X114704182Y-125426901D01*
X114568944Y-125400000D01*
X114704182Y-125373099D01*
X114831574Y-125320332D01*
X114936834Y-125250000D01*
X120372183Y-125250000D01*
X123250001Y-128127819D01*
X123250000Y-131863166D01*
X123179668Y-131968426D01*
X123126901Y-132095818D01*
X123100000Y-132231056D01*
X123100000Y-132368944D01*
X123126901Y-132504182D01*
X123179668Y-132631574D01*
X123256274Y-132746224D01*
X123353776Y-132843726D01*
X123468426Y-132920332D01*
X123595818Y-132973099D01*
X123731056Y-133000000D01*
X123868944Y-133000000D01*
X124004182Y-132973099D01*
X124131574Y-132920332D01*
X124246224Y-132843726D01*
X124343726Y-132746224D01*
X124350000Y-132736834D01*
X124350000Y-138303416D01*
X124360113Y-138354261D01*
X124365193Y-138405835D01*
X124380235Y-138455423D01*
X124390350Y-138506274D01*
X124410191Y-138554174D01*
X124425233Y-138603761D01*
X124449662Y-138649465D01*
X124469502Y-138697362D01*
X124498304Y-138740467D01*
X124522733Y-138786171D01*
X124555608Y-138826229D01*
X124584411Y-138869336D01*
X124621072Y-138905997D01*
X124653946Y-138946054D01*
X124694003Y-138978928D01*
X124730664Y-139015589D01*
X124773771Y-139044392D01*
X124813829Y-139077267D01*
X124859534Y-139101697D01*
X124902638Y-139130498D01*
X124950532Y-139150337D01*
X124996238Y-139174767D01*
X125045829Y-139189810D01*
X125093726Y-139209650D01*
X125144574Y-139219764D01*
X125194164Y-139234807D01*
X125245740Y-139239887D01*
X125296584Y-139250000D01*
X125348422Y-139250000D01*
X125400000Y-139255080D01*
X125451578Y-139250000D01*
X125503416Y-139250000D01*
X125554260Y-139239887D01*
X125605835Y-139234807D01*
X125655423Y-139219765D01*
X125706274Y-139209650D01*
X125754174Y-139189809D01*
X125803761Y-139174767D01*
X125849465Y-139150338D01*
X125897362Y-139130498D01*
X125940467Y-139101696D01*
X125986171Y-139077267D01*
X126026229Y-139044392D01*
X126069336Y-139015589D01*
X126105997Y-138978928D01*
X126146054Y-138946054D01*
X126178928Y-138905997D01*
X126215589Y-138869336D01*
X126244392Y-138826229D01*
X126277267Y-138786171D01*
X126301697Y-138740466D01*
X126330498Y-138697362D01*
X126350337Y-138649468D01*
X126374767Y-138603762D01*
X126389810Y-138554171D01*
X126409650Y-138506274D01*
X126419764Y-138455426D01*
X126434807Y-138405836D01*
X126439887Y-138354260D01*
X126450000Y-138303416D01*
X126450000Y-121734923D01*
X126650001Y-121534922D01*
X126650000Y-131863166D01*
X126579668Y-131968426D01*
X126526901Y-132095818D01*
X126500000Y-132231056D01*
X126500000Y-132368944D01*
X126526901Y-132504182D01*
X126579668Y-132631574D01*
X126656274Y-132746224D01*
X126753776Y-132843726D01*
X126868426Y-132920332D01*
X126995818Y-132973099D01*
X127131056Y-133000000D01*
X127268944Y-133000000D01*
X127404182Y-132973099D01*
X127531574Y-132920332D01*
X127646224Y-132843726D01*
X127743726Y-132746224D01*
X127820332Y-132631574D01*
X127873099Y-132504182D01*
X127900000Y-132368944D01*
X127900000Y-132231056D01*
X127873099Y-132095818D01*
X127820332Y-131968426D01*
X127750000Y-131863166D01*
X127750000Y-123036834D01*
X127756274Y-123046224D01*
X127853776Y-123143726D01*
X127968426Y-123220332D01*
X128095818Y-123273099D01*
X128231056Y-123300000D01*
X128368944Y-123300000D01*
X128504182Y-123273099D01*
X128631574Y-123220332D01*
X128746224Y-123143726D01*
X128843726Y-123046224D01*
X128920332Y-122931574D01*
X128973099Y-122804182D01*
X128997797Y-122680020D01*
X132280021Y-119397797D01*
X132404182Y-119373099D01*
X132531574Y-119320332D01*
X132646224Y-119243726D01*
X132743726Y-119146224D01*
X132820332Y-119031574D01*
X132854120Y-118950000D01*
X144148549Y-118950000D01*
X144148549Y-121450000D01*
X144154341Y-121508810D01*
X144171496Y-121565360D01*
X144199353Y-121617477D01*
X144236842Y-121663158D01*
X144282523Y-121700647D01*
X144334640Y-121728504D01*
X144391190Y-121745659D01*
X144450000Y-121751451D01*
X146950000Y-121751451D01*
X147008810Y-121745659D01*
X147065360Y-121728504D01*
X147117477Y-121700647D01*
X147163158Y-121663158D01*
X147200647Y-121617477D01*
X147228504Y-121565360D01*
X147245659Y-121508810D01*
X147251451Y-121450000D01*
X147251451Y-118950000D01*
X147245659Y-118891190D01*
X147228504Y-118834640D01*
X147200647Y-118782523D01*
X147163158Y-118736842D01*
X147117477Y-118699353D01*
X147065360Y-118671496D01*
X147008810Y-118654341D01*
X146950000Y-118648549D01*
X144450000Y-118648549D01*
X144391190Y-118654341D01*
X144334640Y-118671496D01*
X144282523Y-118699353D01*
X144236842Y-118736842D01*
X144199353Y-118782523D01*
X144171496Y-118834640D01*
X144154341Y-118891190D01*
X144148549Y-118950000D01*
X132854120Y-118950000D01*
X132873099Y-118904182D01*
X132900000Y-118768944D01*
X132900000Y-118631056D01*
X132873099Y-118495818D01*
X132820332Y-118368426D01*
X132743726Y-118253776D01*
X132646224Y-118156274D01*
X132531574Y-118079668D01*
X132404182Y-118026901D01*
X132268944Y-118000000D01*
X132131056Y-118000000D01*
X131995818Y-118026901D01*
X131868426Y-118079668D01*
X131753776Y-118156274D01*
X131656274Y-118253776D01*
X131579668Y-118368426D01*
X131526901Y-118495818D01*
X131502203Y-118619979D01*
X128219980Y-121902203D01*
X128095818Y-121926901D01*
X127968426Y-121979668D01*
X127853776Y-122056274D01*
X127756274Y-122153776D01*
X127750000Y-122163166D01*
X127750000Y-121424887D01*
X135124143Y-114050745D01*
X135094257Y-114354176D01*
X135133838Y-114756045D01*
X135251059Y-115142472D01*
X135441417Y-115498605D01*
X135697594Y-115810758D01*
X136009747Y-116066935D01*
X136365880Y-116257293D01*
X136752307Y-116374514D01*
X137154176Y-116414095D01*
X137556045Y-116374514D01*
X137942472Y-116257293D01*
X137956116Y-116250000D01*
X147800709Y-116250000D01*
X148101870Y-116220338D01*
X148488297Y-116103117D01*
X148844430Y-115912760D01*
X148918145Y-115852263D01*
X175800000Y-115852263D01*
X175800000Y-116147737D01*
X175857644Y-116437534D01*
X175970717Y-116710517D01*
X176134874Y-116956194D01*
X176343806Y-117165126D01*
X176589483Y-117329283D01*
X176862466Y-117442356D01*
X177152263Y-117500000D01*
X177447737Y-117500000D01*
X177737534Y-117442356D01*
X178010517Y-117329283D01*
X178256194Y-117165126D01*
X178465126Y-116956194D01*
X178629283Y-116710517D01*
X178742356Y-116437534D01*
X178800000Y-116147737D01*
X178800000Y-115852263D01*
X178742356Y-115562466D01*
X178629283Y-115289483D01*
X178465126Y-115043806D01*
X178256194Y-114834874D01*
X178010517Y-114670717D01*
X177737534Y-114557644D01*
X177447737Y-114500000D01*
X177152263Y-114500000D01*
X176862466Y-114557644D01*
X176589483Y-114670717D01*
X176343806Y-114834874D01*
X176134874Y-115043806D01*
X175970717Y-115289483D01*
X175857644Y-115562466D01*
X175800000Y-115852263D01*
X148918145Y-115852263D01*
X149156583Y-115656583D01*
X149412760Y-115344430D01*
X149603117Y-114988297D01*
X149720338Y-114601870D01*
X149759919Y-114200000D01*
X149744884Y-114047338D01*
X158350000Y-114047338D01*
X158350000Y-114352662D01*
X158409565Y-114652118D01*
X158526408Y-114934200D01*
X158696036Y-115188068D01*
X158911932Y-115403964D01*
X159165800Y-115573592D01*
X159447882Y-115690435D01*
X159747338Y-115750000D01*
X160052662Y-115750000D01*
X160352118Y-115690435D01*
X160634200Y-115573592D01*
X160888068Y-115403964D01*
X161103964Y-115188068D01*
X161273592Y-114934200D01*
X161390435Y-114652118D01*
X161450000Y-114352662D01*
X161450000Y-114047338D01*
X161390435Y-113747882D01*
X161273592Y-113465800D01*
X161103964Y-113211932D01*
X160888068Y-112996036D01*
X160634200Y-112826408D01*
X160352118Y-112709565D01*
X160052662Y-112650000D01*
X159747338Y-112650000D01*
X159447882Y-112709565D01*
X159165800Y-112826408D01*
X158911932Y-112996036D01*
X158696036Y-113211932D01*
X158526408Y-113465800D01*
X158409565Y-113747882D01*
X158350000Y-114047338D01*
X149744884Y-114047338D01*
X149720338Y-113798130D01*
X149603117Y-113411703D01*
X149412760Y-113055570D01*
X149156583Y-112743417D01*
X148844430Y-112487240D01*
X148488297Y-112296883D01*
X148101870Y-112179662D01*
X147800709Y-112150000D01*
X137409061Y-112150000D01*
X137308352Y-112140081D01*
X137207644Y-112150000D01*
X137207643Y-112150000D01*
X137004921Y-112169967D01*
X143343832Y-105831056D01*
X148000000Y-105831056D01*
X148000000Y-105968944D01*
X148026901Y-106104182D01*
X148079668Y-106231574D01*
X148156274Y-106346224D01*
X148253776Y-106443726D01*
X148368426Y-106520332D01*
X148495818Y-106573099D01*
X148631056Y-106600000D01*
X148768944Y-106600000D01*
X148904182Y-106573099D01*
X149031574Y-106520332D01*
X149136834Y-106450000D01*
X156972992Y-106450000D01*
X157000000Y-106452660D01*
X157027008Y-106450000D01*
X159363166Y-106450000D01*
X159468426Y-106520332D01*
X159595818Y-106573099D01*
X159731056Y-106600000D01*
X159868944Y-106600000D01*
X160004182Y-106573099D01*
X160131574Y-106520332D01*
X160246224Y-106443726D01*
X160343726Y-106346224D01*
X160420332Y-106231574D01*
X160434825Y-106196584D01*
X207950000Y-106196584D01*
X207950000Y-106403416D01*
X207990350Y-106606274D01*
X208069502Y-106797362D01*
X208184411Y-106969336D01*
X208330664Y-107115589D01*
X208502638Y-107230498D01*
X208693726Y-107309650D01*
X208896584Y-107350000D01*
X209103416Y-107350000D01*
X209306274Y-107309650D01*
X209497362Y-107230498D01*
X209669336Y-107115589D01*
X209815589Y-106969336D01*
X209930498Y-106797362D01*
X210009650Y-106606274D01*
X210050000Y-106403416D01*
X210050000Y-106196584D01*
X210009650Y-105993726D01*
X209930498Y-105802638D01*
X209928736Y-105800000D01*
X210948549Y-105800000D01*
X210948549Y-106800000D01*
X210959145Y-106907583D01*
X210990526Y-107011031D01*
X211041485Y-107106370D01*
X211110065Y-107189935D01*
X211193630Y-107258515D01*
X211288969Y-107309474D01*
X211392417Y-107340855D01*
X211500000Y-107351451D01*
X212500000Y-107351451D01*
X212607583Y-107340855D01*
X212711031Y-107309474D01*
X212806370Y-107258515D01*
X212889935Y-107189935D01*
X212958515Y-107106370D01*
X213009474Y-107011031D01*
X213040855Y-106907583D01*
X213051451Y-106800000D01*
X213051451Y-106122716D01*
X214520000Y-106122716D01*
X214520000Y-106477284D01*
X214589173Y-106825041D01*
X214724861Y-107152620D01*
X214921849Y-107447433D01*
X215172567Y-107698151D01*
X215467380Y-107895139D01*
X215794959Y-108030827D01*
X216142716Y-108100000D01*
X216497284Y-108100000D01*
X216845041Y-108030827D01*
X217172620Y-107895139D01*
X217467433Y-107698151D01*
X217718151Y-107447433D01*
X217915139Y-107152620D01*
X218050827Y-106825041D01*
X218120000Y-106477284D01*
X218120000Y-106122716D01*
X218050827Y-105774959D01*
X217915139Y-105447380D01*
X217718151Y-105152567D01*
X217467433Y-104901849D01*
X217172620Y-104704861D01*
X216845041Y-104569173D01*
X216497284Y-104500000D01*
X216142716Y-104500000D01*
X215794959Y-104569173D01*
X215467380Y-104704861D01*
X215172567Y-104901849D01*
X214921849Y-105152567D01*
X214724861Y-105447380D01*
X214589173Y-105774959D01*
X214520000Y-106122716D01*
X213051451Y-106122716D01*
X213051451Y-105800000D01*
X213040855Y-105692417D01*
X213009474Y-105588969D01*
X212958515Y-105493630D01*
X212889935Y-105410065D01*
X212806370Y-105341485D01*
X212711031Y-105290526D01*
X212607583Y-105259145D01*
X212500000Y-105248549D01*
X211500000Y-105248549D01*
X211392417Y-105259145D01*
X211288969Y-105290526D01*
X211193630Y-105341485D01*
X211110065Y-105410065D01*
X211041485Y-105493630D01*
X210990526Y-105588969D01*
X210959145Y-105692417D01*
X210948549Y-105800000D01*
X209928736Y-105800000D01*
X209815589Y-105630664D01*
X209669336Y-105484411D01*
X209497362Y-105369502D01*
X209306274Y-105290350D01*
X209103416Y-105250000D01*
X208896584Y-105250000D01*
X208693726Y-105290350D01*
X208502638Y-105369502D01*
X208330664Y-105484411D01*
X208184411Y-105630664D01*
X208069502Y-105802638D01*
X207990350Y-105993726D01*
X207950000Y-106196584D01*
X160434825Y-106196584D01*
X160473099Y-106104182D01*
X160500000Y-105968944D01*
X160500000Y-105831056D01*
X160473099Y-105695818D01*
X160420332Y-105568426D01*
X160343726Y-105453776D01*
X160246224Y-105356274D01*
X160131574Y-105279668D01*
X160004182Y-105226901D01*
X159868944Y-105200000D01*
X159731056Y-105200000D01*
X159595818Y-105226901D01*
X159468426Y-105279668D01*
X159363166Y-105350000D01*
X157650000Y-105350000D01*
X157650000Y-94361834D01*
X157720332Y-94256574D01*
X157773099Y-94129182D01*
X157800000Y-93993944D01*
X157800000Y-93856056D01*
X157773099Y-93720818D01*
X157735919Y-93631056D01*
X160400000Y-93631056D01*
X160400000Y-93768944D01*
X160426901Y-93904182D01*
X160479668Y-94031574D01*
X160556274Y-94146224D01*
X160653776Y-94243726D01*
X160768426Y-94320332D01*
X160895818Y-94373099D01*
X161031056Y-94400000D01*
X161168944Y-94400000D01*
X161304182Y-94373099D01*
X161415748Y-94326887D01*
X161400000Y-94406056D01*
X161400000Y-94543944D01*
X161426901Y-94679182D01*
X161479668Y-94806574D01*
X161556274Y-94921224D01*
X161653776Y-95018726D01*
X161768426Y-95095332D01*
X161895818Y-95148099D01*
X162031056Y-95175000D01*
X162168944Y-95175000D01*
X162304182Y-95148099D01*
X162431574Y-95095332D01*
X162546224Y-95018726D01*
X162643726Y-94921224D01*
X162657907Y-94900000D01*
X165366590Y-94900000D01*
X165326901Y-94995818D01*
X165300000Y-95131056D01*
X165300000Y-95268944D01*
X165326901Y-95404182D01*
X165379668Y-95531574D01*
X165456274Y-95646224D01*
X165553776Y-95743726D01*
X165668426Y-95820332D01*
X165795818Y-95873099D01*
X165931056Y-95900000D01*
X166068944Y-95900000D01*
X166204182Y-95873099D01*
X166331574Y-95820332D01*
X166446224Y-95743726D01*
X166543726Y-95646224D01*
X166557907Y-95625000D01*
X184523960Y-95625000D01*
X184850000Y-95951041D01*
X184849999Y-98954132D01*
X184847944Y-98974999D01*
X184849999Y-98995866D01*
X184849999Y-98995872D01*
X184855320Y-99049900D01*
X184856149Y-99058313D01*
X184863521Y-99082615D01*
X184880451Y-99138425D01*
X184919915Y-99212258D01*
X184973025Y-99276973D01*
X184989242Y-99290282D01*
X185284721Y-99585762D01*
X185298026Y-99601974D01*
X185362740Y-99655084D01*
X185410855Y-99680801D01*
X185436572Y-99694548D01*
X185516685Y-99718850D01*
X185524327Y-99719603D01*
X185579126Y-99725000D01*
X185579133Y-99725000D01*
X185600000Y-99727055D01*
X185620867Y-99725000D01*
X190042093Y-99725000D01*
X190056274Y-99746224D01*
X190153776Y-99843726D01*
X190268426Y-99920332D01*
X190395818Y-99973099D01*
X190531056Y-100000000D01*
X190668944Y-100000000D01*
X190804182Y-99973099D01*
X190931574Y-99920332D01*
X191046224Y-99843726D01*
X191143726Y-99746224D01*
X191220332Y-99631574D01*
X191273099Y-99504182D01*
X191300000Y-99368944D01*
X191300000Y-99231056D01*
X191273099Y-99095818D01*
X191220332Y-98968426D01*
X191143726Y-98853776D01*
X191046224Y-98756274D01*
X190931574Y-98679668D01*
X190804182Y-98626901D01*
X190668944Y-98600000D01*
X190531056Y-98600000D01*
X190395818Y-98626901D01*
X190268426Y-98679668D01*
X190153776Y-98756274D01*
X190056274Y-98853776D01*
X190042093Y-98875000D01*
X186514950Y-98875000D01*
X186543726Y-98846224D01*
X186620332Y-98731574D01*
X186673099Y-98604182D01*
X186700000Y-98468944D01*
X186700000Y-98331056D01*
X186673099Y-98195818D01*
X186620332Y-98068426D01*
X186543726Y-97953776D01*
X186446224Y-97856274D01*
X186425000Y-97842093D01*
X186425000Y-95320866D01*
X186427055Y-95299999D01*
X186425000Y-95279132D01*
X186425000Y-95279126D01*
X186418850Y-95216686D01*
X186394548Y-95136573D01*
X186355084Y-95062740D01*
X186301974Y-94998026D01*
X186285762Y-94984721D01*
X185490283Y-94189243D01*
X185476974Y-94173026D01*
X185418455Y-94125000D01*
X200342093Y-94125000D01*
X200356274Y-94146224D01*
X200453776Y-94243726D01*
X200568426Y-94320332D01*
X200695818Y-94373099D01*
X200831056Y-94400000D01*
X200968944Y-94400000D01*
X201104182Y-94373099D01*
X201231574Y-94320332D01*
X201346224Y-94243726D01*
X201443726Y-94146224D01*
X201520332Y-94031574D01*
X201573099Y-93904182D01*
X201600000Y-93768944D01*
X201600000Y-93631056D01*
X201573099Y-93495818D01*
X201520332Y-93368426D01*
X201443726Y-93253776D01*
X201346224Y-93156274D01*
X201231574Y-93079668D01*
X201104182Y-93026901D01*
X200968944Y-93000000D01*
X200831056Y-93000000D01*
X200695818Y-93026901D01*
X200568426Y-93079668D01*
X200453776Y-93156274D01*
X200356274Y-93253776D01*
X200342093Y-93275000D01*
X161657907Y-93275000D01*
X161643726Y-93253776D01*
X161546224Y-93156274D01*
X161431574Y-93079668D01*
X161304182Y-93026901D01*
X161168944Y-93000000D01*
X161031056Y-93000000D01*
X160895818Y-93026901D01*
X160768426Y-93079668D01*
X160653776Y-93156274D01*
X160556274Y-93253776D01*
X160479668Y-93368426D01*
X160426901Y-93495818D01*
X160400000Y-93631056D01*
X157735919Y-93631056D01*
X157720332Y-93593426D01*
X157650000Y-93488166D01*
X157650000Y-90736834D01*
X157720332Y-90631574D01*
X157761967Y-90531056D01*
X167975000Y-90531056D01*
X167975000Y-90668944D01*
X168001901Y-90804182D01*
X168054668Y-90931574D01*
X168131274Y-91046224D01*
X168228776Y-91143726D01*
X168343426Y-91220332D01*
X168470818Y-91273099D01*
X168606056Y-91300000D01*
X168743944Y-91300000D01*
X168879182Y-91273099D01*
X169006574Y-91220332D01*
X169121224Y-91143726D01*
X169218726Y-91046224D01*
X169232907Y-91025000D01*
X176779133Y-91025000D01*
X176800000Y-91027055D01*
X176820867Y-91025000D01*
X176820874Y-91025000D01*
X176883314Y-91018850D01*
X176963427Y-90994548D01*
X177037260Y-90955084D01*
X177101974Y-90901974D01*
X177115284Y-90885756D01*
X177204456Y-90796584D01*
X208030000Y-90796584D01*
X208030000Y-91003416D01*
X208070350Y-91206274D01*
X208149502Y-91397362D01*
X208264411Y-91569336D01*
X208410664Y-91715589D01*
X208582638Y-91830498D01*
X208773726Y-91909650D01*
X208976584Y-91950000D01*
X209183416Y-91950000D01*
X209386274Y-91909650D01*
X209577362Y-91830498D01*
X209749336Y-91715589D01*
X209895589Y-91569336D01*
X210010498Y-91397362D01*
X210089650Y-91206274D01*
X210130000Y-91003416D01*
X210130000Y-90796584D01*
X210089650Y-90593726D01*
X210010498Y-90402638D01*
X210008736Y-90400000D01*
X211028549Y-90400000D01*
X211028549Y-91400000D01*
X211039145Y-91507583D01*
X211070526Y-91611031D01*
X211121485Y-91706370D01*
X211190065Y-91789935D01*
X211273630Y-91858515D01*
X211368969Y-91909474D01*
X211472417Y-91940855D01*
X211580000Y-91951451D01*
X212580000Y-91951451D01*
X212687583Y-91940855D01*
X212791031Y-91909474D01*
X212886370Y-91858515D01*
X212969935Y-91789935D01*
X213038515Y-91706370D01*
X213089474Y-91611031D01*
X213120855Y-91507583D01*
X213131451Y-91400000D01*
X213131451Y-90722716D01*
X214600000Y-90722716D01*
X214600000Y-91077284D01*
X214669173Y-91425041D01*
X214804861Y-91752620D01*
X215001849Y-92047433D01*
X215252567Y-92298151D01*
X215547380Y-92495139D01*
X215874959Y-92630827D01*
X216222716Y-92700000D01*
X216577284Y-92700000D01*
X216925041Y-92630827D01*
X217252620Y-92495139D01*
X217547433Y-92298151D01*
X217798151Y-92047433D01*
X217995139Y-91752620D01*
X218130827Y-91425041D01*
X218200000Y-91077284D01*
X218200000Y-90722716D01*
X218130827Y-90374959D01*
X217995139Y-90047380D01*
X217798151Y-89752567D01*
X217547433Y-89501849D01*
X217252620Y-89304861D01*
X216925041Y-89169173D01*
X216577284Y-89100000D01*
X216222716Y-89100000D01*
X215874959Y-89169173D01*
X215547380Y-89304861D01*
X215252567Y-89501849D01*
X215001849Y-89752567D01*
X214804861Y-90047380D01*
X214669173Y-90374959D01*
X214600000Y-90722716D01*
X213131451Y-90722716D01*
X213131451Y-90400000D01*
X213120855Y-90292417D01*
X213089474Y-90188969D01*
X213038515Y-90093630D01*
X212969935Y-90010065D01*
X212886370Y-89941485D01*
X212791031Y-89890526D01*
X212687583Y-89859145D01*
X212580000Y-89848549D01*
X211580000Y-89848549D01*
X211472417Y-89859145D01*
X211368969Y-89890526D01*
X211273630Y-89941485D01*
X211190065Y-90010065D01*
X211121485Y-90093630D01*
X211070526Y-90188969D01*
X211039145Y-90292417D01*
X211028549Y-90400000D01*
X210008736Y-90400000D01*
X209895589Y-90230664D01*
X209749336Y-90084411D01*
X209577362Y-89969502D01*
X209386274Y-89890350D01*
X209183416Y-89850000D01*
X208976584Y-89850000D01*
X208773726Y-89890350D01*
X208582638Y-89969502D01*
X208410664Y-90084411D01*
X208264411Y-90230664D01*
X208149502Y-90402638D01*
X208070350Y-90593726D01*
X208030000Y-90796584D01*
X177204456Y-90796584D01*
X183376041Y-84625000D01*
X192742093Y-84625000D01*
X192756274Y-84646224D01*
X192853776Y-84743726D01*
X192968426Y-84820332D01*
X193095818Y-84873099D01*
X193231056Y-84900000D01*
X193368944Y-84900000D01*
X193504182Y-84873099D01*
X193631574Y-84820332D01*
X193746224Y-84743726D01*
X193843726Y-84646224D01*
X193920332Y-84531574D01*
X193973099Y-84404182D01*
X194000000Y-84268944D01*
X194000000Y-84131056D01*
X193973099Y-83995818D01*
X193920332Y-83868426D01*
X193843726Y-83753776D01*
X193746224Y-83656274D01*
X193631574Y-83579668D01*
X193504182Y-83526901D01*
X193368944Y-83500000D01*
X193231056Y-83500000D01*
X193095818Y-83526901D01*
X192968426Y-83579668D01*
X192853776Y-83656274D01*
X192756274Y-83753776D01*
X192742093Y-83775000D01*
X183220867Y-83775000D01*
X183200000Y-83772945D01*
X183179133Y-83775000D01*
X183179126Y-83775000D01*
X183124327Y-83780397D01*
X183116685Y-83781150D01*
X183036572Y-83805452D01*
X183010855Y-83819199D01*
X182962740Y-83844916D01*
X182898026Y-83898026D01*
X182884721Y-83914238D01*
X176623960Y-90175000D01*
X169232907Y-90175000D01*
X169218726Y-90153776D01*
X169121224Y-90056274D01*
X169006574Y-89979668D01*
X168879182Y-89926901D01*
X168743944Y-89900000D01*
X168606056Y-89900000D01*
X168470818Y-89926901D01*
X168343426Y-89979668D01*
X168228776Y-90056274D01*
X168131274Y-90153776D01*
X168054668Y-90268426D01*
X168001901Y-90395818D01*
X167975000Y-90531056D01*
X157761967Y-90531056D01*
X157773099Y-90504182D01*
X157800000Y-90368944D01*
X157800000Y-90231056D01*
X157773099Y-90095818D01*
X157720332Y-89968426D01*
X157643726Y-89853776D01*
X157546224Y-89756274D01*
X157431574Y-89679668D01*
X157304182Y-89626901D01*
X157168944Y-89600000D01*
X157031056Y-89600000D01*
X156895818Y-89626901D01*
X156768426Y-89679668D01*
X156653776Y-89756274D01*
X156556274Y-89853776D01*
X156479668Y-89968426D01*
X156426901Y-90095818D01*
X156400000Y-90231056D01*
X156400000Y-90368944D01*
X156426901Y-90504182D01*
X156479668Y-90631574D01*
X156550001Y-90736836D01*
X156550000Y-93488166D01*
X156479668Y-93593426D01*
X156426901Y-93720818D01*
X156400000Y-93856056D01*
X156400000Y-93993944D01*
X156426901Y-94129182D01*
X156479668Y-94256574D01*
X156550000Y-94361834D01*
X156550001Y-105350000D01*
X149136834Y-105350000D01*
X149031574Y-105279668D01*
X148904182Y-105226901D01*
X148768944Y-105200000D01*
X148631056Y-105200000D01*
X148495818Y-105226901D01*
X148368426Y-105279668D01*
X148253776Y-105356274D01*
X148156274Y-105453776D01*
X148079668Y-105568426D01*
X148026901Y-105695818D01*
X148000000Y-105831056D01*
X143343832Y-105831056D01*
X152024878Y-97150010D01*
X154372982Y-97150010D01*
X154399990Y-97152670D01*
X154426998Y-97150010D01*
X154427008Y-97150010D01*
X154507809Y-97142052D01*
X154611484Y-97110602D01*
X154707032Y-97059531D01*
X154790780Y-96990800D01*
X154808003Y-96969814D01*
X155180020Y-96597797D01*
X155304182Y-96573099D01*
X155431574Y-96520332D01*
X155546224Y-96443726D01*
X155643726Y-96346224D01*
X155720332Y-96231574D01*
X155773099Y-96104182D01*
X155800000Y-95968944D01*
X155800000Y-95831056D01*
X155773099Y-95695818D01*
X155720332Y-95568426D01*
X155643726Y-95453776D01*
X155546224Y-95356274D01*
X155536834Y-95350000D01*
X155546224Y-95343726D01*
X155643726Y-95246224D01*
X155720332Y-95131574D01*
X155773099Y-95004182D01*
X155800000Y-94868944D01*
X155800000Y-94731056D01*
X155773099Y-94595818D01*
X155720332Y-94468426D01*
X155643726Y-94353776D01*
X155546224Y-94256274D01*
X155431574Y-94179668D01*
X155304182Y-94126901D01*
X155180021Y-94102203D01*
X154908003Y-93830185D01*
X154890780Y-93809200D01*
X154841729Y-93768944D01*
X154807032Y-93740469D01*
X154770267Y-93720818D01*
X154711484Y-93689398D01*
X154607809Y-93657948D01*
X154527008Y-93649990D01*
X154526998Y-93649990D01*
X154499990Y-93647330D01*
X154472982Y-93649990D01*
X153364976Y-93649990D01*
X153509774Y-93621188D01*
X153703046Y-93541133D01*
X153876986Y-93424910D01*
X154024910Y-93276986D01*
X154141133Y-93103046D01*
X154221188Y-92909774D01*
X154262000Y-92704598D01*
X154262000Y-92495402D01*
X154221188Y-92290226D01*
X154141133Y-92096954D01*
X154024910Y-91923014D01*
X153876986Y-91775090D01*
X153703046Y-91658867D01*
X153509774Y-91578812D01*
X153304598Y-91538000D01*
X153095402Y-91538000D01*
X152890226Y-91578812D01*
X152696954Y-91658867D01*
X152523014Y-91775090D01*
X152375090Y-91923014D01*
X152258867Y-92096954D01*
X152178812Y-92290226D01*
X152138000Y-92495402D01*
X152138000Y-92704598D01*
X152178812Y-92909774D01*
X152258867Y-93103046D01*
X152375090Y-93276986D01*
X152523014Y-93424910D01*
X152696954Y-93541133D01*
X152890226Y-93621188D01*
X153035024Y-93649990D01*
X150829951Y-93649990D01*
X150802940Y-93647330D01*
X150775929Y-93649990D01*
X150775922Y-93649990D01*
X150695121Y-93657948D01*
X150591445Y-93689398D01*
X150495898Y-93740469D01*
X150461202Y-93768944D01*
X150412150Y-93809200D01*
X150394927Y-93830186D01*
X132931985Y-111293128D01*
X133020338Y-111001869D01*
X133059919Y-110599999D01*
X133020338Y-110198129D01*
X132903116Y-109811703D01*
X132712759Y-109455570D01*
X132520780Y-109221642D01*
X130220791Y-106921655D01*
X130156583Y-106843417D01*
X129844430Y-106587240D01*
X129488297Y-106396883D01*
X129101870Y-106279662D01*
X128800709Y-106250000D01*
X128800708Y-106250000D01*
X128700000Y-106240081D01*
X128599292Y-106250000D01*
X122050000Y-106250000D01*
X122050000Y-102922716D01*
X123600000Y-102922716D01*
X123600000Y-103277284D01*
X123669173Y-103625041D01*
X123804861Y-103952620D01*
X124001849Y-104247433D01*
X124252567Y-104498151D01*
X124547380Y-104695139D01*
X124874959Y-104830827D01*
X125222716Y-104900000D01*
X125577284Y-104900000D01*
X125925041Y-104830827D01*
X126252620Y-104695139D01*
X126547433Y-104498151D01*
X126798151Y-104247433D01*
X126995139Y-103952620D01*
X127130827Y-103625041D01*
X127200000Y-103277284D01*
X127200000Y-102981810D01*
X131500000Y-102981810D01*
X131500000Y-103218190D01*
X131546116Y-103450027D01*
X131636574Y-103668413D01*
X131767899Y-103864955D01*
X131935045Y-104032101D01*
X132131587Y-104163426D01*
X132349973Y-104253884D01*
X132581810Y-104300000D01*
X132818190Y-104300000D01*
X133050027Y-104253884D01*
X133268413Y-104163426D01*
X133464955Y-104032101D01*
X133632101Y-103864955D01*
X133763426Y-103668413D01*
X133853884Y-103450027D01*
X133900000Y-103218190D01*
X133900000Y-102981810D01*
X133853884Y-102749973D01*
X133763426Y-102531587D01*
X133632101Y-102335045D01*
X133464955Y-102167899D01*
X133268413Y-102036574D01*
X133050027Y-101946116D01*
X132818190Y-101900000D01*
X132581810Y-101900000D01*
X132349973Y-101946116D01*
X132131587Y-102036574D01*
X131935045Y-102167899D01*
X131767899Y-102335045D01*
X131636574Y-102531587D01*
X131546116Y-102749973D01*
X131500000Y-102981810D01*
X127200000Y-102981810D01*
X127200000Y-102922716D01*
X127130827Y-102574959D01*
X126995139Y-102247380D01*
X126798151Y-101952567D01*
X126547433Y-101701849D01*
X126252620Y-101504861D01*
X125925041Y-101369173D01*
X125577284Y-101300000D01*
X125222716Y-101300000D01*
X124874959Y-101369173D01*
X124547380Y-101504861D01*
X124252567Y-101701849D01*
X124001849Y-101952567D01*
X123804861Y-102247380D01*
X123669173Y-102574959D01*
X123600000Y-102922716D01*
X122050000Y-102922716D01*
X122050000Y-90900709D01*
X122059919Y-90800000D01*
X122020338Y-90398130D01*
X121903117Y-90011703D01*
X121848333Y-89909210D01*
X121712760Y-89655570D01*
X121456583Y-89343417D01*
X121378355Y-89279217D01*
X114320792Y-82221656D01*
X114256583Y-82143417D01*
X113944430Y-81887240D01*
X113588297Y-81696883D01*
X113201870Y-81579662D01*
X112900709Y-81550000D01*
X112900708Y-81550000D01*
X112800000Y-81540081D01*
X112699292Y-81550000D01*
X102099291Y-81550000D01*
X101798130Y-81579662D01*
X101411703Y-81696883D01*
X101055570Y-81887240D01*
X100743417Y-82143417D01*
X100487240Y-82455570D01*
X100296883Y-82811703D01*
X100179662Y-83198130D01*
X100140081Y-83600000D01*
X100179662Y-84001870D01*
X100296883Y-84388297D01*
X100487240Y-84744430D01*
X100743417Y-85056583D01*
X101055570Y-85312760D01*
X101411703Y-85503117D01*
X101798130Y-85620338D01*
X102099291Y-85650000D01*
X111950864Y-85650000D01*
X117950000Y-91649138D01*
X117950001Y-106250000D01*
X114700708Y-106250000D01*
X114599999Y-106240081D01*
X114198129Y-106279662D01*
X114104669Y-106308013D01*
X113811703Y-106396883D01*
X113455570Y-106587240D01*
X113143417Y-106843417D01*
X113079217Y-106921645D01*
X109150864Y-110850000D01*
X96799291Y-110850000D01*
X96498130Y-110879662D01*
X96111703Y-110996883D01*
X95755570Y-111187240D01*
X95443417Y-111443417D01*
X95187240Y-111755570D01*
X95154630Y-111816578D01*
X95021438Y-111978874D01*
X94868223Y-112265517D01*
X94773875Y-112576544D01*
X94742017Y-112900000D01*
X94773875Y-113223456D01*
X94868223Y-113534483D01*
X95021438Y-113821126D01*
X95154630Y-113983422D01*
X95187240Y-114044430D01*
X95443417Y-114356583D01*
X95755570Y-114612760D01*
X96111703Y-114803117D01*
X96498130Y-114920338D01*
X96799291Y-114950000D01*
X109899292Y-114950000D01*
X110000000Y-114959919D01*
X110100708Y-114950000D01*
X110100709Y-114950000D01*
X110401870Y-114920338D01*
X110788297Y-114803117D01*
X111144430Y-114612760D01*
X111456583Y-114356583D01*
X111520792Y-114278344D01*
X113046873Y-112752263D01*
X123900000Y-112752263D01*
X123900000Y-113047737D01*
X123957644Y-113337534D01*
X124070717Y-113610517D01*
X124234874Y-113856194D01*
X124443806Y-114065126D01*
X124689483Y-114229283D01*
X124962466Y-114342356D01*
X125252263Y-114400000D01*
X125547737Y-114400000D01*
X125837534Y-114342356D01*
X126110517Y-114229283D01*
X126356194Y-114065126D01*
X126565126Y-113856194D01*
X126729283Y-113610517D01*
X126842356Y-113337534D01*
X126900000Y-113047737D01*
X126900000Y-112752263D01*
X126842356Y-112462466D01*
X126729283Y-112189483D01*
X126565126Y-111943806D01*
X126356194Y-111734874D01*
X126110517Y-111570717D01*
X125837534Y-111457644D01*
X125547737Y-111400000D01*
X125252263Y-111400000D01*
X124962466Y-111457644D01*
X124689483Y-111570717D01*
X124443806Y-111734874D01*
X124234874Y-111943806D01*
X124070717Y-112189483D01*
X123957644Y-112462466D01*
X123900000Y-112752263D01*
X113046873Y-112752263D01*
X115449138Y-110350000D01*
X119899292Y-110350000D01*
X120000000Y-110359919D01*
X120100709Y-110350000D01*
X127850863Y-110350000D01*
X129621642Y-112120780D01*
X129855570Y-112312759D01*
X130211703Y-112503116D01*
X130598129Y-112620338D01*
X130999999Y-112659919D01*
X131401869Y-112620338D01*
X131693128Y-112531985D01*
X121475113Y-122750000D01*
X114936834Y-122750000D01*
X114831574Y-122679668D01*
X114704182Y-122626901D01*
X114568944Y-122600000D01*
X114431056Y-122600000D01*
X114295818Y-122626901D01*
X114168426Y-122679668D01*
X114063166Y-122750000D01*
X110827011Y-122750000D01*
X110800000Y-122747340D01*
X110772989Y-122750000D01*
X110772982Y-122750000D01*
X110692181Y-122757958D01*
X110588506Y-122789408D01*
X110492958Y-122840479D01*
X110409210Y-122909210D01*
X110391987Y-122930196D01*
X104772183Y-128550000D01*
X91227818Y-128550000D01*
X90222000Y-127544183D01*
X90250000Y-127403416D01*
X90250000Y-127196584D01*
X91150000Y-127196584D01*
X91150000Y-127403416D01*
X91190350Y-127606274D01*
X91269502Y-127797362D01*
X91384411Y-127969336D01*
X91530664Y-128115589D01*
X91702638Y-128230498D01*
X91893726Y-128309650D01*
X92096584Y-128350000D01*
X92303416Y-128350000D01*
X92506274Y-128309650D01*
X92697362Y-128230498D01*
X92869336Y-128115589D01*
X93015589Y-127969336D01*
X93130498Y-127797362D01*
X93209650Y-127606274D01*
X93250000Y-127403416D01*
X93250000Y-127196584D01*
X93209650Y-126993726D01*
X93130498Y-126802638D01*
X93015589Y-126630664D01*
X92869336Y-126484411D01*
X92697362Y-126369502D01*
X92506274Y-126290350D01*
X92303416Y-126250000D01*
X92096584Y-126250000D01*
X91893726Y-126290350D01*
X91702638Y-126369502D01*
X91530664Y-126484411D01*
X91384411Y-126630664D01*
X91269502Y-126802638D01*
X91190350Y-126993726D01*
X91150000Y-127196584D01*
X90250000Y-127196584D01*
X90209650Y-126993726D01*
X90130498Y-126802638D01*
X90015589Y-126630664D01*
X89869336Y-126484411D01*
X89697362Y-126369502D01*
X89506274Y-126290350D01*
X89303416Y-126250000D01*
X89096584Y-126250000D01*
X88893726Y-126290350D01*
X88702638Y-126369502D01*
X88530664Y-126484411D01*
X88384411Y-126630664D01*
X88269502Y-126802638D01*
X88190350Y-126993726D01*
X88150000Y-127196584D01*
X85712638Y-127196584D01*
X85405041Y-127069173D01*
X85057284Y-127000000D01*
X84702716Y-127000000D01*
X84354959Y-127069173D01*
X84027380Y-127204861D01*
X83732567Y-127401849D01*
X83481849Y-127652567D01*
X83284861Y-127947380D01*
X83149173Y-128274959D01*
X83080000Y-128622716D01*
X79925000Y-128622716D01*
X79925000Y-112722716D01*
X82300000Y-112722716D01*
X82300000Y-113077284D01*
X82369173Y-113425041D01*
X82504861Y-113752620D01*
X82701849Y-114047433D01*
X82952567Y-114298151D01*
X83247380Y-114495139D01*
X83574959Y-114630827D01*
X83922716Y-114700000D01*
X84277284Y-114700000D01*
X84625041Y-114630827D01*
X84952620Y-114495139D01*
X85247433Y-114298151D01*
X85498151Y-114047433D01*
X85695139Y-113752620D01*
X85830827Y-113425041D01*
X85900000Y-113077284D01*
X85900000Y-112722716D01*
X85830827Y-112374959D01*
X85695139Y-112047380D01*
X85529846Y-111800001D01*
X89248549Y-111800001D01*
X89248549Y-113999999D01*
X89259145Y-114107582D01*
X89290526Y-114211031D01*
X89341485Y-114306369D01*
X89410066Y-114389934D01*
X89493631Y-114458515D01*
X89588969Y-114509474D01*
X89692418Y-114540855D01*
X89800001Y-114551451D01*
X90180865Y-114551451D01*
X90255570Y-114612760D01*
X90611703Y-114803117D01*
X90998130Y-114920338D01*
X91400000Y-114959919D01*
X91801869Y-114920338D01*
X92188296Y-114803117D01*
X92544430Y-114612760D01*
X92619135Y-114551451D01*
X92999999Y-114551451D01*
X93107582Y-114540855D01*
X93211031Y-114509474D01*
X93306369Y-114458515D01*
X93389934Y-114389934D01*
X93458515Y-114306369D01*
X93509474Y-114211031D01*
X93540855Y-114107582D01*
X93551451Y-113999999D01*
X93551451Y-111800001D01*
X93540855Y-111692418D01*
X93509474Y-111588969D01*
X93458515Y-111493631D01*
X93450000Y-111483256D01*
X93450000Y-108149136D01*
X96449137Y-105150000D01*
X103000709Y-105150000D01*
X103301870Y-105120338D01*
X103688297Y-105003117D01*
X104044430Y-104812760D01*
X104356583Y-104556583D01*
X104612760Y-104244430D01*
X104803117Y-103888297D01*
X104920338Y-103501870D01*
X104959919Y-103100000D01*
X104943913Y-102937489D01*
X112500000Y-102937489D01*
X112500000Y-103262511D01*
X112563408Y-103581287D01*
X112687789Y-103881568D01*
X112868361Y-104151814D01*
X113098186Y-104381639D01*
X113368432Y-104562211D01*
X113668713Y-104686592D01*
X113987489Y-104750000D01*
X114312511Y-104750000D01*
X114631287Y-104686592D01*
X114931568Y-104562211D01*
X115201814Y-104381639D01*
X115431639Y-104151814D01*
X115612211Y-103881568D01*
X115736592Y-103581287D01*
X115800000Y-103262511D01*
X115800000Y-102937489D01*
X115736592Y-102618713D01*
X115612211Y-102318432D01*
X115431639Y-102048186D01*
X115201814Y-101818361D01*
X114931568Y-101637789D01*
X114631287Y-101513408D01*
X114312511Y-101450000D01*
X113987489Y-101450000D01*
X113668713Y-101513408D01*
X113368432Y-101637789D01*
X113098186Y-101818361D01*
X112868361Y-102048186D01*
X112687789Y-102318432D01*
X112563408Y-102618713D01*
X112500000Y-102937489D01*
X104943913Y-102937489D01*
X104920338Y-102698130D01*
X104803117Y-102311703D01*
X104612760Y-101955570D01*
X104356583Y-101643417D01*
X104044430Y-101387240D01*
X103688297Y-101196883D01*
X103301870Y-101079662D01*
X103000709Y-101050000D01*
X95700709Y-101050000D01*
X95600000Y-101040081D01*
X95499291Y-101050000D01*
X95198130Y-101079662D01*
X94811703Y-101196883D01*
X94455570Y-101387240D01*
X94143417Y-101643417D01*
X94079212Y-101721651D01*
X90021651Y-105779213D01*
X89943418Y-105843417D01*
X89687241Y-106155570D01*
X89605759Y-106308013D01*
X89496883Y-106511704D01*
X89379662Y-106898131D01*
X89340081Y-107300000D01*
X89350001Y-107400718D01*
X89350000Y-111483255D01*
X89341485Y-111493631D01*
X89290526Y-111588969D01*
X89259145Y-111692418D01*
X89248549Y-111800001D01*
X85529846Y-111800001D01*
X85498151Y-111752567D01*
X85247433Y-111501849D01*
X84952620Y-111304861D01*
X84625041Y-111169173D01*
X84277284Y-111100000D01*
X83922716Y-111100000D01*
X83574959Y-111169173D01*
X83247380Y-111304861D01*
X82952567Y-111501849D01*
X82701849Y-111752567D01*
X82504861Y-112047380D01*
X82369173Y-112374959D01*
X82300000Y-112722716D01*
X79925000Y-112722716D01*
X79925000Y-74495402D01*
X101138000Y-74495402D01*
X101138000Y-74704598D01*
X101178812Y-74909774D01*
X101258867Y-75103046D01*
X101375090Y-75276986D01*
X101523014Y-75424910D01*
X101696954Y-75541133D01*
X101890226Y-75621188D01*
X102095402Y-75662000D01*
X102304598Y-75662000D01*
X102509774Y-75621188D01*
X102703046Y-75541133D01*
X102876986Y-75424910D01*
X103024910Y-75276986D01*
X103141133Y-75103046D01*
X103221188Y-74909774D01*
X103262000Y-74704598D01*
X103262000Y-74495402D01*
X103242344Y-74396584D01*
X168550000Y-74396584D01*
X168550000Y-74603416D01*
X168590350Y-74806274D01*
X168669502Y-74997362D01*
X168784411Y-75169336D01*
X168930664Y-75315589D01*
X169102638Y-75430498D01*
X169293726Y-75509650D01*
X169496584Y-75550000D01*
X169703416Y-75550000D01*
X169906274Y-75509650D01*
X170097362Y-75430498D01*
X170269336Y-75315589D01*
X170415589Y-75169336D01*
X170530498Y-74997362D01*
X170609650Y-74806274D01*
X170650000Y-74603416D01*
X170650000Y-74396584D01*
X194350000Y-74396584D01*
X194350000Y-74603416D01*
X194390350Y-74806274D01*
X194469502Y-74997362D01*
X194584411Y-75169336D01*
X194730664Y-75315589D01*
X194902638Y-75430498D01*
X195093726Y-75509650D01*
X195296584Y-75550000D01*
X195503416Y-75550000D01*
X195706274Y-75509650D01*
X195897362Y-75430498D01*
X196069336Y-75315589D01*
X196215589Y-75169336D01*
X196330498Y-74997362D01*
X196409650Y-74806274D01*
X196450000Y-74603416D01*
X196450000Y-74396584D01*
X196409650Y-74193726D01*
X196330498Y-74002638D01*
X196215589Y-73830664D01*
X196069336Y-73684411D01*
X195897362Y-73569502D01*
X195706274Y-73490350D01*
X195503416Y-73450000D01*
X195296584Y-73450000D01*
X195093726Y-73490350D01*
X194902638Y-73569502D01*
X194730664Y-73684411D01*
X194584411Y-73830664D01*
X194469502Y-74002638D01*
X194390350Y-74193726D01*
X194350000Y-74396584D01*
X170650000Y-74396584D01*
X170609650Y-74193726D01*
X170530498Y-74002638D01*
X170415589Y-73830664D01*
X170269336Y-73684411D01*
X170097362Y-73569502D01*
X169906274Y-73490350D01*
X169703416Y-73450000D01*
X169496584Y-73450000D01*
X169293726Y-73490350D01*
X169102638Y-73569502D01*
X168930664Y-73684411D01*
X168784411Y-73830664D01*
X168669502Y-74002638D01*
X168590350Y-74193726D01*
X168550000Y-74396584D01*
X103242344Y-74396584D01*
X103221188Y-74290226D01*
X103141133Y-74096954D01*
X103024910Y-73923014D01*
X102876986Y-73775090D01*
X102703046Y-73658867D01*
X102509774Y-73578812D01*
X102304598Y-73538000D01*
X102095402Y-73538000D01*
X101890226Y-73578812D01*
X101696954Y-73658867D01*
X101523014Y-73775090D01*
X101375090Y-73923014D01*
X101258867Y-74096954D01*
X101178812Y-74290226D01*
X101138000Y-74495402D01*
X79925000Y-74495402D01*
X79925000Y-69512866D01*
X85700000Y-69512866D01*
X85700000Y-69887134D01*
X85773016Y-70254209D01*
X85916242Y-70599987D01*
X86124174Y-70911179D01*
X86388821Y-71175826D01*
X86700013Y-71383758D01*
X87045791Y-71526984D01*
X87412866Y-71600000D01*
X87787134Y-71600000D01*
X88154209Y-71526984D01*
X88499987Y-71383758D01*
X88811179Y-71175826D01*
X88987005Y-71000000D01*
X168548549Y-71000000D01*
X168548549Y-72000000D01*
X168559145Y-72107583D01*
X168590526Y-72211031D01*
X168641485Y-72306370D01*
X168710065Y-72389935D01*
X168793630Y-72458515D01*
X168888969Y-72509474D01*
X168992417Y-72540855D01*
X169100000Y-72551451D01*
X170100000Y-72551451D01*
X170207583Y-72540855D01*
X170311031Y-72509474D01*
X170406370Y-72458515D01*
X170489935Y-72389935D01*
X170558515Y-72306370D01*
X170609474Y-72211031D01*
X170640855Y-72107583D01*
X170651451Y-72000000D01*
X170651451Y-71000000D01*
X194348549Y-71000000D01*
X194348549Y-72000000D01*
X194359145Y-72107583D01*
X194390526Y-72211031D01*
X194441485Y-72306370D01*
X194510065Y-72389935D01*
X194593630Y-72458515D01*
X194688969Y-72509474D01*
X194792417Y-72540855D01*
X194900000Y-72551451D01*
X195900000Y-72551451D01*
X196007583Y-72540855D01*
X196111031Y-72509474D01*
X196206370Y-72458515D01*
X196289935Y-72389935D01*
X196358515Y-72306370D01*
X196409474Y-72211031D01*
X196440855Y-72107583D01*
X196451451Y-72000000D01*
X196451451Y-71000000D01*
X196440855Y-70892417D01*
X196409474Y-70788969D01*
X196358515Y-70693630D01*
X196289935Y-70610065D01*
X196206370Y-70541485D01*
X196111031Y-70490526D01*
X196007583Y-70459145D01*
X195900000Y-70448549D01*
X194900000Y-70448549D01*
X194792417Y-70459145D01*
X194688969Y-70490526D01*
X194593630Y-70541485D01*
X194510065Y-70610065D01*
X194441485Y-70693630D01*
X194390526Y-70788969D01*
X194359145Y-70892417D01*
X194348549Y-71000000D01*
X170651451Y-71000000D01*
X170640855Y-70892417D01*
X170609474Y-70788969D01*
X170558515Y-70693630D01*
X170489935Y-70610065D01*
X170406370Y-70541485D01*
X170311031Y-70490526D01*
X170207583Y-70459145D01*
X170100000Y-70448549D01*
X169100000Y-70448549D01*
X168992417Y-70459145D01*
X168888969Y-70490526D01*
X168793630Y-70541485D01*
X168710065Y-70610065D01*
X168641485Y-70693630D01*
X168590526Y-70788969D01*
X168559145Y-70892417D01*
X168548549Y-71000000D01*
X88987005Y-71000000D01*
X89075826Y-70911179D01*
X89283758Y-70599987D01*
X89426984Y-70254209D01*
X89500000Y-69887134D01*
X89500000Y-69512866D01*
X211900000Y-69512866D01*
X211900000Y-69887134D01*
X211973016Y-70254209D01*
X212116242Y-70599987D01*
X212324174Y-70911179D01*
X212588821Y-71175826D01*
X212900013Y-71383758D01*
X213245791Y-71526984D01*
X213612866Y-71600000D01*
X213987134Y-71600000D01*
X214354209Y-71526984D01*
X214699987Y-71383758D01*
X215011179Y-71175826D01*
X215275826Y-70911179D01*
X215483758Y-70599987D01*
X215626984Y-70254209D01*
X215700000Y-69887134D01*
X215700000Y-69512866D01*
X215626984Y-69145791D01*
X215483758Y-68800013D01*
X215275826Y-68488821D01*
X215011179Y-68224174D01*
X214699987Y-68016242D01*
X214354209Y-67873016D01*
X213987134Y-67800000D01*
X213612866Y-67800000D01*
X213245791Y-67873016D01*
X212900013Y-68016242D01*
X212588821Y-68224174D01*
X212324174Y-68488821D01*
X212116242Y-68800013D01*
X211973016Y-69145791D01*
X211900000Y-69512866D01*
X89500000Y-69512866D01*
X89426984Y-69145791D01*
X89283758Y-68800013D01*
X89075826Y-68488821D01*
X88811179Y-68224174D01*
X88499987Y-68016242D01*
X88154209Y-67873016D01*
X87787134Y-67800000D01*
X87412866Y-67800000D01*
X87045791Y-67873016D01*
X86700013Y-68016242D01*
X86388821Y-68224174D01*
X86124174Y-68488821D01*
X85916242Y-68800013D01*
X85773016Y-69145791D01*
X85700000Y-69512866D01*
X79925000Y-69512866D01*
X79925000Y-67002716D01*
X167800000Y-67002716D01*
X167800000Y-67357284D01*
X167869173Y-67705041D01*
X168004861Y-68032620D01*
X168201849Y-68327433D01*
X168452567Y-68578151D01*
X168747380Y-68775139D01*
X169074959Y-68910827D01*
X169422716Y-68980000D01*
X169777284Y-68980000D01*
X170125041Y-68910827D01*
X170452620Y-68775139D01*
X170747433Y-68578151D01*
X170998151Y-68327433D01*
X171195139Y-68032620D01*
X171330827Y-67705041D01*
X171400000Y-67357284D01*
X171400000Y-67002716D01*
X193600000Y-67002716D01*
X193600000Y-67357284D01*
X193669173Y-67705041D01*
X193804861Y-68032620D01*
X194001849Y-68327433D01*
X194252567Y-68578151D01*
X194547380Y-68775139D01*
X194874959Y-68910827D01*
X195222716Y-68980000D01*
X195577284Y-68980000D01*
X195925041Y-68910827D01*
X196252620Y-68775139D01*
X196547433Y-68578151D01*
X196798151Y-68327433D01*
X196995139Y-68032620D01*
X197130827Y-67705041D01*
X197200000Y-67357284D01*
X197200000Y-67002716D01*
X197130827Y-66654959D01*
X196995139Y-66327380D01*
X196798151Y-66032567D01*
X196547433Y-65781849D01*
X196252620Y-65584861D01*
X195925041Y-65449173D01*
X195577284Y-65380000D01*
X195222716Y-65380000D01*
X194874959Y-65449173D01*
X194547380Y-65584861D01*
X194252567Y-65781849D01*
X194001849Y-66032567D01*
X193804861Y-66327380D01*
X193669173Y-66654959D01*
X193600000Y-67002716D01*
X171400000Y-67002716D01*
X171330827Y-66654959D01*
X171195139Y-66327380D01*
X170998151Y-66032567D01*
X170747433Y-65781849D01*
X170452620Y-65584861D01*
X170125041Y-65449173D01*
X169777284Y-65380000D01*
X169422716Y-65380000D01*
X169074959Y-65449173D01*
X168747380Y-65584861D01*
X168452567Y-65781849D01*
X168201849Y-66032567D01*
X168004861Y-66327380D01*
X167869173Y-66654959D01*
X167800000Y-67002716D01*
X79925000Y-67002716D01*
X79925000Y-65495402D01*
X152138000Y-65495402D01*
X152138000Y-65704598D01*
X152178812Y-65909774D01*
X152258867Y-66103046D01*
X152375090Y-66276986D01*
X152523014Y-66424910D01*
X152696954Y-66541133D01*
X152890226Y-66621188D01*
X153095402Y-66662000D01*
X153304598Y-66662000D01*
X153509774Y-66621188D01*
X153703046Y-66541133D01*
X153876986Y-66424910D01*
X154024910Y-66276986D01*
X154141133Y-66103046D01*
X154221188Y-65909774D01*
X154262000Y-65704598D01*
X154262000Y-65495402D01*
X154221188Y-65290226D01*
X154141133Y-65096954D01*
X154024910Y-64923014D01*
X153876986Y-64775090D01*
X153703046Y-64658867D01*
X153509774Y-64578812D01*
X153304598Y-64538000D01*
X153095402Y-64538000D01*
X152890226Y-64578812D01*
X152696954Y-64658867D01*
X152523014Y-64775090D01*
X152375090Y-64923014D01*
X152258867Y-65096954D01*
X152178812Y-65290226D01*
X152138000Y-65495402D01*
X79925000Y-65495402D01*
X79925000Y-62025000D01*
X221475000Y-62025000D01*
X221475001Y-150375000D01*
G37*
G04 #@! TD.AperFunction*
D25*
X177610065Y-140210065D02*
X177541485Y-140293630D01*
X177490526Y-140388969D01*
X177459145Y-140492417D01*
X177448549Y-140600000D01*
X177448549Y-140666527D01*
X176265067Y-141850010D01*
X175627807Y-141850010D01*
X177327818Y-140150000D01*
X177683254Y-140150000D01*
X177610065Y-140210065D01*
G04 #@! TA.AperFunction,NonConductor*
D26*
G36*
X177610065Y-140210065D02*
G01*
X177541485Y-140293630D01*
X177490526Y-140388969D01*
X177459145Y-140492417D01*
X177448549Y-140600000D01*
X177448549Y-140666527D01*
X176265067Y-141850010D01*
X175627807Y-141850010D01*
X177327818Y-140150000D01*
X177683254Y-140150000D01*
X177610065Y-140210065D01*
G37*
G04 #@! TD.AperFunction*
D25*
X124390526Y-140488969D02*
X124359145Y-140592417D01*
X124348549Y-140700000D01*
X124348549Y-141360699D01*
X123437850Y-140450000D01*
X124411355Y-140450000D01*
X124390526Y-140488969D01*
G04 #@! TA.AperFunction,NonConductor*
D26*
G36*
X124390526Y-140488969D02*
G01*
X124359145Y-140592417D01*
X124348549Y-140700000D01*
X124348549Y-141360699D01*
X123437850Y-140450000D01*
X124411355Y-140450000D01*
X124390526Y-140488969D01*
G37*
G04 #@! TD.AperFunction*
D25*
X124350000Y-129947433D02*
X124350000Y-127927007D01*
X124350001Y-127927001D01*
X124350000Y-129947433D01*
G04 #@! TA.AperFunction,NonConductor*
D26*
G36*
X124350000Y-129947433D02*
G01*
X124350000Y-127927007D01*
X124350001Y-127927001D01*
X124350000Y-129947433D01*
G37*
G04 #@! TD.AperFunction*
D25*
X114168426Y-123920332D02*
X114295818Y-123973099D01*
X114431056Y-124000000D01*
X114295818Y-124026901D01*
X114168426Y-124079668D01*
X114063166Y-124150000D01*
X111127008Y-124150000D01*
X111100000Y-124147340D01*
X111072992Y-124150000D01*
X111072982Y-124150000D01*
X110992181Y-124157958D01*
X110888506Y-124189408D01*
X110792958Y-124240479D01*
X110730195Y-124291987D01*
X110730190Y-124291992D01*
X110709210Y-124309210D01*
X110691992Y-124330190D01*
X105272183Y-129750000D01*
X93095327Y-129750000D01*
X93028509Y-129650000D01*
X104972992Y-129650000D01*
X105000000Y-129652660D01*
X105027008Y-129650000D01*
X105027018Y-129650000D01*
X105107819Y-129642042D01*
X105211494Y-129610592D01*
X105307042Y-129559521D01*
X105390790Y-129490790D01*
X105408013Y-129469804D01*
X111027817Y-123850000D01*
X114063166Y-123850000D01*
X114168426Y-123920332D01*
G04 #@! TA.AperFunction,NonConductor*
D26*
G36*
X114168426Y-123920332D02*
G01*
X114295818Y-123973099D01*
X114431056Y-124000000D01*
X114295818Y-124026901D01*
X114168426Y-124079668D01*
X114063166Y-124150000D01*
X111127008Y-124150000D01*
X111100000Y-124147340D01*
X111072992Y-124150000D01*
X111072982Y-124150000D01*
X110992181Y-124157958D01*
X110888506Y-124189408D01*
X110792958Y-124240479D01*
X110730195Y-124291987D01*
X110730190Y-124291992D01*
X110709210Y-124309210D01*
X110691992Y-124330190D01*
X105272183Y-129750000D01*
X93095327Y-129750000D01*
X93028509Y-129650000D01*
X104972992Y-129650000D01*
X105000000Y-129652660D01*
X105027008Y-129650000D01*
X105027018Y-129650000D01*
X105107819Y-129642042D01*
X105211494Y-129610592D01*
X105307042Y-129559521D01*
X105390790Y-129490790D01*
X105408013Y-129469804D01*
X111027817Y-123850000D01*
X114063166Y-123850000D01*
X114168426Y-123920332D01*
G37*
G04 #@! TD.AperFunction*
D25*
X124350001Y-127872997D02*
X124350000Y-127872991D01*
X124350000Y-127872982D01*
X124342042Y-127792181D01*
X124310592Y-127688506D01*
X124259521Y-127592958D01*
X124243628Y-127573592D01*
X124208013Y-127530195D01*
X124208008Y-127530190D01*
X124190790Y-127509210D01*
X124169810Y-127491992D01*
X121008013Y-124330196D01*
X120990790Y-124309210D01*
X120907042Y-124240479D01*
X120811494Y-124189408D01*
X120707819Y-124157958D01*
X120627018Y-124150000D01*
X120627008Y-124150000D01*
X120600000Y-124147340D01*
X120572992Y-124150000D01*
X114936834Y-124150000D01*
X114831574Y-124079668D01*
X114704182Y-124026901D01*
X114568944Y-124000000D01*
X114704182Y-123973099D01*
X114831574Y-123920332D01*
X114936834Y-123850000D01*
X121675922Y-123850000D01*
X121702930Y-123852660D01*
X121729938Y-123850000D01*
X121729948Y-123850000D01*
X121810749Y-123842042D01*
X121914424Y-123810592D01*
X122009972Y-123759521D01*
X122093720Y-123690790D01*
X122110943Y-123669804D01*
X124350001Y-121430746D01*
X124350001Y-127872997D01*
G04 #@! TA.AperFunction,NonConductor*
D26*
G36*
X124350001Y-127872997D02*
G01*
X124350000Y-127872991D01*
X124350000Y-127872982D01*
X124342042Y-127792181D01*
X124310592Y-127688506D01*
X124259521Y-127592958D01*
X124243628Y-127573592D01*
X124208013Y-127530195D01*
X124208008Y-127530190D01*
X124190790Y-127509210D01*
X124169810Y-127491992D01*
X121008013Y-124330196D01*
X120990790Y-124309210D01*
X120907042Y-124240479D01*
X120811494Y-124189408D01*
X120707819Y-124157958D01*
X120627018Y-124150000D01*
X120627008Y-124150000D01*
X120600000Y-124147340D01*
X120572992Y-124150000D01*
X114936834Y-124150000D01*
X114831574Y-124079668D01*
X114704182Y-124026901D01*
X114568944Y-124000000D01*
X114704182Y-123973099D01*
X114831574Y-123920332D01*
X114936834Y-123850000D01*
X121675922Y-123850000D01*
X121702930Y-123852660D01*
X121729938Y-123850000D01*
X121729948Y-123850000D01*
X121810749Y-123842042D01*
X121914424Y-123810592D01*
X122009972Y-123759521D01*
X122093720Y-123690790D01*
X122110943Y-123669804D01*
X124350001Y-121430746D01*
X124350001Y-127872997D01*
G37*
G04 #@! TD.AperFunction*
D25*
X154402203Y-94880021D02*
X154426901Y-95004182D01*
X154479668Y-95131574D01*
X154556274Y-95246224D01*
X154653776Y-95343726D01*
X154663166Y-95350000D01*
X154653776Y-95356274D01*
X154556274Y-95453776D01*
X154479668Y-95568426D01*
X154426901Y-95695818D01*
X154402203Y-95819980D01*
X154172173Y-96050010D01*
X153324876Y-96050010D01*
X153377267Y-95986171D01*
X153474767Y-95803762D01*
X153534807Y-95605836D01*
X153555080Y-95400000D01*
X153534807Y-95194164D01*
X153474767Y-94996238D01*
X153377267Y-94813829D01*
X153324876Y-94749990D01*
X154272173Y-94749990D01*
X154402203Y-94880021D01*
G04 #@! TA.AperFunction,NonConductor*
D26*
G36*
X154402203Y-94880021D02*
G01*
X154426901Y-95004182D01*
X154479668Y-95131574D01*
X154556274Y-95246224D01*
X154653776Y-95343726D01*
X154663166Y-95350000D01*
X154653776Y-95356274D01*
X154556274Y-95453776D01*
X154479668Y-95568426D01*
X154426901Y-95695818D01*
X154402203Y-95819980D01*
X154172173Y-96050010D01*
X153324876Y-96050010D01*
X153377267Y-95986171D01*
X153474767Y-95803762D01*
X153534807Y-95605836D01*
X153555080Y-95400000D01*
X153534807Y-95194164D01*
X153474767Y-94996238D01*
X153377267Y-94813829D01*
X153324876Y-94749990D01*
X154272173Y-94749990D01*
X154402203Y-94880021D01*
G37*
G04 #@! TD.AperFunction*
M02*
