G04 #@! TF.GenerationSoftware,KiCad,Pcbnew,(5.1.9)-1*
G04 #@! TF.CreationDate,2021-01-28T11:08:43-05:00*
G04 #@! TF.ProjectId,Controller,436f6e74-726f-46c6-9c65-722e6b696361,rev?*
G04 #@! TF.SameCoordinates,Original*
G04 #@! TF.FileFunction,Soldermask,Bot*
G04 #@! TF.FilePolarity,Negative*
%FSLAX46Y46*%
G04 Gerber Fmt 4.6, Leading zero omitted, Abs format (unit mm)*
G04 Created by KiCad (PCBNEW (5.1.9)-1) date 2021-01-28 11:08:43*
%MOMM*%
%LPD*%
G01*
G04 APERTURE LIST*
%ADD10C,3.000000*%
%ADD11O,3.700000X2.700000*%
%ADD12O,1.700000X1.700000*%
%ADD13R,1.700000X1.700000*%
%ADD14C,1.500000*%
%ADD15C,3.200000*%
%ADD16C,1.800000*%
%ADD17C,2.300000*%
%ADD18R,2.300000X2.000000*%
%ADD19O,2.200000X1.100000*%
%ADD20O,2.600000X1.300000*%
%ADD21C,2.700000*%
G04 APERTURE END LIST*
D10*
X50400000Y-34100000D03*
D11*
X63200000Y-34100000D03*
G36*
G01*
X59299999Y-35450000D02*
X56100001Y-35450000D01*
G75*
G02*
X55850000Y-35199999I0J250001D01*
G01*
X55850000Y-33000001D01*
G75*
G02*
X56100001Y-32750000I250001J0D01*
G01*
X59299999Y-32750000D01*
G75*
G02*
X59550000Y-33000001I0J-250001D01*
G01*
X59550000Y-35199999D01*
G75*
G02*
X59299999Y-35450000I-250001J0D01*
G01*
G37*
D12*
X164760000Y-23400000D03*
X162220000Y-23400000D03*
X159680000Y-23400000D03*
X157140000Y-23400000D03*
D13*
X154600000Y-23400000D03*
D14*
X174200000Y-32520000D03*
X171200000Y-32520000D03*
X174200000Y-29520000D03*
G36*
G01*
X170450000Y-30020000D02*
X170450000Y-29020000D01*
G75*
G02*
X170700000Y-28770000I250000J0D01*
G01*
X171700000Y-28770000D01*
G75*
G02*
X171950000Y-29020000I0J-250000D01*
G01*
X171950000Y-30020000D01*
G75*
G02*
X171700000Y-30270000I-250000J0D01*
G01*
X170700000Y-30270000D01*
G75*
G02*
X170450000Y-30020000I0J250000D01*
G01*
G37*
D10*
X172700000Y-25200000D03*
D14*
X140900000Y-70000000D03*
G36*
G01*
X141650000Y-72500000D02*
X141650000Y-73500000D01*
G75*
G02*
X141400000Y-73750000I-250000J0D01*
G01*
X140400000Y-73750000D01*
G75*
G02*
X140150000Y-73500000I0J250000D01*
G01*
X140150000Y-72500000D01*
G75*
G02*
X140400000Y-72250000I250000J0D01*
G01*
X141400000Y-72250000D01*
G75*
G02*
X141650000Y-72500000I0J-250000D01*
G01*
G37*
D10*
X140900000Y-77320000D03*
D14*
X95100000Y-70000000D03*
G36*
G01*
X95850000Y-72500000D02*
X95850000Y-73500000D01*
G75*
G02*
X95600000Y-73750000I-250000J0D01*
G01*
X94600000Y-73750000D01*
G75*
G02*
X94350000Y-73500000I0J250000D01*
G01*
X94350000Y-72500000D01*
G75*
G02*
X94600000Y-72250000I250000J0D01*
G01*
X95600000Y-72250000D01*
G75*
G02*
X95850000Y-72500000I0J-250000D01*
G01*
G37*
D10*
X95100000Y-77320000D03*
D14*
X171400000Y-70000000D03*
G36*
G01*
X172150000Y-72500000D02*
X172150000Y-73500000D01*
G75*
G02*
X171900000Y-73750000I-250000J0D01*
G01*
X170900000Y-73750000D01*
G75*
G02*
X170650000Y-73500000I0J250000D01*
G01*
X170650000Y-72500000D01*
G75*
G02*
X170900000Y-72250000I250000J0D01*
G01*
X171900000Y-72250000D01*
G75*
G02*
X172150000Y-72500000I0J-250000D01*
G01*
G37*
D10*
X171400000Y-77320000D03*
D14*
X125600000Y-70000000D03*
G36*
G01*
X126350000Y-72500000D02*
X126350000Y-73500000D01*
G75*
G02*
X126100000Y-73750000I-250000J0D01*
G01*
X125100000Y-73750000D01*
G75*
G02*
X124850000Y-73500000I0J250000D01*
G01*
X124850000Y-72500000D01*
G75*
G02*
X125100000Y-72250000I250000J0D01*
G01*
X126100000Y-72250000D01*
G75*
G02*
X126350000Y-72500000I0J-250000D01*
G01*
G37*
D10*
X125600000Y-77320000D03*
D14*
X79900000Y-70000000D03*
G36*
G01*
X80650000Y-72500000D02*
X80650000Y-73500000D01*
G75*
G02*
X80400000Y-73750000I-250000J0D01*
G01*
X79400000Y-73750000D01*
G75*
G02*
X79150000Y-73500000I0J250000D01*
G01*
X79150000Y-72500000D01*
G75*
G02*
X79400000Y-72250000I250000J0D01*
G01*
X80400000Y-72250000D01*
G75*
G02*
X80650000Y-72500000I0J-250000D01*
G01*
G37*
D10*
X79900000Y-77320000D03*
D14*
X156100000Y-70000000D03*
G36*
G01*
X156850000Y-72500000D02*
X156850000Y-73500000D01*
G75*
G02*
X156600000Y-73750000I-250000J0D01*
G01*
X155600000Y-73750000D01*
G75*
G02*
X155350000Y-73500000I0J250000D01*
G01*
X155350000Y-72500000D01*
G75*
G02*
X155600000Y-72250000I250000J0D01*
G01*
X156600000Y-72250000D01*
G75*
G02*
X156850000Y-72500000I0J-250000D01*
G01*
G37*
D10*
X156100000Y-77320000D03*
D14*
X110400000Y-70000000D03*
G36*
G01*
X111150000Y-72500000D02*
X111150000Y-73500000D01*
G75*
G02*
X110900000Y-73750000I-250000J0D01*
G01*
X109900000Y-73750000D01*
G75*
G02*
X109650000Y-73500000I0J250000D01*
G01*
X109650000Y-72500000D01*
G75*
G02*
X109900000Y-72250000I250000J0D01*
G01*
X110900000Y-72250000D01*
G75*
G02*
X111150000Y-72500000I0J-250000D01*
G01*
G37*
D10*
X110400000Y-77320000D03*
D14*
X64700000Y-70000000D03*
G36*
G01*
X65450000Y-72500000D02*
X65450000Y-73500000D01*
G75*
G02*
X65200000Y-73750000I-250000J0D01*
G01*
X64200000Y-73750000D01*
G75*
G02*
X63950000Y-73500000I0J250000D01*
G01*
X63950000Y-72500000D01*
G75*
G02*
X64200000Y-72250000I250000J0D01*
G01*
X65200000Y-72250000D01*
G75*
G02*
X65450000Y-72500000I0J-250000D01*
G01*
G37*
D10*
X64700000Y-77320000D03*
D14*
X202000000Y-70000000D03*
G36*
G01*
X202750000Y-72500000D02*
X202750000Y-73500000D01*
G75*
G02*
X202500000Y-73750000I-250000J0D01*
G01*
X201500000Y-73750000D01*
G75*
G02*
X201250000Y-73500000I0J250000D01*
G01*
X201250000Y-72500000D01*
G75*
G02*
X201500000Y-72250000I250000J0D01*
G01*
X202500000Y-72250000D01*
G75*
G02*
X202750000Y-72500000I0J-250000D01*
G01*
G37*
D10*
X202000000Y-77320000D03*
D14*
X186700000Y-70000000D03*
G36*
G01*
X187450000Y-72500000D02*
X187450000Y-73500000D01*
G75*
G02*
X187200000Y-73750000I-250000J0D01*
G01*
X186200000Y-73750000D01*
G75*
G02*
X185950000Y-73500000I0J250000D01*
G01*
X185950000Y-72500000D01*
G75*
G02*
X186200000Y-72250000I250000J0D01*
G01*
X187200000Y-72250000D01*
G75*
G02*
X187450000Y-72500000I0J-250000D01*
G01*
G37*
D10*
X186700000Y-77320000D03*
D14*
X214780000Y-65900000D03*
X214780000Y-62900000D03*
X217780000Y-65900000D03*
G36*
G01*
X217280000Y-62150000D02*
X218280000Y-62150000D01*
G75*
G02*
X218530000Y-62400000I0J-250000D01*
G01*
X218530000Y-63400000D01*
G75*
G02*
X218280000Y-63650000I-250000J0D01*
G01*
X217280000Y-63650000D01*
G75*
G02*
X217030000Y-63400000I0J250000D01*
G01*
X217030000Y-62400000D01*
G75*
G02*
X217280000Y-62150000I250000J0D01*
G01*
G37*
D10*
X222100000Y-64400000D03*
D14*
X214780000Y-47700000D03*
X214780000Y-44700000D03*
X217780000Y-47700000D03*
G36*
G01*
X217280000Y-43950000D02*
X218280000Y-43950000D01*
G75*
G02*
X218530000Y-44200000I0J-250000D01*
G01*
X218530000Y-45200000D01*
G75*
G02*
X218280000Y-45450000I-250000J0D01*
G01*
X217280000Y-45450000D01*
G75*
G02*
X217030000Y-45200000I0J250000D01*
G01*
X217030000Y-44200000D01*
G75*
G02*
X217280000Y-43950000I250000J0D01*
G01*
G37*
D10*
X222100000Y-46200000D03*
D14*
X207900000Y-32520000D03*
X204900000Y-32520000D03*
X207900000Y-29520000D03*
G36*
G01*
X204150000Y-30020000D02*
X204150000Y-29020000D01*
G75*
G02*
X204400000Y-28770000I250000J0D01*
G01*
X205400000Y-28770000D01*
G75*
G02*
X205650000Y-29020000I0J-250000D01*
G01*
X205650000Y-30020000D01*
G75*
G02*
X205400000Y-30270000I-250000J0D01*
G01*
X204400000Y-30270000D01*
G75*
G02*
X204150000Y-30020000I0J250000D01*
G01*
G37*
D10*
X206400000Y-25200000D03*
D14*
X191050000Y-32520000D03*
X188050000Y-32520000D03*
X191050000Y-29520000D03*
G36*
G01*
X187300000Y-30020000D02*
X187300000Y-29020000D01*
G75*
G02*
X187550000Y-28770000I250000J0D01*
G01*
X188550000Y-28770000D01*
G75*
G02*
X188800000Y-29020000I0J-250000D01*
G01*
X188800000Y-30020000D01*
G75*
G02*
X188550000Y-30270000I-250000J0D01*
G01*
X187550000Y-30270000D01*
G75*
G02*
X187300000Y-30020000I0J250000D01*
G01*
G37*
D10*
X189550000Y-25200000D03*
D15*
X221900000Y-24500000D03*
X221900000Y-78200000D03*
X50200000Y-78400000D03*
X50200000Y-24200000D03*
D16*
X71600000Y-44300000D03*
X67900000Y-51800000D03*
D17*
X97900000Y-38500000D03*
X68500000Y-33300000D03*
D18*
X68500000Y-28300000D03*
D17*
X97900000Y-23100000D03*
D19*
X53560000Y-58180000D03*
X53560000Y-66820000D03*
D20*
X48200000Y-58180000D03*
X48200000Y-66820000D03*
D21*
X87550000Y-47900000D03*
D10*
X98800000Y-47900000D03*
X76300000Y-47900000D03*
M02*
