G04 #@! TF.GenerationSoftware,KiCad,Pcbnew,(5.1.9)-1*
G04 #@! TF.CreationDate,2021-01-28T11:08:42-05:00*
G04 #@! TF.ProjectId,Controller,436f6e74-726f-46c6-9c65-722e6b696361,rev?*
G04 #@! TF.SameCoordinates,Original*
G04 #@! TF.FileFunction,Paste,Top*
G04 #@! TF.FilePolarity,Positive*
%FSLAX46Y46*%
G04 Gerber Fmt 4.6, Leading zero omitted, Abs format (unit mm)*
G04 Created by KiCad (PCBNEW (5.1.9)-1) date 2021-01-28 11:08:42*
%MOMM*%
%LPD*%
G01*
G04 APERTURE LIST*
%ADD10R,1.100000X0.250000*%
%ADD11R,1.500000X2.000000*%
%ADD12R,3.800000X2.000000*%
%ADD13R,2.000000X0.900000*%
%ADD14R,0.900000X2.000000*%
%ADD15R,5.000000X5.000000*%
%ADD16R,1.700000X0.900000*%
%ADD17R,0.900000X1.700000*%
%ADD18R,0.900000X0.800000*%
%ADD19R,5.400000X2.900000*%
%ADD20R,0.700000X0.300000*%
%ADD21R,0.700000X1.000000*%
%ADD22R,1.000000X1.400000*%
%ADD23R,1.200000X1.400000*%
G04 APERTURE END LIST*
G36*
G01*
X159556250Y-29750000D02*
X158643750Y-29750000D01*
G75*
G02*
X158400000Y-29506250I0J243750D01*
G01*
X158400000Y-29018750D01*
G75*
G02*
X158643750Y-28775000I243750J0D01*
G01*
X159556250Y-28775000D01*
G75*
G02*
X159800000Y-29018750I0J-243750D01*
G01*
X159800000Y-29506250D01*
G75*
G02*
X159556250Y-29750000I-243750J0D01*
G01*
G37*
G36*
G01*
X159556250Y-31625000D02*
X158643750Y-31625000D01*
G75*
G02*
X158400000Y-31381250I0J243750D01*
G01*
X158400000Y-30893750D01*
G75*
G02*
X158643750Y-30650000I243750J0D01*
G01*
X159556250Y-30650000D01*
G75*
G02*
X159800000Y-30893750I0J-243750D01*
G01*
X159800000Y-31381250D01*
G75*
G02*
X159556250Y-31625000I-243750J0D01*
G01*
G37*
G36*
G01*
X156056250Y-29750000D02*
X155143750Y-29750000D01*
G75*
G02*
X154900000Y-29506250I0J243750D01*
G01*
X154900000Y-29018750D01*
G75*
G02*
X155143750Y-28775000I243750J0D01*
G01*
X156056250Y-28775000D01*
G75*
G02*
X156300000Y-29018750I0J-243750D01*
G01*
X156300000Y-29506250D01*
G75*
G02*
X156056250Y-29750000I-243750J0D01*
G01*
G37*
G36*
G01*
X156056250Y-31625000D02*
X155143750Y-31625000D01*
G75*
G02*
X154900000Y-31381250I0J243750D01*
G01*
X154900000Y-30893750D01*
G75*
G02*
X155143750Y-30650000I243750J0D01*
G01*
X156056250Y-30650000D01*
G75*
G02*
X156300000Y-30893750I0J-243750D01*
G01*
X156300000Y-31381250D01*
G75*
G02*
X156056250Y-31625000I-243750J0D01*
G01*
G37*
D10*
X156250000Y-62700000D03*
X156250000Y-63200000D03*
X156250000Y-63700000D03*
X156250000Y-64200000D03*
X156250000Y-64700000D03*
X151950000Y-64700000D03*
X151950000Y-64200000D03*
X151950000Y-63700000D03*
X151950000Y-63200000D03*
X151950000Y-62700000D03*
X101350000Y-62700000D03*
X101350000Y-63200000D03*
X101350000Y-63700000D03*
X101350000Y-64200000D03*
X101350000Y-64700000D03*
X97050000Y-64700000D03*
X97050000Y-64200000D03*
X97050000Y-63700000D03*
X97050000Y-63200000D03*
X97050000Y-62700000D03*
X128350000Y-62700000D03*
X128350000Y-63200000D03*
X128350000Y-63700000D03*
X128350000Y-64200000D03*
X128350000Y-64700000D03*
X124050000Y-64700000D03*
X124050000Y-64200000D03*
X124050000Y-63700000D03*
X124050000Y-63200000D03*
X124050000Y-62700000D03*
D11*
X110900000Y-41950000D03*
X106300000Y-41950000D03*
X108600000Y-41950000D03*
D12*
X108600000Y-48250000D03*
G36*
G01*
X71570000Y-66065000D02*
X71570000Y-65615000D01*
G75*
G02*
X71795000Y-65390000I225000J0D01*
G01*
X72245000Y-65390000D01*
G75*
G02*
X72470000Y-65615000I0J-225000D01*
G01*
X72470000Y-66065000D01*
G75*
G02*
X72245000Y-66290000I-225000J0D01*
G01*
X71795000Y-66290000D01*
G75*
G02*
X71570000Y-66065000I0J225000D01*
G01*
G37*
G36*
G01*
X71570000Y-64945000D02*
X71570000Y-64495000D01*
G75*
G02*
X71795000Y-64270000I225000J0D01*
G01*
X72245000Y-64270000D01*
G75*
G02*
X72470000Y-64495000I0J-225000D01*
G01*
X72470000Y-64945000D01*
G75*
G02*
X72245000Y-65170000I-225000J0D01*
G01*
X71795000Y-65170000D01*
G75*
G02*
X71570000Y-64945000I0J225000D01*
G01*
G37*
G36*
G01*
X71570000Y-63825000D02*
X71570000Y-63375000D01*
G75*
G02*
X71795000Y-63150000I225000J0D01*
G01*
X72245000Y-63150000D01*
G75*
G02*
X72470000Y-63375000I0J-225000D01*
G01*
X72470000Y-63825000D01*
G75*
G02*
X72245000Y-64050000I-225000J0D01*
G01*
X71795000Y-64050000D01*
G75*
G02*
X71570000Y-63825000I0J225000D01*
G01*
G37*
G36*
G01*
X70450000Y-66065000D02*
X70450000Y-65615000D01*
G75*
G02*
X70675000Y-65390000I225000J0D01*
G01*
X71125000Y-65390000D01*
G75*
G02*
X71350000Y-65615000I0J-225000D01*
G01*
X71350000Y-66065000D01*
G75*
G02*
X71125000Y-66290000I-225000J0D01*
G01*
X70675000Y-66290000D01*
G75*
G02*
X70450000Y-66065000I0J225000D01*
G01*
G37*
G36*
G01*
X70450000Y-64945000D02*
X70450000Y-64495000D01*
G75*
G02*
X70675000Y-64270000I225000J0D01*
G01*
X71125000Y-64270000D01*
G75*
G02*
X71350000Y-64495000I0J-225000D01*
G01*
X71350000Y-64945000D01*
G75*
G02*
X71125000Y-65170000I-225000J0D01*
G01*
X70675000Y-65170000D01*
G75*
G02*
X70450000Y-64945000I0J225000D01*
G01*
G37*
G36*
G01*
X70450000Y-63825000D02*
X70450000Y-63375000D01*
G75*
G02*
X70675000Y-63150000I225000J0D01*
G01*
X71125000Y-63150000D01*
G75*
G02*
X71350000Y-63375000I0J-225000D01*
G01*
X71350000Y-63825000D01*
G75*
G02*
X71125000Y-64050000I-225000J0D01*
G01*
X70675000Y-64050000D01*
G75*
G02*
X70450000Y-63825000I0J225000D01*
G01*
G37*
G36*
G01*
X69330000Y-66065000D02*
X69330000Y-65615000D01*
G75*
G02*
X69555000Y-65390000I225000J0D01*
G01*
X70005000Y-65390000D01*
G75*
G02*
X70230000Y-65615000I0J-225000D01*
G01*
X70230000Y-66065000D01*
G75*
G02*
X70005000Y-66290000I-225000J0D01*
G01*
X69555000Y-66290000D01*
G75*
G02*
X69330000Y-66065000I0J225000D01*
G01*
G37*
G36*
G01*
X69330000Y-64945000D02*
X69330000Y-64495000D01*
G75*
G02*
X69555000Y-64270000I225000J0D01*
G01*
X70005000Y-64270000D01*
G75*
G02*
X70230000Y-64495000I0J-225000D01*
G01*
X70230000Y-64945000D01*
G75*
G02*
X70005000Y-65170000I-225000J0D01*
G01*
X69555000Y-65170000D01*
G75*
G02*
X69330000Y-64945000I0J225000D01*
G01*
G37*
G36*
G01*
X69330000Y-63825000D02*
X69330000Y-63375000D01*
G75*
G02*
X69555000Y-63150000I225000J0D01*
G01*
X70005000Y-63150000D01*
G75*
G02*
X70230000Y-63375000I0J-225000D01*
G01*
X70230000Y-63825000D01*
G75*
G02*
X70005000Y-64050000I-225000J0D01*
G01*
X69555000Y-64050000D01*
G75*
G02*
X69330000Y-63825000I0J225000D01*
G01*
G37*
G36*
G01*
X69275000Y-62607500D02*
X69275000Y-61932500D01*
G75*
G02*
X69337500Y-61870000I62500J0D01*
G01*
X69462500Y-61870000D01*
G75*
G02*
X69525000Y-61932500I0J-62500D01*
G01*
X69525000Y-62607500D01*
G75*
G02*
X69462500Y-62670000I-62500J0D01*
G01*
X69337500Y-62670000D01*
G75*
G02*
X69275000Y-62607500I0J62500D01*
G01*
G37*
G36*
G01*
X69775000Y-62607500D02*
X69775000Y-61932500D01*
G75*
G02*
X69837500Y-61870000I62500J0D01*
G01*
X69962500Y-61870000D01*
G75*
G02*
X70025000Y-61932500I0J-62500D01*
G01*
X70025000Y-62607500D01*
G75*
G02*
X69962500Y-62670000I-62500J0D01*
G01*
X69837500Y-62670000D01*
G75*
G02*
X69775000Y-62607500I0J62500D01*
G01*
G37*
G36*
G01*
X70275000Y-62607500D02*
X70275000Y-61932500D01*
G75*
G02*
X70337500Y-61870000I62500J0D01*
G01*
X70462500Y-61870000D01*
G75*
G02*
X70525000Y-61932500I0J-62500D01*
G01*
X70525000Y-62607500D01*
G75*
G02*
X70462500Y-62670000I-62500J0D01*
G01*
X70337500Y-62670000D01*
G75*
G02*
X70275000Y-62607500I0J62500D01*
G01*
G37*
G36*
G01*
X70775000Y-62607500D02*
X70775000Y-61932500D01*
G75*
G02*
X70837500Y-61870000I62500J0D01*
G01*
X70962500Y-61870000D01*
G75*
G02*
X71025000Y-61932500I0J-62500D01*
G01*
X71025000Y-62607500D01*
G75*
G02*
X70962500Y-62670000I-62500J0D01*
G01*
X70837500Y-62670000D01*
G75*
G02*
X70775000Y-62607500I0J62500D01*
G01*
G37*
G36*
G01*
X71275000Y-62607500D02*
X71275000Y-61932500D01*
G75*
G02*
X71337500Y-61870000I62500J0D01*
G01*
X71462500Y-61870000D01*
G75*
G02*
X71525000Y-61932500I0J-62500D01*
G01*
X71525000Y-62607500D01*
G75*
G02*
X71462500Y-62670000I-62500J0D01*
G01*
X71337500Y-62670000D01*
G75*
G02*
X71275000Y-62607500I0J62500D01*
G01*
G37*
G36*
G01*
X71775000Y-62607500D02*
X71775000Y-61932500D01*
G75*
G02*
X71837500Y-61870000I62500J0D01*
G01*
X71962500Y-61870000D01*
G75*
G02*
X72025000Y-61932500I0J-62500D01*
G01*
X72025000Y-62607500D01*
G75*
G02*
X71962500Y-62670000I-62500J0D01*
G01*
X71837500Y-62670000D01*
G75*
G02*
X71775000Y-62607500I0J62500D01*
G01*
G37*
G36*
G01*
X72275000Y-62607500D02*
X72275000Y-61932500D01*
G75*
G02*
X72337500Y-61870000I62500J0D01*
G01*
X72462500Y-61870000D01*
G75*
G02*
X72525000Y-61932500I0J-62500D01*
G01*
X72525000Y-62607500D01*
G75*
G02*
X72462500Y-62670000I-62500J0D01*
G01*
X72337500Y-62670000D01*
G75*
G02*
X72275000Y-62607500I0J62500D01*
G01*
G37*
G36*
G01*
X72950000Y-63282500D02*
X72950000Y-63157500D01*
G75*
G02*
X73012500Y-63095000I62500J0D01*
G01*
X73687500Y-63095000D01*
G75*
G02*
X73750000Y-63157500I0J-62500D01*
G01*
X73750000Y-63282500D01*
G75*
G02*
X73687500Y-63345000I-62500J0D01*
G01*
X73012500Y-63345000D01*
G75*
G02*
X72950000Y-63282500I0J62500D01*
G01*
G37*
G36*
G01*
X72950000Y-63782500D02*
X72950000Y-63657500D01*
G75*
G02*
X73012500Y-63595000I62500J0D01*
G01*
X73687500Y-63595000D01*
G75*
G02*
X73750000Y-63657500I0J-62500D01*
G01*
X73750000Y-63782500D01*
G75*
G02*
X73687500Y-63845000I-62500J0D01*
G01*
X73012500Y-63845000D01*
G75*
G02*
X72950000Y-63782500I0J62500D01*
G01*
G37*
G36*
G01*
X72950000Y-64282500D02*
X72950000Y-64157500D01*
G75*
G02*
X73012500Y-64095000I62500J0D01*
G01*
X73687500Y-64095000D01*
G75*
G02*
X73750000Y-64157500I0J-62500D01*
G01*
X73750000Y-64282500D01*
G75*
G02*
X73687500Y-64345000I-62500J0D01*
G01*
X73012500Y-64345000D01*
G75*
G02*
X72950000Y-64282500I0J62500D01*
G01*
G37*
G36*
G01*
X72950000Y-64782500D02*
X72950000Y-64657500D01*
G75*
G02*
X73012500Y-64595000I62500J0D01*
G01*
X73687500Y-64595000D01*
G75*
G02*
X73750000Y-64657500I0J-62500D01*
G01*
X73750000Y-64782500D01*
G75*
G02*
X73687500Y-64845000I-62500J0D01*
G01*
X73012500Y-64845000D01*
G75*
G02*
X72950000Y-64782500I0J62500D01*
G01*
G37*
G36*
G01*
X72950000Y-65282500D02*
X72950000Y-65157500D01*
G75*
G02*
X73012500Y-65095000I62500J0D01*
G01*
X73687500Y-65095000D01*
G75*
G02*
X73750000Y-65157500I0J-62500D01*
G01*
X73750000Y-65282500D01*
G75*
G02*
X73687500Y-65345000I-62500J0D01*
G01*
X73012500Y-65345000D01*
G75*
G02*
X72950000Y-65282500I0J62500D01*
G01*
G37*
G36*
G01*
X72950000Y-65782500D02*
X72950000Y-65657500D01*
G75*
G02*
X73012500Y-65595000I62500J0D01*
G01*
X73687500Y-65595000D01*
G75*
G02*
X73750000Y-65657500I0J-62500D01*
G01*
X73750000Y-65782500D01*
G75*
G02*
X73687500Y-65845000I-62500J0D01*
G01*
X73012500Y-65845000D01*
G75*
G02*
X72950000Y-65782500I0J62500D01*
G01*
G37*
G36*
G01*
X72950000Y-66282500D02*
X72950000Y-66157500D01*
G75*
G02*
X73012500Y-66095000I62500J0D01*
G01*
X73687500Y-66095000D01*
G75*
G02*
X73750000Y-66157500I0J-62500D01*
G01*
X73750000Y-66282500D01*
G75*
G02*
X73687500Y-66345000I-62500J0D01*
G01*
X73012500Y-66345000D01*
G75*
G02*
X72950000Y-66282500I0J62500D01*
G01*
G37*
G36*
G01*
X72275000Y-67507500D02*
X72275000Y-66832500D01*
G75*
G02*
X72337500Y-66770000I62500J0D01*
G01*
X72462500Y-66770000D01*
G75*
G02*
X72525000Y-66832500I0J-62500D01*
G01*
X72525000Y-67507500D01*
G75*
G02*
X72462500Y-67570000I-62500J0D01*
G01*
X72337500Y-67570000D01*
G75*
G02*
X72275000Y-67507500I0J62500D01*
G01*
G37*
G36*
G01*
X71775000Y-67507500D02*
X71775000Y-66832500D01*
G75*
G02*
X71837500Y-66770000I62500J0D01*
G01*
X71962500Y-66770000D01*
G75*
G02*
X72025000Y-66832500I0J-62500D01*
G01*
X72025000Y-67507500D01*
G75*
G02*
X71962500Y-67570000I-62500J0D01*
G01*
X71837500Y-67570000D01*
G75*
G02*
X71775000Y-67507500I0J62500D01*
G01*
G37*
G36*
G01*
X71275000Y-67507500D02*
X71275000Y-66832500D01*
G75*
G02*
X71337500Y-66770000I62500J0D01*
G01*
X71462500Y-66770000D01*
G75*
G02*
X71525000Y-66832500I0J-62500D01*
G01*
X71525000Y-67507500D01*
G75*
G02*
X71462500Y-67570000I-62500J0D01*
G01*
X71337500Y-67570000D01*
G75*
G02*
X71275000Y-67507500I0J62500D01*
G01*
G37*
G36*
G01*
X70775000Y-67507500D02*
X70775000Y-66832500D01*
G75*
G02*
X70837500Y-66770000I62500J0D01*
G01*
X70962500Y-66770000D01*
G75*
G02*
X71025000Y-66832500I0J-62500D01*
G01*
X71025000Y-67507500D01*
G75*
G02*
X70962500Y-67570000I-62500J0D01*
G01*
X70837500Y-67570000D01*
G75*
G02*
X70775000Y-67507500I0J62500D01*
G01*
G37*
G36*
G01*
X70275000Y-67507500D02*
X70275000Y-66832500D01*
G75*
G02*
X70337500Y-66770000I62500J0D01*
G01*
X70462500Y-66770000D01*
G75*
G02*
X70525000Y-66832500I0J-62500D01*
G01*
X70525000Y-67507500D01*
G75*
G02*
X70462500Y-67570000I-62500J0D01*
G01*
X70337500Y-67570000D01*
G75*
G02*
X70275000Y-67507500I0J62500D01*
G01*
G37*
G36*
G01*
X69775000Y-67507500D02*
X69775000Y-66832500D01*
G75*
G02*
X69837500Y-66770000I62500J0D01*
G01*
X69962500Y-66770000D01*
G75*
G02*
X70025000Y-66832500I0J-62500D01*
G01*
X70025000Y-67507500D01*
G75*
G02*
X69962500Y-67570000I-62500J0D01*
G01*
X69837500Y-67570000D01*
G75*
G02*
X69775000Y-67507500I0J62500D01*
G01*
G37*
G36*
G01*
X69275000Y-67507500D02*
X69275000Y-66832500D01*
G75*
G02*
X69337500Y-66770000I62500J0D01*
G01*
X69462500Y-66770000D01*
G75*
G02*
X69525000Y-66832500I0J-62500D01*
G01*
X69525000Y-67507500D01*
G75*
G02*
X69462500Y-67570000I-62500J0D01*
G01*
X69337500Y-67570000D01*
G75*
G02*
X69275000Y-67507500I0J62500D01*
G01*
G37*
G36*
G01*
X68050000Y-66282500D02*
X68050000Y-66157500D01*
G75*
G02*
X68112500Y-66095000I62500J0D01*
G01*
X68787500Y-66095000D01*
G75*
G02*
X68850000Y-66157500I0J-62500D01*
G01*
X68850000Y-66282500D01*
G75*
G02*
X68787500Y-66345000I-62500J0D01*
G01*
X68112500Y-66345000D01*
G75*
G02*
X68050000Y-66282500I0J62500D01*
G01*
G37*
G36*
G01*
X68050000Y-65782500D02*
X68050000Y-65657500D01*
G75*
G02*
X68112500Y-65595000I62500J0D01*
G01*
X68787500Y-65595000D01*
G75*
G02*
X68850000Y-65657500I0J-62500D01*
G01*
X68850000Y-65782500D01*
G75*
G02*
X68787500Y-65845000I-62500J0D01*
G01*
X68112500Y-65845000D01*
G75*
G02*
X68050000Y-65782500I0J62500D01*
G01*
G37*
G36*
G01*
X68050000Y-65282500D02*
X68050000Y-65157500D01*
G75*
G02*
X68112500Y-65095000I62500J0D01*
G01*
X68787500Y-65095000D01*
G75*
G02*
X68850000Y-65157500I0J-62500D01*
G01*
X68850000Y-65282500D01*
G75*
G02*
X68787500Y-65345000I-62500J0D01*
G01*
X68112500Y-65345000D01*
G75*
G02*
X68050000Y-65282500I0J62500D01*
G01*
G37*
G36*
G01*
X68050000Y-64782500D02*
X68050000Y-64657500D01*
G75*
G02*
X68112500Y-64595000I62500J0D01*
G01*
X68787500Y-64595000D01*
G75*
G02*
X68850000Y-64657500I0J-62500D01*
G01*
X68850000Y-64782500D01*
G75*
G02*
X68787500Y-64845000I-62500J0D01*
G01*
X68112500Y-64845000D01*
G75*
G02*
X68050000Y-64782500I0J62500D01*
G01*
G37*
G36*
G01*
X68050000Y-64282500D02*
X68050000Y-64157500D01*
G75*
G02*
X68112500Y-64095000I62500J0D01*
G01*
X68787500Y-64095000D01*
G75*
G02*
X68850000Y-64157500I0J-62500D01*
G01*
X68850000Y-64282500D01*
G75*
G02*
X68787500Y-64345000I-62500J0D01*
G01*
X68112500Y-64345000D01*
G75*
G02*
X68050000Y-64282500I0J62500D01*
G01*
G37*
G36*
G01*
X68050000Y-63782500D02*
X68050000Y-63657500D01*
G75*
G02*
X68112500Y-63595000I62500J0D01*
G01*
X68787500Y-63595000D01*
G75*
G02*
X68850000Y-63657500I0J-62500D01*
G01*
X68850000Y-63782500D01*
G75*
G02*
X68787500Y-63845000I-62500J0D01*
G01*
X68112500Y-63845000D01*
G75*
G02*
X68050000Y-63782500I0J62500D01*
G01*
G37*
G36*
G01*
X68050000Y-63282500D02*
X68050000Y-63157500D01*
G75*
G02*
X68112500Y-63095000I62500J0D01*
G01*
X68787500Y-63095000D01*
G75*
G02*
X68850000Y-63157500I0J-62500D01*
G01*
X68850000Y-63282500D01*
G75*
G02*
X68787500Y-63345000I-62500J0D01*
G01*
X68112500Y-63345000D01*
G75*
G02*
X68050000Y-63282500I0J62500D01*
G01*
G37*
D13*
X146300000Y-32945000D03*
X146300000Y-34215000D03*
X146300000Y-35485000D03*
X146300000Y-36755000D03*
X146300000Y-38025000D03*
X146300000Y-39295000D03*
X146300000Y-40565000D03*
X146300000Y-41835000D03*
X146300000Y-43105000D03*
X146300000Y-44375000D03*
X146300000Y-45645000D03*
X146300000Y-46915000D03*
X146300000Y-48185000D03*
X146300000Y-49455000D03*
D14*
X143515000Y-50455000D03*
X142245000Y-50455000D03*
X140975000Y-50455000D03*
X139705000Y-50455000D03*
X138435000Y-50455000D03*
X137165000Y-50455000D03*
X135895000Y-50455000D03*
X134625000Y-50455000D03*
X133355000Y-50455000D03*
X132085000Y-50455000D03*
D13*
X129300000Y-49455000D03*
X129300000Y-48185000D03*
X129300000Y-46915000D03*
X129300000Y-45645000D03*
X129300000Y-44375000D03*
X129300000Y-43105000D03*
X129300000Y-41835000D03*
X129300000Y-40565000D03*
X129300000Y-39295000D03*
X129300000Y-38025000D03*
X129300000Y-36755000D03*
X129300000Y-35485000D03*
X129300000Y-34215000D03*
X129300000Y-32945000D03*
D15*
X136800000Y-40445000D03*
D16*
X50500000Y-69800000D03*
X50500000Y-73200000D03*
D17*
X120900000Y-24200000D03*
X117500000Y-24200000D03*
G36*
G01*
X198856250Y-68650000D02*
X197943750Y-68650000D01*
G75*
G02*
X197700000Y-68406250I0J243750D01*
G01*
X197700000Y-67918750D01*
G75*
G02*
X197943750Y-67675000I243750J0D01*
G01*
X198856250Y-67675000D01*
G75*
G02*
X199100000Y-67918750I0J-243750D01*
G01*
X199100000Y-68406250D01*
G75*
G02*
X198856250Y-68650000I-243750J0D01*
G01*
G37*
G36*
G01*
X198856250Y-70525000D02*
X197943750Y-70525000D01*
G75*
G02*
X197700000Y-70281250I0J243750D01*
G01*
X197700000Y-69793750D01*
G75*
G02*
X197943750Y-69550000I243750J0D01*
G01*
X198856250Y-69550000D01*
G75*
G02*
X199100000Y-69793750I0J-243750D01*
G01*
X199100000Y-70281250D01*
G75*
G02*
X198856250Y-70525000I-243750J0D01*
G01*
G37*
G36*
G01*
X182856250Y-68650000D02*
X181943750Y-68650000D01*
G75*
G02*
X181700000Y-68406250I0J243750D01*
G01*
X181700000Y-67918750D01*
G75*
G02*
X181943750Y-67675000I243750J0D01*
G01*
X182856250Y-67675000D01*
G75*
G02*
X183100000Y-67918750I0J-243750D01*
G01*
X183100000Y-68406250D01*
G75*
G02*
X182856250Y-68650000I-243750J0D01*
G01*
G37*
G36*
G01*
X182856250Y-70525000D02*
X181943750Y-70525000D01*
G75*
G02*
X181700000Y-70281250I0J243750D01*
G01*
X181700000Y-69793750D01*
G75*
G02*
X181943750Y-69550000I243750J0D01*
G01*
X182856250Y-69550000D01*
G75*
G02*
X183100000Y-69793750I0J-243750D01*
G01*
X183100000Y-70281250D01*
G75*
G02*
X182856250Y-70525000I-243750J0D01*
G01*
G37*
G36*
G01*
X137456250Y-68650000D02*
X136543750Y-68650000D01*
G75*
G02*
X136300000Y-68406250I0J243750D01*
G01*
X136300000Y-67918750D01*
G75*
G02*
X136543750Y-67675000I243750J0D01*
G01*
X137456250Y-67675000D01*
G75*
G02*
X137700000Y-67918750I0J-243750D01*
G01*
X137700000Y-68406250D01*
G75*
G02*
X137456250Y-68650000I-243750J0D01*
G01*
G37*
G36*
G01*
X137456250Y-70525000D02*
X136543750Y-70525000D01*
G75*
G02*
X136300000Y-70281250I0J243750D01*
G01*
X136300000Y-69793750D01*
G75*
G02*
X136543750Y-69550000I243750J0D01*
G01*
X137456250Y-69550000D01*
G75*
G02*
X137700000Y-69793750I0J-243750D01*
G01*
X137700000Y-70281250D01*
G75*
G02*
X137456250Y-70525000I-243750J0D01*
G01*
G37*
G36*
G01*
X92256250Y-68612500D02*
X91343750Y-68612500D01*
G75*
G02*
X91100000Y-68368750I0J243750D01*
G01*
X91100000Y-67881250D01*
G75*
G02*
X91343750Y-67637500I243750J0D01*
G01*
X92256250Y-67637500D01*
G75*
G02*
X92500000Y-67881250I0J-243750D01*
G01*
X92500000Y-68368750D01*
G75*
G02*
X92256250Y-68612500I-243750J0D01*
G01*
G37*
G36*
G01*
X92256250Y-70487500D02*
X91343750Y-70487500D01*
G75*
G02*
X91100000Y-70243750I0J243750D01*
G01*
X91100000Y-69756250D01*
G75*
G02*
X91343750Y-69512500I243750J0D01*
G01*
X92256250Y-69512500D01*
G75*
G02*
X92500000Y-69756250I0J-243750D01*
G01*
X92500000Y-70243750D01*
G75*
G02*
X92256250Y-70487500I-243750J0D01*
G01*
G37*
G36*
G01*
X167656250Y-68650000D02*
X166743750Y-68650000D01*
G75*
G02*
X166500000Y-68406250I0J243750D01*
G01*
X166500000Y-67918750D01*
G75*
G02*
X166743750Y-67675000I243750J0D01*
G01*
X167656250Y-67675000D01*
G75*
G02*
X167900000Y-67918750I0J-243750D01*
G01*
X167900000Y-68406250D01*
G75*
G02*
X167656250Y-68650000I-243750J0D01*
G01*
G37*
G36*
G01*
X167656250Y-70525000D02*
X166743750Y-70525000D01*
G75*
G02*
X166500000Y-70281250I0J243750D01*
G01*
X166500000Y-69793750D01*
G75*
G02*
X166743750Y-69550000I243750J0D01*
G01*
X167656250Y-69550000D01*
G75*
G02*
X167900000Y-69793750I0J-243750D01*
G01*
X167900000Y-70281250D01*
G75*
G02*
X167656250Y-70525000I-243750J0D01*
G01*
G37*
G36*
G01*
X122756250Y-68650000D02*
X121843750Y-68650000D01*
G75*
G02*
X121600000Y-68406250I0J243750D01*
G01*
X121600000Y-67918750D01*
G75*
G02*
X121843750Y-67675000I243750J0D01*
G01*
X122756250Y-67675000D01*
G75*
G02*
X123000000Y-67918750I0J-243750D01*
G01*
X123000000Y-68406250D01*
G75*
G02*
X122756250Y-68650000I-243750J0D01*
G01*
G37*
G36*
G01*
X122756250Y-70525000D02*
X121843750Y-70525000D01*
G75*
G02*
X121600000Y-70281250I0J243750D01*
G01*
X121600000Y-69793750D01*
G75*
G02*
X121843750Y-69550000I243750J0D01*
G01*
X122756250Y-69550000D01*
G75*
G02*
X123000000Y-69793750I0J-243750D01*
G01*
X123000000Y-70281250D01*
G75*
G02*
X122756250Y-70525000I-243750J0D01*
G01*
G37*
G36*
G01*
X87350000Y-68556250D02*
X87350000Y-67643750D01*
G75*
G02*
X87593750Y-67400000I243750J0D01*
G01*
X88081250Y-67400000D01*
G75*
G02*
X88325000Y-67643750I0J-243750D01*
G01*
X88325000Y-68556250D01*
G75*
G02*
X88081250Y-68800000I-243750J0D01*
G01*
X87593750Y-68800000D01*
G75*
G02*
X87350000Y-68556250I0J243750D01*
G01*
G37*
G36*
G01*
X85475000Y-68556250D02*
X85475000Y-67643750D01*
G75*
G02*
X85718750Y-67400000I243750J0D01*
G01*
X86206250Y-67400000D01*
G75*
G02*
X86450000Y-67643750I0J-243750D01*
G01*
X86450000Y-68556250D01*
G75*
G02*
X86206250Y-68800000I-243750J0D01*
G01*
X85718750Y-68800000D01*
G75*
G02*
X85475000Y-68556250I0J243750D01*
G01*
G37*
G36*
G01*
X152556250Y-68550000D02*
X151643750Y-68550000D01*
G75*
G02*
X151400000Y-68306250I0J243750D01*
G01*
X151400000Y-67818750D01*
G75*
G02*
X151643750Y-67575000I243750J0D01*
G01*
X152556250Y-67575000D01*
G75*
G02*
X152800000Y-67818750I0J-243750D01*
G01*
X152800000Y-68306250D01*
G75*
G02*
X152556250Y-68550000I-243750J0D01*
G01*
G37*
G36*
G01*
X152556250Y-70425000D02*
X151643750Y-70425000D01*
G75*
G02*
X151400000Y-70181250I0J243750D01*
G01*
X151400000Y-69693750D01*
G75*
G02*
X151643750Y-69450000I243750J0D01*
G01*
X152556250Y-69450000D01*
G75*
G02*
X152800000Y-69693750I0J-243750D01*
G01*
X152800000Y-70181250D01*
G75*
G02*
X152556250Y-70425000I-243750J0D01*
G01*
G37*
G36*
G01*
X106956250Y-68650000D02*
X106043750Y-68650000D01*
G75*
G02*
X105800000Y-68406250I0J243750D01*
G01*
X105800000Y-67918750D01*
G75*
G02*
X106043750Y-67675000I243750J0D01*
G01*
X106956250Y-67675000D01*
G75*
G02*
X107200000Y-67918750I0J-243750D01*
G01*
X107200000Y-68406250D01*
G75*
G02*
X106956250Y-68650000I-243750J0D01*
G01*
G37*
G36*
G01*
X106956250Y-70525000D02*
X106043750Y-70525000D01*
G75*
G02*
X105800000Y-70281250I0J243750D01*
G01*
X105800000Y-69793750D01*
G75*
G02*
X106043750Y-69550000I243750J0D01*
G01*
X106956250Y-69550000D01*
G75*
G02*
X107200000Y-69793750I0J-243750D01*
G01*
X107200000Y-70281250D01*
G75*
G02*
X106956250Y-70525000I-243750J0D01*
G01*
G37*
G36*
G01*
X82050000Y-67556250D02*
X82050000Y-66643750D01*
G75*
G02*
X82293750Y-66400000I243750J0D01*
G01*
X82781250Y-66400000D01*
G75*
G02*
X83025000Y-66643750I0J-243750D01*
G01*
X83025000Y-67556250D01*
G75*
G02*
X82781250Y-67800000I-243750J0D01*
G01*
X82293750Y-67800000D01*
G75*
G02*
X82050000Y-67556250I0J243750D01*
G01*
G37*
G36*
G01*
X80175000Y-67556250D02*
X80175000Y-66643750D01*
G75*
G02*
X80418750Y-66400000I243750J0D01*
G01*
X80906250Y-66400000D01*
G75*
G02*
X81150000Y-66643750I0J-243750D01*
G01*
X81150000Y-67556250D01*
G75*
G02*
X80906250Y-67800000I-243750J0D01*
G01*
X80418750Y-67800000D01*
G75*
G02*
X80175000Y-67556250I0J243750D01*
G01*
G37*
G36*
G01*
X150750000Y-34743750D02*
X150750000Y-35656250D01*
G75*
G02*
X150506250Y-35900000I-243750J0D01*
G01*
X150018750Y-35900000D01*
G75*
G02*
X149775000Y-35656250I0J243750D01*
G01*
X149775000Y-34743750D01*
G75*
G02*
X150018750Y-34500000I243750J0D01*
G01*
X150506250Y-34500000D01*
G75*
G02*
X150750000Y-34743750I0J-243750D01*
G01*
G37*
G36*
G01*
X152625000Y-34743750D02*
X152625000Y-35656250D01*
G75*
G02*
X152381250Y-35900000I-243750J0D01*
G01*
X151893750Y-35900000D01*
G75*
G02*
X151650000Y-35656250I0J243750D01*
G01*
X151650000Y-34743750D01*
G75*
G02*
X151893750Y-34500000I243750J0D01*
G01*
X152381250Y-34500000D01*
G75*
G02*
X152625000Y-34743750I0J-243750D01*
G01*
G37*
G36*
G01*
X150750000Y-39043750D02*
X150750000Y-39956250D01*
G75*
G02*
X150506250Y-40200000I-243750J0D01*
G01*
X150018750Y-40200000D01*
G75*
G02*
X149775000Y-39956250I0J243750D01*
G01*
X149775000Y-39043750D01*
G75*
G02*
X150018750Y-38800000I243750J0D01*
G01*
X150506250Y-38800000D01*
G75*
G02*
X150750000Y-39043750I0J-243750D01*
G01*
G37*
G36*
G01*
X152625000Y-39043750D02*
X152625000Y-39956250D01*
G75*
G02*
X152381250Y-40200000I-243750J0D01*
G01*
X151893750Y-40200000D01*
G75*
G02*
X151650000Y-39956250I0J243750D01*
G01*
X151650000Y-39043750D01*
G75*
G02*
X151893750Y-38800000I243750J0D01*
G01*
X152381250Y-38800000D01*
G75*
G02*
X152625000Y-39043750I0J-243750D01*
G01*
G37*
G36*
G01*
X114650000Y-41243750D02*
X114650000Y-42156250D01*
G75*
G02*
X114406250Y-42400000I-243750J0D01*
G01*
X113918750Y-42400000D01*
G75*
G02*
X113675000Y-42156250I0J243750D01*
G01*
X113675000Y-41243750D01*
G75*
G02*
X113918750Y-41000000I243750J0D01*
G01*
X114406250Y-41000000D01*
G75*
G02*
X114650000Y-41243750I0J-243750D01*
G01*
G37*
G36*
G01*
X116525000Y-41243750D02*
X116525000Y-42156250D01*
G75*
G02*
X116281250Y-42400000I-243750J0D01*
G01*
X115793750Y-42400000D01*
G75*
G02*
X115550000Y-42156250I0J243750D01*
G01*
X115550000Y-41243750D01*
G75*
G02*
X115793750Y-41000000I243750J0D01*
G01*
X116281250Y-41000000D01*
G75*
G02*
X116525000Y-41243750I0J-243750D01*
G01*
G37*
G36*
G01*
X78456250Y-63287500D02*
X77543750Y-63287500D01*
G75*
G02*
X77300000Y-63043750I0J243750D01*
G01*
X77300000Y-62556250D01*
G75*
G02*
X77543750Y-62312500I243750J0D01*
G01*
X78456250Y-62312500D01*
G75*
G02*
X78700000Y-62556250I0J-243750D01*
G01*
X78700000Y-63043750D01*
G75*
G02*
X78456250Y-63287500I-243750J0D01*
G01*
G37*
G36*
G01*
X78456250Y-65162500D02*
X77543750Y-65162500D01*
G75*
G02*
X77300000Y-64918750I0J243750D01*
G01*
X77300000Y-64431250D01*
G75*
G02*
X77543750Y-64187500I243750J0D01*
G01*
X78456250Y-64187500D01*
G75*
G02*
X78700000Y-64431250I0J-243750D01*
G01*
X78700000Y-64918750D01*
G75*
G02*
X78456250Y-65162500I-243750J0D01*
G01*
G37*
G36*
G01*
X121843750Y-34150000D02*
X122756250Y-34150000D01*
G75*
G02*
X123000000Y-34393750I0J-243750D01*
G01*
X123000000Y-34881250D01*
G75*
G02*
X122756250Y-35125000I-243750J0D01*
G01*
X121843750Y-35125000D01*
G75*
G02*
X121600000Y-34881250I0J243750D01*
G01*
X121600000Y-34393750D01*
G75*
G02*
X121843750Y-34150000I243750J0D01*
G01*
G37*
G36*
G01*
X121843750Y-32275000D02*
X122756250Y-32275000D01*
G75*
G02*
X123000000Y-32518750I0J-243750D01*
G01*
X123000000Y-33006250D01*
G75*
G02*
X122756250Y-33250000I-243750J0D01*
G01*
X121843750Y-33250000D01*
G75*
G02*
X121600000Y-33006250I0J243750D01*
G01*
X121600000Y-32518750D01*
G75*
G02*
X121843750Y-32275000I243750J0D01*
G01*
G37*
G36*
G01*
X58750000Y-61956250D02*
X58750000Y-61043750D01*
G75*
G02*
X58993750Y-60800000I243750J0D01*
G01*
X59481250Y-60800000D01*
G75*
G02*
X59725000Y-61043750I0J-243750D01*
G01*
X59725000Y-61956250D01*
G75*
G02*
X59481250Y-62200000I-243750J0D01*
G01*
X58993750Y-62200000D01*
G75*
G02*
X58750000Y-61956250I0J243750D01*
G01*
G37*
G36*
G01*
X56875000Y-61956250D02*
X56875000Y-61043750D01*
G75*
G02*
X57118750Y-60800000I243750J0D01*
G01*
X57606250Y-60800000D01*
G75*
G02*
X57850000Y-61043750I0J-243750D01*
G01*
X57850000Y-61956250D01*
G75*
G02*
X57606250Y-62200000I-243750J0D01*
G01*
X57118750Y-62200000D01*
G75*
G02*
X56875000Y-61956250I0J243750D01*
G01*
G37*
G36*
G01*
X58750000Y-66056250D02*
X58750000Y-65143750D01*
G75*
G02*
X58993750Y-64900000I243750J0D01*
G01*
X59481250Y-64900000D01*
G75*
G02*
X59725000Y-65143750I0J-243750D01*
G01*
X59725000Y-66056250D01*
G75*
G02*
X59481250Y-66300000I-243750J0D01*
G01*
X58993750Y-66300000D01*
G75*
G02*
X58750000Y-66056250I0J243750D01*
G01*
G37*
G36*
G01*
X56875000Y-66056250D02*
X56875000Y-65143750D01*
G75*
G02*
X57118750Y-64900000I243750J0D01*
G01*
X57606250Y-64900000D01*
G75*
G02*
X57850000Y-65143750I0J-243750D01*
G01*
X57850000Y-66056250D01*
G75*
G02*
X57606250Y-66300000I-243750J0D01*
G01*
X57118750Y-66300000D01*
G75*
G02*
X56875000Y-66056250I0J243750D01*
G01*
G37*
G36*
G01*
X63150000Y-57643750D02*
X63150000Y-58556250D01*
G75*
G02*
X62906250Y-58800000I-243750J0D01*
G01*
X62418750Y-58800000D01*
G75*
G02*
X62175000Y-58556250I0J243750D01*
G01*
X62175000Y-57643750D01*
G75*
G02*
X62418750Y-57400000I243750J0D01*
G01*
X62906250Y-57400000D01*
G75*
G02*
X63150000Y-57643750I0J-243750D01*
G01*
G37*
G36*
G01*
X65025000Y-57643750D02*
X65025000Y-58556250D01*
G75*
G02*
X64781250Y-58800000I-243750J0D01*
G01*
X64293750Y-58800000D01*
G75*
G02*
X64050000Y-58556250I0J243750D01*
G01*
X64050000Y-57643750D01*
G75*
G02*
X64293750Y-57400000I243750J0D01*
G01*
X64781250Y-57400000D01*
G75*
G02*
X65025000Y-57643750I0J-243750D01*
G01*
G37*
G36*
G01*
X55050000Y-44543750D02*
X55050000Y-45456250D01*
G75*
G02*
X54806250Y-45700000I-243750J0D01*
G01*
X54318750Y-45700000D01*
G75*
G02*
X54075000Y-45456250I0J243750D01*
G01*
X54075000Y-44543750D01*
G75*
G02*
X54318750Y-44300000I243750J0D01*
G01*
X54806250Y-44300000D01*
G75*
G02*
X55050000Y-44543750I0J-243750D01*
G01*
G37*
G36*
G01*
X56925000Y-44543750D02*
X56925000Y-45456250D01*
G75*
G02*
X56681250Y-45700000I-243750J0D01*
G01*
X56193750Y-45700000D01*
G75*
G02*
X55950000Y-45456250I0J243750D01*
G01*
X55950000Y-44543750D01*
G75*
G02*
X56193750Y-44300000I243750J0D01*
G01*
X56681250Y-44300000D01*
G75*
G02*
X56925000Y-44543750I0J-243750D01*
G01*
G37*
G36*
G01*
X55050000Y-49143750D02*
X55050000Y-50056250D01*
G75*
G02*
X54806250Y-50300000I-243750J0D01*
G01*
X54318750Y-50300000D01*
G75*
G02*
X54075000Y-50056250I0J243750D01*
G01*
X54075000Y-49143750D01*
G75*
G02*
X54318750Y-48900000I243750J0D01*
G01*
X54806250Y-48900000D01*
G75*
G02*
X55050000Y-49143750I0J-243750D01*
G01*
G37*
G36*
G01*
X56925000Y-49143750D02*
X56925000Y-50056250D01*
G75*
G02*
X56681250Y-50300000I-243750J0D01*
G01*
X56193750Y-50300000D01*
G75*
G02*
X55950000Y-50056250I0J243750D01*
G01*
X55950000Y-49143750D01*
G75*
G02*
X56193750Y-48900000I243750J0D01*
G01*
X56681250Y-48900000D01*
G75*
G02*
X56925000Y-49143750I0J-243750D01*
G01*
G37*
G36*
G01*
X77950000Y-67556250D02*
X77950000Y-66643750D01*
G75*
G02*
X78193750Y-66400000I243750J0D01*
G01*
X78681250Y-66400000D01*
G75*
G02*
X78925000Y-66643750I0J-243750D01*
G01*
X78925000Y-67556250D01*
G75*
G02*
X78681250Y-67800000I-243750J0D01*
G01*
X78193750Y-67800000D01*
G75*
G02*
X77950000Y-67556250I0J243750D01*
G01*
G37*
G36*
G01*
X76075000Y-67556250D02*
X76075000Y-66643750D01*
G75*
G02*
X76318750Y-66400000I243750J0D01*
G01*
X76806250Y-66400000D01*
G75*
G02*
X77050000Y-66643750I0J-243750D01*
G01*
X77050000Y-67556250D01*
G75*
G02*
X76806250Y-67800000I-243750J0D01*
G01*
X76318750Y-67800000D01*
G75*
G02*
X76075000Y-67556250I0J243750D01*
G01*
G37*
G36*
G01*
X72150000Y-70043750D02*
X72150000Y-70956250D01*
G75*
G02*
X71906250Y-71200000I-243750J0D01*
G01*
X71418750Y-71200000D01*
G75*
G02*
X71175000Y-70956250I0J243750D01*
G01*
X71175000Y-70043750D01*
G75*
G02*
X71418750Y-69800000I243750J0D01*
G01*
X71906250Y-69800000D01*
G75*
G02*
X72150000Y-70043750I0J-243750D01*
G01*
G37*
G36*
G01*
X74025000Y-70043750D02*
X74025000Y-70956250D01*
G75*
G02*
X73781250Y-71200000I-243750J0D01*
G01*
X73293750Y-71200000D01*
G75*
G02*
X73050000Y-70956250I0J243750D01*
G01*
X73050000Y-70043750D01*
G75*
G02*
X73293750Y-69800000I243750J0D01*
G01*
X73781250Y-69800000D01*
G75*
G02*
X74025000Y-70043750I0J-243750D01*
G01*
G37*
G36*
G01*
X78550000Y-59056250D02*
X78550000Y-58143750D01*
G75*
G02*
X78793750Y-57900000I243750J0D01*
G01*
X79281250Y-57900000D01*
G75*
G02*
X79525000Y-58143750I0J-243750D01*
G01*
X79525000Y-59056250D01*
G75*
G02*
X79281250Y-59300000I-243750J0D01*
G01*
X78793750Y-59300000D01*
G75*
G02*
X78550000Y-59056250I0J243750D01*
G01*
G37*
G36*
G01*
X76675000Y-59056250D02*
X76675000Y-58143750D01*
G75*
G02*
X76918750Y-57900000I243750J0D01*
G01*
X77406250Y-57900000D01*
G75*
G02*
X77650000Y-58143750I0J-243750D01*
G01*
X77650000Y-59056250D01*
G75*
G02*
X77406250Y-59300000I-243750J0D01*
G01*
X76918750Y-59300000D01*
G75*
G02*
X76675000Y-59056250I0J243750D01*
G01*
G37*
G36*
G01*
X78550000Y-61256250D02*
X78550000Y-60343750D01*
G75*
G02*
X78793750Y-60100000I243750J0D01*
G01*
X79281250Y-60100000D01*
G75*
G02*
X79525000Y-60343750I0J-243750D01*
G01*
X79525000Y-61256250D01*
G75*
G02*
X79281250Y-61500000I-243750J0D01*
G01*
X78793750Y-61500000D01*
G75*
G02*
X78550000Y-61256250I0J243750D01*
G01*
G37*
G36*
G01*
X76675000Y-61256250D02*
X76675000Y-60343750D01*
G75*
G02*
X76918750Y-60100000I243750J0D01*
G01*
X77406250Y-60100000D01*
G75*
G02*
X77650000Y-60343750I0J-243750D01*
G01*
X77650000Y-61256250D01*
G75*
G02*
X77406250Y-61500000I-243750J0D01*
G01*
X76918750Y-61500000D01*
G75*
G02*
X76675000Y-61256250I0J243750D01*
G01*
G37*
D18*
X85500000Y-62800000D03*
X83500000Y-63750000D03*
X83500000Y-61850000D03*
X120100000Y-33700000D03*
X118100000Y-34650000D03*
X118100000Y-32750000D03*
D19*
X109000000Y-23450000D03*
X109000000Y-33350000D03*
D20*
X53970000Y-59500000D03*
X53970000Y-60000000D03*
X53970000Y-60500000D03*
X53970000Y-61000000D03*
X53970000Y-61500000D03*
X53970000Y-62000000D03*
X53970000Y-63000000D03*
X53970000Y-63500000D03*
X53970000Y-64000000D03*
X53970000Y-64500000D03*
X53970000Y-65000000D03*
X53970000Y-65500000D03*
D21*
X52670000Y-65600000D03*
D20*
X52670000Y-64750000D03*
X52670000Y-64250000D03*
X52670000Y-63750000D03*
X52670000Y-63250000D03*
X52670000Y-62750000D03*
X52670000Y-62250000D03*
X52670000Y-61750000D03*
X52670000Y-61250000D03*
X52670000Y-60750000D03*
X52670000Y-60250000D03*
D21*
X52670000Y-59400000D03*
D22*
X64550000Y-66900000D03*
X62650000Y-66900000D03*
X62650000Y-64700000D03*
D23*
X64370000Y-64700000D03*
G36*
G01*
X49900000Y-44599999D02*
X49900000Y-45400001D01*
G75*
G02*
X49650001Y-45650000I-249999J0D01*
G01*
X48824999Y-45650000D01*
G75*
G02*
X48575000Y-45400001I0J249999D01*
G01*
X48575000Y-44599999D01*
G75*
G02*
X48824999Y-44350000I249999J0D01*
G01*
X49650001Y-44350000D01*
G75*
G02*
X49900000Y-44599999I0J-249999D01*
G01*
G37*
G36*
G01*
X51825000Y-44599999D02*
X51825000Y-45400001D01*
G75*
G02*
X51575001Y-45650000I-249999J0D01*
G01*
X50749999Y-45650000D01*
G75*
G02*
X50500000Y-45400001I0J249999D01*
G01*
X50500000Y-44599999D01*
G75*
G02*
X50749999Y-44350000I249999J0D01*
G01*
X51575001Y-44350000D01*
G75*
G02*
X51825000Y-44599999I0J-249999D01*
G01*
G37*
G36*
G01*
X49900000Y-49199999D02*
X49900000Y-50000001D01*
G75*
G02*
X49650001Y-50250000I-249999J0D01*
G01*
X48824999Y-50250000D01*
G75*
G02*
X48575000Y-50000001I0J249999D01*
G01*
X48575000Y-49199999D01*
G75*
G02*
X48824999Y-48950000I249999J0D01*
G01*
X49650001Y-48950000D01*
G75*
G02*
X49900000Y-49199999I0J-249999D01*
G01*
G37*
G36*
G01*
X51825000Y-49199999D02*
X51825000Y-50000001D01*
G75*
G02*
X51575001Y-50250000I-249999J0D01*
G01*
X50749999Y-50250000D01*
G75*
G02*
X50500000Y-50000001I0J249999D01*
G01*
X50500000Y-49199999D01*
G75*
G02*
X50749999Y-48950000I249999J0D01*
G01*
X51575001Y-48950000D01*
G75*
G02*
X51825000Y-49199999I0J-249999D01*
G01*
G37*
G36*
G01*
X156256250Y-58150000D02*
X155343750Y-58150000D01*
G75*
G02*
X155100000Y-57906250I0J243750D01*
G01*
X155100000Y-57418750D01*
G75*
G02*
X155343750Y-57175000I243750J0D01*
G01*
X156256250Y-57175000D01*
G75*
G02*
X156500000Y-57418750I0J-243750D01*
G01*
X156500000Y-57906250D01*
G75*
G02*
X156256250Y-58150000I-243750J0D01*
G01*
G37*
G36*
G01*
X156256250Y-60025000D02*
X155343750Y-60025000D01*
G75*
G02*
X155100000Y-59781250I0J243750D01*
G01*
X155100000Y-59293750D01*
G75*
G02*
X155343750Y-59050000I243750J0D01*
G01*
X156256250Y-59050000D01*
G75*
G02*
X156500000Y-59293750I0J-243750D01*
G01*
X156500000Y-59781250D01*
G75*
G02*
X156256250Y-60025000I-243750J0D01*
G01*
G37*
G36*
G01*
X152756250Y-58150000D02*
X151843750Y-58150000D01*
G75*
G02*
X151600000Y-57906250I0J243750D01*
G01*
X151600000Y-57418750D01*
G75*
G02*
X151843750Y-57175000I243750J0D01*
G01*
X152756250Y-57175000D01*
G75*
G02*
X153000000Y-57418750I0J-243750D01*
G01*
X153000000Y-57906250D01*
G75*
G02*
X152756250Y-58150000I-243750J0D01*
G01*
G37*
G36*
G01*
X152756250Y-60025000D02*
X151843750Y-60025000D01*
G75*
G02*
X151600000Y-59781250I0J243750D01*
G01*
X151600000Y-59293750D01*
G75*
G02*
X151843750Y-59050000I243750J0D01*
G01*
X152756250Y-59050000D01*
G75*
G02*
X153000000Y-59293750I0J-243750D01*
G01*
X153000000Y-59781250D01*
G75*
G02*
X152756250Y-60025000I-243750J0D01*
G01*
G37*
G36*
G01*
X101456250Y-57912500D02*
X100543750Y-57912500D01*
G75*
G02*
X100300000Y-57668750I0J243750D01*
G01*
X100300000Y-57181250D01*
G75*
G02*
X100543750Y-56937500I243750J0D01*
G01*
X101456250Y-56937500D01*
G75*
G02*
X101700000Y-57181250I0J-243750D01*
G01*
X101700000Y-57668750D01*
G75*
G02*
X101456250Y-57912500I-243750J0D01*
G01*
G37*
G36*
G01*
X101456250Y-59787500D02*
X100543750Y-59787500D01*
G75*
G02*
X100300000Y-59543750I0J243750D01*
G01*
X100300000Y-59056250D01*
G75*
G02*
X100543750Y-58812500I243750J0D01*
G01*
X101456250Y-58812500D01*
G75*
G02*
X101700000Y-59056250I0J-243750D01*
G01*
X101700000Y-59543750D01*
G75*
G02*
X101456250Y-59787500I-243750J0D01*
G01*
G37*
G36*
G01*
X128556250Y-57850000D02*
X127643750Y-57850000D01*
G75*
G02*
X127400000Y-57606250I0J243750D01*
G01*
X127400000Y-57118750D01*
G75*
G02*
X127643750Y-56875000I243750J0D01*
G01*
X128556250Y-56875000D01*
G75*
G02*
X128800000Y-57118750I0J-243750D01*
G01*
X128800000Y-57606250D01*
G75*
G02*
X128556250Y-57850000I-243750J0D01*
G01*
G37*
G36*
G01*
X128556250Y-59725000D02*
X127643750Y-59725000D01*
G75*
G02*
X127400000Y-59481250I0J243750D01*
G01*
X127400000Y-58993750D01*
G75*
G02*
X127643750Y-58750000I243750J0D01*
G01*
X128556250Y-58750000D01*
G75*
G02*
X128800000Y-58993750I0J-243750D01*
G01*
X128800000Y-59481250D01*
G75*
G02*
X128556250Y-59725000I-243750J0D01*
G01*
G37*
G36*
G01*
X97756250Y-57950000D02*
X96843750Y-57950000D01*
G75*
G02*
X96600000Y-57706250I0J243750D01*
G01*
X96600000Y-57218750D01*
G75*
G02*
X96843750Y-56975000I243750J0D01*
G01*
X97756250Y-56975000D01*
G75*
G02*
X98000000Y-57218750I0J-243750D01*
G01*
X98000000Y-57706250D01*
G75*
G02*
X97756250Y-57950000I-243750J0D01*
G01*
G37*
G36*
G01*
X97756250Y-59825000D02*
X96843750Y-59825000D01*
G75*
G02*
X96600000Y-59581250I0J243750D01*
G01*
X96600000Y-59093750D01*
G75*
G02*
X96843750Y-58850000I243750J0D01*
G01*
X97756250Y-58850000D01*
G75*
G02*
X98000000Y-59093750I0J-243750D01*
G01*
X98000000Y-59581250D01*
G75*
G02*
X97756250Y-59825000I-243750J0D01*
G01*
G37*
G36*
G01*
X124756250Y-57950000D02*
X123843750Y-57950000D01*
G75*
G02*
X123600000Y-57706250I0J243750D01*
G01*
X123600000Y-57218750D01*
G75*
G02*
X123843750Y-56975000I243750J0D01*
G01*
X124756250Y-56975000D01*
G75*
G02*
X125000000Y-57218750I0J-243750D01*
G01*
X125000000Y-57706250D01*
G75*
G02*
X124756250Y-57950000I-243750J0D01*
G01*
G37*
G36*
G01*
X124756250Y-59825000D02*
X123843750Y-59825000D01*
G75*
G02*
X123600000Y-59581250I0J243750D01*
G01*
X123600000Y-59093750D01*
G75*
G02*
X123843750Y-58850000I243750J0D01*
G01*
X124756250Y-58850000D01*
G75*
G02*
X125000000Y-59093750I0J-243750D01*
G01*
X125000000Y-59581250D01*
G75*
G02*
X124756250Y-59825000I-243750J0D01*
G01*
G37*
G36*
G01*
X110450000Y-38425001D02*
X110450000Y-37574999D01*
G75*
G02*
X110699999Y-37325000I249999J0D01*
G01*
X111600001Y-37325000D01*
G75*
G02*
X111850000Y-37574999I0J-249999D01*
G01*
X111850000Y-38425001D01*
G75*
G02*
X111600001Y-38675000I-249999J0D01*
G01*
X110699999Y-38675000D01*
G75*
G02*
X110450000Y-38425001I0J249999D01*
G01*
G37*
G36*
G01*
X107750000Y-38425001D02*
X107750000Y-37574999D01*
G75*
G02*
X107999999Y-37325000I249999J0D01*
G01*
X108900001Y-37325000D01*
G75*
G02*
X109150000Y-37574999I0J-249999D01*
G01*
X109150000Y-38425001D01*
G75*
G02*
X108900001Y-38675000I-249999J0D01*
G01*
X107999999Y-38675000D01*
G75*
G02*
X107750000Y-38425001I0J249999D01*
G01*
G37*
G36*
G01*
X104125001Y-37650000D02*
X103274999Y-37650000D01*
G75*
G02*
X103025000Y-37400001I0J249999D01*
G01*
X103025000Y-36499999D01*
G75*
G02*
X103274999Y-36250000I249999J0D01*
G01*
X104125001Y-36250000D01*
G75*
G02*
X104375000Y-36499999I0J-249999D01*
G01*
X104375000Y-37400001D01*
G75*
G02*
X104125001Y-37650000I-249999J0D01*
G01*
G37*
G36*
G01*
X104125001Y-40350000D02*
X103274999Y-40350000D01*
G75*
G02*
X103025000Y-40100001I0J249999D01*
G01*
X103025000Y-39199999D01*
G75*
G02*
X103274999Y-38950000I249999J0D01*
G01*
X104125001Y-38950000D01*
G75*
G02*
X104375000Y-39199999I0J-249999D01*
G01*
X104375000Y-40100001D01*
G75*
G02*
X104125001Y-40350000I-249999J0D01*
G01*
G37*
G36*
G01*
X110125000Y-53725000D02*
X110125000Y-51875000D01*
G75*
G02*
X110375000Y-51625000I250000J0D01*
G01*
X111950000Y-51625000D01*
G75*
G02*
X112200000Y-51875000I0J-250000D01*
G01*
X112200000Y-53725000D01*
G75*
G02*
X111950000Y-53975000I-250000J0D01*
G01*
X110375000Y-53975000D01*
G75*
G02*
X110125000Y-53725000I0J250000D01*
G01*
G37*
G36*
G01*
X105200000Y-53725000D02*
X105200000Y-51875000D01*
G75*
G02*
X105450000Y-51625000I250000J0D01*
G01*
X107025000Y-51625000D01*
G75*
G02*
X107275000Y-51875000I0J-250000D01*
G01*
X107275000Y-53725000D01*
G75*
G02*
X107025000Y-53975000I-250000J0D01*
G01*
X105450000Y-53975000D01*
G75*
G02*
X105200000Y-53725000I0J250000D01*
G01*
G37*
G36*
G01*
X102943750Y-43350000D02*
X103856250Y-43350000D01*
G75*
G02*
X104100000Y-43593750I0J-243750D01*
G01*
X104100000Y-44081250D01*
G75*
G02*
X103856250Y-44325000I-243750J0D01*
G01*
X102943750Y-44325000D01*
G75*
G02*
X102700000Y-44081250I0J243750D01*
G01*
X102700000Y-43593750D01*
G75*
G02*
X102943750Y-43350000I243750J0D01*
G01*
G37*
G36*
G01*
X102943750Y-41475000D02*
X103856250Y-41475000D01*
G75*
G02*
X104100000Y-41718750I0J-243750D01*
G01*
X104100000Y-42206250D01*
G75*
G02*
X103856250Y-42450000I-243750J0D01*
G01*
X102943750Y-42450000D01*
G75*
G02*
X102700000Y-42206250I0J243750D01*
G01*
X102700000Y-41718750D01*
G75*
G02*
X102943750Y-41475000I243750J0D01*
G01*
G37*
G36*
G01*
X110850000Y-57756250D02*
X110850000Y-56843750D01*
G75*
G02*
X111093750Y-56600000I243750J0D01*
G01*
X111581250Y-56600000D01*
G75*
G02*
X111825000Y-56843750I0J-243750D01*
G01*
X111825000Y-57756250D01*
G75*
G02*
X111581250Y-58000000I-243750J0D01*
G01*
X111093750Y-58000000D01*
G75*
G02*
X110850000Y-57756250I0J243750D01*
G01*
G37*
G36*
G01*
X108975000Y-57756250D02*
X108975000Y-56843750D01*
G75*
G02*
X109218750Y-56600000I243750J0D01*
G01*
X109706250Y-56600000D01*
G75*
G02*
X109950000Y-56843750I0J-243750D01*
G01*
X109950000Y-57756250D01*
G75*
G02*
X109706250Y-58000000I-243750J0D01*
G01*
X109218750Y-58000000D01*
G75*
G02*
X108975000Y-57756250I0J243750D01*
G01*
G37*
G36*
G01*
X102974999Y-48350000D02*
X103825001Y-48350000D01*
G75*
G02*
X104075000Y-48599999I0J-249999D01*
G01*
X104075000Y-49500001D01*
G75*
G02*
X103825001Y-49750000I-249999J0D01*
G01*
X102974999Y-49750000D01*
G75*
G02*
X102725000Y-49500001I0J249999D01*
G01*
X102725000Y-48599999D01*
G75*
G02*
X102974999Y-48350000I249999J0D01*
G01*
G37*
G36*
G01*
X102974999Y-45650000D02*
X103825001Y-45650000D01*
G75*
G02*
X104075000Y-45899999I0J-249999D01*
G01*
X104075000Y-46800001D01*
G75*
G02*
X103825001Y-47050000I-249999J0D01*
G01*
X102974999Y-47050000D01*
G75*
G02*
X102725000Y-46800001I0J249999D01*
G01*
X102725000Y-45899999D01*
G75*
G02*
X102974999Y-45650000I249999J0D01*
G01*
G37*
G36*
G01*
X54543750Y-71950000D02*
X55456250Y-71950000D01*
G75*
G02*
X55700000Y-72193750I0J-243750D01*
G01*
X55700000Y-72681250D01*
G75*
G02*
X55456250Y-72925000I-243750J0D01*
G01*
X54543750Y-72925000D01*
G75*
G02*
X54300000Y-72681250I0J243750D01*
G01*
X54300000Y-72193750D01*
G75*
G02*
X54543750Y-71950000I243750J0D01*
G01*
G37*
G36*
G01*
X54543750Y-70075000D02*
X55456250Y-70075000D01*
G75*
G02*
X55700000Y-70318750I0J-243750D01*
G01*
X55700000Y-70806250D01*
G75*
G02*
X55456250Y-71050000I-243750J0D01*
G01*
X54543750Y-71050000D01*
G75*
G02*
X54300000Y-70806250I0J243750D01*
G01*
X54300000Y-70318750D01*
G75*
G02*
X54543750Y-70075000I243750J0D01*
G01*
G37*
G36*
G01*
X118650000Y-28443750D02*
X118650000Y-29356250D01*
G75*
G02*
X118406250Y-29600000I-243750J0D01*
G01*
X117918750Y-29600000D01*
G75*
G02*
X117675000Y-29356250I0J243750D01*
G01*
X117675000Y-28443750D01*
G75*
G02*
X117918750Y-28200000I243750J0D01*
G01*
X118406250Y-28200000D01*
G75*
G02*
X118650000Y-28443750I0J-243750D01*
G01*
G37*
G36*
G01*
X120525000Y-28443750D02*
X120525000Y-29356250D01*
G75*
G02*
X120281250Y-29600000I-243750J0D01*
G01*
X119793750Y-29600000D01*
G75*
G02*
X119550000Y-29356250I0J243750D01*
G01*
X119550000Y-28443750D01*
G75*
G02*
X119793750Y-28200000I243750J0D01*
G01*
X120281250Y-28200000D01*
G75*
G02*
X120525000Y-28443750I0J-243750D01*
G01*
G37*
G36*
G01*
X115587500Y-38456250D02*
X115587500Y-37543750D01*
G75*
G02*
X115831250Y-37300000I243750J0D01*
G01*
X116318750Y-37300000D01*
G75*
G02*
X116562500Y-37543750I0J-243750D01*
G01*
X116562500Y-38456250D01*
G75*
G02*
X116318750Y-38700000I-243750J0D01*
G01*
X115831250Y-38700000D01*
G75*
G02*
X115587500Y-38456250I0J243750D01*
G01*
G37*
G36*
G01*
X113712500Y-38456250D02*
X113712500Y-37543750D01*
G75*
G02*
X113956250Y-37300000I243750J0D01*
G01*
X114443750Y-37300000D01*
G75*
G02*
X114687500Y-37543750I0J-243750D01*
G01*
X114687500Y-38456250D01*
G75*
G02*
X114443750Y-38700000I-243750J0D01*
G01*
X113956250Y-38700000D01*
G75*
G02*
X113712500Y-38456250I0J243750D01*
G01*
G37*
G36*
G01*
X49956250Y-53350000D02*
X49043750Y-53350000D01*
G75*
G02*
X48800000Y-53106250I0J243750D01*
G01*
X48800000Y-52618750D01*
G75*
G02*
X49043750Y-52375000I243750J0D01*
G01*
X49956250Y-52375000D01*
G75*
G02*
X50200000Y-52618750I0J-243750D01*
G01*
X50200000Y-53106250D01*
G75*
G02*
X49956250Y-53350000I-243750J0D01*
G01*
G37*
G36*
G01*
X49956250Y-55225000D02*
X49043750Y-55225000D01*
G75*
G02*
X48800000Y-54981250I0J243750D01*
G01*
X48800000Y-54493750D01*
G75*
G02*
X49043750Y-54250000I243750J0D01*
G01*
X49956250Y-54250000D01*
G75*
G02*
X50200000Y-54493750I0J-243750D01*
G01*
X50200000Y-54981250D01*
G75*
G02*
X49956250Y-55225000I-243750J0D01*
G01*
G37*
G36*
G01*
X53356250Y-53350000D02*
X52443750Y-53350000D01*
G75*
G02*
X52200000Y-53106250I0J243750D01*
G01*
X52200000Y-52618750D01*
G75*
G02*
X52443750Y-52375000I243750J0D01*
G01*
X53356250Y-52375000D01*
G75*
G02*
X53600000Y-52618750I0J-243750D01*
G01*
X53600000Y-53106250D01*
G75*
G02*
X53356250Y-53350000I-243750J0D01*
G01*
G37*
G36*
G01*
X53356250Y-55225000D02*
X52443750Y-55225000D01*
G75*
G02*
X52200000Y-54981250I0J243750D01*
G01*
X52200000Y-54493750D01*
G75*
G02*
X52443750Y-54250000I243750J0D01*
G01*
X53356250Y-54250000D01*
G75*
G02*
X53600000Y-54493750I0J-243750D01*
G01*
X53600000Y-54981250D01*
G75*
G02*
X53356250Y-55225000I-243750J0D01*
G01*
G37*
G36*
G01*
X64050000Y-62156250D02*
X64050000Y-61243750D01*
G75*
G02*
X64293750Y-61000000I243750J0D01*
G01*
X64781250Y-61000000D01*
G75*
G02*
X65025000Y-61243750I0J-243750D01*
G01*
X65025000Y-62156250D01*
G75*
G02*
X64781250Y-62400000I-243750J0D01*
G01*
X64293750Y-62400000D01*
G75*
G02*
X64050000Y-62156250I0J243750D01*
G01*
G37*
G36*
G01*
X62175000Y-62156250D02*
X62175000Y-61243750D01*
G75*
G02*
X62418750Y-61000000I243750J0D01*
G01*
X62906250Y-61000000D01*
G75*
G02*
X63150000Y-61243750I0J-243750D01*
G01*
X63150000Y-62156250D01*
G75*
G02*
X62906250Y-62400000I-243750J0D01*
G01*
X62418750Y-62400000D01*
G75*
G02*
X62175000Y-62156250I0J243750D01*
G01*
G37*
G36*
G01*
X55750000Y-74674999D02*
X55750000Y-75525001D01*
G75*
G02*
X55500001Y-75775000I-249999J0D01*
G01*
X54599999Y-75775000D01*
G75*
G02*
X54350000Y-75525001I0J249999D01*
G01*
X54350000Y-74674999D01*
G75*
G02*
X54599999Y-74425000I249999J0D01*
G01*
X55500001Y-74425000D01*
G75*
G02*
X55750000Y-74674999I0J-249999D01*
G01*
G37*
G36*
G01*
X58450000Y-74674999D02*
X58450000Y-75525001D01*
G75*
G02*
X58200001Y-75775000I-249999J0D01*
G01*
X57299999Y-75775000D01*
G75*
G02*
X57050000Y-75525001I0J249999D01*
G01*
X57050000Y-74674999D01*
G75*
G02*
X57299999Y-74425000I249999J0D01*
G01*
X58200001Y-74425000D01*
G75*
G02*
X58450000Y-74674999I0J-249999D01*
G01*
G37*
G36*
G01*
X55950000Y-78043750D02*
X55950000Y-78956250D01*
G75*
G02*
X55706250Y-79200000I-243750J0D01*
G01*
X55218750Y-79200000D01*
G75*
G02*
X54975000Y-78956250I0J243750D01*
G01*
X54975000Y-78043750D01*
G75*
G02*
X55218750Y-77800000I243750J0D01*
G01*
X55706250Y-77800000D01*
G75*
G02*
X55950000Y-78043750I0J-243750D01*
G01*
G37*
G36*
G01*
X57825000Y-78043750D02*
X57825000Y-78956250D01*
G75*
G02*
X57581250Y-79200000I-243750J0D01*
G01*
X57093750Y-79200000D01*
G75*
G02*
X56850000Y-78956250I0J243750D01*
G01*
X56850000Y-78043750D01*
G75*
G02*
X57093750Y-77800000I243750J0D01*
G01*
X57581250Y-77800000D01*
G75*
G02*
X57825000Y-78043750I0J-243750D01*
G01*
G37*
G36*
G01*
X119625001Y-39750000D02*
X118774999Y-39750000D01*
G75*
G02*
X118525000Y-39500001I0J249999D01*
G01*
X118525000Y-38599999D01*
G75*
G02*
X118774999Y-38350000I249999J0D01*
G01*
X119625001Y-38350000D01*
G75*
G02*
X119875000Y-38599999I0J-249999D01*
G01*
X119875000Y-39500001D01*
G75*
G02*
X119625001Y-39750000I-249999J0D01*
G01*
G37*
G36*
G01*
X119625001Y-42450000D02*
X118774999Y-42450000D01*
G75*
G02*
X118525000Y-42200001I0J249999D01*
G01*
X118525000Y-41299999D01*
G75*
G02*
X118774999Y-41050000I249999J0D01*
G01*
X119625001Y-41050000D01*
G75*
G02*
X119875000Y-41299999I0J-249999D01*
G01*
X119875000Y-42200001D01*
G75*
G02*
X119625001Y-42450000I-249999J0D01*
G01*
G37*
G36*
G01*
X122856250Y-39887500D02*
X121943750Y-39887500D01*
G75*
G02*
X121700000Y-39643750I0J243750D01*
G01*
X121700000Y-39156250D01*
G75*
G02*
X121943750Y-38912500I243750J0D01*
G01*
X122856250Y-38912500D01*
G75*
G02*
X123100000Y-39156250I0J-243750D01*
G01*
X123100000Y-39643750D01*
G75*
G02*
X122856250Y-39887500I-243750J0D01*
G01*
G37*
G36*
G01*
X122856250Y-41762500D02*
X121943750Y-41762500D01*
G75*
G02*
X121700000Y-41518750I0J243750D01*
G01*
X121700000Y-41031250D01*
G75*
G02*
X121943750Y-40787500I243750J0D01*
G01*
X122856250Y-40787500D01*
G75*
G02*
X123100000Y-41031250I0J-243750D01*
G01*
X123100000Y-41518750D01*
G75*
G02*
X122856250Y-41762500I-243750J0D01*
G01*
G37*
M02*
