M48
; DRILL file {KiCad (5.1.9)-1} date 01/28/21 11:08:13
; FORMAT={2:4/ absolute / inch / suppress leading zeros}
; #@! TF.CreationDate,2021-01-28T11:08:13-05:00
; #@! TF.GenerationSoftware,Kicad,Pcbnew,(5.1.9)-1
; #@! TF.FileFunction,NonPlated,1,2,NPTH
FMAT,2
INCH,TZ
T1C0.1063
T2C0.1181
T3C0.1260
%
G90
G05
T1
X34469Y-18858
T2
X19843Y-13425
X25472Y-30441
X31457Y-30441
X37441Y-30441
X43465Y-30441
X49449Y-30441
X55472Y-30441
X61457Y-30441
X67480Y-30441
X67992Y-9921
X73504Y-30441
X74626Y-9921
X79528Y-30441
X81260Y-9921
X87441Y-18189
X87441Y-25354
T3
X19764Y-9528
X19764Y-30866
X87362Y-9646
X87362Y-30787
T0
M30
