G04 #@! TF.GenerationSoftware,KiCad,Pcbnew,(5.1.9)-1*
G04 #@! TF.CreationDate,2021-01-28T11:08:42-05:00*
G04 #@! TF.ProjectId,Controller,436f6e74-726f-46c6-9c65-722e6b696361,rev?*
G04 #@! TF.SameCoordinates,Original*
G04 #@! TF.FileFunction,Legend,Bot*
G04 #@! TF.FilePolarity,Positive*
%FSLAX46Y46*%
G04 Gerber Fmt 4.6, Leading zero omitted, Abs format (unit mm)*
G04 Created by KiCad (PCBNEW (5.1.9)-1) date 2021-01-28 11:08:42*
%MOMM*%
%LPD*%
G01*
G04 APERTURE LIST*
%ADD10C,0.150000*%
%ADD11C,0.010000*%
G04 APERTURE END LIST*
D10*
X84314285Y-62352380D02*
X83457142Y-62352380D01*
X83885714Y-63352380D02*
X83885714Y-62352380D01*
X82957142Y-62828571D02*
X82457142Y-62828571D01*
X82242857Y-63352380D02*
X82957142Y-63352380D01*
X82957142Y-62352380D01*
X82242857Y-62352380D01*
X81600000Y-63352380D02*
X81600000Y-62352380D01*
X81100000Y-63066666D01*
X80600000Y-62352380D01*
X80600000Y-63352380D01*
X77885714Y-63257142D02*
X77957142Y-63304761D01*
X78171428Y-63352380D01*
X78314285Y-63352380D01*
X78528571Y-63304761D01*
X78671428Y-63209523D01*
X78742857Y-63114285D01*
X78814285Y-62923809D01*
X78814285Y-62780952D01*
X78742857Y-62590476D01*
X78671428Y-62495238D01*
X78528571Y-62400000D01*
X78314285Y-62352380D01*
X78171428Y-62352380D01*
X77957142Y-62400000D01*
X77885714Y-62447619D01*
X77028571Y-63352380D02*
X77171428Y-63304761D01*
X77242857Y-63257142D01*
X77314285Y-63161904D01*
X77314285Y-62876190D01*
X77242857Y-62780952D01*
X77171428Y-62733333D01*
X77028571Y-62685714D01*
X76814285Y-62685714D01*
X76671428Y-62733333D01*
X76600000Y-62780952D01*
X76528571Y-62876190D01*
X76528571Y-63161904D01*
X76600000Y-63257142D01*
X76671428Y-63304761D01*
X76814285Y-63352380D01*
X77028571Y-63352380D01*
X75885714Y-62685714D02*
X75885714Y-63352380D01*
X75885714Y-62780952D02*
X75814285Y-62733333D01*
X75671428Y-62685714D01*
X75457142Y-62685714D01*
X75314285Y-62733333D01*
X75242857Y-62828571D01*
X75242857Y-63352380D01*
X74742857Y-62685714D02*
X74171428Y-62685714D01*
X74528571Y-62352380D02*
X74528571Y-63209523D01*
X74457142Y-63304761D01*
X74314285Y-63352380D01*
X74171428Y-63352380D01*
X73671428Y-63352380D02*
X73671428Y-62685714D01*
X73671428Y-62876190D02*
X73600000Y-62780952D01*
X73528571Y-62733333D01*
X73385714Y-62685714D01*
X73242857Y-62685714D01*
X72528571Y-63352380D02*
X72671428Y-63304761D01*
X72742857Y-63257142D01*
X72814285Y-63161904D01*
X72814285Y-62876190D01*
X72742857Y-62780952D01*
X72671428Y-62733333D01*
X72528571Y-62685714D01*
X72314285Y-62685714D01*
X72171428Y-62733333D01*
X72100000Y-62780952D01*
X72028571Y-62876190D01*
X72028571Y-63161904D01*
X72100000Y-63257142D01*
X72171428Y-63304761D01*
X72314285Y-63352380D01*
X72528571Y-63352380D01*
X71171428Y-63352380D02*
X71314285Y-63304761D01*
X71385714Y-63209523D01*
X71385714Y-62352380D01*
X70385714Y-63352380D02*
X70528571Y-63304761D01*
X70600000Y-63209523D01*
X70600000Y-62352380D01*
X69242857Y-63304761D02*
X69385714Y-63352380D01*
X69671428Y-63352380D01*
X69814285Y-63304761D01*
X69885714Y-63209523D01*
X69885714Y-62828571D01*
X69814285Y-62733333D01*
X69671428Y-62685714D01*
X69385714Y-62685714D01*
X69242857Y-62733333D01*
X69171428Y-62828571D01*
X69171428Y-62923809D01*
X69885714Y-63019047D01*
X68528571Y-63352380D02*
X68528571Y-62685714D01*
X68528571Y-62876190D02*
X68457142Y-62780952D01*
X68385714Y-62733333D01*
X68242857Y-62685714D01*
X68100000Y-62685714D01*
X65957142Y-62828571D02*
X65742857Y-62876190D01*
X65671428Y-62923809D01*
X65600000Y-63019047D01*
X65600000Y-63161904D01*
X65671428Y-63257142D01*
X65742857Y-63304761D01*
X65885714Y-63352380D01*
X66457142Y-63352380D01*
X66457142Y-62352380D01*
X65957142Y-62352380D01*
X65814285Y-62400000D01*
X65742857Y-62447619D01*
X65671428Y-62542857D01*
X65671428Y-62638095D01*
X65742857Y-62733333D01*
X65814285Y-62780952D01*
X65957142Y-62828571D01*
X66457142Y-62828571D01*
X64742857Y-63352380D02*
X64885714Y-63304761D01*
X64957142Y-63257142D01*
X65028571Y-63161904D01*
X65028571Y-62876190D01*
X64957142Y-62780952D01*
X64885714Y-62733333D01*
X64742857Y-62685714D01*
X64528571Y-62685714D01*
X64385714Y-62733333D01*
X64314285Y-62780952D01*
X64242857Y-62876190D01*
X64242857Y-63161904D01*
X64314285Y-63257142D01*
X64385714Y-63304761D01*
X64528571Y-63352380D01*
X64742857Y-63352380D01*
X62957142Y-63352380D02*
X62957142Y-62828571D01*
X63028571Y-62733333D01*
X63171428Y-62685714D01*
X63457142Y-62685714D01*
X63600000Y-62733333D01*
X62957142Y-63304761D02*
X63100000Y-63352380D01*
X63457142Y-63352380D01*
X63600000Y-63304761D01*
X63671428Y-63209523D01*
X63671428Y-63114285D01*
X63600000Y-63019047D01*
X63457142Y-62971428D01*
X63100000Y-62971428D01*
X62957142Y-62923809D01*
X62242857Y-63352380D02*
X62242857Y-62685714D01*
X62242857Y-62876190D02*
X62171428Y-62780952D01*
X62100000Y-62733333D01*
X61957142Y-62685714D01*
X61814285Y-62685714D01*
X60671428Y-63352380D02*
X60671428Y-62352380D01*
X60671428Y-63304761D02*
X60814285Y-63352380D01*
X61100000Y-63352380D01*
X61242857Y-63304761D01*
X61314285Y-63257142D01*
X61385714Y-63161904D01*
X61385714Y-62876190D01*
X61314285Y-62780952D01*
X61242857Y-62733333D01*
X61100000Y-62685714D01*
X60814285Y-62685714D01*
X60671428Y-62733333D01*
X59028571Y-62352380D02*
X58528571Y-63352380D01*
X58028571Y-62352380D01*
X57528571Y-63257142D02*
X57457142Y-63304761D01*
X57528571Y-63352380D01*
X57600000Y-63304761D01*
X57528571Y-63257142D01*
X57528571Y-63352380D01*
X56028571Y-63352380D02*
X56885714Y-63352380D01*
X56457142Y-63352380D02*
X56457142Y-62352380D01*
X56600000Y-62495238D01*
X56742857Y-62590476D01*
X56885714Y-62638095D01*
D11*
G36*
X72020734Y-54956454D02*
G01*
X71787147Y-54978730D01*
X71571624Y-55016594D01*
X71371700Y-55070649D01*
X71184909Y-55141499D01*
X71008783Y-55229746D01*
X70926359Y-55279060D01*
X70739381Y-55413546D01*
X70572089Y-55568858D01*
X70423623Y-55745911D01*
X70293124Y-55945617D01*
X70283530Y-55962431D01*
X70232758Y-56058638D01*
X70182023Y-56166185D01*
X70133411Y-56279478D01*
X70089008Y-56392924D01*
X70050900Y-56500931D01*
X70021172Y-56597904D01*
X70001911Y-56678251D01*
X69995200Y-56735561D01*
X69995728Y-56764994D01*
X69998983Y-56788631D01*
X70007475Y-56807108D01*
X70023715Y-56821060D01*
X70050211Y-56831123D01*
X70089473Y-56837931D01*
X70144011Y-56842121D01*
X70216335Y-56844328D01*
X70308953Y-56845187D01*
X70424377Y-56845333D01*
X70428748Y-56845333D01*
X70540536Y-56845340D01*
X70629823Y-56844929D01*
X70699507Y-56843455D01*
X70752488Y-56840271D01*
X70791665Y-56834732D01*
X70819935Y-56826191D01*
X70840197Y-56814003D01*
X70855350Y-56797521D01*
X70868293Y-56776099D01*
X70881925Y-56749092D01*
X70884602Y-56743733D01*
X70984494Y-56574893D01*
X71104125Y-56426374D01*
X71242688Y-56298580D01*
X71399377Y-56191917D01*
X71573388Y-56106790D01*
X71763913Y-56043604D01*
X71970147Y-56002764D01*
X72191285Y-55984676D01*
X72389150Y-55987424D01*
X72616716Y-56010522D01*
X72824326Y-56054184D01*
X73012533Y-56118988D01*
X73181888Y-56205514D01*
X73332943Y-56314343D01*
X73466250Y-56446053D01*
X73582360Y-56601224D01*
X73681826Y-56780437D01*
X73765198Y-56984270D01*
X73833029Y-57213303D01*
X73885871Y-57468117D01*
X73903012Y-57577941D01*
X73911700Y-57661285D01*
X73918464Y-57771664D01*
X73923303Y-57902346D01*
X73926218Y-58046598D01*
X73927210Y-58197685D01*
X73926277Y-58348875D01*
X73923420Y-58493433D01*
X73918639Y-58624627D01*
X73911934Y-58735723D01*
X73903305Y-58819988D01*
X73903012Y-58822059D01*
X73855338Y-59090467D01*
X73792834Y-59331515D01*
X73715417Y-59545422D01*
X73623005Y-59732404D01*
X73515512Y-59892678D01*
X73467744Y-59949955D01*
X73347635Y-60070532D01*
X73219540Y-60169500D01*
X73078355Y-60250196D01*
X72918975Y-60315959D01*
X72895978Y-60323811D01*
X72800244Y-60353349D01*
X72709253Y-60375651D01*
X72616974Y-60391543D01*
X72517379Y-60401853D01*
X72404436Y-60407409D01*
X72274850Y-60409038D01*
X72142955Y-60407342D01*
X72030322Y-60401704D01*
X71930922Y-60391295D01*
X71838724Y-60375289D01*
X71747699Y-60352858D01*
X71653723Y-60323811D01*
X71471334Y-60249485D01*
X71308648Y-60154467D01*
X71164727Y-60037794D01*
X71038630Y-59898503D01*
X70929416Y-59735631D01*
X70836146Y-59548217D01*
X70795046Y-59444600D01*
X70750764Y-59311416D01*
X70712286Y-59171279D01*
X70682203Y-59034936D01*
X70663104Y-58913134D01*
X70660292Y-58885558D01*
X70657099Y-58829835D01*
X70661172Y-58794753D01*
X70674425Y-58767847D01*
X70679436Y-58760886D01*
X70685357Y-58753456D01*
X70692409Y-58747127D01*
X70702543Y-58741812D01*
X70717713Y-58737421D01*
X70739870Y-58733866D01*
X70770969Y-58731060D01*
X70812961Y-58728913D01*
X70867800Y-58727337D01*
X70937438Y-58726244D01*
X71023828Y-58725546D01*
X71128922Y-58725154D01*
X71254674Y-58724979D01*
X71403037Y-58724935D01*
X71474030Y-58724933D01*
X72241660Y-58724933D01*
X72261430Y-58687299D01*
X72267524Y-58671183D01*
X72272261Y-58646194D01*
X72275799Y-58608387D01*
X72278301Y-58553816D01*
X72279924Y-58478537D01*
X72280831Y-58378604D01*
X72281180Y-58250073D01*
X72281200Y-58200000D01*
X72281002Y-58061019D01*
X72280300Y-57951958D01*
X72278934Y-57868869D01*
X72276744Y-57807809D01*
X72273570Y-57764832D01*
X72269252Y-57735994D01*
X72263630Y-57717349D01*
X72261430Y-57712701D01*
X72241660Y-57675066D01*
X71061573Y-57675066D01*
X69881486Y-57675067D01*
X69858968Y-57720887D01*
X69852004Y-57738042D01*
X69846638Y-57760488D01*
X69842676Y-57792484D01*
X69839921Y-57838291D01*
X69838177Y-57902171D01*
X69837249Y-57988382D01*
X69836941Y-58101187D01*
X69836991Y-58199253D01*
X69838340Y-58400015D01*
X69842173Y-58574816D01*
X69848974Y-58731457D01*
X69859231Y-58877741D01*
X69873430Y-59021467D01*
X69892056Y-59170439D01*
X69901905Y-59240520D01*
X69957629Y-59553154D01*
X70030973Y-59841476D01*
X70122058Y-60105648D01*
X70231008Y-60345828D01*
X70357945Y-60562178D01*
X70502990Y-60754858D01*
X70666267Y-60924029D01*
X70847898Y-61069851D01*
X71048005Y-61192485D01*
X71266711Y-61292091D01*
X71504137Y-61368829D01*
X71530557Y-61375667D01*
X71646187Y-61399835D01*
X71781485Y-61419603D01*
X71930912Y-61434745D01*
X72088932Y-61445034D01*
X72250005Y-61450246D01*
X72408594Y-61450153D01*
X72559159Y-61444529D01*
X72696164Y-61433148D01*
X72754759Y-61425678D01*
X72976712Y-61385100D01*
X73179513Y-61329799D01*
X73367421Y-61258187D01*
X73544695Y-61168675D01*
X73691622Y-61076354D01*
X73866925Y-60940075D01*
X74024694Y-60783440D01*
X74165369Y-60605490D01*
X74289391Y-60405267D01*
X74397199Y-60181813D01*
X74489234Y-59934169D01*
X74565936Y-59661375D01*
X74627745Y-59362475D01*
X74675100Y-59036509D01*
X74689658Y-58902733D01*
X74698584Y-58786395D01*
X74705337Y-58643637D01*
X74709917Y-58481783D01*
X74712324Y-58308156D01*
X74712558Y-58130078D01*
X74710619Y-57954873D01*
X74706507Y-57789864D01*
X74700222Y-57642374D01*
X74691764Y-57519726D01*
X74689658Y-57497266D01*
X74647783Y-57160556D01*
X74591627Y-56851283D01*
X74520748Y-56568488D01*
X74434706Y-56311214D01*
X74333061Y-56078500D01*
X74215374Y-55869390D01*
X74081203Y-55682925D01*
X73930109Y-55518145D01*
X73761652Y-55374093D01*
X73691622Y-55323645D01*
X73527861Y-55221694D01*
X73357899Y-55137139D01*
X73178926Y-55069238D01*
X72988137Y-55017249D01*
X72782721Y-54980431D01*
X72559873Y-54958040D01*
X72316783Y-54949335D01*
X72274850Y-54949162D01*
X72020734Y-54956454D01*
G37*
X72020734Y-54956454D02*
X71787147Y-54978730D01*
X71571624Y-55016594D01*
X71371700Y-55070649D01*
X71184909Y-55141499D01*
X71008783Y-55229746D01*
X70926359Y-55279060D01*
X70739381Y-55413546D01*
X70572089Y-55568858D01*
X70423623Y-55745911D01*
X70293124Y-55945617D01*
X70283530Y-55962431D01*
X70232758Y-56058638D01*
X70182023Y-56166185D01*
X70133411Y-56279478D01*
X70089008Y-56392924D01*
X70050900Y-56500931D01*
X70021172Y-56597904D01*
X70001911Y-56678251D01*
X69995200Y-56735561D01*
X69995728Y-56764994D01*
X69998983Y-56788631D01*
X70007475Y-56807108D01*
X70023715Y-56821060D01*
X70050211Y-56831123D01*
X70089473Y-56837931D01*
X70144011Y-56842121D01*
X70216335Y-56844328D01*
X70308953Y-56845187D01*
X70424377Y-56845333D01*
X70428748Y-56845333D01*
X70540536Y-56845340D01*
X70629823Y-56844929D01*
X70699507Y-56843455D01*
X70752488Y-56840271D01*
X70791665Y-56834732D01*
X70819935Y-56826191D01*
X70840197Y-56814003D01*
X70855350Y-56797521D01*
X70868293Y-56776099D01*
X70881925Y-56749092D01*
X70884602Y-56743733D01*
X70984494Y-56574893D01*
X71104125Y-56426374D01*
X71242688Y-56298580D01*
X71399377Y-56191917D01*
X71573388Y-56106790D01*
X71763913Y-56043604D01*
X71970147Y-56002764D01*
X72191285Y-55984676D01*
X72389150Y-55987424D01*
X72616716Y-56010522D01*
X72824326Y-56054184D01*
X73012533Y-56118988D01*
X73181888Y-56205514D01*
X73332943Y-56314343D01*
X73466250Y-56446053D01*
X73582360Y-56601224D01*
X73681826Y-56780437D01*
X73765198Y-56984270D01*
X73833029Y-57213303D01*
X73885871Y-57468117D01*
X73903012Y-57577941D01*
X73911700Y-57661285D01*
X73918464Y-57771664D01*
X73923303Y-57902346D01*
X73926218Y-58046598D01*
X73927210Y-58197685D01*
X73926277Y-58348875D01*
X73923420Y-58493433D01*
X73918639Y-58624627D01*
X73911934Y-58735723D01*
X73903305Y-58819988D01*
X73903012Y-58822059D01*
X73855338Y-59090467D01*
X73792834Y-59331515D01*
X73715417Y-59545422D01*
X73623005Y-59732404D01*
X73515512Y-59892678D01*
X73467744Y-59949955D01*
X73347635Y-60070532D01*
X73219540Y-60169500D01*
X73078355Y-60250196D01*
X72918975Y-60315959D01*
X72895978Y-60323811D01*
X72800244Y-60353349D01*
X72709253Y-60375651D01*
X72616974Y-60391543D01*
X72517379Y-60401853D01*
X72404436Y-60407409D01*
X72274850Y-60409038D01*
X72142955Y-60407342D01*
X72030322Y-60401704D01*
X71930922Y-60391295D01*
X71838724Y-60375289D01*
X71747699Y-60352858D01*
X71653723Y-60323811D01*
X71471334Y-60249485D01*
X71308648Y-60154467D01*
X71164727Y-60037794D01*
X71038630Y-59898503D01*
X70929416Y-59735631D01*
X70836146Y-59548217D01*
X70795046Y-59444600D01*
X70750764Y-59311416D01*
X70712286Y-59171279D01*
X70682203Y-59034936D01*
X70663104Y-58913134D01*
X70660292Y-58885558D01*
X70657099Y-58829835D01*
X70661172Y-58794753D01*
X70674425Y-58767847D01*
X70679436Y-58760886D01*
X70685357Y-58753456D01*
X70692409Y-58747127D01*
X70702543Y-58741812D01*
X70717713Y-58737421D01*
X70739870Y-58733866D01*
X70770969Y-58731060D01*
X70812961Y-58728913D01*
X70867800Y-58727337D01*
X70937438Y-58726244D01*
X71023828Y-58725546D01*
X71128922Y-58725154D01*
X71254674Y-58724979D01*
X71403037Y-58724935D01*
X71474030Y-58724933D01*
X72241660Y-58724933D01*
X72261430Y-58687299D01*
X72267524Y-58671183D01*
X72272261Y-58646194D01*
X72275799Y-58608387D01*
X72278301Y-58553816D01*
X72279924Y-58478537D01*
X72280831Y-58378604D01*
X72281180Y-58250073D01*
X72281200Y-58200000D01*
X72281002Y-58061019D01*
X72280300Y-57951958D01*
X72278934Y-57868869D01*
X72276744Y-57807809D01*
X72273570Y-57764832D01*
X72269252Y-57735994D01*
X72263630Y-57717349D01*
X72261430Y-57712701D01*
X72241660Y-57675066D01*
X71061573Y-57675066D01*
X69881486Y-57675067D01*
X69858968Y-57720887D01*
X69852004Y-57738042D01*
X69846638Y-57760488D01*
X69842676Y-57792484D01*
X69839921Y-57838291D01*
X69838177Y-57902171D01*
X69837249Y-57988382D01*
X69836941Y-58101187D01*
X69836991Y-58199253D01*
X69838340Y-58400015D01*
X69842173Y-58574816D01*
X69848974Y-58731457D01*
X69859231Y-58877741D01*
X69873430Y-59021467D01*
X69892056Y-59170439D01*
X69901905Y-59240520D01*
X69957629Y-59553154D01*
X70030973Y-59841476D01*
X70122058Y-60105648D01*
X70231008Y-60345828D01*
X70357945Y-60562178D01*
X70502990Y-60754858D01*
X70666267Y-60924029D01*
X70847898Y-61069851D01*
X71048005Y-61192485D01*
X71266711Y-61292091D01*
X71504137Y-61368829D01*
X71530557Y-61375667D01*
X71646187Y-61399835D01*
X71781485Y-61419603D01*
X71930912Y-61434745D01*
X72088932Y-61445034D01*
X72250005Y-61450246D01*
X72408594Y-61450153D01*
X72559159Y-61444529D01*
X72696164Y-61433148D01*
X72754759Y-61425678D01*
X72976712Y-61385100D01*
X73179513Y-61329799D01*
X73367421Y-61258187D01*
X73544695Y-61168675D01*
X73691622Y-61076354D01*
X73866925Y-60940075D01*
X74024694Y-60783440D01*
X74165369Y-60605490D01*
X74289391Y-60405267D01*
X74397199Y-60181813D01*
X74489234Y-59934169D01*
X74565936Y-59661375D01*
X74627745Y-59362475D01*
X74675100Y-59036509D01*
X74689658Y-58902733D01*
X74698584Y-58786395D01*
X74705337Y-58643637D01*
X74709917Y-58481783D01*
X74712324Y-58308156D01*
X74712558Y-58130078D01*
X74710619Y-57954873D01*
X74706507Y-57789864D01*
X74700222Y-57642374D01*
X74691764Y-57519726D01*
X74689658Y-57497266D01*
X74647783Y-57160556D01*
X74591627Y-56851283D01*
X74520748Y-56568488D01*
X74434706Y-56311214D01*
X74333061Y-56078500D01*
X74215374Y-55869390D01*
X74081203Y-55682925D01*
X73930109Y-55518145D01*
X73761652Y-55374093D01*
X73691622Y-55323645D01*
X73527861Y-55221694D01*
X73357899Y-55137139D01*
X73178926Y-55069238D01*
X72988137Y-55017249D01*
X72782721Y-54980431D01*
X72559873Y-54958040D01*
X72316783Y-54949335D01*
X72274850Y-54949162D01*
X72020734Y-54956454D01*
G36*
X64601906Y-55048644D02*
G01*
X64520742Y-55051201D01*
X64447901Y-55055278D01*
X64387593Y-55060861D01*
X64344031Y-55067936D01*
X64321426Y-55076491D01*
X64321126Y-55076760D01*
X64292900Y-55103120D01*
X64292900Y-56852966D01*
X64292946Y-57149879D01*
X64293112Y-57415181D01*
X64293446Y-57651127D01*
X64293992Y-57859970D01*
X64294796Y-58043967D01*
X64295905Y-58205372D01*
X64297363Y-58346440D01*
X64299216Y-58469425D01*
X64301511Y-58576584D01*
X64304292Y-58670170D01*
X64307606Y-58752440D01*
X64311498Y-58825646D01*
X64316014Y-58892046D01*
X64321199Y-58953893D01*
X64327100Y-59013442D01*
X64333762Y-59072949D01*
X64338733Y-59114400D01*
X64387567Y-59430618D01*
X64453929Y-59725383D01*
X64537454Y-59997660D01*
X64637777Y-60246412D01*
X64754536Y-60470606D01*
X64884645Y-60665614D01*
X65029429Y-60836866D01*
X65188958Y-60986086D01*
X65364483Y-61114030D01*
X65557260Y-61221455D01*
X65768541Y-61309115D01*
X65999580Y-61377767D01*
X66105065Y-61401580D01*
X66163670Y-61412779D01*
X66221562Y-61421690D01*
X66282993Y-61428627D01*
X66352213Y-61433904D01*
X66433475Y-61437835D01*
X66531029Y-61440736D01*
X66649127Y-61442920D01*
X66667800Y-61443190D01*
X66771084Y-61444067D01*
X66871936Y-61443858D01*
X66965941Y-61442651D01*
X67048687Y-61440536D01*
X67115761Y-61437600D01*
X67162749Y-61433933D01*
X67169450Y-61433106D01*
X67428419Y-61386155D01*
X67667762Y-61318162D01*
X67887972Y-61228757D01*
X68089543Y-61117575D01*
X68272967Y-60984245D01*
X68438736Y-60828402D01*
X68587343Y-60649675D01*
X68719281Y-60447699D01*
X68835043Y-60222104D01*
X68856895Y-60172733D01*
X68936601Y-59961855D01*
X69006559Y-59722054D01*
X69066122Y-59456028D01*
X69114641Y-59166472D01*
X69133656Y-59021267D01*
X69138130Y-58983326D01*
X69142114Y-58947030D01*
X69145641Y-58910253D01*
X69148746Y-58870869D01*
X69151463Y-58826753D01*
X69153824Y-58775779D01*
X69155864Y-58715821D01*
X69157616Y-58644754D01*
X69159113Y-58560452D01*
X69160390Y-58460789D01*
X69161480Y-58343639D01*
X69162417Y-58206876D01*
X69163234Y-58048376D01*
X69163965Y-57866012D01*
X69164643Y-57657659D01*
X69165303Y-57421190D01*
X69165977Y-57154481D01*
X69166481Y-56946933D01*
X69170899Y-55109667D01*
X69143493Y-55080033D01*
X69133047Y-55071056D01*
X69118285Y-55064078D01*
X69096161Y-55058854D01*
X69063631Y-55055136D01*
X69017650Y-55052678D01*
X68955172Y-55051234D01*
X68873152Y-55050557D01*
X68777419Y-55050400D01*
X68672956Y-55050663D01*
X68590938Y-55051593D01*
X68528414Y-55053403D01*
X68482431Y-55056304D01*
X68450038Y-55060508D01*
X68428282Y-55066229D01*
X68414212Y-55073677D01*
X68410526Y-55076760D01*
X68382300Y-55103120D01*
X68382300Y-56708368D01*
X68382154Y-56980274D01*
X68381724Y-57237415D01*
X68381025Y-57477744D01*
X68380072Y-57699215D01*
X68378880Y-57899782D01*
X68377464Y-58077399D01*
X68375839Y-58230018D01*
X68374019Y-58355595D01*
X68372019Y-58452081D01*
X68369854Y-58517432D01*
X68369096Y-58531974D01*
X68342814Y-58822345D01*
X68300447Y-59086663D01*
X68241638Y-59325464D01*
X68166035Y-59539284D01*
X68073283Y-59728659D01*
X67963026Y-59894125D01*
X67834911Y-60036219D01*
X67688583Y-60155476D01*
X67523686Y-60252433D01*
X67339868Y-60327626D01*
X67147413Y-60379384D01*
X67055654Y-60393996D01*
X66946000Y-60403916D01*
X66824728Y-60409203D01*
X66698114Y-60409920D01*
X66572436Y-60406128D01*
X66453968Y-60397889D01*
X66348987Y-60385263D01*
X66273843Y-60370839D01*
X66074675Y-60310844D01*
X65895954Y-60231423D01*
X65736889Y-60131522D01*
X65596689Y-60010087D01*
X65474565Y-59866065D01*
X65369724Y-59698404D01*
X65281378Y-59506050D01*
X65208735Y-59287950D01*
X65151005Y-59043050D01*
X65114993Y-58826877D01*
X65110595Y-58794746D01*
X65106684Y-58763226D01*
X65103220Y-58730184D01*
X65100168Y-58693486D01*
X65097490Y-58650999D01*
X65095148Y-58600589D01*
X65093106Y-58540124D01*
X65091326Y-58467470D01*
X65089770Y-58380493D01*
X65088403Y-58277061D01*
X65087187Y-58155039D01*
X65086084Y-58012295D01*
X65085057Y-57846696D01*
X65084069Y-57656107D01*
X65083083Y-57438395D01*
X65082062Y-57191428D01*
X65080968Y-56913072D01*
X65080782Y-56865127D01*
X65079677Y-56582016D01*
X65078656Y-56330831D01*
X65077687Y-56109634D01*
X65076734Y-55916485D01*
X65075763Y-55749445D01*
X65074741Y-55606573D01*
X65073634Y-55485932D01*
X65072406Y-55385581D01*
X65071025Y-55303580D01*
X65069456Y-55237991D01*
X65067664Y-55186875D01*
X65065617Y-55148291D01*
X65063279Y-55120300D01*
X65060617Y-55100962D01*
X65057597Y-55088340D01*
X65054184Y-55080492D01*
X65050344Y-55075479D01*
X65049298Y-55074427D01*
X65027804Y-55065969D01*
X64985151Y-55059125D01*
X64925550Y-55053882D01*
X64853214Y-55050225D01*
X64772353Y-55048143D01*
X64687180Y-55047620D01*
X64601906Y-55048644D01*
G37*
X64601906Y-55048644D02*
X64520742Y-55051201D01*
X64447901Y-55055278D01*
X64387593Y-55060861D01*
X64344031Y-55067936D01*
X64321426Y-55076491D01*
X64321126Y-55076760D01*
X64292900Y-55103120D01*
X64292900Y-56852966D01*
X64292946Y-57149879D01*
X64293112Y-57415181D01*
X64293446Y-57651127D01*
X64293992Y-57859970D01*
X64294796Y-58043967D01*
X64295905Y-58205372D01*
X64297363Y-58346440D01*
X64299216Y-58469425D01*
X64301511Y-58576584D01*
X64304292Y-58670170D01*
X64307606Y-58752440D01*
X64311498Y-58825646D01*
X64316014Y-58892046D01*
X64321199Y-58953893D01*
X64327100Y-59013442D01*
X64333762Y-59072949D01*
X64338733Y-59114400D01*
X64387567Y-59430618D01*
X64453929Y-59725383D01*
X64537454Y-59997660D01*
X64637777Y-60246412D01*
X64754536Y-60470606D01*
X64884645Y-60665614D01*
X65029429Y-60836866D01*
X65188958Y-60986086D01*
X65364483Y-61114030D01*
X65557260Y-61221455D01*
X65768541Y-61309115D01*
X65999580Y-61377767D01*
X66105065Y-61401580D01*
X66163670Y-61412779D01*
X66221562Y-61421690D01*
X66282993Y-61428627D01*
X66352213Y-61433904D01*
X66433475Y-61437835D01*
X66531029Y-61440736D01*
X66649127Y-61442920D01*
X66667800Y-61443190D01*
X66771084Y-61444067D01*
X66871936Y-61443858D01*
X66965941Y-61442651D01*
X67048687Y-61440536D01*
X67115761Y-61437600D01*
X67162749Y-61433933D01*
X67169450Y-61433106D01*
X67428419Y-61386155D01*
X67667762Y-61318162D01*
X67887972Y-61228757D01*
X68089543Y-61117575D01*
X68272967Y-60984245D01*
X68438736Y-60828402D01*
X68587343Y-60649675D01*
X68719281Y-60447699D01*
X68835043Y-60222104D01*
X68856895Y-60172733D01*
X68936601Y-59961855D01*
X69006559Y-59722054D01*
X69066122Y-59456028D01*
X69114641Y-59166472D01*
X69133656Y-59021267D01*
X69138130Y-58983326D01*
X69142114Y-58947030D01*
X69145641Y-58910253D01*
X69148746Y-58870869D01*
X69151463Y-58826753D01*
X69153824Y-58775779D01*
X69155864Y-58715821D01*
X69157616Y-58644754D01*
X69159113Y-58560452D01*
X69160390Y-58460789D01*
X69161480Y-58343639D01*
X69162417Y-58206876D01*
X69163234Y-58048376D01*
X69163965Y-57866012D01*
X69164643Y-57657659D01*
X69165303Y-57421190D01*
X69165977Y-57154481D01*
X69166481Y-56946933D01*
X69170899Y-55109667D01*
X69143493Y-55080033D01*
X69133047Y-55071056D01*
X69118285Y-55064078D01*
X69096161Y-55058854D01*
X69063631Y-55055136D01*
X69017650Y-55052678D01*
X68955172Y-55051234D01*
X68873152Y-55050557D01*
X68777419Y-55050400D01*
X68672956Y-55050663D01*
X68590938Y-55051593D01*
X68528414Y-55053403D01*
X68482431Y-55056304D01*
X68450038Y-55060508D01*
X68428282Y-55066229D01*
X68414212Y-55073677D01*
X68410526Y-55076760D01*
X68382300Y-55103120D01*
X68382300Y-56708368D01*
X68382154Y-56980274D01*
X68381724Y-57237415D01*
X68381025Y-57477744D01*
X68380072Y-57699215D01*
X68378880Y-57899782D01*
X68377464Y-58077399D01*
X68375839Y-58230018D01*
X68374019Y-58355595D01*
X68372019Y-58452081D01*
X68369854Y-58517432D01*
X68369096Y-58531974D01*
X68342814Y-58822345D01*
X68300447Y-59086663D01*
X68241638Y-59325464D01*
X68166035Y-59539284D01*
X68073283Y-59728659D01*
X67963026Y-59894125D01*
X67834911Y-60036219D01*
X67688583Y-60155476D01*
X67523686Y-60252433D01*
X67339868Y-60327626D01*
X67147413Y-60379384D01*
X67055654Y-60393996D01*
X66946000Y-60403916D01*
X66824728Y-60409203D01*
X66698114Y-60409920D01*
X66572436Y-60406128D01*
X66453968Y-60397889D01*
X66348987Y-60385263D01*
X66273843Y-60370839D01*
X66074675Y-60310844D01*
X65895954Y-60231423D01*
X65736889Y-60131522D01*
X65596689Y-60010087D01*
X65474565Y-59866065D01*
X65369724Y-59698404D01*
X65281378Y-59506050D01*
X65208735Y-59287950D01*
X65151005Y-59043050D01*
X65114993Y-58826877D01*
X65110595Y-58794746D01*
X65106684Y-58763226D01*
X65103220Y-58730184D01*
X65100168Y-58693486D01*
X65097490Y-58650999D01*
X65095148Y-58600589D01*
X65093106Y-58540124D01*
X65091326Y-58467470D01*
X65089770Y-58380493D01*
X65088403Y-58277061D01*
X65087187Y-58155039D01*
X65086084Y-58012295D01*
X65085057Y-57846696D01*
X65084069Y-57656107D01*
X65083083Y-57438395D01*
X65082062Y-57191428D01*
X65080968Y-56913072D01*
X65080782Y-56865127D01*
X65079677Y-56582016D01*
X65078656Y-56330831D01*
X65077687Y-56109634D01*
X65076734Y-55916485D01*
X65075763Y-55749445D01*
X65074741Y-55606573D01*
X65073634Y-55485932D01*
X65072406Y-55385581D01*
X65071025Y-55303580D01*
X65069456Y-55237991D01*
X65067664Y-55186875D01*
X65065617Y-55148291D01*
X65063279Y-55120300D01*
X65060617Y-55100962D01*
X65057597Y-55088340D01*
X65054184Y-55080492D01*
X65050344Y-55075479D01*
X65049298Y-55074427D01*
X65027804Y-55065969D01*
X64985151Y-55059125D01*
X64925550Y-55053882D01*
X64853214Y-55050225D01*
X64772353Y-55048143D01*
X64687180Y-55047620D01*
X64601906Y-55048644D01*
G36*
X79259149Y-54958220D02*
G01*
X79146222Y-54959520D01*
X79050150Y-54962410D01*
X78966664Y-54967331D01*
X78891493Y-54974725D01*
X78820369Y-54985033D01*
X78749022Y-54998697D01*
X78673182Y-55016158D01*
X78588579Y-55037857D01*
X78567700Y-55043422D01*
X78345170Y-55117210D01*
X78135341Y-55215467D01*
X77940152Y-55336946D01*
X77761540Y-55480401D01*
X77601444Y-55644583D01*
X77564355Y-55688950D01*
X77461537Y-55832111D01*
X77362499Y-56001344D01*
X77271444Y-56188861D01*
X77202302Y-56359959D01*
X77139990Y-56540952D01*
X77090410Y-56712761D01*
X77050008Y-56889293D01*
X77015227Y-57084455D01*
X77012258Y-57103362D01*
X77001014Y-57176104D01*
X76990981Y-57243147D01*
X76982082Y-57306779D01*
X76974242Y-57369288D01*
X76967386Y-57432959D01*
X76961437Y-57500081D01*
X76956321Y-57572941D01*
X76951961Y-57653826D01*
X76948282Y-57745024D01*
X76945209Y-57848821D01*
X76942665Y-57967504D01*
X76940575Y-58103362D01*
X76938863Y-58258682D01*
X76937454Y-58435750D01*
X76936272Y-58636854D01*
X76935242Y-58864281D01*
X76934287Y-59120319D01*
X76933333Y-59407255D01*
X76933037Y-59499050D01*
X76927371Y-61263766D01*
X76959558Y-61306683D01*
X76991746Y-61349600D01*
X77323358Y-61349600D01*
X77431139Y-61349236D01*
X77516427Y-61347863D01*
X77582124Y-61345060D01*
X77631132Y-61340406D01*
X77666354Y-61333478D01*
X77690693Y-61323855D01*
X77707051Y-61311116D01*
X77718330Y-61294839D01*
X77719781Y-61292032D01*
X77721498Y-61272106D01*
X77723120Y-61221388D01*
X77724616Y-61142949D01*
X77725957Y-61039865D01*
X77727114Y-60915208D01*
X77728057Y-60772052D01*
X77728757Y-60613470D01*
X77729183Y-60442535D01*
X77729306Y-60303967D01*
X77729369Y-60098377D01*
X77729516Y-59923979D01*
X77729815Y-59778096D01*
X77730333Y-59658054D01*
X77731139Y-59561176D01*
X77732302Y-59484787D01*
X77733889Y-59426211D01*
X77735969Y-59382774D01*
X77738610Y-59351799D01*
X77741881Y-59330611D01*
X77745849Y-59316534D01*
X77750583Y-59306894D01*
X77754900Y-59300667D01*
X77758987Y-59295693D01*
X77764275Y-59291232D01*
X77772095Y-59287255D01*
X77783778Y-59283735D01*
X77800654Y-59280644D01*
X77824053Y-59277954D01*
X77855308Y-59275637D01*
X77895747Y-59273665D01*
X77946702Y-59272011D01*
X78009504Y-59270646D01*
X78085482Y-59269543D01*
X78175968Y-59268674D01*
X78282292Y-59268011D01*
X78405785Y-59267526D01*
X78547777Y-59267192D01*
X78709599Y-59266980D01*
X78892582Y-59266862D01*
X79098056Y-59266812D01*
X79327352Y-59266800D01*
X79372744Y-59266800D01*
X79606748Y-59266812D01*
X79816685Y-59266865D01*
X80003891Y-59266987D01*
X80169697Y-59267203D01*
X80315438Y-59267541D01*
X80442448Y-59268027D01*
X80552060Y-59268687D01*
X80645608Y-59269549D01*
X80724426Y-59270638D01*
X80789847Y-59271982D01*
X80843205Y-59273606D01*
X80885835Y-59275539D01*
X80919068Y-59277805D01*
X80944240Y-59280432D01*
X80962684Y-59283447D01*
X80975734Y-59286876D01*
X80984723Y-59290745D01*
X80990986Y-59295082D01*
X80995169Y-59299163D01*
X81025150Y-59331527D01*
X81028363Y-60310930D01*
X81029056Y-60517521D01*
X81029722Y-60692894D01*
X81030441Y-60839700D01*
X81031291Y-60960588D01*
X81032351Y-61058207D01*
X81033700Y-61135206D01*
X81035417Y-61194236D01*
X81037579Y-61237945D01*
X81040267Y-61268982D01*
X81043558Y-61289998D01*
X81047532Y-61303641D01*
X81052267Y-61312561D01*
X81057841Y-61319407D01*
X81058345Y-61319967D01*
X81068539Y-61328907D01*
X81083045Y-61335865D01*
X81104890Y-61341083D01*
X81137098Y-61344805D01*
X81182694Y-61347274D01*
X81244705Y-61348734D01*
X81326154Y-61349428D01*
X81426607Y-61349600D01*
X81528870Y-61349483D01*
X81608776Y-61348947D01*
X81669370Y-61347709D01*
X81713695Y-61345489D01*
X81744795Y-61342006D01*
X81765713Y-61336979D01*
X81779494Y-61330128D01*
X81789181Y-61321170D01*
X81793500Y-61315733D01*
X81797663Y-61309623D01*
X81801343Y-61301728D01*
X81804572Y-61290046D01*
X81807379Y-61272578D01*
X81809793Y-61247322D01*
X81811844Y-61212279D01*
X81813561Y-61165447D01*
X81814975Y-61104827D01*
X81816114Y-61028419D01*
X81817008Y-60934221D01*
X81817688Y-60820233D01*
X81818181Y-60684455D01*
X81818519Y-60524886D01*
X81818730Y-60339526D01*
X81818844Y-60126375D01*
X81818891Y-59883432D01*
X81818900Y-59608696D01*
X81818900Y-59597922D01*
X81818752Y-59294245D01*
X81818311Y-59012333D01*
X81817589Y-58753519D01*
X81816595Y-58519136D01*
X81815338Y-58310517D01*
X81813828Y-58128993D01*
X81813046Y-58060625D01*
X81020510Y-58060625D01*
X81018634Y-58108189D01*
X81013276Y-58137904D01*
X81003278Y-58157762D01*
X80993663Y-58169255D01*
X80988605Y-58173788D01*
X80981390Y-58177853D01*
X80970683Y-58181475D01*
X80955152Y-58184681D01*
X80933462Y-58187494D01*
X80904281Y-58189942D01*
X80866275Y-58192049D01*
X80818111Y-58193840D01*
X80758454Y-58195341D01*
X80685973Y-58196578D01*
X80599332Y-58197575D01*
X80497200Y-58198359D01*
X80378242Y-58198955D01*
X80241125Y-58199387D01*
X80084516Y-58199683D01*
X79907081Y-58199866D01*
X79707487Y-58199962D01*
X79484401Y-58199997D01*
X79380806Y-58200000D01*
X79147589Y-58199995D01*
X78938431Y-58199961D01*
X78751991Y-58199868D01*
X78586930Y-58199688D01*
X78441906Y-58199391D01*
X78315578Y-58198948D01*
X78206606Y-58198331D01*
X78113649Y-58197510D01*
X78035367Y-58196456D01*
X77970419Y-58195140D01*
X77917463Y-58193532D01*
X77875161Y-58191605D01*
X77842169Y-58189328D01*
X77817149Y-58186673D01*
X77798759Y-58183611D01*
X77785659Y-58180112D01*
X77776508Y-58176148D01*
X77769965Y-58171688D01*
X77764690Y-58166705D01*
X77762963Y-58164904D01*
X77747459Y-58144014D01*
X77736821Y-58116037D01*
X77730889Y-58076407D01*
X77729502Y-58020556D01*
X77732501Y-57943916D01*
X77739723Y-57841922D01*
X77748109Y-57742696D01*
X77781727Y-57462995D01*
X77831260Y-57209445D01*
X77897034Y-56981460D01*
X77979372Y-56778457D01*
X78078599Y-56599849D01*
X78195039Y-56445051D01*
X78329017Y-56313479D01*
X78480857Y-56204548D01*
X78648846Y-56118539D01*
X78753227Y-56077376D01*
X78853289Y-56045625D01*
X78954704Y-56022272D01*
X79063149Y-56006300D01*
X79184296Y-55996694D01*
X79323820Y-55992439D01*
X79355100Y-55992136D01*
X79483322Y-55992584D01*
X79591847Y-55996319D01*
X79686306Y-56004077D01*
X79772331Y-56016598D01*
X79855552Y-56034620D01*
X79941601Y-56058881D01*
X79994737Y-56076006D01*
X80152239Y-56138034D01*
X80290571Y-56213847D01*
X80414805Y-56307110D01*
X80530012Y-56421491D01*
X80613740Y-56523600D01*
X80713070Y-56667757D01*
X80792574Y-56815124D01*
X80857288Y-56975852D01*
X80890961Y-57082400D01*
X80936274Y-57265058D01*
X80973542Y-57468283D01*
X81001017Y-57679834D01*
X81016952Y-57887469D01*
X81020064Y-57987222D01*
X81020510Y-58060625D01*
X81813046Y-58060625D01*
X81812075Y-57975898D01*
X81810087Y-57852564D01*
X81807875Y-57760323D01*
X81805449Y-57700508D01*
X81805245Y-57697155D01*
X81775398Y-57354141D01*
X81730689Y-57037955D01*
X81670976Y-56747823D01*
X81596118Y-56482974D01*
X81565804Y-56394694D01*
X81502890Y-56230624D01*
X81439835Y-56089900D01*
X81371463Y-55962672D01*
X81292601Y-55839092D01*
X81223206Y-55742539D01*
X81087411Y-55578005D01*
X80941282Y-55434825D01*
X80782633Y-55311665D01*
X80609273Y-55207193D01*
X80419013Y-55120079D01*
X80209666Y-55048991D01*
X79996450Y-54996204D01*
X79943784Y-54985685D01*
X79894353Y-54977300D01*
X79844313Y-54970808D01*
X79789822Y-54965964D01*
X79727035Y-54962526D01*
X79652109Y-54960251D01*
X79561199Y-54958895D01*
X79450461Y-54958217D01*
X79393200Y-54958068D01*
X79259149Y-54958220D01*
G37*
X79259149Y-54958220D02*
X79146222Y-54959520D01*
X79050150Y-54962410D01*
X78966664Y-54967331D01*
X78891493Y-54974725D01*
X78820369Y-54985033D01*
X78749022Y-54998697D01*
X78673182Y-55016158D01*
X78588579Y-55037857D01*
X78567700Y-55043422D01*
X78345170Y-55117210D01*
X78135341Y-55215467D01*
X77940152Y-55336946D01*
X77761540Y-55480401D01*
X77601444Y-55644583D01*
X77564355Y-55688950D01*
X77461537Y-55832111D01*
X77362499Y-56001344D01*
X77271444Y-56188861D01*
X77202302Y-56359959D01*
X77139990Y-56540952D01*
X77090410Y-56712761D01*
X77050008Y-56889293D01*
X77015227Y-57084455D01*
X77012258Y-57103362D01*
X77001014Y-57176104D01*
X76990981Y-57243147D01*
X76982082Y-57306779D01*
X76974242Y-57369288D01*
X76967386Y-57432959D01*
X76961437Y-57500081D01*
X76956321Y-57572941D01*
X76951961Y-57653826D01*
X76948282Y-57745024D01*
X76945209Y-57848821D01*
X76942665Y-57967504D01*
X76940575Y-58103362D01*
X76938863Y-58258682D01*
X76937454Y-58435750D01*
X76936272Y-58636854D01*
X76935242Y-58864281D01*
X76934287Y-59120319D01*
X76933333Y-59407255D01*
X76933037Y-59499050D01*
X76927371Y-61263766D01*
X76959558Y-61306683D01*
X76991746Y-61349600D01*
X77323358Y-61349600D01*
X77431139Y-61349236D01*
X77516427Y-61347863D01*
X77582124Y-61345060D01*
X77631132Y-61340406D01*
X77666354Y-61333478D01*
X77690693Y-61323855D01*
X77707051Y-61311116D01*
X77718330Y-61294839D01*
X77719781Y-61292032D01*
X77721498Y-61272106D01*
X77723120Y-61221388D01*
X77724616Y-61142949D01*
X77725957Y-61039865D01*
X77727114Y-60915208D01*
X77728057Y-60772052D01*
X77728757Y-60613470D01*
X77729183Y-60442535D01*
X77729306Y-60303967D01*
X77729369Y-60098377D01*
X77729516Y-59923979D01*
X77729815Y-59778096D01*
X77730333Y-59658054D01*
X77731139Y-59561176D01*
X77732302Y-59484787D01*
X77733889Y-59426211D01*
X77735969Y-59382774D01*
X77738610Y-59351799D01*
X77741881Y-59330611D01*
X77745849Y-59316534D01*
X77750583Y-59306894D01*
X77754900Y-59300667D01*
X77758987Y-59295693D01*
X77764275Y-59291232D01*
X77772095Y-59287255D01*
X77783778Y-59283735D01*
X77800654Y-59280644D01*
X77824053Y-59277954D01*
X77855308Y-59275637D01*
X77895747Y-59273665D01*
X77946702Y-59272011D01*
X78009504Y-59270646D01*
X78085482Y-59269543D01*
X78175968Y-59268674D01*
X78282292Y-59268011D01*
X78405785Y-59267526D01*
X78547777Y-59267192D01*
X78709599Y-59266980D01*
X78892582Y-59266862D01*
X79098056Y-59266812D01*
X79327352Y-59266800D01*
X79372744Y-59266800D01*
X79606748Y-59266812D01*
X79816685Y-59266865D01*
X80003891Y-59266987D01*
X80169697Y-59267203D01*
X80315438Y-59267541D01*
X80442448Y-59268027D01*
X80552060Y-59268687D01*
X80645608Y-59269549D01*
X80724426Y-59270638D01*
X80789847Y-59271982D01*
X80843205Y-59273606D01*
X80885835Y-59275539D01*
X80919068Y-59277805D01*
X80944240Y-59280432D01*
X80962684Y-59283447D01*
X80975734Y-59286876D01*
X80984723Y-59290745D01*
X80990986Y-59295082D01*
X80995169Y-59299163D01*
X81025150Y-59331527D01*
X81028363Y-60310930D01*
X81029056Y-60517521D01*
X81029722Y-60692894D01*
X81030441Y-60839700D01*
X81031291Y-60960588D01*
X81032351Y-61058207D01*
X81033700Y-61135206D01*
X81035417Y-61194236D01*
X81037579Y-61237945D01*
X81040267Y-61268982D01*
X81043558Y-61289998D01*
X81047532Y-61303641D01*
X81052267Y-61312561D01*
X81057841Y-61319407D01*
X81058345Y-61319967D01*
X81068539Y-61328907D01*
X81083045Y-61335865D01*
X81104890Y-61341083D01*
X81137098Y-61344805D01*
X81182694Y-61347274D01*
X81244705Y-61348734D01*
X81326154Y-61349428D01*
X81426607Y-61349600D01*
X81528870Y-61349483D01*
X81608776Y-61348947D01*
X81669370Y-61347709D01*
X81713695Y-61345489D01*
X81744795Y-61342006D01*
X81765713Y-61336979D01*
X81779494Y-61330128D01*
X81789181Y-61321170D01*
X81793500Y-61315733D01*
X81797663Y-61309623D01*
X81801343Y-61301728D01*
X81804572Y-61290046D01*
X81807379Y-61272578D01*
X81809793Y-61247322D01*
X81811844Y-61212279D01*
X81813561Y-61165447D01*
X81814975Y-61104827D01*
X81816114Y-61028419D01*
X81817008Y-60934221D01*
X81817688Y-60820233D01*
X81818181Y-60684455D01*
X81818519Y-60524886D01*
X81818730Y-60339526D01*
X81818844Y-60126375D01*
X81818891Y-59883432D01*
X81818900Y-59608696D01*
X81818900Y-59597922D01*
X81818752Y-59294245D01*
X81818311Y-59012333D01*
X81817589Y-58753519D01*
X81816595Y-58519136D01*
X81815338Y-58310517D01*
X81813828Y-58128993D01*
X81813046Y-58060625D01*
X81020510Y-58060625D01*
X81018634Y-58108189D01*
X81013276Y-58137904D01*
X81003278Y-58157762D01*
X80993663Y-58169255D01*
X80988605Y-58173788D01*
X80981390Y-58177853D01*
X80970683Y-58181475D01*
X80955152Y-58184681D01*
X80933462Y-58187494D01*
X80904281Y-58189942D01*
X80866275Y-58192049D01*
X80818111Y-58193840D01*
X80758454Y-58195341D01*
X80685973Y-58196578D01*
X80599332Y-58197575D01*
X80497200Y-58198359D01*
X80378242Y-58198955D01*
X80241125Y-58199387D01*
X80084516Y-58199683D01*
X79907081Y-58199866D01*
X79707487Y-58199962D01*
X79484401Y-58199997D01*
X79380806Y-58200000D01*
X79147589Y-58199995D01*
X78938431Y-58199961D01*
X78751991Y-58199868D01*
X78586930Y-58199688D01*
X78441906Y-58199391D01*
X78315578Y-58198948D01*
X78206606Y-58198331D01*
X78113649Y-58197510D01*
X78035367Y-58196456D01*
X77970419Y-58195140D01*
X77917463Y-58193532D01*
X77875161Y-58191605D01*
X77842169Y-58189328D01*
X77817149Y-58186673D01*
X77798759Y-58183611D01*
X77785659Y-58180112D01*
X77776508Y-58176148D01*
X77769965Y-58171688D01*
X77764690Y-58166705D01*
X77762963Y-58164904D01*
X77747459Y-58144014D01*
X77736821Y-58116037D01*
X77730889Y-58076407D01*
X77729502Y-58020556D01*
X77732501Y-57943916D01*
X77739723Y-57841922D01*
X77748109Y-57742696D01*
X77781727Y-57462995D01*
X77831260Y-57209445D01*
X77897034Y-56981460D01*
X77979372Y-56778457D01*
X78078599Y-56599849D01*
X78195039Y-56445051D01*
X78329017Y-56313479D01*
X78480857Y-56204548D01*
X78648846Y-56118539D01*
X78753227Y-56077376D01*
X78853289Y-56045625D01*
X78954704Y-56022272D01*
X79063149Y-56006300D01*
X79184296Y-55996694D01*
X79323820Y-55992439D01*
X79355100Y-55992136D01*
X79483322Y-55992584D01*
X79591847Y-55996319D01*
X79686306Y-56004077D01*
X79772331Y-56016598D01*
X79855552Y-56034620D01*
X79941601Y-56058881D01*
X79994737Y-56076006D01*
X80152239Y-56138034D01*
X80290571Y-56213847D01*
X80414805Y-56307110D01*
X80530012Y-56421491D01*
X80613740Y-56523600D01*
X80713070Y-56667757D01*
X80792574Y-56815124D01*
X80857288Y-56975852D01*
X80890961Y-57082400D01*
X80936274Y-57265058D01*
X80973542Y-57468283D01*
X81001017Y-57679834D01*
X81016952Y-57887469D01*
X81020064Y-57987222D01*
X81020510Y-58060625D01*
X81813046Y-58060625D01*
X81812075Y-57975898D01*
X81810087Y-57852564D01*
X81807875Y-57760323D01*
X81805449Y-57700508D01*
X81805245Y-57697155D01*
X81775398Y-57354141D01*
X81730689Y-57037955D01*
X81670976Y-56747823D01*
X81596118Y-56482974D01*
X81565804Y-56394694D01*
X81502890Y-56230624D01*
X81439835Y-56089900D01*
X81371463Y-55962672D01*
X81292601Y-55839092D01*
X81223206Y-55742539D01*
X81087411Y-55578005D01*
X80941282Y-55434825D01*
X80782633Y-55311665D01*
X80609273Y-55207193D01*
X80419013Y-55120079D01*
X80209666Y-55048991D01*
X79996450Y-54996204D01*
X79943784Y-54985685D01*
X79894353Y-54977300D01*
X79844313Y-54970808D01*
X79789822Y-54965964D01*
X79727035Y-54962526D01*
X79652109Y-54960251D01*
X79561199Y-54958895D01*
X79450461Y-54958217D01*
X79393200Y-54958068D01*
X79259149Y-54958220D01*
G36*
X75681546Y-55050517D02*
G01*
X75601866Y-55051058D01*
X75541484Y-55052304D01*
X75497348Y-55054539D01*
X75466409Y-55058046D01*
X75445615Y-55063106D01*
X75431915Y-55070003D01*
X75422258Y-55079020D01*
X75418100Y-55084267D01*
X75414977Y-55088799D01*
X75412120Y-55094676D01*
X75409519Y-55103364D01*
X75407161Y-55116327D01*
X75405035Y-55135032D01*
X75403127Y-55160942D01*
X75401428Y-55195525D01*
X75399923Y-55240244D01*
X75398603Y-55296566D01*
X75397454Y-55365956D01*
X75396465Y-55449878D01*
X75395623Y-55549799D01*
X75394917Y-55667184D01*
X75394335Y-55803498D01*
X75393865Y-55960207D01*
X75393495Y-56138775D01*
X75393213Y-56340668D01*
X75393007Y-56567352D01*
X75392866Y-56820292D01*
X75392776Y-57100953D01*
X75392727Y-57410800D01*
X75392705Y-57751300D01*
X75392701Y-58123916D01*
X75392700Y-58200000D01*
X75392704Y-58579013D01*
X75392721Y-58925624D01*
X75392764Y-59241300D01*
X75392845Y-59527505D01*
X75392975Y-59785705D01*
X75393168Y-60017365D01*
X75393434Y-60223950D01*
X75393786Y-60406926D01*
X75394236Y-60567758D01*
X75394795Y-60707912D01*
X75395476Y-60828852D01*
X75396290Y-60932044D01*
X75397250Y-61018954D01*
X75398367Y-61091047D01*
X75399653Y-61149788D01*
X75401121Y-61196642D01*
X75402782Y-61233076D01*
X75404648Y-61260553D01*
X75406731Y-61280540D01*
X75409043Y-61294502D01*
X75411596Y-61303904D01*
X75414402Y-61310212D01*
X75417473Y-61314891D01*
X75418100Y-61315733D01*
X75426893Y-61325885D01*
X75438242Y-61333780D01*
X75455198Y-61339700D01*
X75480812Y-61343928D01*
X75518136Y-61346747D01*
X75570219Y-61348440D01*
X75640114Y-61349289D01*
X75730872Y-61349578D01*
X75783575Y-61349600D01*
X75888264Y-61349339D01*
X75970501Y-61348414D01*
X76033231Y-61346616D01*
X76079400Y-61343734D01*
X76111952Y-61339556D01*
X76133834Y-61333871D01*
X76147990Y-61326470D01*
X76151875Y-61323240D01*
X76180100Y-61296879D01*
X76180100Y-55103120D01*
X76151875Y-55076760D01*
X76139839Y-55068667D01*
X76121171Y-55062369D01*
X76092928Y-55057656D01*
X76052163Y-55054317D01*
X75995930Y-55052140D01*
X75921285Y-55050916D01*
X75825282Y-55050433D01*
X75783575Y-55050400D01*
X75681546Y-55050517D01*
G37*
X75681546Y-55050517D02*
X75601866Y-55051058D01*
X75541484Y-55052304D01*
X75497348Y-55054539D01*
X75466409Y-55058046D01*
X75445615Y-55063106D01*
X75431915Y-55070003D01*
X75422258Y-55079020D01*
X75418100Y-55084267D01*
X75414977Y-55088799D01*
X75412120Y-55094676D01*
X75409519Y-55103364D01*
X75407161Y-55116327D01*
X75405035Y-55135032D01*
X75403127Y-55160942D01*
X75401428Y-55195525D01*
X75399923Y-55240244D01*
X75398603Y-55296566D01*
X75397454Y-55365956D01*
X75396465Y-55449878D01*
X75395623Y-55549799D01*
X75394917Y-55667184D01*
X75394335Y-55803498D01*
X75393865Y-55960207D01*
X75393495Y-56138775D01*
X75393213Y-56340668D01*
X75393007Y-56567352D01*
X75392866Y-56820292D01*
X75392776Y-57100953D01*
X75392727Y-57410800D01*
X75392705Y-57751300D01*
X75392701Y-58123916D01*
X75392700Y-58200000D01*
X75392704Y-58579013D01*
X75392721Y-58925624D01*
X75392764Y-59241300D01*
X75392845Y-59527505D01*
X75392975Y-59785705D01*
X75393168Y-60017365D01*
X75393434Y-60223950D01*
X75393786Y-60406926D01*
X75394236Y-60567758D01*
X75394795Y-60707912D01*
X75395476Y-60828852D01*
X75396290Y-60932044D01*
X75397250Y-61018954D01*
X75398367Y-61091047D01*
X75399653Y-61149788D01*
X75401121Y-61196642D01*
X75402782Y-61233076D01*
X75404648Y-61260553D01*
X75406731Y-61280540D01*
X75409043Y-61294502D01*
X75411596Y-61303904D01*
X75414402Y-61310212D01*
X75417473Y-61314891D01*
X75418100Y-61315733D01*
X75426893Y-61325885D01*
X75438242Y-61333780D01*
X75455198Y-61339700D01*
X75480812Y-61343928D01*
X75518136Y-61346747D01*
X75570219Y-61348440D01*
X75640114Y-61349289D01*
X75730872Y-61349578D01*
X75783575Y-61349600D01*
X75888264Y-61349339D01*
X75970501Y-61348414D01*
X76033231Y-61346616D01*
X76079400Y-61343734D01*
X76111952Y-61339556D01*
X76133834Y-61333871D01*
X76147990Y-61326470D01*
X76151875Y-61323240D01*
X76180100Y-61296879D01*
X76180100Y-55103120D01*
X76151875Y-55076760D01*
X76139839Y-55068667D01*
X76121171Y-55062369D01*
X76092928Y-55057656D01*
X76052163Y-55054317D01*
X75995930Y-55052140D01*
X75921285Y-55050916D01*
X75825282Y-55050433D01*
X75783575Y-55050400D01*
X75681546Y-55050517D01*
G36*
X61206800Y-54958068D02*
G01*
X61085898Y-54958521D01*
X60986551Y-54959542D01*
X60904915Y-54961374D01*
X60837147Y-54964259D01*
X60779402Y-54968441D01*
X60727837Y-54974162D01*
X60678608Y-54981666D01*
X60627871Y-54991196D01*
X60603550Y-54996204D01*
X60374535Y-55053615D01*
X60166638Y-55125816D01*
X59977672Y-55214139D01*
X59805448Y-55319914D01*
X59647775Y-55444475D01*
X59502467Y-55589153D01*
X59376795Y-55742539D01*
X59286626Y-55869870D01*
X59210842Y-55993436D01*
X59144268Y-56123087D01*
X59081729Y-56268671D01*
X59034197Y-56394694D01*
X58953916Y-56650735D01*
X58888831Y-56931783D01*
X58838800Y-57238610D01*
X58803681Y-57571991D01*
X58794756Y-57697155D01*
X58792313Y-57754311D01*
X58790083Y-57844000D01*
X58788077Y-57964890D01*
X58786305Y-58115647D01*
X58784775Y-58294939D01*
X58783497Y-58501435D01*
X58782482Y-58733800D01*
X58781737Y-58990704D01*
X58781274Y-59270812D01*
X58781101Y-59572793D01*
X58781100Y-59597922D01*
X58781109Y-59873869D01*
X58781154Y-60117951D01*
X58781265Y-60332166D01*
X58781472Y-60518516D01*
X58781805Y-60679001D01*
X58782292Y-60815621D01*
X58782964Y-60930378D01*
X58783850Y-61025271D01*
X58784979Y-61102300D01*
X58786382Y-61163467D01*
X58788088Y-61210772D01*
X58790126Y-61246215D01*
X58792526Y-61271796D01*
X58795318Y-61289517D01*
X58798531Y-61301376D01*
X58802194Y-61309376D01*
X58806338Y-61315516D01*
X58806500Y-61315733D01*
X58815274Y-61325866D01*
X58826599Y-61333751D01*
X58843517Y-61339668D01*
X58869074Y-61343899D01*
X58906312Y-61346724D01*
X58958276Y-61348424D01*
X59028008Y-61349281D01*
X59118553Y-61349576D01*
X59173394Y-61349600D01*
X59276592Y-61349416D01*
X59357416Y-61348703D01*
X59418892Y-61347216D01*
X59464045Y-61344713D01*
X59495899Y-61340950D01*
X59517481Y-61335683D01*
X59531814Y-61328670D01*
X59541656Y-61319967D01*
X59547304Y-61313173D01*
X59552105Y-61304527D01*
X59556139Y-61291378D01*
X59559484Y-61271076D01*
X59562219Y-61240974D01*
X59564422Y-61198420D01*
X59566173Y-61140767D01*
X59567549Y-61065363D01*
X59568631Y-60969561D01*
X59569495Y-60850710D01*
X59570222Y-60706162D01*
X59570890Y-60533266D01*
X59571577Y-60329374D01*
X59571638Y-60310930D01*
X59574850Y-59331527D01*
X59604832Y-59299163D01*
X59609824Y-59294408D01*
X59616407Y-59290142D01*
X59625914Y-59286340D01*
X59639680Y-59282974D01*
X59659038Y-59280019D01*
X59685321Y-59277447D01*
X59719865Y-59275231D01*
X59764001Y-59273346D01*
X59819065Y-59271765D01*
X59886389Y-59270461D01*
X59967308Y-59269407D01*
X60063155Y-59268577D01*
X60175264Y-59267944D01*
X60304968Y-59267482D01*
X60453602Y-59267164D01*
X60622498Y-59266963D01*
X60812992Y-59266854D01*
X61026415Y-59266808D01*
X61227257Y-59266800D01*
X61461132Y-59266807D01*
X61670937Y-59266849D01*
X61858003Y-59266952D01*
X62023661Y-59267144D01*
X62169242Y-59267453D01*
X62296075Y-59267908D01*
X62405492Y-59268536D01*
X62498824Y-59269365D01*
X62577400Y-59270422D01*
X62642552Y-59271736D01*
X62695611Y-59273334D01*
X62737905Y-59275244D01*
X62770768Y-59277495D01*
X62795528Y-59280114D01*
X62813517Y-59283128D01*
X62826065Y-59286566D01*
X62834503Y-59290456D01*
X62840161Y-59294825D01*
X62844370Y-59299701D01*
X62845100Y-59300667D01*
X62850487Y-59308696D01*
X62855053Y-59319052D01*
X62858868Y-59334409D01*
X62862000Y-59357444D01*
X62864516Y-59390832D01*
X62866486Y-59437248D01*
X62867978Y-59499367D01*
X62869060Y-59579867D01*
X62869799Y-59681421D01*
X62870265Y-59806705D01*
X62870526Y-59958396D01*
X62870650Y-60139168D01*
X62870695Y-60303967D01*
X62870890Y-60482339D01*
X62871380Y-60650735D01*
X62872138Y-60806078D01*
X62873132Y-60945297D01*
X62874334Y-61065317D01*
X62875713Y-61163066D01*
X62877240Y-61235469D01*
X62878886Y-61279454D01*
X62880220Y-61292032D01*
X62890982Y-61308882D01*
X62906382Y-61322132D01*
X62929322Y-61332200D01*
X62962704Y-61339510D01*
X63009432Y-61344483D01*
X63072407Y-61347540D01*
X63154532Y-61349103D01*
X63258711Y-61349593D01*
X63276643Y-61349600D01*
X63608255Y-61349600D01*
X63640443Y-61306683D01*
X63672630Y-61263766D01*
X63666964Y-59499050D01*
X63665995Y-59202467D01*
X63665048Y-58937464D01*
X63664048Y-58701752D01*
X63662919Y-58493045D01*
X63661586Y-58309055D01*
X63659972Y-58147496D01*
X63658397Y-58034317D01*
X62870058Y-58034317D01*
X62867462Y-58086564D01*
X62860373Y-58124148D01*
X62848689Y-58151760D01*
X62842887Y-58160808D01*
X62815273Y-58200000D01*
X61225044Y-58200000D01*
X60990982Y-58199983D01*
X60780989Y-58199917D01*
X60593734Y-58199775D01*
X60427887Y-58199532D01*
X60282116Y-58199164D01*
X60155091Y-58198644D01*
X60045480Y-58197948D01*
X59951954Y-58197051D01*
X59873180Y-58195926D01*
X59807828Y-58194549D01*
X59754568Y-58192895D01*
X59712068Y-58190938D01*
X59678997Y-58188653D01*
X59654025Y-58186014D01*
X59635820Y-58182997D01*
X59623053Y-58179576D01*
X59614391Y-58175725D01*
X59608504Y-58171420D01*
X59606338Y-58169255D01*
X59592679Y-58151541D01*
X59584424Y-58129232D01*
X59580420Y-58094339D01*
X59579512Y-58038871D01*
X59580048Y-57987222D01*
X59590643Y-57767951D01*
X59615154Y-57541926D01*
X59651851Y-57321281D01*
X59699003Y-57118150D01*
X59709040Y-57082400D01*
X59780656Y-56880079D01*
X59873023Y-56692250D01*
X59983463Y-56522699D01*
X60109296Y-56375212D01*
X60247843Y-56253571D01*
X60338567Y-56193023D01*
X60429549Y-56145819D01*
X60537340Y-56100516D01*
X60653365Y-56060295D01*
X60769051Y-56028333D01*
X60803922Y-56020511D01*
X60895404Y-56005949D01*
X61004816Y-55996065D01*
X61125882Y-55990798D01*
X61252329Y-55990085D01*
X61377882Y-55993864D01*
X61496266Y-56002073D01*
X61601207Y-56014649D01*
X61676958Y-56029161D01*
X61876765Y-56089766D01*
X62056708Y-56170682D01*
X62217289Y-56272643D01*
X62359011Y-56396382D01*
X62482376Y-56542631D01*
X62587887Y-56712122D01*
X62676045Y-56905588D01*
X62747353Y-57123762D01*
X62802314Y-57367377D01*
X62841429Y-57637165D01*
X62851892Y-57742696D01*
X62862172Y-57867074D01*
X62868260Y-57962717D01*
X62870058Y-58034317D01*
X63658397Y-58034317D01*
X63658003Y-58006079D01*
X63655602Y-57882518D01*
X63652694Y-57774525D01*
X63649203Y-57679813D01*
X63645054Y-57596095D01*
X63640171Y-57521084D01*
X63634479Y-57452492D01*
X63627901Y-57388031D01*
X63620362Y-57325416D01*
X63611787Y-57262357D01*
X63602099Y-57196569D01*
X63591224Y-57125764D01*
X63587743Y-57103362D01*
X63553293Y-56905846D01*
X63513540Y-56728210D01*
X63464930Y-56556546D01*
X63403906Y-56376945D01*
X63397699Y-56359959D01*
X63293908Y-56112992D01*
X63172791Y-55890313D01*
X63034169Y-55691752D01*
X62877865Y-55517136D01*
X62703701Y-55366296D01*
X62511501Y-55239061D01*
X62301086Y-55135259D01*
X62072279Y-55054720D01*
X62029336Y-55042737D01*
X61942936Y-55020179D01*
X61866003Y-55001930D01*
X61794285Y-54987550D01*
X61723531Y-54976603D01*
X61649489Y-54968650D01*
X61567906Y-54963253D01*
X61474530Y-54959976D01*
X61365110Y-54958380D01*
X61235394Y-54958028D01*
X61206800Y-54958068D01*
G37*
X61206800Y-54958068D02*
X61085898Y-54958521D01*
X60986551Y-54959542D01*
X60904915Y-54961374D01*
X60837147Y-54964259D01*
X60779402Y-54968441D01*
X60727837Y-54974162D01*
X60678608Y-54981666D01*
X60627871Y-54991196D01*
X60603550Y-54996204D01*
X60374535Y-55053615D01*
X60166638Y-55125816D01*
X59977672Y-55214139D01*
X59805448Y-55319914D01*
X59647775Y-55444475D01*
X59502467Y-55589153D01*
X59376795Y-55742539D01*
X59286626Y-55869870D01*
X59210842Y-55993436D01*
X59144268Y-56123087D01*
X59081729Y-56268671D01*
X59034197Y-56394694D01*
X58953916Y-56650735D01*
X58888831Y-56931783D01*
X58838800Y-57238610D01*
X58803681Y-57571991D01*
X58794756Y-57697155D01*
X58792313Y-57754311D01*
X58790083Y-57844000D01*
X58788077Y-57964890D01*
X58786305Y-58115647D01*
X58784775Y-58294939D01*
X58783497Y-58501435D01*
X58782482Y-58733800D01*
X58781737Y-58990704D01*
X58781274Y-59270812D01*
X58781101Y-59572793D01*
X58781100Y-59597922D01*
X58781109Y-59873869D01*
X58781154Y-60117951D01*
X58781265Y-60332166D01*
X58781472Y-60518516D01*
X58781805Y-60679001D01*
X58782292Y-60815621D01*
X58782964Y-60930378D01*
X58783850Y-61025271D01*
X58784979Y-61102300D01*
X58786382Y-61163467D01*
X58788088Y-61210772D01*
X58790126Y-61246215D01*
X58792526Y-61271796D01*
X58795318Y-61289517D01*
X58798531Y-61301376D01*
X58802194Y-61309376D01*
X58806338Y-61315516D01*
X58806500Y-61315733D01*
X58815274Y-61325866D01*
X58826599Y-61333751D01*
X58843517Y-61339668D01*
X58869074Y-61343899D01*
X58906312Y-61346724D01*
X58958276Y-61348424D01*
X59028008Y-61349281D01*
X59118553Y-61349576D01*
X59173394Y-61349600D01*
X59276592Y-61349416D01*
X59357416Y-61348703D01*
X59418892Y-61347216D01*
X59464045Y-61344713D01*
X59495899Y-61340950D01*
X59517481Y-61335683D01*
X59531814Y-61328670D01*
X59541656Y-61319967D01*
X59547304Y-61313173D01*
X59552105Y-61304527D01*
X59556139Y-61291378D01*
X59559484Y-61271076D01*
X59562219Y-61240974D01*
X59564422Y-61198420D01*
X59566173Y-61140767D01*
X59567549Y-61065363D01*
X59568631Y-60969561D01*
X59569495Y-60850710D01*
X59570222Y-60706162D01*
X59570890Y-60533266D01*
X59571577Y-60329374D01*
X59571638Y-60310930D01*
X59574850Y-59331527D01*
X59604832Y-59299163D01*
X59609824Y-59294408D01*
X59616407Y-59290142D01*
X59625914Y-59286340D01*
X59639680Y-59282974D01*
X59659038Y-59280019D01*
X59685321Y-59277447D01*
X59719865Y-59275231D01*
X59764001Y-59273346D01*
X59819065Y-59271765D01*
X59886389Y-59270461D01*
X59967308Y-59269407D01*
X60063155Y-59268577D01*
X60175264Y-59267944D01*
X60304968Y-59267482D01*
X60453602Y-59267164D01*
X60622498Y-59266963D01*
X60812992Y-59266854D01*
X61026415Y-59266808D01*
X61227257Y-59266800D01*
X61461132Y-59266807D01*
X61670937Y-59266849D01*
X61858003Y-59266952D01*
X62023661Y-59267144D01*
X62169242Y-59267453D01*
X62296075Y-59267908D01*
X62405492Y-59268536D01*
X62498824Y-59269365D01*
X62577400Y-59270422D01*
X62642552Y-59271736D01*
X62695611Y-59273334D01*
X62737905Y-59275244D01*
X62770768Y-59277495D01*
X62795528Y-59280114D01*
X62813517Y-59283128D01*
X62826065Y-59286566D01*
X62834503Y-59290456D01*
X62840161Y-59294825D01*
X62844370Y-59299701D01*
X62845100Y-59300667D01*
X62850487Y-59308696D01*
X62855053Y-59319052D01*
X62858868Y-59334409D01*
X62862000Y-59357444D01*
X62864516Y-59390832D01*
X62866486Y-59437248D01*
X62867978Y-59499367D01*
X62869060Y-59579867D01*
X62869799Y-59681421D01*
X62870265Y-59806705D01*
X62870526Y-59958396D01*
X62870650Y-60139168D01*
X62870695Y-60303967D01*
X62870890Y-60482339D01*
X62871380Y-60650735D01*
X62872138Y-60806078D01*
X62873132Y-60945297D01*
X62874334Y-61065317D01*
X62875713Y-61163066D01*
X62877240Y-61235469D01*
X62878886Y-61279454D01*
X62880220Y-61292032D01*
X62890982Y-61308882D01*
X62906382Y-61322132D01*
X62929322Y-61332200D01*
X62962704Y-61339510D01*
X63009432Y-61344483D01*
X63072407Y-61347540D01*
X63154532Y-61349103D01*
X63258711Y-61349593D01*
X63276643Y-61349600D01*
X63608255Y-61349600D01*
X63640443Y-61306683D01*
X63672630Y-61263766D01*
X63666964Y-59499050D01*
X63665995Y-59202467D01*
X63665048Y-58937464D01*
X63664048Y-58701752D01*
X63662919Y-58493045D01*
X63661586Y-58309055D01*
X63659972Y-58147496D01*
X63658397Y-58034317D01*
X62870058Y-58034317D01*
X62867462Y-58086564D01*
X62860373Y-58124148D01*
X62848689Y-58151760D01*
X62842887Y-58160808D01*
X62815273Y-58200000D01*
X61225044Y-58200000D01*
X60990982Y-58199983D01*
X60780989Y-58199917D01*
X60593734Y-58199775D01*
X60427887Y-58199532D01*
X60282116Y-58199164D01*
X60155091Y-58198644D01*
X60045480Y-58197948D01*
X59951954Y-58197051D01*
X59873180Y-58195926D01*
X59807828Y-58194549D01*
X59754568Y-58192895D01*
X59712068Y-58190938D01*
X59678997Y-58188653D01*
X59654025Y-58186014D01*
X59635820Y-58182997D01*
X59623053Y-58179576D01*
X59614391Y-58175725D01*
X59608504Y-58171420D01*
X59606338Y-58169255D01*
X59592679Y-58151541D01*
X59584424Y-58129232D01*
X59580420Y-58094339D01*
X59579512Y-58038871D01*
X59580048Y-57987222D01*
X59590643Y-57767951D01*
X59615154Y-57541926D01*
X59651851Y-57321281D01*
X59699003Y-57118150D01*
X59709040Y-57082400D01*
X59780656Y-56880079D01*
X59873023Y-56692250D01*
X59983463Y-56522699D01*
X60109296Y-56375212D01*
X60247843Y-56253571D01*
X60338567Y-56193023D01*
X60429549Y-56145819D01*
X60537340Y-56100516D01*
X60653365Y-56060295D01*
X60769051Y-56028333D01*
X60803922Y-56020511D01*
X60895404Y-56005949D01*
X61004816Y-55996065D01*
X61125882Y-55990798D01*
X61252329Y-55990085D01*
X61377882Y-55993864D01*
X61496266Y-56002073D01*
X61601207Y-56014649D01*
X61676958Y-56029161D01*
X61876765Y-56089766D01*
X62056708Y-56170682D01*
X62217289Y-56272643D01*
X62359011Y-56396382D01*
X62482376Y-56542631D01*
X62587887Y-56712122D01*
X62676045Y-56905588D01*
X62747353Y-57123762D01*
X62802314Y-57367377D01*
X62841429Y-57637165D01*
X62851892Y-57742696D01*
X62862172Y-57867074D01*
X62868260Y-57962717D01*
X62870058Y-58034317D01*
X63658397Y-58034317D01*
X63658003Y-58006079D01*
X63655602Y-57882518D01*
X63652694Y-57774525D01*
X63649203Y-57679813D01*
X63645054Y-57596095D01*
X63640171Y-57521084D01*
X63634479Y-57452492D01*
X63627901Y-57388031D01*
X63620362Y-57325416D01*
X63611787Y-57262357D01*
X63602099Y-57196569D01*
X63591224Y-57125764D01*
X63587743Y-57103362D01*
X63553293Y-56905846D01*
X63513540Y-56728210D01*
X63464930Y-56556546D01*
X63403906Y-56376945D01*
X63397699Y-56359959D01*
X63293908Y-56112992D01*
X63172791Y-55890313D01*
X63034169Y-55691752D01*
X62877865Y-55517136D01*
X62703701Y-55366296D01*
X62511501Y-55239061D01*
X62301086Y-55135259D01*
X62072279Y-55054720D01*
X62029336Y-55042737D01*
X61942936Y-55020179D01*
X61866003Y-55001930D01*
X61794285Y-54987550D01*
X61723531Y-54976603D01*
X61649489Y-54968650D01*
X61567906Y-54963253D01*
X61474530Y-54959976D01*
X61365110Y-54958380D01*
X61235394Y-54958028D01*
X61206800Y-54958068D01*
M02*
