M48
; DRILL file {KiCad (5.1.9)-1} date 01/28/21 11:08:13
; FORMAT={2:4/ absolute / inch / suppress leading zeros}
; #@! TF.CreationDate,2021-01-28T11:08:13-05:00
; #@! TF.GenerationSoftware,Kicad,Pcbnew,(5.1.9)-1
; #@! TF.FileFunction,Plated,1,2,PTH
FMAT,2
INCH,TZ
T1C0.0157
T2C0.0236
T3C0.0315
T4C0.0394
T5C0.0402
T6C0.0512
T7C0.0709
%
G90
G05
T1
X20118Y-20157
X20157Y-18425
X20236Y-24488
X20257Y-24095
X21811Y-23898
X21890Y-24803
X22283Y-25157
X22756Y-28858
X23780Y-27835
X24016Y-25472
X24016Y-26339
X26102Y-25394
X26142Y-25787
X26378Y-26142
X27323Y-23504
X29488Y-25197
X29488Y-25591
X29528Y-27165
X29528Y-28661
X30236Y-29528
X30630Y-27480
X31102Y-22283
X34331Y-24724
X34606Y-23307
X34764Y-25079
X36417Y-23346
X39114Y-24862
X39921Y-23937
X45866Y-12923
X45906Y-13661
X47598Y-13622
X47795Y-23937
X48071Y-24882
X48898Y-13504
X48898Y-16220
X49370Y-12923
X49488Y-15157
X49961Y-17480
X49985Y-24793
X50512Y-23937
X51535Y-25010
X51732Y-18465
X51772Y-17953
X52008Y-15157
X52717Y-13071
X53976Y-14331
X54606Y-14449
X55000Y-13504
X55433Y-16181
X55787Y-15000
X55984Y-16575
X55984Y-17913
X56378Y-19016
X56417Y-14449
X56417Y-18543
X56693Y-16181
X56693Y-17992
X56772Y-13071
X57126Y-23543
X57598Y-20157
X58425Y-24685
X58976Y-25276
X60433Y-13858
X60866Y-14173
X61575Y-24055
X61929Y-12244
X61969Y-15433
X62323Y-25669
X62638Y-14173
X62795Y-16024
X63228Y-17717
X63346Y-12283
X64055Y-11496
X64159Y-16470
X64173Y-17717
X66181Y-16929
X66614Y-13701
X70472Y-27559
X74409Y-18386
X78898Y-16024
X80669Y-17638
T3
X26732Y-20394
X28189Y-17441
T4
X26969Y-11142
X26969Y-13110
X38543Y-9094
X38543Y-15157
X60866Y-9213
X61866Y-9213
X62866Y-9213
X63866Y-9213
X64866Y-9213
T5
X25472Y-27559
X25472Y-28740
X31457Y-27559
X31457Y-28740
X37441Y-27559
X37441Y-28740
X43465Y-27559
X43465Y-28740
X49449Y-27559
X49449Y-28740
X55472Y-27559
X55472Y-28740
X61457Y-27559
X61457Y-28740
X67402Y-11622
X67402Y-12803
X67480Y-27559
X67480Y-28740
X68583Y-11622
X68583Y-12803
X73504Y-27559
X73504Y-28740
X74035Y-11622
X74035Y-12803
X75217Y-11622
X75217Y-12803
X79528Y-27559
X79528Y-28740
X80669Y-11622
X80669Y-12803
X81850Y-11622
X81850Y-12803
X84559Y-17598
X84559Y-18780
X84559Y-24764
X84559Y-25945
X85740Y-17598
X85740Y-18780
X85740Y-24764
X85740Y-25945
T6
X30039Y-18858
X38898Y-18858
T7
X22717Y-13425
X24882Y-13425
T2
G00X19272Y-22906
M15
G01X18681Y-22906
M16
G05
G00X19272Y-26307
M15
G01X18681Y-26307
M16
G05
G00X21283Y-22906
M15
G01X20890Y-22906
M16
G05
G00X21283Y-26307
M15
G01X20890Y-26307
M16
G05
T0
M30
